<svg width="72" height="72" viewBox="0 0 72 72" fill="none" xmlns="http://www.w3.org/2000/svg">
<g filter="url(#filter0_f_117_3)">
<circle cx="41.0126" cy="28.5595" r="1.33486" fill="#0F5B87"/>
</g>
<g filter="url(#filter1_f_117_3)">
<circle cx="36.3567" cy="36.3564" r="8.45598" transform="rotate(75 36.3567 36.3564)" fill="#FB5C02"/>
</g>
<circle cx="36.4519" cy="36.5691" r="16.0183" fill="#FD6F28"/>
<path d="M41.954 47.1055H30.734C29.874 47.1055 29.444 46.6855 29.444 45.8455C29.444 44.5055 29.654 43.3655 30.074 42.4255C30.504 41.4755 31.049 40.6755 31.709 40.0255C32.379 39.3655 33.089 38.8105 33.839 38.3605C34.589 37.9005 35.284 37.4855 35.924 37.1155C37.034 36.4855 37.959 35.9405 38.699 35.4805C39.449 35.0205 40.009 34.5505 40.379 34.0705C40.749 33.5905 40.934 33.0055 40.934 32.3155C40.934 31.1255 40.719 30.3255 40.289 29.9155C39.869 29.4955 39.074 29.2855 37.904 29.2855H34.694C33.754 29.2855 33.059 29.4105 32.609 29.6605C32.159 29.9105 31.874 30.3755 31.754 31.0555C31.684 31.4555 31.549 31.7605 31.349 31.9705C31.149 32.1805 30.844 32.2855 30.434 32.2855C30.014 32.2855 29.694 32.1755 29.474 31.9555C29.254 31.7255 29.164 31.3955 29.204 30.9655C29.414 29.5555 29.969 28.5055 30.869 27.8155C31.769 27.1155 33.044 26.7655 34.694 26.7655H37.904C39.784 26.7655 41.179 27.2205 42.089 28.1305C42.999 29.0405 43.454 30.4355 43.454 32.3155C43.454 33.5155 43.159 34.5205 42.569 35.3305C41.979 36.1305 41.204 36.8405 40.244 37.4605C39.284 38.0705 38.254 38.6855 37.154 39.3055C36.354 39.7655 35.594 40.2255 34.874 40.6855C34.164 41.1455 33.554 41.6805 33.044 42.2905C32.544 42.9005 32.214 43.6655 32.054 44.5855H41.954C42.794 44.5855 43.214 45.0055 43.214 45.8455C43.214 46.6855 42.794 47.1055 41.954 47.1055Z" fill="#1A1A1A"/>
<line x1="22.8813" y1="26.502" x2="25.996" y2="26.502" stroke="#00FDFF"/>
<line x1="25.7734" y1="27.8369" x2="28.8881" y2="27.8369" stroke="#00FDFF"/>
<line x1="20.2109" y1="27.8369" x2="23.3256" y2="27.8369" stroke="#00FDFF"/>
<line x1="45.5732" y1="48.082" x2="50.0228" y2="48.082" stroke="#00FDFF"/>
<defs>
<filter id="filter0_f_117_3" x="29.6777" y="17.2246" width="22.6699" height="22.6699" filterUnits="userSpaceOnUse" color-interpolation-filters="sRGB">
<feFlood flood-opacity="0" result="BackgroundImageFix"/>
<feBlend mode="normal" in="SourceGraphic" in2="BackgroundImageFix" result="shape"/>
<feGaussianBlur stdDeviation="5" result="effect1_foregroundBlur_117_3"/>
</filter>
<filter id="filter1_f_117_3" x="0.898438" y="0.898438" width="70.9165" height="70.916" filterUnits="userSpaceOnUse" color-interpolation-filters="sRGB">
<feFlood flood-opacity="0" result="BackgroundImageFix"/>
<feBlend mode="normal" in="SourceGraphic" in2="BackgroundImageFix" result="shape"/>
<feGaussianBlur stdDeviation="13.5" result="effect1_foregroundBlur_117_3"/>
</filter>
</defs>
</svg>
