<svg width="72" height="72" viewBox="0 0 72 72" fill="none" xmlns="http://www.w3.org/2000/svg">
<g filter="url(#filter0_f_117_4)">
<circle cx="36.3567" cy="36.3564" r="8.45598" transform="rotate(75 36.3567 36.3564)" fill="#FB5C02"/>
</g>
<circle cx="36.3118" cy="37.6697" r="16.0183" fill="#FD6F28"/>
<path d="M34.3183 48.4287C32.5683 48.4287 31.2133 48.0637 30.2533 47.3337C29.3033 46.5937 28.7283 45.4587 28.5283 43.9287C28.4883 43.5087 28.5783 43.1837 28.7983 42.9537C29.0183 42.7237 29.3383 42.6087 29.7583 42.6087C30.5283 42.6087 30.9583 43.0287 31.0483 43.8687C31.1883 44.6487 31.5033 45.1837 31.9933 45.4737C32.4833 45.7637 33.2583 45.9087 34.3183 45.9087H37.7383C39.0283 45.9087 39.9033 45.6787 40.3633 45.2187C40.8333 44.7487 41.0683 43.8787 41.0683 42.6087C41.0683 41.3487 40.8333 40.4837 40.3633 40.0137C39.9033 39.5437 39.0283 39.3087 37.7383 39.3087H35.4283C34.5883 39.3087 34.1683 38.8887 34.1683 38.0487C34.1683 37.2087 34.5883 36.7887 35.4283 36.7887H38.8783C39.5083 36.7887 39.9483 36.5087 40.1983 35.9487C40.4583 35.3787 40.5883 34.6087 40.5883 33.6387C40.5883 32.4487 40.3733 31.6487 39.9433 31.2387C39.5233 30.8187 38.7283 30.6087 37.5583 30.6087H34.6483C33.7083 30.6087 33.0133 30.7337 32.5633 30.9837C32.1133 31.2337 31.8283 31.6987 31.7083 32.3787C31.5883 33.1987 31.1483 33.6087 30.3883 33.6087C29.9683 33.6087 29.6483 33.4987 29.4283 33.2787C29.2083 33.0487 29.1283 32.7187 29.1883 32.2887C29.3883 30.8787 29.9383 29.8287 30.8383 29.1387C31.7483 28.4387 33.0183 28.0887 34.6483 28.0887H37.5583C39.4383 28.0887 40.8333 28.5437 41.7433 29.4537C42.6533 30.3637 43.1083 31.7587 43.1083 33.6387C43.1083 35.4887 42.5883 36.7987 41.5483 37.5687C42.2383 38.0187 42.7483 38.6587 43.0783 39.4887C43.4183 40.3187 43.5883 41.3587 43.5883 42.6087C43.5883 44.5887 43.1133 46.0537 42.1633 47.0037C41.2133 47.9537 39.7383 48.4287 37.7383 48.4287H34.3183Z" fill="#1A1A1A"/>
<line x1="42" y1="23.5" x2="45" y2="23.5" stroke="#00FDFF"/>
<line x1="44" y1="25.5" x2="48" y2="25.5" stroke="#00FDFF"/>
<line x1="39" y1="25.5" x2="42" y2="25.5" stroke="#00FDFF"/>
<line x1="30" y1="52.5" x2="27" y2="52.5" stroke="#00FDFF"/>
<line x1="28" y1="50.5" x2="25" y2="50.5" stroke="#00FDFF"/>
<line x1="32" y1="50.5" x2="29" y2="50.5" stroke="#00FDFF"/>
<defs>
<filter id="filter0_f_117_4" x="0.898438" y="0.898438" width="70.916" height="70.916" filterUnits="userSpaceOnUse" color-interpolation-filters="sRGB">
<feFlood flood-opacity="0" result="BackgroundImageFix"/>
<feBlend mode="normal" in="SourceGraphic" in2="BackgroundImageFix" result="shape"/>
<feGaussianBlur stdDeviation="13.5" result="effect1_foregroundBlur_117_4"/>
</filter>
</defs>
</svg>
