<svg width="15" height="15" viewBox="0 0 15 15" fill="none" xmlns="http://www.w3.org/2000/svg">
<path d="M10.2486 0.532227L4.95837 0.532227C2.52396 0.532227 0.549805 2.55578 0.549805 5.05112L0.549805 10.4738C0.549805 12.9691 2.52396 14.9927 4.95837 14.9927H10.2486C12.6831 14.9927 14.6572 12.9691 14.6572 10.4738V5.05112C14.6572 2.55578 12.6831 0.532227 10.2486 0.532227ZM13.3346 10.4738C13.3346 12.2181 11.9503 13.637 10.2486 13.637H4.95837C3.25666 13.637 1.87237 12.2181 1.87237 10.4738L1.87237 5.05112C1.87237 3.30682 3.25666 1.88789 4.95837 1.88789L10.2486 1.88789C11.9503 1.88789 13.3346 3.30682 13.3346 5.05112V10.4738Z" fill="#F5F5F5"/>
<path d="M7.604 4.14746C5.6563 4.14746 4.07715 5.76613 4.07715 7.76257C4.07715 9.75902 5.6563 11.3777 7.604 11.3777C9.5517 11.3777 11.1308 9.75902 11.1308 7.76257C11.1308 5.76613 9.5517 4.14746 7.604 4.14746ZM7.604 10.022C6.389 10.022 5.39972 9.00798 5.39972 7.76257C5.39972 6.51626 6.389 5.50313 7.604 5.50313C8.819 5.50313 9.80828 6.51626 9.80828 7.76257C9.80828 9.00798 8.819 10.022 7.604 10.022Z" fill="#F5F5F5"/>
<path d="M3.78441 4.38628C4.04395 4.38628 4.25436 4.17061 4.25436 3.90456C4.25436 3.63852 4.04395 3.42285 3.78441 3.42285C3.52486 3.42285 3.31445 3.63852 3.31445 3.90456C3.31445 4.17061 3.52486 4.38628 3.78441 4.38628Z" fill="#F5F5F5"/>
</svg>
