<svg width="27" height="27" viewBox="0 0 27 27" fill="none" xmlns="http://www.w3.org/2000/svg">
<path d="M17.8809 0H8.13086C3.64423 0 0.00585938 3.65484 0.00585938 8.16177V17.9559C0.00585938 22.4628 3.64423 26.1176 8.13086 26.1176H17.8809C22.3675 26.1176 26.0059 22.4628 26.0059 17.9559V8.16177C26.0059 3.65484 22.3675 0 17.8809 0ZM23.5684 17.9559C23.5684 21.1063 21.0171 23.6691 17.8809 23.6691H8.13086C4.99461 23.6691 2.44336 21.1063 2.44336 17.9559V8.16177C2.44336 5.01132 4.99461 2.44853 8.13086 2.44853H17.8809C21.0171 2.44853 23.5684 5.01132 23.5684 8.16177V17.9559Z" fill="#B4B8B8"/>
<path d="M13.0059 6.5293C9.41623 6.5293 6.50586 9.45284 6.50586 13.0587C6.50586 16.6646 9.41623 19.5881 13.0059 19.5881C16.5955 19.5881 19.5059 16.6646 19.5059 13.0587C19.5059 9.45284 16.5955 6.5293 13.0059 6.5293ZM13.0059 17.1396C10.7666 17.1396 8.94336 15.3081 8.94336 13.0587C8.94336 10.8077 10.7666 8.97783 13.0059 8.97783C15.2451 8.97783 17.0684 10.8077 17.0684 13.0587C17.0684 15.3081 15.2451 17.1396 13.0059 17.1396Z" fill="#B4B8B8"/>
</svg>
