<svg width="420" height="20" viewBox="0 0 420 20" fill="none" xmlns="http://www.w3.org/2000/svg">
<path d="M420 8.39676L366.35 8.39675L365.456 7.12456L364.434 8.39675L338.759 8.39675L334.288 15.2148L331.627 10.7098L320.621 10.7098L316.916 7.03643L306.57 7.03643L304.27 8.34718L260.584 8.34718L258.54 7.03643L256.958 10.2637L255.603 7.70832L223.668 7.70832L219.964 15.0331L212.938 5.58249L210 8.49036L148.303 8.49036L146.387 4.67377L138.595 15.0331L135.147 8.66659L83.0299 8.66659L82.008 10.853L79.5809 7.3999L77.6649 8.66659L0.000808171 8.66658" stroke="#FF7201" stroke-width="1.5"/>
<g filter="url(#filter0_f_33_5288)">
<path d="M420 8.39676L366.35 8.39675L365.456 7.12456L364.434 8.39675L338.759 8.39675L334.288 15.2148L331.627 10.7098L320.621 10.7098L316.916 7.03643L306.57 7.03643L304.27 8.34718L260.584 8.34718L258.54 7.03643L256.958 10.2637L255.603 7.70832L223.668 7.70832L219.964 15.0331L212.938 5.58249L210 8.49036L148.303 8.49036L146.387 4.67377L138.595 15.0331L135.147 8.66659L83.0299 8.66659L82.008 10.853L79.5809 7.3999L77.6649 8.66659L0.000808171 8.66658" stroke="#FF9900" stroke-width="1.5"/>
</g>
<defs>
<filter id="filter0_f_33_5288" x="-2.99902" y="0.256836" width="425.999" height="19.376" filterUnits="userSpaceOnUse" color-interpolation-filters="sRGB">
<feFlood flood-opacity="0" result="BackgroundImageFix"/>
<feBlend mode="normal" in="SourceGraphic" in2="BackgroundImageFix" result="shape"/>
<feGaussianBlur stdDeviation="1.5" result="effect1_foregroundBlur_33_5288"/>
</filter>
</defs>
</svg>
