<svg width="420" height="19" viewBox="0 0 420 19" fill="none" xmlns="http://www.w3.org/2000/svg">
<path d="M454.221 8.22745L388.025 8.22744L386.921 7.12464L385.661 8.22744L353.981 8.22744L348.465 14.1377L345.18 10.2325L331.6 10.2325L327.03 7.04825L314.263 7.04825L311.426 8.18447L257.524 8.18446L255.002 7.04824L253.05 9.84582L251.377 7.63067L211.975 7.63067L207.404 13.9801L198.736 5.78789L195.11 8.30858L118.985 8.30858L116.621 5.00017L107.007 13.9801L102.751 8.46134L38.4465 8.46134L37.1856 10.3566L34.191 7.36331L31.8269 8.46134L-63.9997 8.46133" stroke="#FF7201" stroke-width="1.5"/>
<g filter="url(#filter0_f_33_5013)">
<path d="M454.221 8.22745L388.025 8.22744L386.921 7.12464L385.661 8.22744L353.981 8.22744L348.465 14.1377L345.18 10.2325L331.6 10.2325L327.03 7.04825L314.263 7.04825L311.426 8.18447L257.524 8.18446L255.002 7.04824L253.05 9.84582L251.377 7.63067L211.975 7.63067L207.404 13.9801L198.736 5.78789L195.11 8.30858L118.985 8.30858L116.621 5.00017L107.007 13.9801L102.751 8.46134L38.4465 8.46134L37.1856 10.3566L34.191 7.36331L31.8269 8.46134L-63.9997 8.46133" stroke="#FF9900" stroke-width="1.5"/>
</g>
<defs>
<filter id="filter0_f_33_5013" x="-66.9995" y="0.868164" width="524.22" height="17.4004" filterUnits="userSpaceOnUse" color-interpolation-filters="sRGB">
<feFlood flood-opacity="0" result="BackgroundImageFix"/>
<feBlend mode="normal" in="SourceGraphic" in2="BackgroundImageFix" result="shape"/>
<feGaussianBlur stdDeviation="1.5" result="effect1_foregroundBlur_33_5013"/>
</filter>
</defs>
</svg>
