<svg width="420" height="20" viewBox="0 0 420 20" fill="none" xmlns="http://www.w3.org/2000/svg">
<path d="M-5 11.4909H49.2883L50.1931 12.7631L51.2272 11.4909H77.208L81.7321 4.67285L84.4257 9.17786H95.5626L99.3111 12.8513H109.781L112.108 11.5405H156.314L158.382 12.8513L159.983 9.62395L161.355 12.1794H193.669L197.418 4.85459L204.527 14.3052L207.5 11.3973H269.932L271.87 15.2139L279.755 4.85459L283.245 11.2211H335.982L337.016 9.03466L339.472 12.4878L341.411 11.2211H420" stroke="#FF7201" stroke-width="1.5"/>
<g filter="url(#filter0_f_33_5344)">
<path d="M-5 11.4909H49.2883L50.1931 12.7631L51.2272 11.4909H77.208L81.7321 4.67285L84.4257 9.17786H95.5626L99.3111 12.8513H109.781L112.108 11.5405H156.314L158.382 12.8513L159.983 9.62395L161.355 12.1794H193.669L197.418 4.85459L204.527 14.3052L207.5 11.3973H269.932L271.87 15.2139L279.755 4.85459L283.245 11.2211H335.982L337.016 9.03466L339.472 12.4878L341.411 11.2211H420" stroke="#FF9900" stroke-width="1.5"/>
</g>
<defs>
<filter id="filter0_f_33_5344" x="-8" y="0.266602" width="431" height="19.3525" filterUnits="userSpaceOnUse" color-interpolation-filters="sRGB">
<feFlood flood-opacity="0" result="BackgroundImageFix"/>
<feBlend mode="normal" in="SourceGraphic" in2="BackgroundImageFix" result="shape"/>
<feGaussianBlur stdDeviation="1.5" result="effect1_foregroundBlur_33_5344"/>
</filter>
</defs>
</svg>
