<svg width="340" height="340" viewBox="0 0 340 340" fill="none" xmlns="http://www.w3.org/2000/svg">
<path fill-rule="evenodd" clip-rule="evenodd" d="M170.995 287.033C170.995 306.318 165.615 324.347 156.274 339.703C152.104 339.374 147.975 338.895 143.894 338.271C146.857 328.807 148.453 318.739 148.453 308.298C148.453 252.932 103.558 208.049 48.177 208.049C33.2176 208.049 19.0233 211.324 6.2722 217.196C5.51801 214.572 4.82527 211.922 4.19565 209.248C21.8423 194.439 44.6022 185.519 69.4477 185.519C125.536 185.519 170.995 230.974 170.995 287.033ZM69.4477 165.519C43.8427 165.519 20.0869 173.435 0.494917 186.951C0.297306 184.94 0.134732 182.918 0.0078125 180.887C22.7589 155.747 55.6518 139.951 92.2378 139.951C160.912 139.951 216.575 195.606 216.575 264.249C216.575 292.237 207.321 318.066 191.704 338.844C187.473 339.387 183.193 339.774 178.871 340C186.639 323.991 190.995 306.021 190.995 287.033C190.995 219.923 136.576 165.519 69.4477 165.519ZM219.186 332.971C230.276 312.539 236.575 289.129 236.575 264.249C236.575 184.555 171.953 119.951 92.2378 119.951C57.4167 119.951 25.4757 132.278 0.542701 152.805C0.648254 151.761 0.76325 150.72 0.887602 149.682C27.7277 116.857 68.5487 95.9027 114.268 95.9027C195.11 95.9027 260.636 161.419 260.636 242.225C260.636 274.38 250.26 304.113 232.673 328.261C228.265 330.013 223.766 331.586 219.186 332.971ZM288.748 291.805C281.738 298.652 274.14 304.899 266.035 310.462C275.416 289.641 280.636 266.543 280.636 242.225C280.636 150.368 206.15 75.9027 114.268 75.9027C74.5572 75.9027 38.0958 89.8122 9.49282 113.024C10.242 110.921 11.0315 108.837 11.8602 106.773C42.6557 73.0273 87.0023 51.8526 136.299 51.8526C229.307 51.8526 304.697 127.229 304.697 220.2C304.697 245.805 298.978 270.076 288.748 291.805ZM43.3212 56.3497C70.7542 40.7576 102.486 31.8526 136.299 31.8526C240.348 31.8526 324.697 116.178 324.697 220.2C324.697 228.214 324.196 236.112 323.224 243.863C333.975 221.554 340 196.539 340 170.118C340 76.1644 263.815 0 169.836 0C119.612 0 74.469 21.7533 43.3212 56.3497ZM124.229 334.056C126.968 325.971 128.453 317.308 128.453 308.298C128.453 263.983 92.5175 228.049 48.177 228.049C35.5473 228.049 23.5996 230.964 12.9699 236.158C14.6888 240.234 16.5621 244.229 18.5823 248.136C21.8084 247.743 25.0933 247.54 28.4256 247.54C72.8983 247.54 108.95 283.583 108.95 328.043C108.95 328.264 108.95 328.485 108.948 328.705C108.947 328.81 108.946 328.915 108.945 329.02C113.931 330.931 119.03 332.614 124.229 334.056ZM30.3418 267.57C45.3734 289.035 65.2358 306.87 88.3517 319.499C84.2865 290.751 60.0066 268.492 30.3418 267.57Z" fill="white"/>
<g filter="url(#filter0_d_1137_2713)">
<mask id="mask0_1137_2713" style="mask-type:alpha" maskUnits="userSpaceOnUse" x="70" y="81" width="115" height="135">
<path d="M184.752 81.7638V215.582H157.309L104.056 138.349H103.207V215.582H70.8632V81.7638H98.6984L151.363 158.866H152.474V81.7638H184.752Z" fill="white"/>
</mask>
<g mask="url(#mask0_1137_2713)">
<ellipse cx="139.134" cy="214.747" rx="170" ry="169.954" fill="#454545"/>
</g>
</g>
<g filter="url(#filter1_d_1137_2713)">
<mask id="mask1_1137_2713" style="mask-type:alpha" maskUnits="userSpaceOnUse" x="157" y="155" width="128" height="128">
<path fill-rule="evenodd" clip-rule="evenodd" d="M220.319 155.283C185.458 155.669 157.316 184.042 157.316 218.986C157.316 254.171 185.846 282.694 221.039 282.694C256.232 282.694 284.762 254.171 284.762 218.986C284.762 208.57 282.261 198.737 277.827 190.055H220.327V214.568H259.371C259.491 215.792 259.552 217.032 259.552 218.287C259.552 239.166 242.622 256.091 221.738 256.091C200.854 256.091 183.925 239.166 183.925 218.287C183.925 197.883 200.093 181.255 220.319 180.509V155.283Z" fill="white"/>
</mask>
<g mask="url(#mask1_1137_2713)">
<ellipse cx="207.836" cy="218.729" rx="170" ry="169.954" fill="#454545"/>
</g>
</g>
<defs>
<filter id="filter0_d_1137_2713" x="59.8633" y="76.7637" width="131.889" height="151.818" filterUnits="userSpaceOnUse" color-interpolation-filters="sRGB">
<feFlood flood-opacity="0" result="BackgroundImageFix"/>
<feColorMatrix in="SourceAlpha" type="matrix" values="0 0 0 0 0 0 0 0 0 0 0 0 0 0 0 0 0 0 127 0" result="hardAlpha"/>
<feOffset dx="-2" dy="4"/>
<feGaussianBlur stdDeviation="4.5"/>
<feComposite in2="hardAlpha" operator="out"/>
<feColorMatrix type="matrix" values="0 0 0 0 0 0 0 0 0 0 0 0 0 0 0 0 0 0 0.25 0"/>
<feBlend mode="normal" in2="BackgroundImageFix" result="effect1_dropShadow_1137_2713"/>
<feBlend mode="normal" in="SourceGraphic" in2="effect1_dropShadow_1137_2713" result="shape"/>
</filter>
<filter id="filter1_d_1137_2713" x="145.316" y="149.283" width="147.445" height="147.41" filterUnits="userSpaceOnUse" color-interpolation-filters="sRGB">
<feFlood flood-opacity="0" result="BackgroundImageFix"/>
<feColorMatrix in="SourceAlpha" type="matrix" values="0 0 0 0 0 0 0 0 0 0 0 0 0 0 0 0 0 0 127 0" result="hardAlpha"/>
<feOffset dx="-2" dy="4"/>
<feGaussianBlur stdDeviation="5"/>
<feComposite in2="hardAlpha" operator="out"/>
<feColorMatrix type="matrix" values="0 0 0 0 0 0 0 0 0 0 0 0 0 0 0 0 0 0 0.25 0"/>
<feBlend mode="normal" in2="BackgroundImageFix" result="effect1_dropShadow_1137_2713"/>
<feBlend mode="normal" in="SourceGraphic" in2="effect1_dropShadow_1137_2713" result="shape"/>
</filter>
</defs>
</svg>
