<svg width="105" height="212" viewBox="0 0 105 212" fill="none" xmlns="http://www.w3.org/2000/svg">
<mask id="mask0_113_12643" style="mask-type:alpha" maskUnits="userSpaceOnUse" x="-60" y="0" width="165" height="212">
<rect x="103.581" y="210.999" width="163.081" height="210.499" transform="rotate(-180 103.581 210.999)" fill="#D9D9D9" stroke="black"/>
</mask>
<g mask="url(#mask0_113_12643)">
<g filter="url(#filter0_f_113_12643)">
<circle cx="-33.2283" cy="106.519" r="30.2264" transform="rotate(-180 -33.2283 106.519)" fill="#FB5C02"/>
</g>
<g filter="url(#filter1_f_113_12643)">
<g filter="url(#filter2_f_113_12643)">
<path d="M-15.2561 150.506L-15.2837 150.555L-15.2561 150.604L-10.8123 158.507L-10.7836 158.558L-10.7251 158.558L-1.83741 158.558L-1.77892 158.558L-1.75025 158.507L2.6936 150.604L2.72115 150.555L2.6936 150.506L-1.75025 142.602L-1.77892 142.551L-1.83741 142.551L-10.7251 142.551L-10.7836 142.551L-10.8123 142.602L-15.2561 150.506Z" stroke="#00FDFF" stroke-opacity="0.95" stroke-width="0.2"/>
</g>
<g filter="url(#filter3_f_113_12643)">
<path d="M12.0261 150.506L11.9986 150.555L12.0261 150.604L16.47 158.507L16.4986 158.558L16.5571 158.558L25.4448 158.558L25.5033 158.558L25.532 158.507L29.9758 150.604L30.0034 150.555L29.9758 150.506L25.532 142.602L25.5033 142.551L25.4448 142.551L16.5571 142.551L16.4986 142.551L16.47 142.602L12.0261 150.506Z" stroke="#00FDFF" stroke-opacity="0.95" stroke-width="0.2"/>
</g>
<g filter="url(#filter4_f_113_12643)">
<path d="M25.6697 142.344L25.6421 142.393L25.6697 142.442L30.1135 150.346L30.1422 150.397L30.2007 150.397L39.0884 150.397L39.1469 150.397L39.1755 150.346L43.6194 142.442L43.6469 142.393L43.6194 142.344L39.1755 134.441L39.1469 134.39L39.0884 134.39L30.2007 134.39L30.1422 134.39L30.1135 134.441L25.6697 142.344Z" stroke="#00FDFF" stroke-opacity="0.95" stroke-width="0.2"/>
</g>
<g filter="url(#filter5_f_113_12643)">
<path d="M-1.61549 142.344L-1.64304 142.393L-1.61549 142.442L2.82836 150.346L2.85703 150.397L2.91552 150.397L11.8032 150.397L11.8617 150.397L11.8904 150.346L16.3342 142.442L16.3618 142.393L16.3342 142.344L11.8904 134.441L11.8617 134.39L11.8032 134.39L2.91553 134.39L2.85703 134.39L2.82836 134.441L-1.61549 142.344Z" stroke="#00FDFF" stroke-opacity="0.95" stroke-width="0.2"/>
</g>
<g filter="url(#filter6_f_113_12643)">
<path d="M12.0261 134.185L11.9986 134.234L12.0261 134.283L16.47 142.187L16.4986 142.238L16.5571 142.238L25.4448 142.238L25.5033 142.238L25.532 142.187L29.9758 134.283L30.0034 134.234L29.9758 134.185L25.532 126.282L25.5033 126.231L25.4448 126.231L16.5571 126.231L16.4986 126.231L16.47 126.282L12.0261 134.185Z" stroke="#00FDFF" stroke-opacity="0.95" stroke-width="0.2"/>
</g>
<g filter="url(#filter7_f_113_12643)">
<path d="M-15.2561 134.185L-15.2837 134.234L-15.2561 134.283L-10.8123 142.187L-10.7836 142.238L-10.7251 142.238L-1.83741 142.238L-1.77892 142.238L-1.75025 142.187L2.6936 134.283L2.72115 134.234L2.6936 134.185L-1.75025 126.282L-1.77892 126.231L-1.83741 126.231L-10.7251 126.231L-10.7836 126.231L-10.8123 126.282L-15.2561 134.185Z" stroke="#00FDFF" stroke-opacity="0.95" stroke-width="0.2"/>
</g>
<g filter="url(#filter8_f_113_12643)">
<path d="M-1.61549 126.026L-1.64304 126.075L-1.61549 126.124L2.82836 134.028L2.85703 134.079L2.91552 134.079L11.8032 134.079L11.8617 134.079L11.8904 134.028L16.3342 126.124L16.3618 126.075L16.3342 126.026L11.8904 118.123L11.8617 118.072L11.8032 118.072L2.91553 118.072L2.85703 118.072L2.82836 118.123L-1.61549 126.026Z" stroke="#00FDFF" stroke-opacity="0.95" stroke-width="0.2"/>
</g>
<g filter="url(#filter9_f_113_12643)">
<path d="M-15.2561 117.866L-15.2837 117.915L-15.2561 117.964L-10.8123 125.867L-10.7836 125.918L-10.7251 125.918L-1.83741 125.918L-1.77892 125.918L-1.75025 125.867L2.6936 117.964L2.72115 117.915L2.6936 117.866L-1.75025 109.962L-1.77892 109.911L-1.83741 109.911L-10.7251 109.911L-10.7836 109.911L-10.8123 109.962L-15.2561 117.866Z" stroke="#00FDFF" stroke-opacity="0.95" stroke-width="0.2"/>
</g>
<g filter="url(#filter10_f_113_12643)">
<path d="M12.0261 117.866L11.9986 117.915L12.0261 117.964L16.47 125.867L16.4986 125.918L16.5571 125.918L25.4448 125.918L25.5033 125.918L25.532 125.867L29.9758 117.964L30.0034 117.915L29.9758 117.866L25.532 109.962L25.5033 109.911L25.4448 109.911L16.5571 109.911L16.4986 109.911L16.47 109.962L12.0261 117.866Z" stroke="#00FDFF" stroke-opacity="0.95" stroke-width="0.2"/>
</g>
<g filter="url(#filter11_f_113_12643)">
<path d="M25.6697 109.706L25.6421 109.755L25.6697 109.804L30.1135 117.707L30.1422 117.758L30.2007 117.758L39.0884 117.758L39.1469 117.758L39.1755 117.707L43.6194 109.804L43.6469 109.755L43.6194 109.706L39.1755 101.802L39.1469 101.751L39.0884 101.751L30.2007 101.751L30.1422 101.751L30.1135 101.802L25.6697 109.706Z" stroke="#00FDFF" stroke-opacity="0.95" stroke-width="0.2"/>
</g>
<g filter="url(#filter12_f_113_12643)">
<path d="M-1.61549 109.706L-1.64304 109.755L-1.61549 109.804L2.82836 117.707L2.85703 117.758L2.91552 117.758L11.8032 117.758L11.8617 117.758L11.8904 117.707L16.3342 109.804L16.3618 109.755L16.3342 109.706L11.8904 101.802L11.8617 101.751L11.8032 101.751L2.91553 101.751L2.85703 101.751L2.82836 101.802L-1.61549 109.706Z" stroke="#00FDFF" stroke-opacity="0.95" stroke-width="0.2"/>
</g>
<g filter="url(#filter13_f_113_12643)">
<path d="M12.0261 101.546L11.9986 101.595L12.0261 101.644L16.47 109.547L16.4986 109.598L16.5571 109.598L25.4448 109.598L25.5033 109.598L25.532 109.547L29.9758 101.644L30.0034 101.595L29.9758 101.546L25.532 93.6421L25.5033 93.5911L25.4448 93.5911L16.5571 93.5911L16.4986 93.5911L16.47 93.6421L12.0261 101.546Z" stroke="#00FDFF" stroke-opacity="0.95" stroke-width="0.2"/>
</g>
<g filter="url(#filter14_f_113_12643)">
<path d="M-15.2561 101.546L-15.2837 101.595L-15.2561 101.644L-10.8123 109.547L-10.7836 109.598L-10.7251 109.598L-1.83741 109.598L-1.77892 109.598L-1.75025 109.547L2.6936 101.644L2.72115 101.595L2.6936 101.546L-1.75025 93.6421L-1.77892 93.5911L-1.83741 93.5911L-10.7251 93.5911L-10.7836 93.5911L-10.8123 93.6421L-15.2561 101.546Z" stroke="#00FDFF" stroke-opacity="0.95" stroke-width="0.2"/>
</g>
<g filter="url(#filter15_f_113_12643)">
<path d="M-1.61549 93.3864L-1.64304 93.4354L-1.61549 93.4844L2.82836 101.388L2.85703 101.439L2.91552 101.439L11.8032 101.439L11.8617 101.439L11.8904 101.388L16.3342 93.4844L16.3618 93.4354L16.3342 93.3864L11.8904 85.4829L11.8617 85.4319L11.8032 85.4319L2.91553 85.4319L2.85703 85.4319L2.82836 85.4829L-1.61549 93.3864Z" stroke="#00FDFF" stroke-opacity="0.95" stroke-width="0.2"/>
</g>
<g filter="url(#filter16_f_113_12643)">
<path d="M-15.2561 85.2272L-15.2837 85.2762L-15.2561 85.3252L-10.8123 93.2287L-10.7836 93.2797L-10.7251 93.2797L-1.83741 93.2797L-1.77892 93.2797L-1.75025 93.2287L2.6936 85.3252L2.72115 85.2762L2.6936 85.2272L-1.75025 77.3237L-1.77892 77.2727L-1.83741 77.2727L-10.7251 77.2727L-10.7836 77.2727L-10.8123 77.3237L-15.2561 85.2272Z" stroke="#00FDFF" stroke-opacity="0.95" stroke-width="0.2"/>
</g>
<g filter="url(#filter17_f_113_12643)">
<path d="M-1.61549 77.0661L-1.64304 77.1151L-1.61549 77.1641L2.82836 85.0676L2.85703 85.1185L2.91552 85.1185L11.8032 85.1185L11.8617 85.1185L11.8904 85.0676L16.3342 77.1641L16.3618 77.1151L16.3342 77.0661L11.8904 69.1626L11.8617 69.1116L11.8032 69.1116L2.91553 69.1116L2.85703 69.1116L2.82836 69.1626L-1.61549 77.0661Z" stroke="#00FDFF" stroke-opacity="0.95" stroke-width="0.2"/>
</g>
<g filter="url(#filter18_f_113_12643)">
<path d="M12.0261 68.9059L11.9986 68.9549L12.0261 69.0039L16.47 76.9074L16.4986 76.9584L16.5571 76.9584L25.4448 76.9584L25.5033 76.9584L25.532 76.9074L29.9758 69.0039L30.0034 68.9549L29.9758 68.9059L25.532 61.0024L25.5033 60.9515L25.4448 60.9515L16.5571 60.9515L16.4986 60.9515L16.47 61.0024L12.0261 68.9059Z" stroke="#00FDFF" stroke-opacity="0.95" stroke-width="0.2"/>
</g>
<g filter="url(#filter19_f_113_12643)">
<path d="M-15.2561 68.9059L-15.2837 68.9549L-15.2561 69.0039L-10.8123 76.9074L-10.7836 76.9584L-10.7251 76.9584L-1.83741 76.9584L-1.77892 76.9584L-1.75025 76.9074L2.6936 69.0039L2.72115 68.9549L2.6936 68.9059L-1.75025 61.0024L-1.77892 60.9515L-1.83741 60.9515L-10.7251 60.9515L-10.7836 60.9515L-10.8123 61.0024L-15.2561 68.9059Z" stroke="#00FDFF" stroke-opacity="0.95" stroke-width="0.2"/>
</g>
<g filter="url(#filter20_f_113_12643)">
<path d="M-1.61549 60.7467L-1.64304 60.7957L-1.61549 60.8447L2.82836 68.7482L2.85703 68.7992L2.91552 68.7992L11.8032 68.7992L11.8617 68.7992L11.8904 68.7482L16.3342 60.8447L16.3618 60.7957L16.3342 60.7467L11.8904 52.8433L11.8617 52.7923L11.8032 52.7923L2.91553 52.7923L2.85703 52.7923L2.82836 52.8433L-1.61549 60.7467Z" stroke="#00FDFF" stroke-opacity="0.95" stroke-width="0.2"/>
</g>
<g filter="url(#filter21_f_113_12643)">
<path d="M-15.2561 52.5876L-15.2837 52.6366L-15.2561 52.6856L-10.8123 60.589L-10.7836 60.64L-10.7251 60.64L-1.83741 60.64L-1.77892 60.64L-1.75025 60.589L2.6936 52.6856L2.72115 52.6366L2.6936 52.5876L-1.75025 44.6841L-1.77892 44.6331L-1.83741 44.6331L-10.7251 44.6331L-10.7836 44.6331L-10.8123 44.6841L-15.2561 52.5876Z" stroke="#00FDFF" stroke-opacity="0.95" stroke-width="0.2"/>
</g>
<g filter="url(#filter22_f_113_12643)">
<path d="M-15.2561 150.506L-15.2837 150.555L-15.2561 150.604L-10.8123 158.507L-10.7836 158.558L-10.7251 158.558L-1.83741 158.558L-1.77892 158.558L-1.75025 158.507L2.6936 150.604L2.72115 150.555L2.6936 150.506L-1.75025 142.602L-1.77892 142.551L-1.83741 142.551L-10.7251 142.551L-10.7836 142.551L-10.8123 142.602L-15.2561 150.506Z" stroke="#00FDFF" stroke-opacity="0.95" stroke-width="0.2"/>
</g>
<g filter="url(#filter23_f_113_12643)">
<path d="M12.0261 150.506L11.9986 150.555L12.0261 150.604L16.47 158.507L16.4986 158.558L16.5571 158.558L25.4448 158.558L25.5033 158.558L25.532 158.507L29.9758 150.604L30.0034 150.555L29.9758 150.506L25.532 142.602L25.5033 142.551L25.4448 142.551L16.5571 142.551L16.4986 142.551L16.47 142.602L12.0261 150.506Z" stroke="#00FDFF" stroke-opacity="0.95" stroke-width="0.2"/>
</g>
<g filter="url(#filter24_f_113_12643)">
<path d="M25.6697 142.344L25.6421 142.393L25.6697 142.442L30.1135 150.346L30.1422 150.397L30.2007 150.397L39.0884 150.397L39.1469 150.397L39.1755 150.346L43.6194 142.442L43.6469 142.393L43.6194 142.344L39.1755 134.441L39.1469 134.39L39.0884 134.39L30.2007 134.39L30.1422 134.39L30.1135 134.441L25.6697 142.344Z" stroke="#00FDFF" stroke-opacity="0.95" stroke-width="0.2"/>
</g>
<g filter="url(#filter25_f_113_12643)">
<path d="M-1.61549 142.344L-1.64304 142.393L-1.61549 142.442L2.82836 150.346L2.85703 150.397L2.91552 150.397L11.8032 150.397L11.8617 150.397L11.8904 150.346L16.3342 142.442L16.3618 142.393L16.3342 142.344L11.8904 134.441L11.8617 134.39L11.8032 134.39L2.91553 134.39L2.85703 134.39L2.82836 134.441L-1.61549 142.344Z" stroke="#00FDFF" stroke-opacity="0.95" stroke-width="0.2"/>
</g>
<g filter="url(#filter26_f_113_12643)">
<path d="M12.0261 134.185L11.9986 134.234L12.0261 134.283L16.47 142.187L16.4986 142.238L16.5571 142.238L25.4448 142.238L25.5033 142.238L25.532 142.187L29.9758 134.283L30.0034 134.234L29.9758 134.185L25.532 126.282L25.5033 126.231L25.4448 126.231L16.5571 126.231L16.4986 126.231L16.47 126.282L12.0261 134.185Z" stroke="#00FDFF" stroke-opacity="0.95" stroke-width="0.2"/>
</g>
<g filter="url(#filter27_f_113_12643)">
<path d="M-15.2561 134.185L-15.2837 134.234L-15.2561 134.283L-10.8123 142.187L-10.7836 142.238L-10.7251 142.238L-1.83741 142.238L-1.77892 142.238L-1.75025 142.187L2.6936 134.283L2.72115 134.234L2.6936 134.185L-1.75025 126.282L-1.77892 126.231L-1.83741 126.231L-10.7251 126.231L-10.7836 126.231L-10.8123 126.282L-15.2561 134.185Z" stroke="#00FDFF" stroke-opacity="0.95" stroke-width="0.2"/>
</g>
<g filter="url(#filter28_f_113_12643)">
<path d="M-1.61549 126.026L-1.64304 126.075L-1.61549 126.124L2.82836 134.028L2.85703 134.079L2.91552 134.079L11.8032 134.079L11.8617 134.079L11.8904 134.028L16.3342 126.124L16.3618 126.075L16.3342 126.026L11.8904 118.123L11.8617 118.072L11.8032 118.072L2.91553 118.072L2.85703 118.072L2.82836 118.123L-1.61549 126.026Z" stroke="#00FDFF" stroke-opacity="0.95" stroke-width="0.2"/>
</g>
<g filter="url(#filter29_f_113_12643)">
<path d="M-15.2561 117.866L-15.2837 117.915L-15.2561 117.964L-10.8123 125.867L-10.7836 125.918L-10.7251 125.918L-1.83741 125.918L-1.77892 125.918L-1.75025 125.867L2.6936 117.964L2.72115 117.915L2.6936 117.866L-1.75025 109.962L-1.77892 109.911L-1.83741 109.911L-10.7251 109.911L-10.7836 109.911L-10.8123 109.962L-15.2561 117.866Z" stroke="#00FDFF" stroke-opacity="0.95" stroke-width="0.2"/>
</g>
<g filter="url(#filter30_f_113_12643)">
<path d="M12.0261 117.866L11.9986 117.915L12.0261 117.964L16.47 125.867L16.4986 125.918L16.5571 125.918L25.4448 125.918L25.5033 125.918L25.532 125.867L29.9758 117.964L30.0034 117.915L29.9758 117.866L25.532 109.962L25.5033 109.911L25.4448 109.911L16.5571 109.911L16.4986 109.911L16.47 109.962L12.0261 117.866Z" stroke="#00FDFF" stroke-opacity="0.95" stroke-width="0.2"/>
</g>
<g filter="url(#filter31_f_113_12643)">
<path d="M25.6697 109.706L25.6421 109.755L25.6697 109.804L30.1135 117.707L30.1422 117.758L30.2007 117.758L39.0884 117.758L39.1469 117.758L39.1755 117.707L43.6194 109.804L43.6469 109.755L43.6194 109.706L39.1755 101.802L39.1469 101.751L39.0884 101.751L30.2007 101.751L30.1422 101.751L30.1135 101.802L25.6697 109.706Z" stroke="#00FDFF" stroke-opacity="0.95" stroke-width="0.2"/>
</g>
<g filter="url(#filter32_f_113_12643)">
<path d="M-1.61549 109.706L-1.64304 109.755L-1.61549 109.804L2.82836 117.707L2.85703 117.758L2.91552 117.758L11.8032 117.758L11.8617 117.758L11.8904 117.707L16.3342 109.804L16.3618 109.755L16.3342 109.706L11.8904 101.802L11.8617 101.751L11.8032 101.751L2.91553 101.751L2.85703 101.751L2.82836 101.802L-1.61549 109.706Z" stroke="#00FDFF" stroke-opacity="0.95" stroke-width="0.2"/>
</g>
<g filter="url(#filter33_f_113_12643)">
<path d="M12.0261 101.546L11.9986 101.595L12.0261 101.644L16.47 109.547L16.4986 109.598L16.5571 109.598L25.4448 109.598L25.5033 109.598L25.532 109.547L29.9758 101.644L30.0034 101.595L29.9758 101.546L25.532 93.6421L25.5033 93.5911L25.4448 93.5911L16.5571 93.5911L16.4986 93.5911L16.47 93.6421L12.0261 101.546Z" stroke="#00FDFF" stroke-opacity="0.95" stroke-width="0.2"/>
</g>
<g filter="url(#filter34_f_113_12643)">
<path d="M-15.2561 101.546L-15.2837 101.595L-15.2561 101.644L-10.8123 109.547L-10.7836 109.598L-10.7251 109.598L-1.83741 109.598L-1.77892 109.598L-1.75025 109.547L2.6936 101.644L2.72115 101.595L2.6936 101.546L-1.75025 93.6421L-1.77892 93.5911L-1.83741 93.5911L-10.7251 93.5911L-10.7836 93.5911L-10.8123 93.6421L-15.2561 101.546Z" stroke="#00FDFF" stroke-opacity="0.95" stroke-width="0.2"/>
</g>
<g filter="url(#filter35_f_113_12643)">
<path d="M-1.61549 93.3864L-1.64304 93.4354L-1.61549 93.4844L2.82836 101.388L2.85703 101.439L2.91552 101.439L11.8032 101.439L11.8617 101.439L11.8904 101.388L16.3342 93.4844L16.3618 93.4354L16.3342 93.3864L11.8904 85.4829L11.8617 85.4319L11.8032 85.4319L2.91553 85.4319L2.85703 85.4319L2.82836 85.4829L-1.61549 93.3864Z" stroke="#00FDFF" stroke-opacity="0.95" stroke-width="0.2"/>
</g>
<g filter="url(#filter36_f_113_12643)">
<path d="M-15.2561 85.2272L-15.2837 85.2762L-15.2561 85.3252L-10.8123 93.2287L-10.7836 93.2797L-10.7251 93.2797L-1.83741 93.2797L-1.77892 93.2797L-1.75025 93.2287L2.6936 85.3252L2.72115 85.2762L2.6936 85.2272L-1.75025 77.3237L-1.77892 77.2727L-1.83741 77.2727L-10.7251 77.2727L-10.7836 77.2727L-10.8123 77.3237L-15.2561 85.2272Z" stroke="#00FDFF" stroke-opacity="0.95" stroke-width="0.2"/>
</g>
<g filter="url(#filter37_f_113_12643)">
<path d="M-1.61549 77.0661L-1.64304 77.1151L-1.61549 77.1641L2.82836 85.0676L2.85703 85.1185L2.91552 85.1185L11.8032 85.1185L11.8617 85.1185L11.8904 85.0676L16.3342 77.1641L16.3618 77.1151L16.3342 77.0661L11.8904 69.1626L11.8617 69.1116L11.8032 69.1116L2.91553 69.1116L2.85703 69.1116L2.82836 69.1626L-1.61549 77.0661Z" stroke="#00FDFF" stroke-opacity="0.95" stroke-width="0.2"/>
</g>
<g filter="url(#filter38_f_113_12643)">
<path d="M12.0261 68.9059L11.9986 68.9549L12.0261 69.0039L16.47 76.9074L16.4986 76.9584L16.5571 76.9584L25.4448 76.9584L25.5033 76.9584L25.532 76.9074L29.9758 69.0039L30.0034 68.9549L29.9758 68.9059L25.532 61.0024L25.5033 60.9515L25.4448 60.9515L16.5571 60.9515L16.4986 60.9515L16.47 61.0024L12.0261 68.9059Z" stroke="#00FDFF" stroke-opacity="0.95" stroke-width="0.2"/>
</g>
<g filter="url(#filter39_f_113_12643)">
<path d="M-15.2561 68.9059L-15.2837 68.9549L-15.2561 69.0039L-10.8123 76.9074L-10.7836 76.9584L-10.7251 76.9584L-1.83741 76.9584L-1.77892 76.9584L-1.75025 76.9074L2.6936 69.0039L2.72115 68.9549L2.6936 68.9059L-1.75025 61.0024L-1.77892 60.9515L-1.83741 60.9515L-10.7251 60.9515L-10.7836 60.9515L-10.8123 61.0024L-15.2561 68.9059Z" stroke="#00FDFF" stroke-opacity="0.95" stroke-width="0.2"/>
</g>
<g filter="url(#filter40_f_113_12643)">
<path d="M-1.61549 60.7467L-1.64304 60.7957L-1.61549 60.8447L2.82836 68.7482L2.85703 68.7992L2.91552 68.7992L11.8032 68.7992L11.8617 68.7992L11.8904 68.7482L16.3342 60.8447L16.3618 60.7957L16.3342 60.7467L11.8904 52.8433L11.8617 52.7923L11.8032 52.7923L2.91553 52.7923L2.85703 52.7923L2.82836 52.8433L-1.61549 60.7467Z" stroke="#00FDFF" stroke-opacity="0.95" stroke-width="0.2"/>
</g>
<g filter="url(#filter41_f_113_12643)">
<path d="M-15.2561 52.5876L-15.2837 52.6366L-15.2561 52.6856L-10.8123 60.589L-10.7836 60.64L-10.7251 60.64L-1.83741 60.64L-1.77892 60.64L-1.75025 60.589L2.6936 52.6856L2.72115 52.6366L2.6936 52.5876L-1.75025 44.6841L-1.77892 44.6331L-1.83741 44.6331L-10.7251 44.6331L-10.7836 44.6331L-10.8123 44.6841L-15.2561 52.5876Z" stroke="#00FDFF" stroke-opacity="0.95" stroke-width="0.2"/>
</g>
</g>
<path d="M-14.7545 162.051L-14.8437 162.217L-14.7545 162.383L-10.1197 171L-10.0206 171.184L-9.81147 171.184L-0.541826 171.184L-0.332665 171.184L-0.233585 171L4.40124 162.383L4.49041 162.217L4.40124 162.051L-0.233583 153.434L-0.332663 153.25L-0.541824 153.25L-9.81147 153.25L-10.0206 153.25L-10.1197 153.434L-14.7545 162.051Z" stroke="#FF5500" stroke-width="0.7"/>
<path d="M-14.7545 126.465L-14.8437 126.631L-14.7545 126.797L-10.1197 135.414L-10.0206 135.598L-9.81147 135.598L-0.541826 135.598L-0.332665 135.598L-0.233585 135.414L4.40124 126.797L4.49041 126.631L4.40124 126.465L-0.233583 117.848L-0.332663 117.664L-0.541824 117.664L-9.81147 117.664L-10.0206 117.664L-10.1197 117.848L-14.7545 126.465Z" stroke="#FF5500" stroke-width="0.7"/>
<path d="M13.6996 162.051L13.6104 162.217L13.6996 162.383L18.3344 171L18.4335 171.184L18.6426 171.184L27.9123 171.184L28.1214 171.184L28.2205 171L32.8553 162.383L32.9445 162.217L32.8553 162.051L28.2205 153.434L28.1214 153.25L27.9123 153.25L18.6426 153.25L18.4335 153.25L18.3344 153.434L13.6996 162.051Z" stroke="#FF5500" stroke-width="0.7"/>
<path d="M27.9281 153.155L27.8389 153.321L27.9281 153.486L32.5629 162.103L32.662 162.287L32.8712 162.287L42.1408 162.287L42.35 162.287L42.449 162.103L47.0839 153.486L47.173 153.321L47.0839 153.155L42.449 144.538L42.35 144.354L42.1408 144.354L32.8712 144.354L32.662 144.354L32.5629 144.538L27.9281 153.155Z" stroke="#FF5500" stroke-width="0.7"/>
<path d="M-0.527966 153.155L-0.617142 153.321L-0.527966 153.486L4.10685 162.103L4.20593 162.287L4.41509 162.287L13.6847 162.287L13.8939 162.287L13.993 162.103L18.6278 153.486L18.717 153.321L18.6278 153.155L13.993 144.538L13.8939 144.354L13.6847 144.354L4.4151 144.354L4.20594 144.354L4.10686 144.538L-0.527966 153.155Z" stroke="#FF5500" stroke-width="0.7"/>
<path d="M13.6996 144.258L13.6104 144.424L13.6996 144.59L18.3344 153.207L18.4335 153.391L18.6426 153.391L27.9123 153.391L28.1214 153.391L28.2205 153.207L32.8553 144.59L32.9445 144.424L32.8553 144.258L28.2205 135.641L28.1214 135.457L27.9123 135.457L18.6426 135.457L18.4335 135.457L18.3344 135.641L13.6996 144.258Z" stroke="#FF5500" stroke-width="0.7"/>
<path d="M-14.7545 144.258L-14.8437 144.424L-14.7545 144.59L-10.1197 153.207L-10.0206 153.391L-9.81147 153.391L-0.541826 153.391L-0.332665 153.391L-0.233585 153.207L4.40124 144.59L4.49041 144.424L4.40124 144.258L-0.233583 135.641L-0.332663 135.457L-0.541824 135.457L-9.81147 135.457L-10.0206 135.457L-10.1197 135.641L-14.7545 144.258Z" stroke="#FF5500" stroke-width="0.7"/>
<path d="M-0.527966 135.362L-0.617142 135.528L-0.527966 135.693L4.10685 144.31L4.20593 144.494L4.41509 144.494L13.6847 144.494L13.8939 144.494L13.993 144.31L18.6278 135.693L18.717 135.528L18.6278 135.362L13.993 126.745L13.8939 126.561L13.6847 126.561L4.4151 126.561L4.20594 126.561L4.10686 126.745L-0.527966 135.362Z" stroke="#FF5500" stroke-width="0.7"/>
<path d="M27.9281 135.362L27.8389 135.528L27.9281 135.693L32.5629 144.31L32.662 144.494L32.8712 144.494L42.1408 144.494L42.35 144.494L42.449 144.31L47.0839 135.693L47.173 135.528L47.0839 135.362L42.449 126.745L42.35 126.561L42.1408 126.561L32.8712 126.561L32.662 126.561L32.5629 126.745L27.9281 135.362Z" stroke="#FF5500" stroke-width="0.7"/>
<path d="M42.1566 126.465L42.0674 126.631L42.1566 126.797L46.7914 135.414L46.8905 135.598L47.0997 135.598L56.3693 135.598L56.5785 135.598L56.6775 135.414L61.3124 126.797L61.4015 126.631L61.3124 126.465L56.6776 117.848L56.5785 117.664L56.3693 117.664L47.0997 117.664L46.8905 117.664L46.7914 117.848L42.1566 126.465Z" stroke="#FF5500" stroke-width="0.7"/>
<path d="M13.6996 126.465L13.6104 126.631L13.6996 126.797L18.3344 135.414L18.4335 135.598L18.6426 135.598L27.9123 135.598L28.1214 135.598L28.2205 135.414L32.8553 126.797L32.9445 126.631L32.8553 126.465L28.2205 117.848L28.1214 117.664L27.9123 117.664L18.6426 117.664L18.4335 117.664L18.3344 117.848L13.6996 126.465Z" stroke="#FF5500" stroke-width="0.7"/>
<path d="M27.9281 117.569L27.8389 117.735L27.9281 117.9L32.5629 126.517L32.662 126.702L32.8712 126.702L42.1408 126.702L42.35 126.702L42.449 126.517L47.0839 117.9L47.173 117.735L47.0839 117.569L42.449 108.952L42.35 108.768L42.1408 108.768L32.8712 108.768L32.662 108.768L32.5629 108.952L27.9281 117.569Z" stroke="#FF5500" stroke-width="0.7"/>
<path d="M-0.527966 117.569L-0.617142 117.735L-0.527966 117.9L4.10685 126.517L4.20593 126.702L4.41509 126.702L13.6847 126.702L13.8939 126.702L13.993 126.517L18.6278 117.9L18.717 117.735L18.6278 117.569L13.993 108.952L13.8939 108.768L13.6847 108.768L4.4151 108.768L4.20594 108.768L4.10686 108.952L-0.527966 117.569Z" stroke="#FF5500" stroke-width="0.7"/>
<path d="M13.6996 108.672L13.6104 108.838L13.6996 109.004L18.3344 117.621L18.4335 117.805L18.6426 117.805L27.9123 117.805L28.1214 117.805L28.2205 117.621L32.8553 109.004L32.9445 108.838L32.8553 108.672L28.2205 100.055L28.1214 99.8712L27.9123 99.8712L18.6426 99.8712L18.4335 99.8712L18.3344 100.055L13.6996 108.672Z" stroke="#FF5500" stroke-width="0.7"/>
<path d="M-14.7545 108.672L-14.8437 108.838L-14.7545 109.004L-10.1197 117.621L-10.0206 117.805L-9.81147 117.805L-0.541826 117.805L-0.332665 117.805L-0.233585 117.621L4.40124 109.004L4.49041 108.838L4.40124 108.672L-0.233583 100.055L-0.332663 99.8712L-0.541824 99.8712L-9.81147 99.8712L-10.0206 99.8712L-10.1197 100.055L-14.7545 108.672Z" stroke="#FF5500" stroke-width="0.7"/>
<path d="M-0.527966 99.7758L-0.617142 99.9416L-0.527966 100.107L4.10685 108.724L4.20593 108.909L4.41509 108.909L13.6847 108.909L13.8939 108.909L13.993 108.724L18.6278 100.107L18.717 99.9416L18.6278 99.7758L13.993 91.1589L13.8939 90.9747L13.6847 90.9747L4.4151 90.9747L4.20594 90.9747L4.10686 91.1589L-0.527966 99.7758Z" stroke="#FF5500" stroke-width="0.7"/>
<path d="M-14.7545 90.8793L-14.8437 91.0451L-14.7545 91.2109L-10.1197 99.8279L-10.0206 100.012L-9.81147 100.012L-0.541826 100.012L-0.332665 100.012L-0.233585 99.8279L4.40124 91.2109L4.49041 91.0451L4.40124 90.8794L-0.233583 82.2624L-0.332663 82.0782L-0.541824 82.0782L-9.81147 82.0782L-10.0206 82.0782L-10.1197 82.2624L-14.7545 90.8793Z" stroke="#FF5500" stroke-width="0.7"/>
<path d="M13.6996 90.8793L13.6104 91.0451L13.6996 91.2109L18.3344 99.8279L18.4335 100.012L18.6426 100.012L27.9123 100.012L28.1214 100.012L28.2205 99.8279L32.8553 91.2109L32.9445 91.0451L32.8553 90.8794L28.2205 82.2624L28.1214 82.0782L27.9123 82.0782L18.6426 82.0782L18.4335 82.0782L18.3344 82.2624L13.6996 90.8793Z" stroke="#FF5500" stroke-width="0.7"/>
<path d="M27.9281 81.9838L27.8389 82.1496L27.9281 82.3154L32.5629 90.9324L32.662 91.1166L32.8712 91.1166L42.1408 91.1166L42.35 91.1166L42.449 90.9324L47.0839 82.3154L47.173 82.1496L47.0839 81.9838L42.449 73.3669L42.35 73.1827L42.1408 73.1827L32.8712 73.1827L32.662 73.1827L32.5629 73.3669L27.9281 81.9838Z" stroke="#FF5500" stroke-width="0.7"/>
<path d="M-0.527966 81.9838L-0.617142 82.1496L-0.527966 82.3154L4.10685 90.9324L4.20593 91.1166L4.41509 91.1166L13.6847 91.1166L13.8939 91.1166L13.993 90.9324L18.6278 82.3154L18.717 82.1496L18.6278 81.9838L13.993 73.3669L13.8939 73.1827L13.6847 73.1827L4.4151 73.1827L4.20594 73.1827L4.10686 73.3669L-0.527966 81.9838Z" stroke="#FF5500" stroke-width="0.7"/>
<path d="M13.6996 73.0874L13.6104 73.2532L13.6996 73.4189L18.3344 82.0359L18.4335 82.2201L18.6426 82.2201L27.9123 82.2201L28.1214 82.2201L28.2205 82.0359L32.8553 73.4189L32.9445 73.2532L32.8553 73.0874L28.2205 64.4704L28.1214 64.2862L27.9123 64.2862L18.6426 64.2862L18.4335 64.2862L18.3344 64.4704L13.6996 73.0874Z" stroke="#FF5500" stroke-width="0.7"/>
<path d="M-14.7545 73.0874L-14.8437 73.2532L-14.7545 73.4189L-10.1197 82.0359L-10.0206 82.2201L-9.81147 82.2201L-0.541826 82.2201L-0.332665 82.2201L-0.233585 82.0359L4.40124 73.4189L4.49041 73.2532L4.40124 73.0874L-0.233583 64.4704L-0.332663 64.2862L-0.541824 64.2862L-9.81147 64.2862L-10.0206 64.2862L-10.1197 64.4704L-14.7545 73.0874Z" stroke="#FF5500" stroke-width="0.7"/>
<path d="M-0.527966 64.1909L-0.617142 64.3567L-0.527966 64.5225L4.10685 73.1394L4.20593 73.3236L4.41509 73.3236L13.6847 73.3236L13.8939 73.3236L13.993 73.1394L18.6278 64.5225L18.717 64.3567L18.6278 64.1909L13.993 55.5739L13.8939 55.3897L13.6847 55.3897L4.4151 55.3897L4.20594 55.3897L4.10686 55.5739L-0.527966 64.1909Z" stroke="#FF5500" stroke-width="0.7"/>
<path d="M-14.7545 55.2944L-14.8437 55.4602L-14.7545 55.626L-10.1197 64.2429L-10.0206 64.4271L-9.81147 64.4271L-0.541826 64.4271L-0.332665 64.4271L-0.233585 64.2429L4.40124 55.626L4.49041 55.4602L4.40124 55.2944L-0.233583 46.6775L-0.332663 46.4933L-0.541824 46.4933L-9.81147 46.4933L-10.0206 46.4933L-10.1197 46.6775L-14.7545 55.2944Z" stroke="#FF5500" stroke-width="0.7"/>
<path d="M-14.7545 162.051L-14.8437 162.217L-14.7545 162.383L-10.1197 171L-10.0206 171.184L-9.81147 171.184L-0.541826 171.184L-0.332665 171.184L-0.233585 171L4.40124 162.383L4.49041 162.217L4.40124 162.051L-0.233583 153.434L-0.332663 153.25L-0.541824 153.25L-9.81147 153.25L-10.0206 153.25L-10.1197 153.434L-14.7545 162.051Z" stroke="#FF5500" stroke-width="0.7"/>
<path d="M-14.7545 126.465L-14.8437 126.631L-14.7545 126.797L-10.1197 135.414L-10.0206 135.598L-9.81147 135.598L-0.541826 135.598L-0.332665 135.598L-0.233585 135.414L4.40124 126.797L4.49041 126.631L4.40124 126.465L-0.233583 117.848L-0.332663 117.664L-0.541824 117.664L-9.81147 117.664L-10.0206 117.664L-10.1197 117.848L-14.7545 126.465Z" stroke="#FF5500" stroke-width="0.7"/>
<path d="M13.6996 162.051L13.6104 162.217L13.6996 162.383L18.3344 171L18.4335 171.184L18.6426 171.184L27.9123 171.184L28.1214 171.184L28.2205 171L32.8553 162.383L32.9445 162.217L32.8553 162.051L28.2205 153.434L28.1214 153.25L27.9123 153.25L18.6426 153.25L18.4335 153.25L18.3344 153.434L13.6996 162.051Z" stroke="#FF5500" stroke-width="0.7"/>
<path d="M27.9281 153.155L27.8389 153.321L27.9281 153.486L32.5629 162.103L32.662 162.287L32.8712 162.287L42.1408 162.287L42.35 162.287L42.449 162.103L47.0839 153.486L47.173 153.321L47.0839 153.155L42.449 144.538L42.35 144.354L42.1408 144.354L32.8712 144.354L32.662 144.354L32.5629 144.538L27.9281 153.155Z" stroke="#FF5500" stroke-width="0.7"/>
<path d="M-0.527966 153.155L-0.617142 153.321L-0.527966 153.486L4.10685 162.103L4.20593 162.287L4.41509 162.287L13.6847 162.287L13.8939 162.287L13.993 162.103L18.6278 153.486L18.717 153.321L18.6278 153.155L13.993 144.538L13.8939 144.354L13.6847 144.354L4.4151 144.354L4.20594 144.354L4.10686 144.538L-0.527966 153.155Z" stroke="#FF5500" stroke-width="0.7"/>
<path d="M13.6996 144.258L13.6104 144.424L13.6996 144.59L18.3344 153.207L18.4335 153.391L18.6426 153.391L27.9123 153.391L28.1214 153.391L28.2205 153.207L32.8553 144.59L32.9445 144.424L32.8553 144.258L28.2205 135.641L28.1214 135.457L27.9123 135.457L18.6426 135.457L18.4335 135.457L18.3344 135.641L13.6996 144.258Z" stroke="#FF5500" stroke-width="0.7"/>
<path d="M-14.7545 144.258L-14.8437 144.424L-14.7545 144.59L-10.1197 153.207L-10.0206 153.391L-9.81147 153.391L-0.541826 153.391L-0.332665 153.391L-0.233585 153.207L4.40124 144.59L4.49041 144.424L4.40124 144.258L-0.233583 135.641L-0.332663 135.457L-0.541824 135.457L-9.81147 135.457L-10.0206 135.457L-10.1197 135.641L-14.7545 144.258Z" stroke="#FF5500" stroke-width="0.7"/>
<path d="M-0.527966 135.362L-0.617142 135.528L-0.527966 135.693L4.10685 144.31L4.20593 144.494L4.41509 144.494L13.6847 144.494L13.8939 144.494L13.993 144.31L18.6278 135.693L18.717 135.528L18.6278 135.362L13.993 126.745L13.8939 126.561L13.6847 126.561L4.4151 126.561L4.20594 126.561L4.10686 126.745L-0.527966 135.362Z" stroke="#FF5500" stroke-width="0.7"/>
<path d="M27.9281 135.362L27.8389 135.528L27.9281 135.693L32.5629 144.31L32.662 144.494L32.8712 144.494L42.1408 144.494L42.35 144.494L42.449 144.31L47.0839 135.693L47.173 135.528L47.0839 135.362L42.449 126.745L42.35 126.561L42.1408 126.561L32.8712 126.561L32.662 126.561L32.5629 126.745L27.9281 135.362Z" stroke="#FF5500" stroke-width="0.7"/>
<path d="M42.1566 126.465L42.0674 126.631L42.1566 126.797L46.7914 135.414L46.8905 135.598L47.0997 135.598L56.3693 135.598L56.5785 135.598L56.6775 135.414L61.3124 126.797L61.4015 126.631L61.3124 126.465L56.6776 117.848L56.5785 117.664L56.3693 117.664L47.0997 117.664L46.8905 117.664L46.7914 117.848L42.1566 126.465Z" stroke="#FF5500" stroke-width="0.7"/>
<path d="M13.6996 126.465L13.6104 126.631L13.6996 126.797L18.3344 135.414L18.4335 135.598L18.6426 135.598L27.9123 135.598L28.1214 135.598L28.2205 135.414L32.8553 126.797L32.9445 126.631L32.8553 126.465L28.2205 117.848L28.1214 117.664L27.9123 117.664L18.6426 117.664L18.4335 117.664L18.3344 117.848L13.6996 126.465Z" stroke="#FF5500" stroke-width="0.7"/>
<path d="M27.9281 117.569L27.8389 117.735L27.9281 117.9L32.5629 126.517L32.662 126.702L32.8712 126.702L42.1408 126.702L42.35 126.702L42.449 126.517L47.0839 117.9L47.173 117.735L47.0839 117.569L42.449 108.952L42.35 108.768L42.1408 108.768L32.8712 108.768L32.662 108.768L32.5629 108.952L27.9281 117.569Z" stroke="#FF5500" stroke-width="0.7"/>
<path d="M-0.527966 117.569L-0.617142 117.735L-0.527966 117.9L4.10685 126.517L4.20593 126.702L4.41509 126.702L13.6847 126.702L13.8939 126.702L13.993 126.517L18.6278 117.9L18.717 117.735L18.6278 117.569L13.993 108.952L13.8939 108.768L13.6847 108.768L4.4151 108.768L4.20594 108.768L4.10686 108.952L-0.527966 117.569Z" stroke="#FF5500" stroke-width="0.7"/>
<path d="M13.6996 108.672L13.6104 108.838L13.6996 109.004L18.3344 117.621L18.4335 117.805L18.6426 117.805L27.9123 117.805L28.1214 117.805L28.2205 117.621L32.8553 109.004L32.9445 108.838L32.8553 108.672L28.2205 100.055L28.1214 99.8712L27.9123 99.8712L18.6426 99.8712L18.4335 99.8712L18.3344 100.055L13.6996 108.672Z" stroke="#FF5500" stroke-width="0.7"/>
<path d="M-14.7545 108.672L-14.8437 108.838L-14.7545 109.004L-10.1197 117.621L-10.0206 117.805L-9.81147 117.805L-0.541826 117.805L-0.332665 117.805L-0.233585 117.621L4.40124 109.004L4.49041 108.838L4.40124 108.672L-0.233583 100.055L-0.332663 99.8712L-0.541824 99.8712L-9.81147 99.8712L-10.0206 99.8712L-10.1197 100.055L-14.7545 108.672Z" stroke="#FF5500" stroke-width="0.7"/>
<path d="M-0.527966 99.7758L-0.617142 99.9416L-0.527966 100.107L4.10685 108.724L4.20593 108.909L4.41509 108.909L13.6847 108.909L13.8939 108.909L13.993 108.724L18.6278 100.107L18.717 99.9416L18.6278 99.7758L13.993 91.1589L13.8939 90.9747L13.6847 90.9747L4.4151 90.9747L4.20594 90.9747L4.10686 91.1589L-0.527966 99.7758Z" stroke="#FF5500" stroke-width="0.7"/>
<path d="M-14.7545 90.8793L-14.8437 91.0451L-14.7545 91.2109L-10.1197 99.8279L-10.0206 100.012L-9.81147 100.012L-0.541826 100.012L-0.332665 100.012L-0.233585 99.8279L4.40124 91.2109L4.49041 91.0451L4.40124 90.8794L-0.233583 82.2624L-0.332663 82.0782L-0.541824 82.0782L-9.81147 82.0782L-10.0206 82.0782L-10.1197 82.2624L-14.7545 90.8793Z" stroke="#FF5500" stroke-width="0.7"/>
<path d="M13.6996 90.8793L13.6104 91.0451L13.6996 91.2109L18.3344 99.8279L18.4335 100.012L18.6426 100.012L27.9123 100.012L28.1214 100.012L28.2205 99.8279L32.8553 91.2109L32.9445 91.0451L32.8553 90.8794L28.2205 82.2624L28.1214 82.0782L27.9123 82.0782L18.6426 82.0782L18.4335 82.0782L18.3344 82.2624L13.6996 90.8793Z" stroke="#FF5500" stroke-width="0.7"/>
<path d="M27.9281 81.9838L27.8389 82.1496L27.9281 82.3154L32.5629 90.9324L32.662 91.1166L32.8712 91.1166L42.1408 91.1166L42.35 91.1166L42.449 90.9324L47.0839 82.3154L47.173 82.1496L47.0839 81.9838L42.449 73.3669L42.35 73.1827L42.1408 73.1827L32.8712 73.1827L32.662 73.1827L32.5629 73.3669L27.9281 81.9838Z" stroke="#FF5500" stroke-width="0.7"/>
<path d="M-0.527966 81.9838L-0.617142 82.1496L-0.527966 82.3154L4.10685 90.9324L4.20593 91.1166L4.41509 91.1166L13.6847 91.1166L13.8939 91.1166L13.993 90.9324L18.6278 82.3154L18.717 82.1496L18.6278 81.9838L13.993 73.3669L13.8939 73.1827L13.6847 73.1827L4.4151 73.1827L4.20594 73.1827L4.10686 73.3669L-0.527966 81.9838Z" stroke="#FF5500" stroke-width="0.7"/>
<path d="M13.6996 73.0874L13.6104 73.2532L13.6996 73.4189L18.3344 82.0359L18.4335 82.2201L18.6426 82.2201L27.9123 82.2201L28.1214 82.2201L28.2205 82.0359L32.8553 73.4189L32.9445 73.2532L32.8553 73.0874L28.2205 64.4704L28.1214 64.2862L27.9123 64.2862L18.6426 64.2862L18.4335 64.2862L18.3344 64.4704L13.6996 73.0874Z" stroke="#FF5500" stroke-width="0.7"/>
<path d="M-14.7545 73.0874L-14.8437 73.2532L-14.7545 73.4189L-10.1197 82.0359L-10.0206 82.2201L-9.81147 82.2201L-0.541826 82.2201L-0.332665 82.2201L-0.233585 82.0359L4.40124 73.4189L4.49041 73.2532L4.40124 73.0874L-0.233583 64.4704L-0.332663 64.2862L-0.541824 64.2862L-9.81147 64.2862L-10.0206 64.2862L-10.1197 64.4704L-14.7545 73.0874Z" stroke="#FF5500" stroke-width="0.7"/>
<path d="M-0.527966 64.1909L-0.617142 64.3567L-0.527966 64.5225L4.10685 73.1394L4.20593 73.3236L4.41509 73.3236L13.6847 73.3236L13.8939 73.3236L13.993 73.1394L18.6278 64.5225L18.717 64.3567L18.6278 64.1909L13.993 55.5739L13.8939 55.3897L13.6847 55.3897L4.4151 55.3897L4.20594 55.3897L4.10686 55.5739L-0.527966 64.1909Z" stroke="#FF5500" stroke-width="0.7"/>
<path d="M-14.7545 55.2944L-14.8437 55.4602L-14.7545 55.626L-10.1197 64.2429L-10.0206 64.4271L-9.81147 64.4271L-0.541826 64.4271L-0.332665 64.4271L-0.233585 64.2429L4.40124 55.626L4.49041 55.4602L4.40124 55.2944L-0.233583 46.6775L-0.332663 46.4933L-0.541824 46.4933L-9.81147 46.4933L-10.0206 46.4933L-10.1197 46.6775L-14.7545 55.2944Z" stroke="#FF5500" stroke-width="0.7"/>
<g filter="url(#filter42_f_113_12643)">
<path d="M-14.3315 160.876L-14.4278 161.047L-14.3315 161.218L-9.49239 169.835L-9.39207 170.014L-9.18722 170.014L0.491089 170.014L0.695949 170.014L0.796259 169.835L5.63541 161.218L5.73166 161.047L5.63541 160.876L0.796261 152.259L0.695951 152.08L0.491091 152.08L-9.18721 152.08L-9.39207 152.08L-9.49238 152.259L-14.3315 160.876Z" stroke="#FF9900" stroke-width="0.7"/>
<path d="M-14.3315 125.29L-14.4278 125.461L-14.3315 125.633L-9.49239 134.249L-9.39207 134.428L-9.18722 134.428L0.491089 134.428L0.695949 134.428L0.796259 134.249L5.63541 125.633L5.73166 125.461L5.63541 125.29L0.796261 116.673L0.695951 116.494L0.491091 116.494L-9.18721 116.494L-9.39207 116.494L-9.49238 116.673L-14.3315 125.29Z" stroke="#FF9900" stroke-width="0.7"/>
<path d="M15.3774 160.876L15.2812 161.047L15.3774 161.218L20.2166 169.835L20.3169 170.014L20.5218 170.014L30.2001 170.014L30.4049 170.014L30.5052 169.835L35.3444 161.218L35.4406 161.047L35.3444 160.876L30.5052 152.259L30.4049 152.08L30.2001 152.08L20.5218 152.08L20.3169 152.08L20.2166 152.259L15.3774 160.876Z" stroke="#FF9900" stroke-width="0.7"/>
<path d="M30.2329 151.979L30.1367 152.151L30.2329 152.322L35.0721 160.939L35.1724 161.118L35.3772 161.118L45.0555 161.118L45.2604 161.118L45.3607 160.939L50.1999 152.322L50.2961 152.151L50.1999 151.979L45.3607 143.362L45.2604 143.184L45.0555 143.184L35.3772 143.184L35.1724 143.184L35.0721 143.362L30.2329 151.979Z" stroke="#FF9900" stroke-width="0.7"/>
<path d="M0.523932 151.979L0.427688 152.151L0.523932 152.322L5.36308 160.939L5.46339 161.118L5.66825 161.118L15.3466 161.118L15.5514 161.118L15.6517 160.939L20.4909 152.322L20.5871 152.151L20.4909 151.979L15.6517 143.362L15.5514 143.184L15.3466 143.184L5.66826 143.184L5.4634 143.184L5.36309 143.362L0.523932 151.979Z" stroke="#FF9900" stroke-width="0.7"/>
<path d="M15.3774 143.083L15.2812 143.254L15.3774 143.426L20.2166 152.042L20.3169 152.221L20.5218 152.221L30.2001 152.221L30.4049 152.221L30.5052 152.042L35.3444 143.426L35.4406 143.254L35.3444 143.083L30.5052 134.466L30.4049 134.287L30.2001 134.287L20.5218 134.287L20.3169 134.287L20.2166 134.466L15.3774 143.083Z" stroke="#FF9900" stroke-width="0.7"/>
<path d="M-14.3315 143.083L-14.4278 143.254L-14.3315 143.426L-9.49239 152.042L-9.39207 152.221L-9.18722 152.221L0.491089 152.221L0.695949 152.221L0.796259 152.042L5.63541 143.426L5.73166 143.254L5.63541 143.083L0.796261 134.466L0.695951 134.287L0.491091 134.287L-9.18721 134.287L-9.39207 134.287L-9.49238 134.466L-14.3315 143.083Z" stroke="#FF9900" stroke-width="0.7"/>
<path d="M0.523932 134.186L0.427688 134.358L0.523932 134.529L5.36308 143.146L5.46339 143.325L5.66825 143.325L15.3466 143.325L15.5514 143.325L15.6517 143.146L20.4909 134.529L20.5871 134.358L20.4909 134.186L15.6517 125.569L15.5514 125.391L15.3466 125.391L5.66826 125.391L5.4634 125.391L5.36309 125.569L0.523932 134.186Z" stroke="#FF9900" stroke-width="0.7"/>
<path d="M30.2329 134.186L30.1367 134.358L30.2329 134.529L35.0721 143.146L35.1724 143.325L35.3772 143.325L45.0555 143.325L45.2604 143.325L45.3607 143.146L50.1999 134.529L50.2961 134.358L50.1999 134.186L45.3607 125.569L45.2604 125.391L45.0555 125.391L35.3772 125.391L35.1724 125.391L35.0721 125.569L30.2329 134.186Z" stroke="#FF9900" stroke-width="0.7"/>
<path d="M45.0884 125.29L44.9921 125.461L45.0884 125.633L49.9275 134.249L50.0278 134.428L50.2327 134.428L59.911 134.428L60.1159 134.428L60.2162 134.249L65.0553 125.633L65.1516 125.461L65.0553 125.29L60.2162 116.673L60.1159 116.494L59.911 116.494L50.2327 116.494L50.0278 116.494L49.9275 116.673L45.0884 125.29Z" stroke="#FF9900" stroke-width="0.7"/>
<path d="M15.3774 125.29L15.2812 125.461L15.3774 125.633L20.2166 134.249L20.3169 134.428L20.5218 134.428L30.2001 134.428L30.4049 134.428L30.5052 134.249L35.3444 125.633L35.4406 125.461L35.3444 125.29L30.5052 116.673L30.4049 116.494L30.2001 116.494L20.5218 116.494L20.3169 116.494L20.2166 116.673L15.3774 125.29Z" stroke="#FF9900" stroke-width="0.7"/>
<path d="M30.2329 116.393L30.1367 116.565L30.2329 116.736L35.0721 125.353L35.1724 125.532L35.3772 125.532L45.0555 125.532L45.2604 125.532L45.3607 125.353L50.1999 116.736L50.2961 116.565L50.1999 116.393L45.3607 107.776L45.2604 107.598L45.0555 107.598L35.3772 107.598L35.1724 107.598L35.0721 107.776L30.2329 116.393Z" stroke="#FF9900" stroke-width="0.7"/>
<path d="M0.523932 116.393L0.427688 116.565L0.523932 116.736L5.36308 125.353L5.46339 125.532L5.66825 125.532L15.3466 125.532L15.5514 125.532L15.6517 125.353L20.4909 116.736L20.5871 116.565L20.4909 116.393L15.6517 107.776L15.5514 107.598L15.3466 107.598L5.66826 107.598L5.4634 107.598L5.36309 107.776L0.523932 116.393Z" stroke="#FF9900" stroke-width="0.7"/>
<path d="M15.3774 107.497L15.2812 107.668L15.3774 107.84L20.2166 116.457L20.3169 116.635L20.5218 116.635L30.2001 116.635L30.4049 116.635L30.5052 116.457L35.3444 107.84L35.4406 107.668L35.3444 107.497L30.5052 98.8799L30.4049 98.7013L30.2001 98.7013L20.5218 98.7013L20.3169 98.7013L20.2166 98.8799L15.3774 107.497Z" stroke="#FF9900" stroke-width="0.7"/>
<path d="M-14.3315 107.497L-14.4278 107.668L-14.3315 107.84L-9.49239 116.457L-9.39207 116.635L-9.18722 116.635L0.491089 116.635L0.695949 116.635L0.796259 116.457L5.63541 107.84L5.73166 107.668L5.63541 107.497L0.796261 98.8799L0.695951 98.7013L0.491091 98.7013L-9.18721 98.7013L-9.39207 98.7013L-9.49238 98.8799L-14.3315 107.497Z" stroke="#FF9900" stroke-width="0.7"/>
<path d="M0.523932 98.6013L0.427688 98.7727L0.523932 98.9441L5.36308 107.561L5.46339 107.74L5.66825 107.74L15.3466 107.74L15.5514 107.74L15.6517 107.561L20.4909 98.9441L20.5871 98.7727L20.4909 98.6013L15.6517 89.9844L15.5514 89.8058L15.3466 89.8058L5.66826 89.8058L5.4634 89.8058L5.36309 89.9844L0.523932 98.6013Z" stroke="#FF9900" stroke-width="0.7"/>
<path d="M-14.3315 89.7038L-14.4278 89.8752L-14.3315 90.0466L-9.49239 98.6635L-9.39207 98.8422L-9.18722 98.8422L0.491089 98.8422L0.695949 98.8422L0.796259 98.6635L5.63541 90.0466L5.73166 89.8752L5.63541 89.7038L0.796261 81.0869L0.695951 80.9083L0.491091 80.9083L-9.18721 80.9083L-9.39207 80.9083L-9.49238 81.0869L-14.3315 89.7038Z" stroke="#FF9900" stroke-width="0.7"/>
<path d="M15.3774 89.7038L15.2812 89.8752L15.3774 90.0466L20.2166 98.6635L20.3169 98.8422L20.5218 98.8422L30.2001 98.8422L30.4049 98.8422L30.5052 98.6635L35.3444 90.0466L35.4406 89.8752L35.3444 89.7038L30.5052 81.0869L30.4049 80.9083L30.2001 80.9083L20.5218 80.9083L20.3169 80.9083L20.2166 81.0869L15.3774 89.7038Z" stroke="#FF9900" stroke-width="0.7"/>
<path d="M30.2329 80.8074L30.1367 80.9787L30.2329 81.1501L35.0721 89.767L35.1724 89.9457L35.3772 89.9457L45.0555 89.9457L45.2604 89.9457L45.3607 89.767L50.1999 81.1501L50.2961 80.9787L50.1999 80.8074L45.3607 72.1904L45.2604 72.0118L45.0555 72.0118L35.3772 72.0118L35.1724 72.0118L35.0721 72.1904L30.2329 80.8074Z" stroke="#FF9900" stroke-width="0.7"/>
<path d="M0.523932 80.8074L0.427688 80.9787L0.523932 81.1501L5.36308 89.767L5.46339 89.9457L5.66825 89.9457L15.3466 89.9457L15.5514 89.9457L15.6517 89.767L20.4909 81.1501L20.5871 80.9787L20.4909 80.8074L15.6517 72.1904L15.5514 72.0118L15.3466 72.0118L5.66826 72.0118L5.4634 72.0118L5.36309 72.1904L0.523932 80.8074Z" stroke="#FF9900" stroke-width="0.7"/>
<path d="M15.3774 71.9118L15.2812 72.0832L15.3774 72.2546L20.2166 80.8715L20.3169 81.0502L20.5218 81.0502L30.2001 81.0502L30.4049 81.0502L30.5052 80.8715L35.3444 72.2546L35.4406 72.0832L35.3444 71.9119L30.5052 63.2949L30.4049 63.1163L30.2001 63.1163L20.5218 63.1163L20.3169 63.1163L20.2166 63.2949L15.3774 71.9118Z" stroke="#FF9900" stroke-width="0.7"/>
<path d="M-14.3315 71.9118L-14.4278 72.0832L-14.3315 72.2546L-9.49239 80.8715L-9.39207 81.0502L-9.18722 81.0502L0.491089 81.0502L0.695949 81.0502L0.796259 80.8715L5.63541 72.2546L5.73166 72.0832L5.63541 71.9119L0.796261 63.2949L0.695951 63.1163L0.491091 63.1163L-9.18721 63.1163L-9.39207 63.1163L-9.49238 63.2949L-14.3315 71.9118Z" stroke="#FF9900" stroke-width="0.7"/>
<path d="M0.523932 63.0144L0.427688 63.1858L0.523932 63.3571L5.36308 71.9741L5.46339 72.1527L5.66825 72.1527L15.3466 72.1527L15.5514 72.1527L15.6517 71.9741L20.4909 63.3572L20.5871 63.1858L20.4909 63.0144L15.6517 54.3975L15.5514 54.2188L15.3466 54.2188L5.66826 54.2188L5.4634 54.2188L5.36309 54.3975L0.523932 63.0144Z" stroke="#FF9900" stroke-width="0.7"/>
<path d="M-14.3315 54.1189L-14.4278 54.2903L-14.3315 54.4616L-9.49239 63.0786L-9.39207 63.2572L-9.18722 63.2572L0.491089 63.2572L0.695949 63.2572L0.796259 63.0786L5.63541 54.4616L5.73166 54.2903L5.63541 54.1189L0.796261 45.502L0.695951 45.3233L0.491091 45.3233L-9.18721 45.3233L-9.39207 45.3233L-9.49238 45.502L-14.3315 54.1189Z" stroke="#FF9900" stroke-width="0.7"/>
<path d="M-14.3315 160.876L-14.4278 161.047L-14.3315 161.218L-9.49239 169.835L-9.39207 170.014L-9.18722 170.014L0.491089 170.014L0.695949 170.014L0.796259 169.835L5.63541 161.218L5.73166 161.047L5.63541 160.876L0.796261 152.259L0.695951 152.08L0.491091 152.08L-9.18721 152.08L-9.39207 152.08L-9.49238 152.259L-14.3315 160.876Z" stroke="#FF9900" stroke-width="0.7"/>
<path d="M-14.3315 125.29L-14.4278 125.461L-14.3315 125.633L-9.49239 134.249L-9.39207 134.428L-9.18722 134.428L0.491089 134.428L0.695949 134.428L0.796259 134.249L5.63541 125.633L5.73166 125.461L5.63541 125.29L0.796261 116.673L0.695951 116.494L0.491091 116.494L-9.18721 116.494L-9.39207 116.494L-9.49238 116.673L-14.3315 125.29Z" stroke="#FF9900" stroke-width="0.7"/>
<path d="M15.3774 160.876L15.2812 161.047L15.3774 161.218L20.2166 169.835L20.3169 170.014L20.5218 170.014L30.2001 170.014L30.4049 170.014L30.5052 169.835L35.3444 161.218L35.4406 161.047L35.3444 160.876L30.5052 152.259L30.4049 152.08L30.2001 152.08L20.5218 152.08L20.3169 152.08L20.2166 152.259L15.3774 160.876Z" stroke="#FF9900" stroke-width="0.7"/>
<path d="M30.2329 151.979L30.1367 152.151L30.2329 152.322L35.0721 160.939L35.1724 161.118L35.3772 161.118L45.0555 161.118L45.2604 161.118L45.3607 160.939L50.1999 152.322L50.2961 152.151L50.1999 151.979L45.3607 143.362L45.2604 143.184L45.0555 143.184L35.3772 143.184L35.1724 143.184L35.0721 143.362L30.2329 151.979Z" stroke="#FF9900" stroke-width="0.7"/>
<path d="M0.523932 151.979L0.427688 152.151L0.523932 152.322L5.36308 160.939L5.46339 161.118L5.66825 161.118L15.3466 161.118L15.5514 161.118L15.6517 160.939L20.4909 152.322L20.5871 152.151L20.4909 151.979L15.6517 143.362L15.5514 143.184L15.3466 143.184L5.66826 143.184L5.4634 143.184L5.36309 143.362L0.523932 151.979Z" stroke="#FF9900" stroke-width="0.7"/>
<path d="M15.3774 143.083L15.2812 143.254L15.3774 143.426L20.2166 152.042L20.3169 152.221L20.5218 152.221L30.2001 152.221L30.4049 152.221L30.5052 152.042L35.3444 143.426L35.4406 143.254L35.3444 143.083L30.5052 134.466L30.4049 134.287L30.2001 134.287L20.5218 134.287L20.3169 134.287L20.2166 134.466L15.3774 143.083Z" stroke="#FF9900" stroke-width="0.7"/>
<path d="M-14.3315 143.083L-14.4278 143.254L-14.3315 143.426L-9.49239 152.042L-9.39207 152.221L-9.18722 152.221L0.491089 152.221L0.695949 152.221L0.796259 152.042L5.63541 143.426L5.73166 143.254L5.63541 143.083L0.796261 134.466L0.695951 134.287L0.491091 134.287L-9.18721 134.287L-9.39207 134.287L-9.49238 134.466L-14.3315 143.083Z" stroke="#FF9900" stroke-width="0.7"/>
<path d="M0.523932 134.186L0.427688 134.358L0.523932 134.529L5.36308 143.146L5.46339 143.325L5.66825 143.325L15.3466 143.325L15.5514 143.325L15.6517 143.146L20.4909 134.529L20.5871 134.358L20.4909 134.186L15.6517 125.569L15.5514 125.391L15.3466 125.391L5.66826 125.391L5.4634 125.391L5.36309 125.569L0.523932 134.186Z" stroke="#FF9900" stroke-width="0.7"/>
<path d="M30.2329 134.186L30.1367 134.358L30.2329 134.529L35.0721 143.146L35.1724 143.325L35.3772 143.325L45.0555 143.325L45.2604 143.325L45.3607 143.146L50.1999 134.529L50.2961 134.358L50.1999 134.186L45.3607 125.569L45.2604 125.391L45.0555 125.391L35.3772 125.391L35.1724 125.391L35.0721 125.569L30.2329 134.186Z" stroke="#FF9900" stroke-width="0.7"/>
<path d="M45.0884 125.29L44.9921 125.461L45.0884 125.633L49.9275 134.249L50.0278 134.428L50.2327 134.428L59.911 134.428L60.1159 134.428L60.2162 134.249L65.0553 125.633L65.1516 125.461L65.0553 125.29L60.2162 116.673L60.1159 116.494L59.911 116.494L50.2327 116.494L50.0278 116.494L49.9275 116.673L45.0884 125.29Z" stroke="#FF9900" stroke-width="0.7"/>
<path d="M15.3774 125.29L15.2812 125.461L15.3774 125.633L20.2166 134.249L20.3169 134.428L20.5218 134.428L30.2001 134.428L30.4049 134.428L30.5052 134.249L35.3444 125.633L35.4406 125.461L35.3444 125.29L30.5052 116.673L30.4049 116.494L30.2001 116.494L20.5218 116.494L20.3169 116.494L20.2166 116.673L15.3774 125.29Z" stroke="#FF9900" stroke-width="0.7"/>
<path d="M30.2329 116.393L30.1367 116.565L30.2329 116.736L35.0721 125.353L35.1724 125.532L35.3772 125.532L45.0555 125.532L45.2604 125.532L45.3607 125.353L50.1999 116.736L50.2961 116.565L50.1999 116.393L45.3607 107.776L45.2604 107.598L45.0555 107.598L35.3772 107.598L35.1724 107.598L35.0721 107.776L30.2329 116.393Z" stroke="#FF9900" stroke-width="0.7"/>
<path d="M0.523932 116.393L0.427688 116.565L0.523932 116.736L5.36308 125.353L5.46339 125.532L5.66825 125.532L15.3466 125.532L15.5514 125.532L15.6517 125.353L20.4909 116.736L20.5871 116.565L20.4909 116.393L15.6517 107.776L15.5514 107.598L15.3466 107.598L5.66826 107.598L5.4634 107.598L5.36309 107.776L0.523932 116.393Z" stroke="#FF9900" stroke-width="0.7"/>
<path d="M15.3774 107.497L15.2812 107.668L15.3774 107.84L20.2166 116.457L20.3169 116.635L20.5218 116.635L30.2001 116.635L30.4049 116.635L30.5052 116.457L35.3444 107.84L35.4406 107.668L35.3444 107.497L30.5052 98.8799L30.4049 98.7013L30.2001 98.7013L20.5218 98.7013L20.3169 98.7013L20.2166 98.8799L15.3774 107.497Z" stroke="#FF9900" stroke-width="0.7"/>
<path d="M-14.3315 107.497L-14.4278 107.668L-14.3315 107.84L-9.49239 116.457L-9.39207 116.635L-9.18722 116.635L0.491089 116.635L0.695949 116.635L0.796259 116.457L5.63541 107.84L5.73166 107.668L5.63541 107.497L0.796261 98.8799L0.695951 98.7013L0.491091 98.7013L-9.18721 98.7013L-9.39207 98.7013L-9.49238 98.8799L-14.3315 107.497Z" stroke="#FF9900" stroke-width="0.7"/>
<path d="M0.523932 98.6013L0.427688 98.7727L0.523932 98.9441L5.36308 107.561L5.46339 107.74L5.66825 107.74L15.3466 107.74L15.5514 107.74L15.6517 107.561L20.4909 98.9441L20.5871 98.7727L20.4909 98.6013L15.6517 89.9844L15.5514 89.8058L15.3466 89.8058L5.66826 89.8058L5.4634 89.8058L5.36309 89.9844L0.523932 98.6013Z" stroke="#FF9900" stroke-width="0.7"/>
<path d="M-14.3315 89.7038L-14.4278 89.8752L-14.3315 90.0466L-9.49239 98.6635L-9.39207 98.8422L-9.18722 98.8422L0.491089 98.8422L0.695949 98.8422L0.796259 98.6635L5.63541 90.0466L5.73166 89.8752L5.63541 89.7038L0.796261 81.0869L0.695951 80.9083L0.491091 80.9083L-9.18721 80.9083L-9.39207 80.9083L-9.49238 81.0869L-14.3315 89.7038Z" stroke="#FF9900" stroke-width="0.7"/>
<path d="M15.3774 89.7038L15.2812 89.8752L15.3774 90.0466L20.2166 98.6635L20.3169 98.8422L20.5218 98.8422L30.2001 98.8422L30.4049 98.8422L30.5052 98.6635L35.3444 90.0466L35.4406 89.8752L35.3444 89.7038L30.5052 81.0869L30.4049 80.9083L30.2001 80.9083L20.5218 80.9083L20.3169 80.9083L20.2166 81.0869L15.3774 89.7038Z" stroke="#FF9900" stroke-width="0.7"/>
<path d="M30.2329 80.8074L30.1367 80.9787L30.2329 81.1501L35.0721 89.767L35.1724 89.9457L35.3772 89.9457L45.0555 89.9457L45.2604 89.9457L45.3607 89.767L50.1999 81.1501L50.2961 80.9787L50.1999 80.8074L45.3607 72.1904L45.2604 72.0118L45.0555 72.0118L35.3772 72.0118L35.1724 72.0118L35.0721 72.1904L30.2329 80.8074Z" stroke="#FF9900" stroke-width="0.7"/>
<path d="M0.523932 80.8074L0.427688 80.9787L0.523932 81.1501L5.36308 89.767L5.46339 89.9457L5.66825 89.9457L15.3466 89.9457L15.5514 89.9457L15.6517 89.767L20.4909 81.1501L20.5871 80.9787L20.4909 80.8074L15.6517 72.1904L15.5514 72.0118L15.3466 72.0118L5.66826 72.0118L5.4634 72.0118L5.36309 72.1904L0.523932 80.8074Z" stroke="#FF9900" stroke-width="0.7"/>
<path d="M15.3774 71.9118L15.2812 72.0832L15.3774 72.2546L20.2166 80.8715L20.3169 81.0502L20.5218 81.0502L30.2001 81.0502L30.4049 81.0502L30.5052 80.8715L35.3444 72.2546L35.4406 72.0832L35.3444 71.9119L30.5052 63.2949L30.4049 63.1163L30.2001 63.1163L20.5218 63.1163L20.3169 63.1163L20.2166 63.2949L15.3774 71.9118Z" stroke="#FF9900" stroke-width="0.7"/>
<path d="M-14.3315 71.9118L-14.4278 72.0832L-14.3315 72.2546L-9.49239 80.8715L-9.39207 81.0502L-9.18722 81.0502L0.491089 81.0502L0.695949 81.0502L0.796259 80.8715L5.63541 72.2546L5.73166 72.0832L5.63541 71.9119L0.796261 63.2949L0.695951 63.1163L0.491091 63.1163L-9.18721 63.1163L-9.39207 63.1163L-9.49238 63.2949L-14.3315 71.9118Z" stroke="#FF9900" stroke-width="0.7"/>
<path d="M0.523932 63.0144L0.427688 63.1858L0.523932 63.3571L5.36308 71.9741L5.46339 72.1527L5.66825 72.1527L15.3466 72.1527L15.5514 72.1527L15.6517 71.9741L20.4909 63.3572L20.5871 63.1858L20.4909 63.0144L15.6517 54.3975L15.5514 54.2188L15.3466 54.2188L5.66826 54.2188L5.4634 54.2188L5.36309 54.3975L0.523932 63.0144Z" stroke="#FF9900" stroke-width="0.7"/>
<path d="M-14.3315 54.1189L-14.4278 54.2903L-14.3315 54.4616L-9.49239 63.0786L-9.39207 63.2572L-9.18722 63.2572L0.491089 63.2572L0.695949 63.2572L0.796259 63.0786L5.63541 54.4616L5.73166 54.2903L5.63541 54.1189L0.796261 45.502L0.695951 45.3233L0.491091 45.3233L-9.18721 45.3233L-9.39207 45.3233L-9.49238 45.502L-14.3315 54.1189Z" stroke="#FF9900" stroke-width="0.7"/>
</g>
</g>
<defs>
<filter id="filter0_f_113_12643" x="-189.455" y="-49.708" width="312.453" height="312.453" filterUnits="userSpaceOnUse" color-interpolation-filters="sRGB">
<feFlood flood-opacity="0" result="BackgroundImageFix"/>
<feBlend mode="normal" in="SourceGraphic" in2="BackgroundImageFix" result="shape"/>
<feGaussianBlur stdDeviation="63" result="effect1_foregroundBlur_113_12643"/>
</filter>
<filter id="filter1_f_113_12643" x="-166.456" y="35.373" width="211.218" height="140.604" filterUnits="userSpaceOnUse" color-interpolation-filters="sRGB">
<feFlood flood-opacity="0" result="BackgroundImageFix"/>
<feBlend mode="normal" in="SourceGraphic" in2="BackgroundImageFix" result="shape"/>
<feGaussianBlur stdDeviation="0.5" result="effect1_foregroundBlur_113_12643"/>
</filter>
<filter id="filter2_f_113_12643" x="-20.3984" y="137.451" width="28.2344" height="26.207" filterUnits="userSpaceOnUse" color-interpolation-filters="sRGB">
<feFlood flood-opacity="0" result="BackgroundImageFix"/>
<feBlend mode="normal" in="SourceGraphic" in2="BackgroundImageFix" result="shape"/>
<feGaussianBlur stdDeviation="2.5" result="effect1_foregroundBlur_113_12643"/>
</filter>
<filter id="filter3_f_113_12643" x="6.88379" y="137.451" width="28.2344" height="26.207" filterUnits="userSpaceOnUse" color-interpolation-filters="sRGB">
<feFlood flood-opacity="0" result="BackgroundImageFix"/>
<feBlend mode="normal" in="SourceGraphic" in2="BackgroundImageFix" result="shape"/>
<feGaussianBlur stdDeviation="2.5" result="effect1_foregroundBlur_113_12643"/>
</filter>
<filter id="filter4_f_113_12643" x="20.5273" y="129.29" width="28.2344" height="26.207" filterUnits="userSpaceOnUse" color-interpolation-filters="sRGB">
<feFlood flood-opacity="0" result="BackgroundImageFix"/>
<feBlend mode="normal" in="SourceGraphic" in2="BackgroundImageFix" result="shape"/>
<feGaussianBlur stdDeviation="2.5" result="effect1_foregroundBlur_113_12643"/>
</filter>
<filter id="filter5_f_113_12643" x="-6.75781" y="129.29" width="28.2344" height="26.207" filterUnits="userSpaceOnUse" color-interpolation-filters="sRGB">
<feFlood flood-opacity="0" result="BackgroundImageFix"/>
<feBlend mode="normal" in="SourceGraphic" in2="BackgroundImageFix" result="shape"/>
<feGaussianBlur stdDeviation="2.5" result="effect1_foregroundBlur_113_12643"/>
</filter>
<filter id="filter6_f_113_12643" x="6.88379" y="121.131" width="28.2344" height="26.207" filterUnits="userSpaceOnUse" color-interpolation-filters="sRGB">
<feFlood flood-opacity="0" result="BackgroundImageFix"/>
<feBlend mode="normal" in="SourceGraphic" in2="BackgroundImageFix" result="shape"/>
<feGaussianBlur stdDeviation="2.5" result="effect1_foregroundBlur_113_12643"/>
</filter>
<filter id="filter7_f_113_12643" x="-20.3984" y="121.131" width="28.2344" height="26.207" filterUnits="userSpaceOnUse" color-interpolation-filters="sRGB">
<feFlood flood-opacity="0" result="BackgroundImageFix"/>
<feBlend mode="normal" in="SourceGraphic" in2="BackgroundImageFix" result="shape"/>
<feGaussianBlur stdDeviation="2.5" result="effect1_foregroundBlur_113_12643"/>
</filter>
<filter id="filter8_f_113_12643" x="-6.75781" y="112.972" width="28.2344" height="26.207" filterUnits="userSpaceOnUse" color-interpolation-filters="sRGB">
<feFlood flood-opacity="0" result="BackgroundImageFix"/>
<feBlend mode="normal" in="SourceGraphic" in2="BackgroundImageFix" result="shape"/>
<feGaussianBlur stdDeviation="2.5" result="effect1_foregroundBlur_113_12643"/>
</filter>
<filter id="filter9_f_113_12643" x="-20.3984" y="104.812" width="28.2344" height="26.207" filterUnits="userSpaceOnUse" color-interpolation-filters="sRGB">
<feFlood flood-opacity="0" result="BackgroundImageFix"/>
<feBlend mode="normal" in="SourceGraphic" in2="BackgroundImageFix" result="shape"/>
<feGaussianBlur stdDeviation="2.5" result="effect1_foregroundBlur_113_12643"/>
</filter>
<filter id="filter10_f_113_12643" x="6.88379" y="104.812" width="28.2344" height="26.207" filterUnits="userSpaceOnUse" color-interpolation-filters="sRGB">
<feFlood flood-opacity="0" result="BackgroundImageFix"/>
<feBlend mode="normal" in="SourceGraphic" in2="BackgroundImageFix" result="shape"/>
<feGaussianBlur stdDeviation="2.5" result="effect1_foregroundBlur_113_12643"/>
</filter>
<filter id="filter11_f_113_12643" x="20.5273" y="96.6514" width="28.2344" height="26.207" filterUnits="userSpaceOnUse" color-interpolation-filters="sRGB">
<feFlood flood-opacity="0" result="BackgroundImageFix"/>
<feBlend mode="normal" in="SourceGraphic" in2="BackgroundImageFix" result="shape"/>
<feGaussianBlur stdDeviation="2.5" result="effect1_foregroundBlur_113_12643"/>
</filter>
<filter id="filter12_f_113_12643" x="-6.75781" y="96.6514" width="28.2344" height="26.207" filterUnits="userSpaceOnUse" color-interpolation-filters="sRGB">
<feFlood flood-opacity="0" result="BackgroundImageFix"/>
<feBlend mode="normal" in="SourceGraphic" in2="BackgroundImageFix" result="shape"/>
<feGaussianBlur stdDeviation="2.5" result="effect1_foregroundBlur_113_12643"/>
</filter>
<filter id="filter13_f_113_12643" x="6.88379" y="88.4912" width="28.2344" height="26.207" filterUnits="userSpaceOnUse" color-interpolation-filters="sRGB">
<feFlood flood-opacity="0" result="BackgroundImageFix"/>
<feBlend mode="normal" in="SourceGraphic" in2="BackgroundImageFix" result="shape"/>
<feGaussianBlur stdDeviation="2.5" result="effect1_foregroundBlur_113_12643"/>
</filter>
<filter id="filter14_f_113_12643" x="-20.3984" y="88.4912" width="28.2344" height="26.207" filterUnits="userSpaceOnUse" color-interpolation-filters="sRGB">
<feFlood flood-opacity="0" result="BackgroundImageFix"/>
<feBlend mode="normal" in="SourceGraphic" in2="BackgroundImageFix" result="shape"/>
<feGaussianBlur stdDeviation="2.5" result="effect1_foregroundBlur_113_12643"/>
</filter>
<filter id="filter15_f_113_12643" x="-6.75781" y="80.332" width="28.2344" height="26.207" filterUnits="userSpaceOnUse" color-interpolation-filters="sRGB">
<feFlood flood-opacity="0" result="BackgroundImageFix"/>
<feBlend mode="normal" in="SourceGraphic" in2="BackgroundImageFix" result="shape"/>
<feGaussianBlur stdDeviation="2.5" result="effect1_foregroundBlur_113_12643"/>
</filter>
<filter id="filter16_f_113_12643" x="-20.3984" y="72.1729" width="28.2344" height="26.207" filterUnits="userSpaceOnUse" color-interpolation-filters="sRGB">
<feFlood flood-opacity="0" result="BackgroundImageFix"/>
<feBlend mode="normal" in="SourceGraphic" in2="BackgroundImageFix" result="shape"/>
<feGaussianBlur stdDeviation="2.5" result="effect1_foregroundBlur_113_12643"/>
</filter>
<filter id="filter17_f_113_12643" x="-6.75781" y="64.0117" width="28.2344" height="26.207" filterUnits="userSpaceOnUse" color-interpolation-filters="sRGB">
<feFlood flood-opacity="0" result="BackgroundImageFix"/>
<feBlend mode="normal" in="SourceGraphic" in2="BackgroundImageFix" result="shape"/>
<feGaussianBlur stdDeviation="2.5" result="effect1_foregroundBlur_113_12643"/>
</filter>
<filter id="filter18_f_113_12643" x="6.88379" y="55.8516" width="28.2344" height="26.207" filterUnits="userSpaceOnUse" color-interpolation-filters="sRGB">
<feFlood flood-opacity="0" result="BackgroundImageFix"/>
<feBlend mode="normal" in="SourceGraphic" in2="BackgroundImageFix" result="shape"/>
<feGaussianBlur stdDeviation="2.5" result="effect1_foregroundBlur_113_12643"/>
</filter>
<filter id="filter19_f_113_12643" x="-20.3984" y="55.8516" width="28.2344" height="26.207" filterUnits="userSpaceOnUse" color-interpolation-filters="sRGB">
<feFlood flood-opacity="0" result="BackgroundImageFix"/>
<feBlend mode="normal" in="SourceGraphic" in2="BackgroundImageFix" result="shape"/>
<feGaussianBlur stdDeviation="2.5" result="effect1_foregroundBlur_113_12643"/>
</filter>
<filter id="filter20_f_113_12643" x="-6.75781" y="47.6924" width="28.2344" height="26.207" filterUnits="userSpaceOnUse" color-interpolation-filters="sRGB">
<feFlood flood-opacity="0" result="BackgroundImageFix"/>
<feBlend mode="normal" in="SourceGraphic" in2="BackgroundImageFix" result="shape"/>
<feGaussianBlur stdDeviation="2.5" result="effect1_foregroundBlur_113_12643"/>
</filter>
<filter id="filter21_f_113_12643" x="-20.3984" y="39.5332" width="28.2344" height="26.207" filterUnits="userSpaceOnUse" color-interpolation-filters="sRGB">
<feFlood flood-opacity="0" result="BackgroundImageFix"/>
<feBlend mode="normal" in="SourceGraphic" in2="BackgroundImageFix" result="shape"/>
<feGaussianBlur stdDeviation="2.5" result="effect1_foregroundBlur_113_12643"/>
</filter>
<filter id="filter22_f_113_12643" x="-20.3984" y="137.451" width="28.2344" height="26.207" filterUnits="userSpaceOnUse" color-interpolation-filters="sRGB">
<feFlood flood-opacity="0" result="BackgroundImageFix"/>
<feBlend mode="normal" in="SourceGraphic" in2="BackgroundImageFix" result="shape"/>
<feGaussianBlur stdDeviation="2.5" result="effect1_foregroundBlur_113_12643"/>
</filter>
<filter id="filter23_f_113_12643" x="6.88379" y="137.451" width="28.2344" height="26.207" filterUnits="userSpaceOnUse" color-interpolation-filters="sRGB">
<feFlood flood-opacity="0" result="BackgroundImageFix"/>
<feBlend mode="normal" in="SourceGraphic" in2="BackgroundImageFix" result="shape"/>
<feGaussianBlur stdDeviation="2.5" result="effect1_foregroundBlur_113_12643"/>
</filter>
<filter id="filter24_f_113_12643" x="20.5273" y="129.29" width="28.2344" height="26.207" filterUnits="userSpaceOnUse" color-interpolation-filters="sRGB">
<feFlood flood-opacity="0" result="BackgroundImageFix"/>
<feBlend mode="normal" in="SourceGraphic" in2="BackgroundImageFix" result="shape"/>
<feGaussianBlur stdDeviation="2.5" result="effect1_foregroundBlur_113_12643"/>
</filter>
<filter id="filter25_f_113_12643" x="-6.75781" y="129.29" width="28.2344" height="26.207" filterUnits="userSpaceOnUse" color-interpolation-filters="sRGB">
<feFlood flood-opacity="0" result="BackgroundImageFix"/>
<feBlend mode="normal" in="SourceGraphic" in2="BackgroundImageFix" result="shape"/>
<feGaussianBlur stdDeviation="2.5" result="effect1_foregroundBlur_113_12643"/>
</filter>
<filter id="filter26_f_113_12643" x="6.88379" y="121.131" width="28.2344" height="26.207" filterUnits="userSpaceOnUse" color-interpolation-filters="sRGB">
<feFlood flood-opacity="0" result="BackgroundImageFix"/>
<feBlend mode="normal" in="SourceGraphic" in2="BackgroundImageFix" result="shape"/>
<feGaussianBlur stdDeviation="2.5" result="effect1_foregroundBlur_113_12643"/>
</filter>
<filter id="filter27_f_113_12643" x="-20.3984" y="121.131" width="28.2344" height="26.207" filterUnits="userSpaceOnUse" color-interpolation-filters="sRGB">
<feFlood flood-opacity="0" result="BackgroundImageFix"/>
<feBlend mode="normal" in="SourceGraphic" in2="BackgroundImageFix" result="shape"/>
<feGaussianBlur stdDeviation="2.5" result="effect1_foregroundBlur_113_12643"/>
</filter>
<filter id="filter28_f_113_12643" x="-6.75781" y="112.972" width="28.2344" height="26.207" filterUnits="userSpaceOnUse" color-interpolation-filters="sRGB">
<feFlood flood-opacity="0" result="BackgroundImageFix"/>
<feBlend mode="normal" in="SourceGraphic" in2="BackgroundImageFix" result="shape"/>
<feGaussianBlur stdDeviation="2.5" result="effect1_foregroundBlur_113_12643"/>
</filter>
<filter id="filter29_f_113_12643" x="-20.3984" y="104.812" width="28.2344" height="26.207" filterUnits="userSpaceOnUse" color-interpolation-filters="sRGB">
<feFlood flood-opacity="0" result="BackgroundImageFix"/>
<feBlend mode="normal" in="SourceGraphic" in2="BackgroundImageFix" result="shape"/>
<feGaussianBlur stdDeviation="2.5" result="effect1_foregroundBlur_113_12643"/>
</filter>
<filter id="filter30_f_113_12643" x="6.88379" y="104.812" width="28.2344" height="26.207" filterUnits="userSpaceOnUse" color-interpolation-filters="sRGB">
<feFlood flood-opacity="0" result="BackgroundImageFix"/>
<feBlend mode="normal" in="SourceGraphic" in2="BackgroundImageFix" result="shape"/>
<feGaussianBlur stdDeviation="2.5" result="effect1_foregroundBlur_113_12643"/>
</filter>
<filter id="filter31_f_113_12643" x="20.5273" y="96.6514" width="28.2344" height="26.207" filterUnits="userSpaceOnUse" color-interpolation-filters="sRGB">
<feFlood flood-opacity="0" result="BackgroundImageFix"/>
<feBlend mode="normal" in="SourceGraphic" in2="BackgroundImageFix" result="shape"/>
<feGaussianBlur stdDeviation="2.5" result="effect1_foregroundBlur_113_12643"/>
</filter>
<filter id="filter32_f_113_12643" x="-6.75781" y="96.6514" width="28.2344" height="26.207" filterUnits="userSpaceOnUse" color-interpolation-filters="sRGB">
<feFlood flood-opacity="0" result="BackgroundImageFix"/>
<feBlend mode="normal" in="SourceGraphic" in2="BackgroundImageFix" result="shape"/>
<feGaussianBlur stdDeviation="2.5" result="effect1_foregroundBlur_113_12643"/>
</filter>
<filter id="filter33_f_113_12643" x="6.88379" y="88.4912" width="28.2344" height="26.207" filterUnits="userSpaceOnUse" color-interpolation-filters="sRGB">
<feFlood flood-opacity="0" result="BackgroundImageFix"/>
<feBlend mode="normal" in="SourceGraphic" in2="BackgroundImageFix" result="shape"/>
<feGaussianBlur stdDeviation="2.5" result="effect1_foregroundBlur_113_12643"/>
</filter>
<filter id="filter34_f_113_12643" x="-20.3984" y="88.4912" width="28.2344" height="26.207" filterUnits="userSpaceOnUse" color-interpolation-filters="sRGB">
<feFlood flood-opacity="0" result="BackgroundImageFix"/>
<feBlend mode="normal" in="SourceGraphic" in2="BackgroundImageFix" result="shape"/>
<feGaussianBlur stdDeviation="2.5" result="effect1_foregroundBlur_113_12643"/>
</filter>
<filter id="filter35_f_113_12643" x="-6.75781" y="80.332" width="28.2344" height="26.207" filterUnits="userSpaceOnUse" color-interpolation-filters="sRGB">
<feFlood flood-opacity="0" result="BackgroundImageFix"/>
<feBlend mode="normal" in="SourceGraphic" in2="BackgroundImageFix" result="shape"/>
<feGaussianBlur stdDeviation="2.5" result="effect1_foregroundBlur_113_12643"/>
</filter>
<filter id="filter36_f_113_12643" x="-20.3984" y="72.1729" width="28.2344" height="26.207" filterUnits="userSpaceOnUse" color-interpolation-filters="sRGB">
<feFlood flood-opacity="0" result="BackgroundImageFix"/>
<feBlend mode="normal" in="SourceGraphic" in2="BackgroundImageFix" result="shape"/>
<feGaussianBlur stdDeviation="2.5" result="effect1_foregroundBlur_113_12643"/>
</filter>
<filter id="filter37_f_113_12643" x="-6.75781" y="64.0117" width="28.2344" height="26.207" filterUnits="userSpaceOnUse" color-interpolation-filters="sRGB">
<feFlood flood-opacity="0" result="BackgroundImageFix"/>
<feBlend mode="normal" in="SourceGraphic" in2="BackgroundImageFix" result="shape"/>
<feGaussianBlur stdDeviation="2.5" result="effect1_foregroundBlur_113_12643"/>
</filter>
<filter id="filter38_f_113_12643" x="6.88379" y="55.8516" width="28.2344" height="26.207" filterUnits="userSpaceOnUse" color-interpolation-filters="sRGB">
<feFlood flood-opacity="0" result="BackgroundImageFix"/>
<feBlend mode="normal" in="SourceGraphic" in2="BackgroundImageFix" result="shape"/>
<feGaussianBlur stdDeviation="2.5" result="effect1_foregroundBlur_113_12643"/>
</filter>
<filter id="filter39_f_113_12643" x="-20.3984" y="55.8516" width="28.2344" height="26.207" filterUnits="userSpaceOnUse" color-interpolation-filters="sRGB">
<feFlood flood-opacity="0" result="BackgroundImageFix"/>
<feBlend mode="normal" in="SourceGraphic" in2="BackgroundImageFix" result="shape"/>
<feGaussianBlur stdDeviation="2.5" result="effect1_foregroundBlur_113_12643"/>
</filter>
<filter id="filter40_f_113_12643" x="-6.75781" y="47.6924" width="28.2344" height="26.207" filterUnits="userSpaceOnUse" color-interpolation-filters="sRGB">
<feFlood flood-opacity="0" result="BackgroundImageFix"/>
<feBlend mode="normal" in="SourceGraphic" in2="BackgroundImageFix" result="shape"/>
<feGaussianBlur stdDeviation="2.5" result="effect1_foregroundBlur_113_12643"/>
</filter>
<filter id="filter41_f_113_12643" x="-20.3984" y="39.5332" width="28.2344" height="26.207" filterUnits="userSpaceOnUse" color-interpolation-filters="sRGB">
<feFlood flood-opacity="0" result="BackgroundImageFix"/>
<feBlend mode="normal" in="SourceGraphic" in2="BackgroundImageFix" result="shape"/>
<feGaussianBlur stdDeviation="2.5" result="effect1_foregroundBlur_113_12643"/>
</filter>
<filter id="filter42_f_113_12643" x="-165.381" y="42.9736" width="232.934" height="156.08" filterUnits="userSpaceOnUse" color-interpolation-filters="sRGB">
<feFlood flood-opacity="0" result="BackgroundImageFix"/>
<feBlend mode="normal" in="SourceGraphic" in2="BackgroundImageFix" result="shape"/>
<feGaussianBlur stdDeviation="1" result="effect1_foregroundBlur_113_12643"/>
</filter>
</defs>
</svg>
