<svg width="214" height="697" viewBox="0 0 214 697" fill="none" xmlns="http://www.w3.org/2000/svg">
<g filter="url(#filter0_f_25_3819)">
<path d="M457.118 519.509C443.173 538.22 424.302 552.689 402.612 561.3C380.923 569.911 357.267 572.327 334.284 568.277C311.302 564.228 289.896 553.872 272.456 538.366C255.016 522.86 242.227 502.813 235.517 480.462C228.806 458.111 228.438 434.335 234.452 411.787C240.467 389.238 252.628 368.805 269.58 352.766C286.531 336.726 307.605 325.712 330.451 320.952C353.297 316.193 377.017 317.874 398.963 325.809L356.139 444.247L457.118 519.509Z" fill="#FB5C02"/>
</g>
<g filter="url(#filter1_f_25_3819)">
<path d="M161.297 324.586L160.867 323.861L160.023 323.851L131.402 323.525L130.525 323.515L130.086 324.275L116.058 348.573L115.619 349.332L116.066 350.087L130.659 374.711L131.089 375.436L131.933 375.446L160.554 375.772L161.431 375.782L161.87 375.022L175.898 350.724L176.337 349.965L175.889 349.21L161.297 324.586Z" stroke="#00FDFF" stroke-opacity="0.41" stroke-width="3"/>
</g>
<g filter="url(#filter2_f_25_3819)">
<path d="M162.074 374.758L161.644 374.033L160.801 374.023L132.18 373.697L131.302 373.687L130.863 374.447L116.835 398.745L116.396 399.505L116.844 400.26L131.437 424.883L131.867 425.609L132.71 425.618L161.331 425.944L162.208 425.954L162.647 425.194L176.675 400.897L177.114 400.137L176.667 399.382L162.074 374.758Z" stroke="#00FDFF" stroke-opacity="0.41" stroke-width="3"/>
</g>
<g filter="url(#filter3_f_25_3819)">
<path d="M205.139 300.173L204.709 299.447L203.866 299.438L175.245 299.112L174.368 299.102L173.929 299.862L159.901 324.159L159.462 324.919L159.909 325.674L174.502 350.298L174.932 351.023L175.775 351.033L204.396 351.359L205.274 351.369L205.712 350.609L219.741 326.311L220.179 325.551L219.732 324.797L205.139 300.173Z" stroke="#00FDFF" stroke-opacity="0.41" stroke-width="3"/>
</g>
<g filter="url(#filter4_f_25_3819)">
<path d="M205.913 350.346L205.483 349.62L204.64 349.611L176.019 349.285L175.142 349.275L174.703 350.035L160.675 374.332L160.236 375.092L160.683 375.847L175.276 400.471L175.706 401.196L176.549 401.206L205.17 401.532L206.048 401.542L206.486 400.782L220.515 376.484L220.953 375.724L220.506 374.969L205.913 350.346Z" stroke="#00FDFF" stroke-opacity="0.41" stroke-width="3"/>
</g>
<g filter="url(#filter5_f_25_3819)">
<path d="M248.979 275.76L248.549 275.034L247.706 275.025L219.085 274.699L218.207 274.689L217.769 275.449L203.74 299.746L203.302 300.506L203.749 301.261L218.342 325.885L218.772 326.61L219.615 326.62L248.236 326.946L249.114 326.956L249.552 326.196L263.581 301.898L264.019 301.138L263.572 300.383L248.979 275.76Z" stroke="#00FDFF" stroke-opacity="0.41" stroke-width="3"/>
</g>
<g filter="url(#filter6_f_25_3819)">
<path d="M249.753 325.933L249.323 325.207L248.479 325.198L219.858 324.872L218.981 324.862L218.542 325.622L204.514 349.919L204.075 350.679L204.523 351.434L219.115 376.057L219.545 376.783L220.389 376.793L249.01 377.119L249.887 377.129L250.326 376.369L264.354 352.071L264.793 351.311L264.345 350.556L249.753 325.933Z" stroke="#00FDFF" stroke-opacity="0.41" stroke-width="3"/>
</g>
<g filter="url(#filter7_f_25_3819)">
<path d="M247.427 175.413L246.997 174.688L246.154 174.678L217.533 174.352L216.656 174.342L216.217 175.102L202.189 199.4L201.75 200.16L202.197 200.914L216.79 225.538L217.22 226.263L218.063 226.273L246.684 226.599L247.562 226.609L248.001 225.849L262.029 201.552L262.467 200.792L262.02 200.037L247.427 175.413Z" stroke="#00FDFF" stroke-opacity="0.41" stroke-width="3"/>
</g>
<g filter="url(#filter8_f_25_3819)">
<path d="M248.201 225.587L247.771 224.862L246.928 224.852L218.307 224.526L217.43 224.516L216.991 225.276L202.963 249.573L202.524 250.333L202.971 251.088L217.564 275.712L217.994 276.437L218.837 276.447L247.458 276.773L248.336 276.783L248.774 276.023L262.803 251.725L263.241 250.965L262.794 250.211L248.201 225.587Z" stroke="#00FDFF" stroke-opacity="0.41" stroke-width="3"/>
</g>
<g filter="url(#filter9_f_25_3819)">
<path d="M162.848 424.932L162.418 424.206L161.574 424.197L132.953 423.871L132.076 423.861L131.637 424.621L117.609 448.918L117.17 449.678L117.618 450.433L132.211 475.056L132.641 475.782L133.484 475.792L162.105 476.118L162.982 476.128L163.421 475.368L177.449 451.07L177.888 450.31L177.441 449.555L162.848 424.932Z" stroke="#00FDFF" stroke-opacity="0.41" stroke-width="3"/>
</g>
<g filter="url(#filter10_f_25_3819)">
<path d="M163.626 475.104L163.196 474.379L162.352 474.369L133.731 474.043L132.854 474.033L132.415 474.793L118.387 499.091L117.948 499.85L118.396 500.605L132.988 525.229L133.418 525.954L134.262 525.964L162.883 526.29L163.76 526.3L164.199 525.54L178.227 501.242L178.666 500.483L178.218 499.728L163.626 475.104Z" stroke="#00FDFF" stroke-opacity="0.41" stroke-width="3"/>
</g>
<g filter="url(#filter11_f_25_3819)">
<path d="M207.465 450.692L207.035 449.966L206.192 449.956L177.571 449.63L176.693 449.621L176.255 450.38L162.226 474.678L161.788 475.438L162.235 476.193L176.828 500.816L177.258 501.542L178.101 501.551L206.722 501.877L207.599 501.887L208.038 501.127L222.066 476.83L222.505 476.07L222.058 475.315L207.465 450.692Z" stroke="#00FDFF" stroke-opacity="0.41" stroke-width="3"/>
</g>
<g filter="url(#filter12_f_25_3819)">
<path d="M250.53 376.106L250.1 375.38L249.257 375.371L220.636 375.045L219.759 375.035L219.32 375.794L205.292 400.092L204.853 400.852L205.3 401.607L219.893 426.23L220.323 426.956L221.166 426.965L249.787 427.291L250.665 427.301L251.104 426.542L265.132 402.244L265.571 401.484L265.123 400.729L250.53 376.106Z" stroke="#00FDFF" stroke-opacity="0.41" stroke-width="3"/>
</g>
<g filter="url(#filter13_f_25_3819)">
<path d="M251.304 426.279L250.874 425.553L250.031 425.544L221.41 425.218L220.533 425.208L220.094 425.968L206.066 450.265L205.627 451.025L206.074 451.78L220.667 476.404L221.097 477.129L221.94 477.139L250.561 477.465L251.439 477.475L251.877 476.715L265.906 452.417L266.344 451.657L265.897 450.903L251.304 426.279Z" stroke="#00FDFF" stroke-opacity="0.41" stroke-width="3"/>
</g>
<g filter="url(#filter14_f_25_3819)">
<path d="M252.082 476.451L251.652 475.726L250.809 475.716L222.188 475.39L221.31 475.38L220.872 476.14L206.844 500.438L206.405 501.198L206.852 501.952L221.445 526.576L221.875 527.302L222.718 527.311L251.339 527.637L252.217 527.647L252.655 526.887L266.684 502.59L267.122 501.83L266.675 501.075L252.082 476.451Z" stroke="#00FDFF" stroke-opacity="0.41" stroke-width="3"/>
</g>
<g filter="url(#filter15_f_25_3819)">
<path d="M252.856 526.625L252.426 525.899L251.583 525.89L222.962 525.564L222.084 525.554L221.646 526.314L207.617 550.611L207.179 551.371L207.626 552.126L222.219 576.749L222.649 577.475L223.492 577.485L252.113 577.81L252.991 577.82L253.429 577.061L267.457 552.763L267.896 552.003L267.449 551.248L252.856 526.625Z" stroke="#00FDFF" stroke-opacity="0.41" stroke-width="3"/>
</g>
<path d="M138.449 336.53L138.024 335.843L137.218 335.819L95.4444 334.561L94.5484 334.534L94.1002 335.31L74.3032 369.6L73.855 370.376L74.3264 371.138L96.3028 406.686L96.7271 407.372L97.5336 407.397L139.307 408.655L140.203 408.682L140.651 407.906L160.448 373.616L160.896 372.84L160.425 372.077L138.449 336.53Z" stroke="#FF5500" stroke-width="3"/>
<path d="M199.222 231.269L198.797 230.583L197.991 230.558L156.217 229.3L155.321 229.273L154.873 230.049L135.076 264.339L134.628 265.115L135.099 265.878L157.076 301.425L157.5 302.112L158.307 302.136L200.08 303.394L200.976 303.421L201.424 302.645L221.221 268.355L221.669 267.579L221.198 266.817L199.222 231.269Z" stroke="#FF5500" stroke-width="3"/>
<path d="M201.745 302.9L201.321 302.213L200.514 302.189L158.741 300.931L157.845 300.904L157.397 301.68L137.6 335.97L137.151 336.746L137.623 337.508L159.599 373.056L160.023 373.742L160.83 373.767L202.603 375.025L203.499 375.052L203.948 374.276L223.745 339.986L224.193 339.21L223.722 338.447L201.745 302.9Z" stroke="#FF5500" stroke-width="3"/>
<path d="M262.518 197.639L262.094 196.953L261.287 196.928L219.514 195.67L218.618 195.643L218.17 196.419L198.373 230.709L197.924 231.485L198.396 232.248L220.372 267.795L220.796 268.482L221.603 268.506L263.376 269.764L264.272 269.791L264.721 269.015L284.518 234.726L284.966 233.949L284.494 233.187L262.518 197.639Z" stroke="#FF5500" stroke-width="3"/>
<path d="M265.038 269.272L264.614 268.586L263.807 268.561L222.034 267.303L221.138 267.276L220.69 268.052L200.893 302.342L200.444 303.118L200.916 303.88L222.892 339.428L223.316 340.114L224.123 340.139L265.896 341.397L266.792 341.424L267.241 340.648L287.038 306.358L287.486 305.582L287.014 304.82L265.038 269.272Z" stroke="#FF5500" stroke-width="3"/>
<path d="M194.173 88.0062L193.749 87.3199L192.943 87.2956L151.169 86.0373L150.273 86.0103L149.825 86.7866L130.028 121.076L129.58 121.852L130.051 122.615L152.027 158.163L152.452 158.849L153.258 158.873L195.032 160.131L195.928 160.158L196.376 159.382L216.173 125.093L216.621 124.316L216.15 123.554L194.173 88.0062Z" stroke="#FF5500" stroke-width="3"/>
<path d="M196.697 159.637L196.273 158.951L195.466 158.926L153.693 157.668L152.797 157.641L152.349 158.417L132.552 192.707L132.104 193.483L132.575 194.246L154.551 229.793L154.976 230.48L155.782 230.504L197.556 231.762L198.452 231.789L198.9 231.013L218.697 196.724L219.145 195.947L218.674 195.185L196.697 159.637Z" stroke="#FF5500" stroke-width="3"/>
<path d="M257.47 54.3763L257.045 53.69L256.239 53.6657L214.465 52.4074L213.569 52.3804L213.121 53.1567L193.324 87.4462L192.876 88.2225L193.347 88.985L215.324 124.533L215.748 125.219L216.555 125.243L258.328 126.502L259.224 126.529L259.672 125.752L279.469 91.4628L279.917 90.6865L279.446 89.924L257.47 54.3763Z" stroke="#FF5500" stroke-width="3"/>
<path d="M259.994 126.008L259.57 125.322L258.763 125.298L216.99 124.039L216.094 124.012L215.646 124.789L195.849 159.078L195.4 159.854L195.872 160.617L217.848 196.165L218.273 196.851L219.079 196.875L260.852 198.133L261.748 198.16L262.197 197.384L281.994 163.095L282.442 162.318L281.971 161.556L259.994 126.008Z" stroke="#FF5500" stroke-width="3"/>
<path d="M77.6762 441.791L77.2519 441.105L76.4455 441.08L34.672 439.822L33.776 439.795L33.3278 440.571L13.5307 474.861L13.0825 475.637L13.5539 476.4L35.5304 511.947L35.9546 512.634L36.7611 512.658L78.5346 513.916L79.4306 513.943L79.8788 513.167L99.6758 478.877L100.124 478.101L99.6527 477.339L77.6762 441.791Z" stroke="#FF5500" stroke-width="3"/>
<path d="M80.2001 513.422L79.7759 512.736L78.9694 512.712L37.1959 511.453L36.2999 511.426L35.8517 512.203L16.0547 546.492L15.6065 547.268L16.0778 548.031L38.0543 583.579L38.4786 584.265L39.285 584.289L81.0585 585.547L81.9545 585.574L82.4027 584.798L102.2 550.509L102.648 549.732L102.177 548.97L80.2001 513.422Z" stroke="#FF5500" stroke-width="3"/>
<path d="M140.973 408.161L140.548 407.475L139.742 407.45L97.9683 406.192L97.0724 406.165L96.6241 406.941L76.8271 441.231L76.3789 442.007L76.8503 442.77L98.8268 478.317L99.251 479.004L100.057 479.028L141.831 480.286L142.727 480.313L143.175 479.537L162.972 445.247L163.42 444.471L162.949 443.709L140.973 408.161Z" stroke="#FF5500" stroke-width="3"/>
<path d="M143.493 479.793L143.069 479.107L142.262 479.083L100.489 477.824L99.5929 477.797L99.1447 478.574L79.3476 512.863L78.8994 513.639L79.3708 514.402L101.347 549.95L101.772 550.636L102.578 550.66L144.351 551.919L145.247 551.946L145.696 551.169L165.493 516.88L165.941 516.103L165.47 515.341L143.493 479.793Z" stroke="#FF5500" stroke-width="3"/>
<path d="M204.266 374.532L203.841 373.846L203.035 373.821L161.261 372.563L160.365 372.536L159.917 373.312L140.12 407.602L139.672 408.378L140.143 409.141L162.12 444.688L162.544 445.375L163.35 445.399L205.124 446.657L206.02 446.684L206.468 445.908L226.265 411.619L226.713 410.842L226.242 410.08L204.266 374.532Z" stroke="#FF5500" stroke-width="3"/>
<path d="M206.789 446.163L206.365 445.477L205.559 445.453L163.785 444.195L162.889 444.168L162.441 444.944L142.644 479.233L142.196 480.01L142.667 480.772L164.644 516.32L165.068 517.006L165.874 517.03L207.648 518.289L208.544 518.316L208.992 517.539L228.789 483.25L229.237 482.474L228.766 481.711L206.789 446.163Z" stroke="#FF5500" stroke-width="3"/>
<path d="M267.562 340.903L267.138 340.216L266.331 340.192L224.558 338.934L223.662 338.907L223.214 339.683L203.416 373.973L202.968 374.749L203.44 375.511L225.416 411.059L225.84 411.745L226.647 411.77L268.42 413.028L269.316 413.055L269.765 412.279L289.562 377.989L290.01 377.213L289.538 376.45L267.562 340.903Z" stroke="#FF5500" stroke-width="3"/>
<path d="M270.084 412.526L269.66 411.84L268.853 411.816L227.08 410.557L226.184 410.53L225.735 411.307L205.938 445.596L205.49 446.372L205.962 447.135L227.938 482.683L228.362 483.369L229.169 483.393L270.942 484.651L271.838 484.678L272.287 483.902L292.084 449.613L292.532 448.836L292.06 448.074L270.084 412.526Z" stroke="#FF5500" stroke-width="3"/>
<path d="M209.311 517.787L208.887 517.101L208.081 517.076L166.307 515.818L165.411 515.791L164.963 516.567L145.166 550.857L144.718 551.633L145.189 552.396L167.166 587.943L167.59 588.63L168.396 588.654L210.17 589.912L211.066 589.939L211.514 589.163L231.311 554.873L231.759 554.097L231.288 553.335L209.311 517.787Z" stroke="#FF5500" stroke-width="3"/>
<path d="M211.835 589.418L211.411 588.732L210.605 588.708L168.831 587.449L167.935 587.422L167.487 588.199L147.69 622.488L147.242 623.264L147.713 624.027L169.69 659.575L170.114 660.261L170.92 660.285L212.694 661.544L213.59 661.571L214.038 660.794L233.835 626.505L234.283 625.728L233.812 624.966L211.835 589.418Z" stroke="#FF5500" stroke-width="3"/>
<path d="M272.608 484.158L272.184 483.471L271.377 483.447L229.604 482.189L228.708 482.162L228.259 482.938L208.462 517.227L208.014 518.004L208.486 518.766L230.462 554.314L230.886 555L231.693 555.025L273.466 556.283L274.362 556.31L274.81 555.534L294.607 521.244L295.056 520.468L294.584 519.705L272.608 484.158Z" stroke="#FF5500" stroke-width="3"/>
<path d="M275.128 555.79L274.704 555.104L273.897 555.079L232.124 553.821L231.228 553.794L230.779 554.57L210.982 588.86L210.534 589.636L211.006 590.399L232.982 625.946L233.406 626.633L234.213 626.657L275.986 627.915L276.882 627.942L277.33 627.166L297.127 592.876L297.576 592.1L297.104 591.338L275.128 555.79Z" stroke="#FF5500" stroke-width="3"/>
<path d="M138.449 336.53L138.024 335.843L137.218 335.819L95.4444 334.561L94.5484 334.534L94.1002 335.31L74.3032 369.6L73.855 370.376L74.3264 371.138L96.3028 406.686L96.7271 407.372L97.5336 407.397L139.307 408.655L140.203 408.682L140.651 407.906L160.448 373.616L160.896 372.84L160.425 372.077L138.449 336.53Z" stroke="#FF5500" stroke-width="3"/>
<path d="M199.222 231.269L198.797 230.583L197.991 230.558L156.217 229.3L155.321 229.273L154.873 230.049L135.076 264.339L134.628 265.115L135.099 265.878L157.076 301.425L157.5 302.112L158.307 302.136L200.08 303.394L200.976 303.421L201.424 302.645L221.221 268.355L221.669 267.579L221.198 266.817L199.222 231.269Z" stroke="#FF5500" stroke-width="3"/>
<path d="M201.745 302.9L201.321 302.213L200.514 302.189L158.741 300.931L157.845 300.904L157.397 301.68L137.6 335.97L137.151 336.746L137.623 337.508L159.599 373.056L160.023 373.742L160.83 373.767L202.603 375.025L203.499 375.052L203.948 374.276L223.745 339.986L224.193 339.21L223.722 338.447L201.745 302.9Z" stroke="#FF5500" stroke-width="3"/>
<path d="M262.518 197.639L262.094 196.953L261.287 196.928L219.514 195.67L218.618 195.643L218.17 196.419L198.373 230.709L197.924 231.485L198.396 232.248L220.372 267.795L220.796 268.482L221.603 268.506L263.376 269.764L264.272 269.791L264.721 269.015L284.518 234.726L284.966 233.949L284.494 233.187L262.518 197.639Z" stroke="#FF5500" stroke-width="3"/>
<path d="M265.038 269.272L264.614 268.586L263.807 268.561L222.034 267.303L221.138 267.276L220.69 268.052L200.893 302.342L200.444 303.118L200.916 303.88L222.892 339.428L223.316 340.114L224.123 340.139L265.896 341.397L266.792 341.424L267.241 340.648L287.038 306.358L287.486 305.582L287.014 304.82L265.038 269.272Z" stroke="#FF5500" stroke-width="3"/>
<path d="M194.173 88.0062L193.749 87.3199L192.943 87.2956L151.169 86.0373L150.273 86.0103L149.825 86.7866L130.028 121.076L129.58 121.852L130.051 122.615L152.027 158.163L152.452 158.849L153.258 158.873L195.032 160.131L195.928 160.158L196.376 159.382L216.173 125.093L216.621 124.316L216.15 123.554L194.173 88.0062Z" stroke="#FF5500" stroke-width="3"/>
<path d="M196.697 159.637L196.273 158.951L195.466 158.926L153.693 157.668L152.797 157.641L152.349 158.417L132.552 192.707L132.104 193.483L132.575 194.246L154.551 229.793L154.976 230.48L155.782 230.504L197.556 231.762L198.452 231.789L198.9 231.013L218.697 196.724L219.145 195.947L218.674 195.185L196.697 159.637Z" stroke="#FF5500" stroke-width="3"/>
<path d="M257.47 54.3763L257.045 53.69L256.239 53.6657L214.465 52.4074L213.569 52.3804L213.121 53.1567L193.324 87.4462L192.876 88.2225L193.347 88.985L215.324 124.533L215.748 125.219L216.555 125.243L258.328 126.502L259.224 126.529L259.672 125.752L279.469 91.4628L279.917 90.6865L279.446 89.924L257.47 54.3763Z" stroke="#FF5500" stroke-width="3"/>
<path d="M259.994 126.008L259.57 125.322L258.763 125.298L216.99 124.039L216.094 124.012L215.646 124.789L195.849 159.078L195.4 159.854L195.872 160.617L217.848 196.165L218.273 196.851L219.079 196.875L260.852 198.133L261.748 198.16L262.197 197.384L281.994 163.095L282.442 162.318L281.971 161.556L259.994 126.008Z" stroke="#FF5500" stroke-width="3"/>
<path d="M140.973 408.161L140.548 407.475L139.742 407.45L97.9683 406.192L97.0724 406.165L96.6241 406.941L76.8271 441.231L76.3789 442.007L76.8503 442.77L98.8268 478.317L99.251 479.004L100.057 479.028L141.831 480.286L142.727 480.313L143.175 479.537L162.972 445.247L163.42 444.471L162.949 443.709L140.973 408.161Z" stroke="#FF5500" stroke-width="3"/>
<path d="M143.493 479.793L143.069 479.107L142.262 479.083L100.489 477.824L99.5929 477.797L99.1447 478.574L79.3476 512.863L78.8994 513.639L79.3708 514.402L101.347 549.95L101.772 550.636L102.578 550.66L144.351 551.919L145.247 551.946L145.696 551.169L165.493 516.88L165.941 516.103L165.47 515.341L143.493 479.793Z" stroke="#FF5500" stroke-width="3"/>
<path d="M206.789 446.163L206.365 445.477L205.559 445.453L163.785 444.195L162.889 444.168L162.441 444.944L142.644 479.233L142.196 480.01L142.667 480.772L164.644 516.32L165.068 517.006L165.874 517.03L207.648 518.289L208.544 518.316L208.992 517.539L228.789 483.25L229.237 482.474L228.766 481.711L206.789 446.163Z" stroke="#FF5500" stroke-width="3"/>
<path d="M267.562 340.903L267.138 340.216L266.331 340.192L224.558 338.934L223.662 338.907L223.214 339.683L203.416 373.973L202.968 374.749L203.44 375.511L225.416 411.059L225.84 411.745L226.647 411.77L268.42 413.028L269.316 413.055L269.765 412.279L289.562 377.989L290.01 377.213L289.538 376.45L267.562 340.903Z" stroke="#FF5500" stroke-width="3"/>
<path d="M270.084 412.526L269.66 411.84L268.853 411.816L227.08 410.557L226.184 410.53L225.735 411.307L205.938 445.596L205.49 446.372L205.962 447.135L227.938 482.683L228.362 483.369L229.169 483.393L270.942 484.651L271.838 484.678L272.287 483.902L292.084 449.613L292.532 448.836L292.06 448.074L270.084 412.526Z" stroke="#FF5500" stroke-width="3"/>
<path d="M209.311 517.787L208.887 517.101L208.081 517.076L166.307 515.818L165.411 515.791L164.963 516.567L145.166 550.857L144.718 551.633L145.189 552.396L167.166 587.943L167.59 588.63L168.396 588.654L210.17 589.912L211.066 589.939L211.514 589.163L231.311 554.873L231.759 554.097L231.288 553.335L209.311 517.787Z" stroke="#FF5500" stroke-width="3"/>
<path d="M211.835 589.418L211.411 588.732L210.605 588.708L168.831 587.449L167.935 587.422L167.487 588.199L147.69 622.488L147.242 623.264L147.713 624.027L169.69 659.575L170.114 660.261L170.92 660.285L212.694 661.544L213.59 661.571L214.038 660.794L233.835 626.505L234.283 625.728L233.812 624.966L211.835 589.418Z" stroke="#FF5500" stroke-width="3"/>
<path d="M272.608 484.158L272.184 483.471L271.377 483.447L229.604 482.189L228.708 482.162L228.259 482.938L208.462 517.227L208.014 518.004L208.486 518.766L230.462 554.314L230.886 555L231.693 555.025L273.466 556.283L274.362 556.31L274.81 555.534L294.607 521.244L295.056 520.468L294.584 519.705L272.608 484.158Z" stroke="#FF5500" stroke-width="3"/>
<path d="M275.128 555.79L274.704 555.104L273.897 555.079L232.124 553.821L231.228 553.794L230.779 554.57L210.982 588.86L210.534 589.636L211.006 590.399L232.982 625.946L233.406 626.633L234.213 626.657L275.986 627.915L276.882 627.942L277.33 627.166L297.127 592.876L297.576 592.1L297.104 591.338L275.128 555.79Z" stroke="#FF5500" stroke-width="3"/>
<g filter="url(#filter16_f_25_3819)">
<path d="M145.12 340.68L144.69 339.955L143.848 339.945L101.638 339.443L100.76 339.433L100.321 340.193L79.6513 375.994L79.2123 376.754L79.6603 377.509L101.2 413.813L101.63 414.537L102.473 414.548L144.682 415.05L145.56 415.06L145.999 414.3L166.669 378.499L167.108 377.739L166.66 376.984L145.12 340.68Z" stroke="#FF9900" stroke-width="3"/>
</g>
<g filter="url(#filter17_f_25_3819)">
<path d="M208.572 230.779L208.142 230.054L207.3 230.044L165.09 229.542L164.212 229.531L163.773 230.291L143.103 266.093L142.664 266.853L143.112 267.608L164.652 303.912L165.082 304.636L165.924 304.646L208.134 305.149L209.012 305.159L209.451 304.399L230.121 268.598L230.56 267.837L230.112 267.082L208.572 230.779Z" stroke="#FF9900" stroke-width="3"/>
</g>
<g filter="url(#filter18_f_25_3819)">
<path d="M209.755 304.727L209.325 304.002L208.483 303.992L166.273 303.49L165.395 303.479L164.956 304.24L144.287 340.041L143.848 340.801L144.296 341.556L165.836 377.86L166.265 378.584L167.108 378.594L209.318 379.097L210.196 379.107L210.635 378.347L231.304 342.546L231.743 341.785L231.295 341.03L209.755 304.727Z" stroke="#FF9900" stroke-width="3"/>
</g>
<g filter="url(#filter19_f_25_3819)">
<path d="M273.203 194.825L272.773 194.101L271.931 194.091L229.721 193.588L228.843 193.578L228.404 194.338L207.734 230.14L207.295 230.9L207.743 231.655L229.283 267.959L229.713 268.683L230.556 268.693L272.765 269.195L273.643 269.206L274.082 268.446L294.752 232.644L295.191 231.884L294.743 231.129L273.203 194.825Z" stroke="#FF9900" stroke-width="3"/>
</g>
<g filter="url(#filter20_f_25_3819)">
<path d="M274.387 268.774L273.957 268.049L273.114 268.039L230.905 267.537L230.027 267.526L229.588 268.287L208.918 304.088L208.479 304.848L208.927 305.603L230.467 341.907L230.897 342.631L231.739 342.641L273.949 343.144L274.827 343.154L275.266 342.394L295.936 306.593L296.375 305.832L295.927 305.077L274.387 268.774Z" stroke="#FF9900" stroke-width="3"/>
</g>
<g filter="url(#filter21_f_25_3819)">
<path d="M206.203 82.8752L205.773 82.1508L204.931 82.1407L162.721 81.6383L161.843 81.6278L161.404 82.3882L140.734 118.189L140.295 118.95L140.743 119.705L162.283 156.008L162.713 156.733L163.556 156.743L205.765 157.245L206.643 157.256L207.082 156.495L227.752 120.694L228.191 119.934L227.743 119.179L206.203 82.8752Z" stroke="#FF9900" stroke-width="3"/>
</g>
<g filter="url(#filter22_f_25_3819)">
<path d="M207.387 156.822L206.957 156.098L206.114 156.088L163.905 155.586L163.027 155.575L162.588 156.335L141.918 192.137L141.479 192.897L141.927 193.652L163.467 229.956L163.897 230.68L164.739 230.69L206.949 231.193L207.827 231.203L208.266 230.443L228.936 194.642L229.375 193.881L228.927 193.126L207.387 156.822Z" stroke="#FF9900" stroke-width="3"/>
</g>
<g filter="url(#filter23_f_25_3819)">
<path d="M270.838 46.9221L270.408 46.1976L269.566 46.1876L227.356 45.6851L226.478 45.6747L226.039 46.435L205.37 82.2362L204.931 82.9965L205.379 83.7516L226.919 120.055L227.348 120.78L228.191 120.79L270.401 121.292L271.279 121.303L271.718 120.542L292.387 84.7411L292.826 83.9808L292.378 83.2257L270.838 46.9221Z" stroke="#FF9900" stroke-width="3"/>
</g>
<g filter="url(#filter24_f_25_3819)">
<path d="M272.024 120.877L271.594 120.153L270.752 120.143L228.542 119.64L227.664 119.63L227.225 120.39L206.555 156.191L206.116 156.952L206.564 157.707L228.104 194.01L228.534 194.735L229.376 194.745L271.586 195.247L272.464 195.258L272.903 194.497L293.573 158.696L294.012 157.936L293.564 157.181L272.024 120.877Z" stroke="#FF9900" stroke-width="3"/>
</g>
<g filter="url(#filter25_f_25_3819)">
<path d="M81.6664 450.574L81.2366 449.85L80.3942 449.84L38.1843 449.337L37.3064 449.327L36.8674 450.087L16.1976 485.889L15.7587 486.649L16.2067 487.404L37.7468 523.708L38.1766 524.432L39.0189 524.442L81.2288 524.944L82.1067 524.955L82.5457 524.195L103.216 488.393L103.655 487.633L103.206 486.878L81.6664 450.574Z" stroke="#FF9900" stroke-width="3"/>
</g>
<g filter="url(#filter26_f_25_3819)">
<path d="M82.8515 523.485L82.4216 522.76L81.5793 522.75L39.3694 522.248L38.4915 522.237L38.0525 522.998L17.3827 558.799L16.9437 559.559L17.3917 560.314L38.9318 596.618L39.3617 597.342L40.204 597.352L82.4139 597.855L83.2918 597.865L83.7308 597.105L104.401 561.304L104.84 560.543L104.392 559.788L82.8515 523.485Z" stroke="#FF9900" stroke-width="3"/>
</g>
<g filter="url(#filter27_f_25_3819)">
<path d="M146.303 414.628L145.873 413.904L145.031 413.894L102.821 413.391L101.943 413.381L101.504 414.141L80.8344 449.942L80.3954 450.703L80.8434 451.458L102.383 487.761L102.813 488.486L103.656 488.496L145.866 488.998L146.743 489.009L147.182 488.248L167.852 452.447L168.291 451.687L167.843 450.932L146.303 414.628Z" stroke="#FF9900" stroke-width="3"/>
</g>
<g filter="url(#filter28_f_25_3819)">
<path d="M147.483 488.577L147.053 487.852L146.211 487.842L104.001 487.34L103.123 487.329L102.684 488.09L82.014 523.891L81.5751 524.651L82.0231 525.406L103.563 561.71L103.993 562.434L104.835 562.444L147.045 562.947L147.923 562.957L148.362 562.197L169.032 526.396L169.471 525.636L169.023 524.88L147.483 488.577Z" stroke="#FF9900" stroke-width="3"/>
</g>
<g filter="url(#filter29_f_25_3819)">
<path d="M210.935 378.675L210.505 377.951L209.663 377.941L167.453 377.438L166.575 377.428L166.136 378.188L145.466 413.989L145.027 414.749L145.475 415.505L167.015 451.808L167.445 452.533L168.287 452.543L210.497 453.045L211.375 453.056L211.814 452.295L232.484 416.494L232.923 415.734L232.475 414.979L210.935 378.675Z" stroke="#FF9900" stroke-width="3"/>
</g>
<g filter="url(#filter30_f_25_3819)">
<path d="M212.12 452.631L211.69 451.906L210.848 451.896L168.638 451.394L167.76 451.383L167.321 452.144L146.651 487.945L146.212 488.705L146.66 489.46L168.2 525.764L168.63 526.488L169.473 526.498L211.682 527.001L212.56 527.011L212.999 526.251L233.669 490.45L234.108 489.689L233.66 488.934L212.12 452.631Z" stroke="#FF9900" stroke-width="3"/>
</g>
<g filter="url(#filter31_f_25_3819)">
<path d="M275.572 342.729L275.142 342.004L274.3 341.994L232.09 341.492L231.212 341.481L230.773 342.242L210.103 378.043L209.664 378.803L210.112 379.558L231.652 415.862L232.082 416.586L232.924 416.596L275.134 417.099L276.012 417.109L276.451 416.349L297.121 380.548L297.56 379.787L297.112 379.032L275.572 342.729Z" stroke="#FF9900" stroke-width="3"/>
</g>
<g filter="url(#filter32_f_25_3819)">
<path d="M276.755 416.676L276.325 415.952L275.483 415.942L233.273 415.44L232.395 415.429L231.956 416.189L211.287 451.991L210.848 452.751L211.296 453.506L232.836 489.81L233.265 490.534L234.108 490.544L276.318 491.047L277.196 491.057L277.635 490.297L298.304 454.496L298.743 453.735L298.295 452.98L276.755 416.676Z" stroke="#FF9900" stroke-width="3"/>
</g>
<g filter="url(#filter33_f_25_3819)">
<path d="M213.303 526.578L212.873 525.854L212.031 525.844L169.821 525.341L168.943 525.331L168.504 526.091L147.834 561.892L147.395 562.653L147.843 563.408L169.383 599.711L169.813 600.436L170.656 600.446L212.866 600.948L213.743 600.959L214.182 600.199L234.852 564.397L235.291 563.637L234.843 562.882L213.303 526.578Z" stroke="#FF9900" stroke-width="3"/>
</g>
<g filter="url(#filter34_f_25_3819)">
<path d="M214.487 599.481L214.057 598.757L213.215 598.747L171.005 598.244L170.127 598.234L169.688 598.994L149.018 634.795L148.579 635.556L149.027 636.311L170.567 672.614L170.997 673.339L171.839 673.349L214.049 673.851L214.927 673.862L215.366 673.101L236.036 637.3L236.475 636.54L236.027 635.785L214.487 599.481Z" stroke="#FF9900" stroke-width="3"/>
</g>
<g filter="url(#filter35_f_25_3819)">
<path d="M277.938 490.624L277.509 489.9L276.666 489.89L234.456 489.387L233.578 489.377L233.139 490.137L212.47 525.938L212.031 526.699L212.479 527.454L234.019 563.757L234.449 564.482L235.291 564.492L277.501 564.994L278.379 565.005L278.818 564.244L299.487 528.443L299.926 527.683L299.478 526.928L277.938 490.624Z" stroke="#FF9900" stroke-width="3"/>
</g>
<g filter="url(#filter36_f_25_3819)">
<path d="M279.12 564.581L278.69 563.856L277.848 563.846L235.638 563.344L234.76 563.333L234.321 564.094L213.651 599.895L213.212 600.655L213.66 601.41L235.2 637.714L235.63 638.438L236.473 638.448L278.682 638.951L279.56 638.961L279.999 638.201L300.669 602.4L301.108 601.639L300.66 600.884L279.12 564.581Z" stroke="#FF9900" stroke-width="3"/>
</g>
<defs>
<filter id="filter0_f_25_3819" x="104.197" y="192.305" width="478.921" height="503.883" filterUnits="userSpaceOnUse" color-interpolation-filters="sRGB">
<feFlood flood-opacity="0" result="BackgroundImageFix"/>
<feBlend mode="normal" in="SourceGraphic" in2="BackgroundImageFix" result="shape"/>
<feGaussianBlur stdDeviation="63" result="effect1_foregroundBlur_25_3819"/>
</filter>
<filter id="filter1_f_25_3819" x="103.881" y="312.005" width="84.1929" height="75.2871" filterUnits="userSpaceOnUse" color-interpolation-filters="sRGB">
<feFlood flood-opacity="0" result="BackgroundImageFix"/>
<feBlend mode="normal" in="SourceGraphic" in2="BackgroundImageFix" result="shape"/>
<feGaussianBlur stdDeviation="5" result="effect1_foregroundBlur_25_3819"/>
</filter>
<filter id="filter2_f_25_3819" x="104.659" y="362.178" width="84.1929" height="75.2866" filterUnits="userSpaceOnUse" color-interpolation-filters="sRGB">
<feFlood flood-opacity="0" result="BackgroundImageFix"/>
<feBlend mode="normal" in="SourceGraphic" in2="BackgroundImageFix" result="shape"/>
<feGaussianBlur stdDeviation="5" result="effect1_foregroundBlur_25_3819"/>
</filter>
<filter id="filter3_f_25_3819" x="147.724" y="287.592" width="84.1929" height="75.2871" filterUnits="userSpaceOnUse" color-interpolation-filters="sRGB">
<feFlood flood-opacity="0" result="BackgroundImageFix"/>
<feBlend mode="normal" in="SourceGraphic" in2="BackgroundImageFix" result="shape"/>
<feGaussianBlur stdDeviation="5" result="effect1_foregroundBlur_25_3819"/>
</filter>
<filter id="filter4_f_25_3819" x="148.498" y="337.765" width="84.1929" height="75.2866" filterUnits="userSpaceOnUse" color-interpolation-filters="sRGB">
<feFlood flood-opacity="0" result="BackgroundImageFix"/>
<feBlend mode="normal" in="SourceGraphic" in2="BackgroundImageFix" result="shape"/>
<feGaussianBlur stdDeviation="5" result="effect1_foregroundBlur_25_3819"/>
</filter>
<filter id="filter5_f_25_3819" x="191.564" y="263.179" width="84.1929" height="75.2871" filterUnits="userSpaceOnUse" color-interpolation-filters="sRGB">
<feFlood flood-opacity="0" result="BackgroundImageFix"/>
<feBlend mode="normal" in="SourceGraphic" in2="BackgroundImageFix" result="shape"/>
<feGaussianBlur stdDeviation="5" result="effect1_foregroundBlur_25_3819"/>
</filter>
<filter id="filter6_f_25_3819" x="192.337" y="313.352" width="84.1929" height="75.2871" filterUnits="userSpaceOnUse" color-interpolation-filters="sRGB">
<feFlood flood-opacity="0" result="BackgroundImageFix"/>
<feBlend mode="normal" in="SourceGraphic" in2="BackgroundImageFix" result="shape"/>
<feGaussianBlur stdDeviation="5" result="effect1_foregroundBlur_25_3819"/>
</filter>
<filter id="filter7_f_25_3819" x="190.012" y="162.832" width="84.1929" height="75.2871" filterUnits="userSpaceOnUse" color-interpolation-filters="sRGB">
<feFlood flood-opacity="0" result="BackgroundImageFix"/>
<feBlend mode="normal" in="SourceGraphic" in2="BackgroundImageFix" result="shape"/>
<feGaussianBlur stdDeviation="5" result="effect1_foregroundBlur_25_3819"/>
</filter>
<filter id="filter8_f_25_3819" x="190.786" y="213.006" width="84.1929" height="75.2871" filterUnits="userSpaceOnUse" color-interpolation-filters="sRGB">
<feFlood flood-opacity="0" result="BackgroundImageFix"/>
<feBlend mode="normal" in="SourceGraphic" in2="BackgroundImageFix" result="shape"/>
<feGaussianBlur stdDeviation="5" result="effect1_foregroundBlur_25_3819"/>
</filter>
<filter id="filter9_f_25_3819" x="105.433" y="412.351" width="84.1929" height="75.2866" filterUnits="userSpaceOnUse" color-interpolation-filters="sRGB">
<feFlood flood-opacity="0" result="BackgroundImageFix"/>
<feBlend mode="normal" in="SourceGraphic" in2="BackgroundImageFix" result="shape"/>
<feGaussianBlur stdDeviation="5" result="effect1_foregroundBlur_25_3819"/>
</filter>
<filter id="filter10_f_25_3819" x="106.21" y="462.523" width="84.1929" height="75.2866" filterUnits="userSpaceOnUse" color-interpolation-filters="sRGB">
<feFlood flood-opacity="0" result="BackgroundImageFix"/>
<feBlend mode="normal" in="SourceGraphic" in2="BackgroundImageFix" result="shape"/>
<feGaussianBlur stdDeviation="5" result="effect1_foregroundBlur_25_3819"/>
</filter>
<filter id="filter11_f_25_3819" x="150.05" y="438.111" width="84.1929" height="75.2866" filterUnits="userSpaceOnUse" color-interpolation-filters="sRGB">
<feFlood flood-opacity="0" result="BackgroundImageFix"/>
<feBlend mode="normal" in="SourceGraphic" in2="BackgroundImageFix" result="shape"/>
<feGaussianBlur stdDeviation="5" result="effect1_foregroundBlur_25_3819"/>
</filter>
<filter id="filter12_f_25_3819" x="193.115" y="363.525" width="84.1929" height="75.2866" filterUnits="userSpaceOnUse" color-interpolation-filters="sRGB">
<feFlood flood-opacity="0" result="BackgroundImageFix"/>
<feBlend mode="normal" in="SourceGraphic" in2="BackgroundImageFix" result="shape"/>
<feGaussianBlur stdDeviation="5" result="effect1_foregroundBlur_25_3819"/>
</filter>
<filter id="filter13_f_25_3819" x="193.889" y="413.698" width="84.1929" height="75.2866" filterUnits="userSpaceOnUse" color-interpolation-filters="sRGB">
<feFlood flood-opacity="0" result="BackgroundImageFix"/>
<feBlend mode="normal" in="SourceGraphic" in2="BackgroundImageFix" result="shape"/>
<feGaussianBlur stdDeviation="5" result="effect1_foregroundBlur_25_3819"/>
</filter>
<filter id="filter14_f_25_3819" x="194.667" y="463.871" width="84.1929" height="75.2866" filterUnits="userSpaceOnUse" color-interpolation-filters="sRGB">
<feFlood flood-opacity="0" result="BackgroundImageFix"/>
<feBlend mode="normal" in="SourceGraphic" in2="BackgroundImageFix" result="shape"/>
<feGaussianBlur stdDeviation="5" result="effect1_foregroundBlur_25_3819"/>
</filter>
<filter id="filter15_f_25_3819" x="195.441" y="514.044" width="84.1929" height="75.2866" filterUnits="userSpaceOnUse" color-interpolation-filters="sRGB">
<feFlood flood-opacity="0" result="BackgroundImageFix"/>
<feBlend mode="normal" in="SourceGraphic" in2="BackgroundImageFix" result="shape"/>
<feGaussianBlur stdDeviation="5" result="effect1_foregroundBlur_25_3819"/>
</filter>
<filter id="filter16_f_25_3819" x="68.4741" y="328.922" width="109.372" height="96.6489" filterUnits="userSpaceOnUse" color-interpolation-filters="sRGB">
<feFlood flood-opacity="0" result="BackgroundImageFix"/>
<feBlend mode="normal" in="SourceGraphic" in2="BackgroundImageFix" result="shape"/>
<feGaussianBlur stdDeviation="4.5" result="effect1_foregroundBlur_25_3819"/>
</filter>
<filter id="filter17_f_25_3819" x="131.926" y="219.021" width="109.372" height="96.6484" filterUnits="userSpaceOnUse" color-interpolation-filters="sRGB">
<feFlood flood-opacity="0" result="BackgroundImageFix"/>
<feBlend mode="normal" in="SourceGraphic" in2="BackgroundImageFix" result="shape"/>
<feGaussianBlur stdDeviation="4.5" result="effect1_foregroundBlur_25_3819"/>
</filter>
<filter id="filter18_f_25_3819" x="133.109" y="292.969" width="109.372" height="96.6489" filterUnits="userSpaceOnUse" color-interpolation-filters="sRGB">
<feFlood flood-opacity="0" result="BackgroundImageFix"/>
<feBlend mode="normal" in="SourceGraphic" in2="BackgroundImageFix" result="shape"/>
<feGaussianBlur stdDeviation="4.5" result="effect1_foregroundBlur_25_3819"/>
</filter>
<filter id="filter19_f_25_3819" x="196.557" y="183.067" width="109.372" height="96.6484" filterUnits="userSpaceOnUse" color-interpolation-filters="sRGB">
<feFlood flood-opacity="0" result="BackgroundImageFix"/>
<feBlend mode="normal" in="SourceGraphic" in2="BackgroundImageFix" result="shape"/>
<feGaussianBlur stdDeviation="4.5" result="effect1_foregroundBlur_25_3819"/>
</filter>
<filter id="filter20_f_25_3819" x="197.741" y="257.016" width="109.372" height="96.6489" filterUnits="userSpaceOnUse" color-interpolation-filters="sRGB">
<feFlood flood-opacity="0" result="BackgroundImageFix"/>
<feBlend mode="normal" in="SourceGraphic" in2="BackgroundImageFix" result="shape"/>
<feGaussianBlur stdDeviation="4.5" result="effect1_foregroundBlur_25_3819"/>
</filter>
<filter id="filter21_f_25_3819" x="129.557" y="71.1172" width="109.372" height="96.6484" filterUnits="userSpaceOnUse" color-interpolation-filters="sRGB">
<feFlood flood-opacity="0" result="BackgroundImageFix"/>
<feBlend mode="normal" in="SourceGraphic" in2="BackgroundImageFix" result="shape"/>
<feGaussianBlur stdDeviation="4.5" result="effect1_foregroundBlur_25_3819"/>
</filter>
<filter id="filter22_f_25_3819" x="130.741" y="145.064" width="109.372" height="96.6484" filterUnits="userSpaceOnUse" color-interpolation-filters="sRGB">
<feFlood flood-opacity="0" result="BackgroundImageFix"/>
<feBlend mode="normal" in="SourceGraphic" in2="BackgroundImageFix" result="shape"/>
<feGaussianBlur stdDeviation="4.5" result="effect1_foregroundBlur_25_3819"/>
</filter>
<filter id="filter23_f_25_3819" x="194.192" y="35.1641" width="109.372" height="96.6484" filterUnits="userSpaceOnUse" color-interpolation-filters="sRGB">
<feFlood flood-opacity="0" result="BackgroundImageFix"/>
<feBlend mode="normal" in="SourceGraphic" in2="BackgroundImageFix" result="shape"/>
<feGaussianBlur stdDeviation="4.5" result="effect1_foregroundBlur_25_3819"/>
</filter>
<filter id="filter24_f_25_3819" x="195.378" y="109.119" width="109.372" height="96.6484" filterUnits="userSpaceOnUse" color-interpolation-filters="sRGB">
<feFlood flood-opacity="0" result="BackgroundImageFix"/>
<feBlend mode="normal" in="SourceGraphic" in2="BackgroundImageFix" result="shape"/>
<feGaussianBlur stdDeviation="4.5" result="effect1_foregroundBlur_25_3819"/>
</filter>
<filter id="filter25_f_25_3819" x="5.02051" y="438.817" width="109.372" height="96.6484" filterUnits="userSpaceOnUse" color-interpolation-filters="sRGB">
<feFlood flood-opacity="0" result="BackgroundImageFix"/>
<feBlend mode="normal" in="SourceGraphic" in2="BackgroundImageFix" result="shape"/>
<feGaussianBlur stdDeviation="4.5" result="effect1_foregroundBlur_25_3819"/>
</filter>
<filter id="filter26_f_25_3819" x="6.20557" y="511.727" width="109.372" height="96.6484" filterUnits="userSpaceOnUse" color-interpolation-filters="sRGB">
<feFlood flood-opacity="0" result="BackgroundImageFix"/>
<feBlend mode="normal" in="SourceGraphic" in2="BackgroundImageFix" result="shape"/>
<feGaussianBlur stdDeviation="4.5" result="effect1_foregroundBlur_25_3819"/>
</filter>
<filter id="filter27_f_25_3819" x="69.6572" y="402.871" width="109.372" height="96.6484" filterUnits="userSpaceOnUse" color-interpolation-filters="sRGB">
<feFlood flood-opacity="0" result="BackgroundImageFix"/>
<feBlend mode="normal" in="SourceGraphic" in2="BackgroundImageFix" result="shape"/>
<feGaussianBlur stdDeviation="4.5" result="effect1_foregroundBlur_25_3819"/>
</filter>
<filter id="filter28_f_25_3819" x="70.8369" y="476.819" width="109.372" height="96.6484" filterUnits="userSpaceOnUse" color-interpolation-filters="sRGB">
<feFlood flood-opacity="0" result="BackgroundImageFix"/>
<feBlend mode="normal" in="SourceGraphic" in2="BackgroundImageFix" result="shape"/>
<feGaussianBlur stdDeviation="4.5" result="effect1_foregroundBlur_25_3819"/>
</filter>
<filter id="filter29_f_25_3819" x="134.289" y="366.917" width="109.372" height="96.6484" filterUnits="userSpaceOnUse" color-interpolation-filters="sRGB">
<feFlood flood-opacity="0" result="BackgroundImageFix"/>
<feBlend mode="normal" in="SourceGraphic" in2="BackgroundImageFix" result="shape"/>
<feGaussianBlur stdDeviation="4.5" result="effect1_foregroundBlur_25_3819"/>
</filter>
<filter id="filter30_f_25_3819" x="135.474" y="440.873" width="109.372" height="96.6484" filterUnits="userSpaceOnUse" color-interpolation-filters="sRGB">
<feFlood flood-opacity="0" result="BackgroundImageFix"/>
<feBlend mode="normal" in="SourceGraphic" in2="BackgroundImageFix" result="shape"/>
<feGaussianBlur stdDeviation="4.5" result="effect1_foregroundBlur_25_3819"/>
</filter>
<filter id="filter31_f_25_3819" x="198.926" y="330.971" width="109.372" height="96.6489" filterUnits="userSpaceOnUse" color-interpolation-filters="sRGB">
<feFlood flood-opacity="0" result="BackgroundImageFix"/>
<feBlend mode="normal" in="SourceGraphic" in2="BackgroundImageFix" result="shape"/>
<feGaussianBlur stdDeviation="4.5" result="effect1_foregroundBlur_25_3819"/>
</filter>
<filter id="filter32_f_25_3819" x="200.109" y="404.919" width="109.372" height="96.6484" filterUnits="userSpaceOnUse" color-interpolation-filters="sRGB">
<feFlood flood-opacity="0" result="BackgroundImageFix"/>
<feBlend mode="normal" in="SourceGraphic" in2="BackgroundImageFix" result="shape"/>
<feGaussianBlur stdDeviation="4.5" result="effect1_foregroundBlur_25_3819"/>
</filter>
<filter id="filter33_f_25_3819" x="136.657" y="514.821" width="109.372" height="96.6484" filterUnits="userSpaceOnUse" color-interpolation-filters="sRGB">
<feFlood flood-opacity="0" result="BackgroundImageFix"/>
<feBlend mode="normal" in="SourceGraphic" in2="BackgroundImageFix" result="shape"/>
<feGaussianBlur stdDeviation="4.5" result="effect1_foregroundBlur_25_3819"/>
</filter>
<filter id="filter34_f_25_3819" x="137.841" y="587.724" width="109.372" height="96.6484" filterUnits="userSpaceOnUse" color-interpolation-filters="sRGB">
<feFlood flood-opacity="0" result="BackgroundImageFix"/>
<feBlend mode="normal" in="SourceGraphic" in2="BackgroundImageFix" result="shape"/>
<feGaussianBlur stdDeviation="4.5" result="effect1_foregroundBlur_25_3819"/>
</filter>
<filter id="filter35_f_25_3819" x="201.292" y="478.867" width="109.372" height="96.6484" filterUnits="userSpaceOnUse" color-interpolation-filters="sRGB">
<feFlood flood-opacity="0" result="BackgroundImageFix"/>
<feBlend mode="normal" in="SourceGraphic" in2="BackgroundImageFix" result="shape"/>
<feGaussianBlur stdDeviation="4.5" result="effect1_foregroundBlur_25_3819"/>
</filter>
<filter id="filter36_f_25_3819" x="202.474" y="552.823" width="109.372" height="96.6484" filterUnits="userSpaceOnUse" color-interpolation-filters="sRGB">
<feFlood flood-opacity="0" result="BackgroundImageFix"/>
<feBlend mode="normal" in="SourceGraphic" in2="BackgroundImageFix" result="shape"/>
<feGaussianBlur stdDeviation="4.5" result="effect1_foregroundBlur_25_3819"/>
</filter>
</defs>
</svg>
