<svg width="117" height="212" viewBox="0 0 117 212" fill="none" xmlns="http://www.w3.org/2000/svg">
<mask id="mask0_133_18430" style="mask-type:alpha" maskUnits="userSpaceOnUse" x="0" y="0" width="165" height="212">
<rect x="0.950195" y="1.00098" width="163.081" height="210.499" fill="#D9D9D9" stroke="black"/>
</mask>
<g mask="url(#mask0_133_18430)">
<g filter="url(#filter0_f_133_18430)">
<circle cx="137.76" cy="105.481" r="30.2264" fill="#FB5C02"/>
</g>
<g filter="url(#filter1_f_133_18430)">
<g filter="url(#filter2_f_133_18430)">
<path d="M133.43 53.3343L133.457 53.2853L133.43 53.2363L128.986 45.3328L128.957 45.2818L128.899 45.2818L120.011 45.2818L119.953 45.2818L119.924 45.3328L115.48 53.2363L115.453 53.2853L115.48 53.3343L119.924 61.2378L119.953 61.2888L120.011 61.2888L128.899 61.2888L128.957 61.2888L128.986 61.2378L133.43 53.3343Z" stroke="#00FDFF" stroke-opacity="0.95" stroke-width="0.2"/>
</g>
<g filter="url(#filter3_f_133_18430)">
<path d="M119.788 61.4945L119.816 61.4455L119.788 61.3965L115.344 53.493L115.316 53.442L115.257 53.442L106.37 53.442L106.311 53.442L106.282 53.493L101.839 61.3965L101.811 61.4455L101.839 61.4945L106.282 69.3979L106.311 69.4489L106.37 69.4489L115.257 69.4489L115.316 69.4489L115.344 69.3979L119.788 61.4945Z" stroke="#00FDFF" stroke-opacity="0.95" stroke-width="0.2"/>
</g>
<g filter="url(#filter4_f_133_18430)">
<path d="M133.43 69.6556L133.457 69.6066L133.43 69.5576L128.986 61.6541L128.957 61.6031L128.899 61.6031L120.011 61.6031L119.953 61.6031L119.924 61.6541L115.48 69.5576L115.453 69.6066L115.48 69.6556L119.924 77.5591L119.953 77.6101L120.011 77.6101L128.899 77.6101L128.957 77.6101L128.986 77.5591L133.43 69.6556Z" stroke="#00FDFF" stroke-opacity="0.95" stroke-width="0.2"/>
</g>
<g filter="url(#filter5_f_133_18430)">
<path d="M133.43 102.294L133.457 102.245L133.43 102.196L128.986 94.2928L128.957 94.2418L128.899 94.2418L120.011 94.2418L119.953 94.2418L119.924 94.2928L115.48 102.196L115.453 102.245L115.48 102.294L119.924 110.198L119.953 110.249L120.011 110.249L128.899 110.249L128.957 110.249L128.986 110.198L133.43 102.294Z" stroke="#00FDFF" stroke-opacity="0.95" stroke-width="0.2"/>
</g>
<g filter="url(#filter6_f_133_18430)">
<path d="M92.5061 61.4945L92.5337 61.4455L92.5061 61.3965L88.0623 53.493L88.0336 53.442L87.9751 53.442L79.0874 53.442L79.0289 53.442L79.0002 53.493L74.5564 61.3965L74.5288 61.4455L74.5564 61.4945L79.0002 69.3979L79.0289 69.4489L79.0874 69.4489L87.9751 69.4489L88.0336 69.4489L88.0623 69.3979L92.5061 61.4945Z" stroke="#00FDFF" stroke-opacity="0.95" stroke-width="0.2"/>
</g>
<g filter="url(#filter7_f_133_18430)">
<path d="M78.8626 69.6556L78.8901 69.6066L78.8626 69.5576L74.4187 61.6541L74.39 61.6031L74.3315 61.6031L65.4439 61.6031L65.3854 61.6031L65.3567 61.6541L60.9128 69.5576L60.8853 69.6066L60.9128 69.6556L65.3567 77.5591L65.3854 77.6101L65.4439 77.6101L74.3315 77.6101L74.39 77.6101L74.4187 77.5591L78.8626 69.6556Z" stroke="#00FDFF" stroke-opacity="0.95" stroke-width="0.2"/>
</g>
<g filter="url(#filter8_f_133_18430)">
<path d="M106.148 69.6556L106.175 69.6066L106.148 69.5576L101.704 61.6541L101.675 61.6031L101.617 61.6031L92.729 61.6031L92.6705 61.6031L92.6418 61.6541L88.198 69.5576L88.1704 69.6066L88.198 69.6556L92.6418 77.5591L92.6705 77.6101L92.729 77.6101L101.617 77.6101L101.675 77.6101L101.704 77.5591L106.148 69.6556Z" stroke="#00FDFF" stroke-opacity="0.95" stroke-width="0.2"/>
</g>
<g filter="url(#filter9_f_133_18430)">
<path d="M92.5061 77.8148L92.5337 77.7658L92.5061 77.7168L88.0623 69.8133L88.0336 69.7623L87.9751 69.7623L79.0874 69.7623L79.0289 69.7623L79.0002 69.8133L74.5564 77.7168L74.5288 77.7658L74.5564 77.8148L79.0002 85.7183L79.0289 85.7693L79.0874 85.7693L87.9751 85.7693L88.0336 85.7693L88.0623 85.7183L92.5061 77.8148Z" stroke="#00FDFF" stroke-opacity="0.95" stroke-width="0.2"/>
</g>
<g filter="url(#filter10_f_133_18430)">
<path d="M119.788 77.8148L119.816 77.7658L119.788 77.7168L115.344 69.8133L115.316 69.7623L115.257 69.7623L106.37 69.7623L106.311 69.7623L106.282 69.8133L101.839 77.7168L101.811 77.7658L101.839 77.8148L106.282 85.7183L106.311 85.7693L106.37 85.7693L115.257 85.7693L115.316 85.7693L115.344 85.7183L119.788 77.8148Z" stroke="#00FDFF" stroke-opacity="0.95" stroke-width="0.2"/>
</g>
<g filter="url(#filter11_f_133_18430)">
<path d="M106.148 85.974L106.175 85.925L106.148 85.876L101.704 77.9725L101.675 77.9215L101.617 77.9215L92.729 77.9215L92.6705 77.9215L92.6418 77.9725L88.198 85.876L88.1704 85.925L88.198 85.974L92.6418 93.8774L92.6705 93.9284L92.729 93.9284L101.617 93.9284L101.675 93.9284L101.704 93.8774L106.148 85.974Z" stroke="#00FDFF" stroke-opacity="0.95" stroke-width="0.2"/>
</g>
<g filter="url(#filter12_f_133_18430)">
<path d="M133.43 85.974L133.457 85.925L133.43 85.876L128.986 77.9725L128.957 77.9215L128.899 77.9215L120.011 77.9215L119.953 77.9215L119.924 77.9725L115.48 85.876L115.453 85.925L115.48 85.974L119.924 93.8774L119.953 93.9284L120.011 93.9284L128.899 93.9284L128.957 93.9284L128.986 93.8774L133.43 85.974Z" stroke="#00FDFF" stroke-opacity="0.95" stroke-width="0.2"/>
</g>
<g filter="url(#filter13_f_133_18430)">
<path d="M119.788 94.1341L119.816 94.0851L119.788 94.0361L115.344 86.1326L115.316 86.0817L115.257 86.0817L106.37 86.0817L106.311 86.0817L106.282 86.1326L101.839 94.0361L101.811 94.0851L101.839 94.1341L106.282 102.038L106.311 102.089L106.37 102.089L115.257 102.089L115.316 102.089L115.344 102.038L119.788 94.1341Z" stroke="#00FDFF" stroke-opacity="0.95" stroke-width="0.2"/>
</g>
<g filter="url(#filter14_f_133_18430)">
<path d="M92.5061 94.1341L92.5337 94.0851L92.5061 94.0361L88.0623 86.1326L88.0336 86.0817L87.9751 86.0817L79.0874 86.0817L79.0289 86.0817L79.0002 86.1326L74.5564 94.0361L74.5288 94.0851L74.5564 94.1341L79.0002 102.038L79.0289 102.089L79.0874 102.089L87.9751 102.089L88.0336 102.089L88.0623 102.038L92.5061 94.1341Z" stroke="#00FDFF" stroke-opacity="0.95" stroke-width="0.2"/>
</g>
<g filter="url(#filter15_f_133_18430)">
<path d="M78.8626 102.294L78.8901 102.245L78.8626 102.196L74.4187 94.2928L74.39 94.2418L74.3315 94.2418L65.4439 94.2418L65.3854 94.2418L65.3567 94.2928L60.9128 102.196L60.8853 102.245L60.9128 102.294L65.3567 110.198L65.3854 110.249L65.4439 110.249L74.3315 110.249L74.39 110.249L74.4187 110.198L78.8626 102.294Z" stroke="#00FDFF" stroke-opacity="0.95" stroke-width="0.2"/>
</g>
<g filter="url(#filter16_f_133_18430)">
<path d="M106.148 102.294L106.175 102.245L106.148 102.196L101.704 94.2928L101.675 94.2418L101.617 94.2418L92.729 94.2418L92.6705 94.2418L92.6418 94.2928L88.198 102.196L88.1704 102.245L88.198 102.294L92.6418 110.198L92.6705 110.249L92.729 110.249L101.617 110.249L101.675 110.249L101.704 110.198L106.148 102.294Z" stroke="#00FDFF" stroke-opacity="0.95" stroke-width="0.2"/>
</g>
<g filter="url(#filter17_f_133_18430)">
<path d="M92.5061 110.454L92.5337 110.405L92.5061 110.356L88.0623 102.453L88.0336 102.402L87.9751 102.402L79.0874 102.402L79.0289 102.402L79.0002 102.453L74.5564 110.356L74.5288 110.405L74.5564 110.454L79.0002 118.358L79.0289 118.409L79.0874 118.409L87.9751 118.409L88.0336 118.409L88.0623 118.358L92.5061 110.454Z" stroke="#00FDFF" stroke-opacity="0.95" stroke-width="0.2"/>
</g>
<g filter="url(#filter18_f_133_18430)">
<path d="M119.788 110.454L119.816 110.405L119.788 110.356L115.344 102.453L115.316 102.402L115.257 102.402L106.37 102.402L106.311 102.402L106.282 102.453L101.839 110.356L101.811 110.405L101.839 110.454L106.282 118.358L106.311 118.409L106.37 118.409L115.257 118.409L115.316 118.409L115.344 118.358L119.788 110.454Z" stroke="#00FDFF" stroke-opacity="0.95" stroke-width="0.2"/>
</g>
<g filter="url(#filter19_f_133_18430)">
<path d="M106.148 118.614L106.175 118.565L106.148 118.516L101.704 110.612L101.675 110.561L101.617 110.561L92.729 110.561L92.6705 110.561L92.6418 110.612L88.198 118.516L88.1704 118.565L88.198 118.614L92.6418 126.517L92.6705 126.568L92.729 126.568L101.617 126.568L101.675 126.568L101.704 126.517L106.148 118.614Z" stroke="#00FDFF" stroke-opacity="0.95" stroke-width="0.2"/>
</g>
<g filter="url(#filter20_f_133_18430)">
<path d="M133.43 118.614L133.457 118.565L133.43 118.516L128.986 110.612L128.957 110.561L128.899 110.561L120.011 110.561L119.953 110.561L119.924 110.612L115.48 118.516L115.453 118.565L115.48 118.614L119.924 126.517L119.953 126.568L120.011 126.568L128.899 126.568L128.957 126.568L128.986 126.517L133.43 118.614Z" stroke="#00FDFF" stroke-opacity="0.95" stroke-width="0.2"/>
</g>
<g filter="url(#filter21_f_133_18430)">
<path d="M119.788 126.773L119.816 126.724L119.788 126.675L115.344 118.771L115.316 118.72L115.257 118.72L106.37 118.72L106.311 118.72L106.282 118.771L101.839 126.675L101.811 126.724L101.839 126.773L106.282 134.676L106.311 134.727L106.37 134.727L115.257 134.727L115.316 134.727L115.344 134.676L119.788 126.773Z" stroke="#00FDFF" stroke-opacity="0.95" stroke-width="0.2"/>
</g>
<g filter="url(#filter22_f_133_18430)">
<path d="M133.43 134.934L133.457 134.885L133.43 134.836L128.986 126.932L128.957 126.881L128.899 126.881L120.011 126.881L119.953 126.881L119.924 126.932L115.48 134.836L115.453 134.885L115.48 134.934L119.924 142.837L119.953 142.888L120.011 142.888L128.899 142.888L128.957 142.888L128.986 142.837L133.43 134.934Z" stroke="#00FDFF" stroke-opacity="0.95" stroke-width="0.2"/>
</g>
<g filter="url(#filter23_f_133_18430)">
<path d="M106.148 134.934L106.175 134.885L106.148 134.836L101.704 126.932L101.675 126.881L101.617 126.881L92.729 126.881L92.6705 126.881L92.6418 126.932L88.198 134.836L88.1704 134.885L88.198 134.934L92.6418 142.837L92.6705 142.888L92.729 142.888L101.617 142.888L101.675 142.888L101.704 142.837L106.148 134.934Z" stroke="#00FDFF" stroke-opacity="0.95" stroke-width="0.2"/>
</g>
<g filter="url(#filter24_f_133_18430)">
<path d="M92.5061 143.094L92.5337 143.045L92.5061 142.996L88.0623 135.093L88.0336 135.042L87.9751 135.042L79.0874 135.042L79.0289 135.042L79.0002 135.093L74.5564 142.996L74.5288 143.045L74.5564 143.094L79.0002 150.998L79.0289 151.049L79.0874 151.049L87.9751 151.049L88.0336 151.049L88.0623 150.998L92.5061 143.094Z" stroke="#00FDFF" stroke-opacity="0.95" stroke-width="0.2"/>
</g>
<g filter="url(#filter25_f_133_18430)">
<path d="M119.788 143.094L119.816 143.045L119.788 142.996L115.344 135.093L115.316 135.042L115.257 135.042L106.37 135.042L106.311 135.042L106.282 135.093L101.839 142.996L101.811 143.045L101.839 143.094L106.282 150.998L106.311 151.049L106.37 151.049L115.257 151.049L115.316 151.049L115.344 150.998L119.788 143.094Z" stroke="#00FDFF" stroke-opacity="0.95" stroke-width="0.2"/>
</g>
<g filter="url(#filter26_f_133_18430)">
<path d="M106.148 151.253L106.175 151.204L106.148 151.155L101.704 143.252L101.675 143.201L101.617 143.201L92.729 143.201L92.6705 143.201L92.6418 143.252L88.198 151.155L88.1704 151.204L88.198 151.253L92.6418 159.157L92.6705 159.208L92.729 159.208L101.617 159.208L101.675 159.208L101.704 159.157L106.148 151.253Z" stroke="#00FDFF" stroke-opacity="0.95" stroke-width="0.2"/>
</g>
<g filter="url(#filter27_f_133_18430)">
<path d="M133.43 151.253L133.457 151.204L133.43 151.155L128.986 143.252L128.957 143.201L128.899 143.201L120.011 143.201L119.953 143.201L119.924 143.252L115.48 151.155L115.453 151.204L115.48 151.253L119.924 159.157L119.953 159.208L120.011 159.208L128.899 159.208L128.957 159.208L128.986 159.157L133.43 151.253Z" stroke="#00FDFF" stroke-opacity="0.95" stroke-width="0.2"/>
</g>
<g filter="url(#filter28_f_133_18430)">
<path d="M119.788 159.412L119.816 159.363L119.788 159.314L115.344 151.411L115.316 151.36L115.257 151.36L106.37 151.36L106.311 151.36L106.282 151.411L101.839 159.314L101.811 159.363L101.839 159.412L106.282 167.316L106.311 167.367L106.37 167.367L115.257 167.367L115.316 167.367L115.344 167.316L119.788 159.412Z" stroke="#00FDFF" stroke-opacity="0.95" stroke-width="0.2"/>
</g>
<g filter="url(#filter29_f_133_18430)">
<path d="M133.43 167.573L133.457 167.524L133.43 167.475L128.986 159.571L128.957 159.52L128.899 159.52L120.011 159.52L119.953 159.52L119.924 159.571L115.48 167.475L115.453 167.524L115.48 167.573L119.924 175.476L119.953 175.527L120.011 175.527L128.899 175.527L128.957 175.527L128.986 175.476L133.43 167.573Z" stroke="#00FDFF" stroke-opacity="0.95" stroke-width="0.2"/>
</g>
<g filter="url(#filter30_f_133_18430)">
<path d="M133.43 53.3343L133.457 53.2853L133.43 53.2363L128.986 45.3328L128.957 45.2818L128.899 45.2818L120.011 45.2818L119.953 45.2818L119.924 45.3328L115.48 53.2363L115.453 53.2853L115.48 53.3343L119.924 61.2378L119.953 61.2888L120.011 61.2888L128.899 61.2888L128.957 61.2888L128.986 61.2378L133.43 53.3343Z" stroke="#00FDFF" stroke-opacity="0.95" stroke-width="0.2"/>
</g>
<g filter="url(#filter31_f_133_18430)">
<path d="M119.788 61.4945L119.816 61.4455L119.788 61.3965L115.344 53.493L115.316 53.442L115.257 53.442L106.37 53.442L106.311 53.442L106.282 53.493L101.839 61.3965L101.811 61.4455L101.839 61.4945L106.282 69.3979L106.311 69.4489L106.37 69.4489L115.257 69.4489L115.316 69.4489L115.344 69.3979L119.788 61.4945Z" stroke="#00FDFF" stroke-opacity="0.95" stroke-width="0.2"/>
</g>
<g filter="url(#filter32_f_133_18430)">
<path d="M133.43 69.6556L133.457 69.6066L133.43 69.5576L128.986 61.6541L128.957 61.6031L128.899 61.6031L120.011 61.6031L119.953 61.6031L119.924 61.6541L115.48 69.5576L115.453 69.6066L115.48 69.6556L119.924 77.5591L119.953 77.6101L120.011 77.6101L128.899 77.6101L128.957 77.6101L128.986 77.5591L133.43 69.6556Z" stroke="#00FDFF" stroke-opacity="0.95" stroke-width="0.2"/>
</g>
<g filter="url(#filter33_f_133_18430)">
<path d="M133.43 102.294L133.457 102.245L133.43 102.196L128.986 94.2928L128.957 94.2418L128.899 94.2418L120.011 94.2418L119.953 94.2418L119.924 94.2928L115.48 102.196L115.453 102.245L115.48 102.294L119.924 110.198L119.953 110.249L120.011 110.249L128.899 110.249L128.957 110.249L128.986 110.198L133.43 102.294Z" stroke="#00FDFF" stroke-opacity="0.95" stroke-width="0.2"/>
</g>
<g filter="url(#filter34_f_133_18430)">
<path d="M92.5061 61.4945L92.5337 61.4455L92.5061 61.3965L88.0623 53.493L88.0336 53.442L87.9751 53.442L79.0874 53.442L79.0289 53.442L79.0002 53.493L74.5564 61.3965L74.5288 61.4455L74.5564 61.4945L79.0002 69.3979L79.0289 69.4489L79.0874 69.4489L87.9751 69.4489L88.0336 69.4489L88.0623 69.3979L92.5061 61.4945Z" stroke="#00FDFF" stroke-opacity="0.95" stroke-width="0.2"/>
</g>
<g filter="url(#filter35_f_133_18430)">
<path d="M78.8626 69.6556L78.8901 69.6066L78.8626 69.5576L74.4187 61.6541L74.39 61.6031L74.3315 61.6031L65.4439 61.6031L65.3854 61.6031L65.3567 61.6541L60.9128 69.5576L60.8853 69.6066L60.9128 69.6556L65.3567 77.5591L65.3854 77.6101L65.4439 77.6101L74.3315 77.6101L74.39 77.6101L74.4187 77.5591L78.8626 69.6556Z" stroke="#00FDFF" stroke-opacity="0.95" stroke-width="0.2"/>
</g>
<g filter="url(#filter36_f_133_18430)">
<path d="M106.148 69.6556L106.175 69.6066L106.148 69.5576L101.704 61.6541L101.675 61.6031L101.617 61.6031L92.729 61.6031L92.6705 61.6031L92.6418 61.6541L88.198 69.5576L88.1704 69.6066L88.198 69.6556L92.6418 77.5591L92.6705 77.6101L92.729 77.6101L101.617 77.6101L101.675 77.6101L101.704 77.5591L106.148 69.6556Z" stroke="#00FDFF" stroke-opacity="0.95" stroke-width="0.2"/>
</g>
<g filter="url(#filter37_f_133_18430)">
<path d="M92.5061 77.8148L92.5337 77.7658L92.5061 77.7168L88.0623 69.8133L88.0336 69.7623L87.9751 69.7623L79.0874 69.7623L79.0289 69.7623L79.0002 69.8133L74.5564 77.7168L74.5288 77.7658L74.5564 77.8148L79.0002 85.7183L79.0289 85.7693L79.0874 85.7693L87.9751 85.7693L88.0336 85.7693L88.0623 85.7183L92.5061 77.8148Z" stroke="#00FDFF" stroke-opacity="0.95" stroke-width="0.2"/>
</g>
<g filter="url(#filter38_f_133_18430)">
<path d="M119.788 77.8148L119.816 77.7658L119.788 77.7168L115.344 69.8133L115.316 69.7623L115.257 69.7623L106.37 69.7623L106.311 69.7623L106.282 69.8133L101.839 77.7168L101.811 77.7658L101.839 77.8148L106.282 85.7183L106.311 85.7693L106.37 85.7693L115.257 85.7693L115.316 85.7693L115.344 85.7183L119.788 77.8148Z" stroke="#00FDFF" stroke-opacity="0.95" stroke-width="0.2"/>
</g>
<g filter="url(#filter39_f_133_18430)">
<path d="M106.148 85.974L106.175 85.925L106.148 85.876L101.704 77.9725L101.675 77.9215L101.617 77.9215L92.729 77.9215L92.6705 77.9215L92.6418 77.9725L88.198 85.876L88.1704 85.925L88.198 85.974L92.6418 93.8774L92.6705 93.9284L92.729 93.9284L101.617 93.9284L101.675 93.9284L101.704 93.8774L106.148 85.974Z" stroke="#00FDFF" stroke-opacity="0.95" stroke-width="0.2"/>
</g>
<g filter="url(#filter40_f_133_18430)">
<path d="M133.43 85.974L133.457 85.925L133.43 85.876L128.986 77.9725L128.957 77.9215L128.899 77.9215L120.011 77.9215L119.953 77.9215L119.924 77.9725L115.48 85.876L115.453 85.925L115.48 85.974L119.924 93.8774L119.953 93.9284L120.011 93.9284L128.899 93.9284L128.957 93.9284L128.986 93.8774L133.43 85.974Z" stroke="#00FDFF" stroke-opacity="0.95" stroke-width="0.2"/>
</g>
<g filter="url(#filter41_f_133_18430)">
<path d="M119.788 94.1341L119.816 94.0851L119.788 94.0361L115.344 86.1326L115.316 86.0817L115.257 86.0817L106.37 86.0817L106.311 86.0817L106.282 86.1326L101.839 94.0361L101.811 94.0851L101.839 94.1341L106.282 102.038L106.311 102.089L106.37 102.089L115.257 102.089L115.316 102.089L115.344 102.038L119.788 94.1341Z" stroke="#00FDFF" stroke-opacity="0.95" stroke-width="0.2"/>
</g>
<g filter="url(#filter42_f_133_18430)">
<path d="M92.5061 94.1341L92.5337 94.0851L92.5061 94.0361L88.0623 86.1326L88.0336 86.0817L87.9751 86.0817L79.0874 86.0817L79.0289 86.0817L79.0002 86.1326L74.5564 94.0361L74.5288 94.0851L74.5564 94.1341L79.0002 102.038L79.0289 102.089L79.0874 102.089L87.9751 102.089L88.0336 102.089L88.0623 102.038L92.5061 94.1341Z" stroke="#00FDFF" stroke-opacity="0.95" stroke-width="0.2"/>
</g>
<g filter="url(#filter43_f_133_18430)">
<path d="M78.8626 102.294L78.8901 102.245L78.8626 102.196L74.4187 94.2928L74.39 94.2418L74.3315 94.2418L65.4439 94.2418L65.3854 94.2418L65.3567 94.2928L60.9128 102.196L60.8853 102.245L60.9128 102.294L65.3567 110.198L65.3854 110.249L65.4439 110.249L74.3315 110.249L74.39 110.249L74.4187 110.198L78.8626 102.294Z" stroke="#00FDFF" stroke-opacity="0.95" stroke-width="0.2"/>
</g>
<g filter="url(#filter44_f_133_18430)">
<path d="M106.148 102.294L106.175 102.245L106.148 102.196L101.704 94.2928L101.675 94.2418L101.617 94.2418L92.729 94.2418L92.6705 94.2418L92.6418 94.2928L88.198 102.196L88.1704 102.245L88.198 102.294L92.6418 110.198L92.6705 110.249L92.729 110.249L101.617 110.249L101.675 110.249L101.704 110.198L106.148 102.294Z" stroke="#00FDFF" stroke-opacity="0.95" stroke-width="0.2"/>
</g>
<g filter="url(#filter45_f_133_18430)">
<path d="M92.5061 110.454L92.5337 110.405L92.5061 110.356L88.0623 102.453L88.0336 102.402L87.9751 102.402L79.0874 102.402L79.0289 102.402L79.0002 102.453L74.5564 110.356L74.5288 110.405L74.5564 110.454L79.0002 118.358L79.0289 118.409L79.0874 118.409L87.9751 118.409L88.0336 118.409L88.0623 118.358L92.5061 110.454Z" stroke="#00FDFF" stroke-opacity="0.95" stroke-width="0.2"/>
</g>
<g filter="url(#filter46_f_133_18430)">
<path d="M119.788 110.454L119.816 110.405L119.788 110.356L115.344 102.453L115.316 102.402L115.257 102.402L106.37 102.402L106.311 102.402L106.282 102.453L101.839 110.356L101.811 110.405L101.839 110.454L106.282 118.358L106.311 118.409L106.37 118.409L115.257 118.409L115.316 118.409L115.344 118.358L119.788 110.454Z" stroke="#00FDFF" stroke-opacity="0.95" stroke-width="0.2"/>
</g>
<g filter="url(#filter47_f_133_18430)">
<path d="M106.148 118.614L106.175 118.565L106.148 118.516L101.704 110.612L101.675 110.561L101.617 110.561L92.729 110.561L92.6705 110.561L92.6418 110.612L88.198 118.516L88.1704 118.565L88.198 118.614L92.6418 126.517L92.6705 126.568L92.729 126.568L101.617 126.568L101.675 126.568L101.704 126.517L106.148 118.614Z" stroke="#00FDFF" stroke-opacity="0.95" stroke-width="0.2"/>
</g>
<g filter="url(#filter48_f_133_18430)">
<path d="M133.43 118.614L133.457 118.565L133.43 118.516L128.986 110.612L128.957 110.561L128.899 110.561L120.011 110.561L119.953 110.561L119.924 110.612L115.48 118.516L115.453 118.565L115.48 118.614L119.924 126.517L119.953 126.568L120.011 126.568L128.899 126.568L128.957 126.568L128.986 126.517L133.43 118.614Z" stroke="#00FDFF" stroke-opacity="0.95" stroke-width="0.2"/>
</g>
<g filter="url(#filter49_f_133_18430)">
<path d="M119.788 126.773L119.816 126.724L119.788 126.675L115.344 118.771L115.316 118.72L115.257 118.72L106.37 118.72L106.311 118.72L106.282 118.771L101.839 126.675L101.811 126.724L101.839 126.773L106.282 134.676L106.311 134.727L106.37 134.727L115.257 134.727L115.316 134.727L115.344 134.676L119.788 126.773Z" stroke="#00FDFF" stroke-opacity="0.95" stroke-width="0.2"/>
</g>
<g filter="url(#filter50_f_133_18430)">
<path d="M133.43 134.934L133.457 134.885L133.43 134.836L128.986 126.932L128.957 126.881L128.899 126.881L120.011 126.881L119.953 126.881L119.924 126.932L115.48 134.836L115.453 134.885L115.48 134.934L119.924 142.837L119.953 142.888L120.011 142.888L128.899 142.888L128.957 142.888L128.986 142.837L133.43 134.934Z" stroke="#00FDFF" stroke-opacity="0.95" stroke-width="0.2"/>
</g>
<g filter="url(#filter51_f_133_18430)">
<path d="M106.148 134.934L106.175 134.885L106.148 134.836L101.704 126.932L101.675 126.881L101.617 126.881L92.729 126.881L92.6705 126.881L92.6418 126.932L88.198 134.836L88.1704 134.885L88.198 134.934L92.6418 142.837L92.6705 142.888L92.729 142.888L101.617 142.888L101.675 142.888L101.704 142.837L106.148 134.934Z" stroke="#00FDFF" stroke-opacity="0.95" stroke-width="0.2"/>
</g>
<g filter="url(#filter52_f_133_18430)">
<path d="M92.5061 143.094L92.5337 143.045L92.5061 142.996L88.0623 135.093L88.0336 135.042L87.9751 135.042L79.0874 135.042L79.0289 135.042L79.0002 135.093L74.5564 142.996L74.5288 143.045L74.5564 143.094L79.0002 150.998L79.0289 151.049L79.0874 151.049L87.9751 151.049L88.0336 151.049L88.0623 150.998L92.5061 143.094Z" stroke="#00FDFF" stroke-opacity="0.95" stroke-width="0.2"/>
</g>
<g filter="url(#filter53_f_133_18430)">
<path d="M119.788 143.094L119.816 143.045L119.788 142.996L115.344 135.093L115.316 135.042L115.257 135.042L106.37 135.042L106.311 135.042L106.282 135.093L101.839 142.996L101.811 143.045L101.839 143.094L106.282 150.998L106.311 151.049L106.37 151.049L115.257 151.049L115.316 151.049L115.344 150.998L119.788 143.094Z" stroke="#00FDFF" stroke-opacity="0.95" stroke-width="0.2"/>
</g>
<g filter="url(#filter54_f_133_18430)">
<path d="M106.148 151.253L106.175 151.204L106.148 151.155L101.704 143.252L101.675 143.201L101.617 143.201L92.729 143.201L92.6705 143.201L92.6418 143.252L88.198 151.155L88.1704 151.204L88.198 151.253L92.6418 159.157L92.6705 159.208L92.729 159.208L101.617 159.208L101.675 159.208L101.704 159.157L106.148 151.253Z" stroke="#00FDFF" stroke-opacity="0.95" stroke-width="0.2"/>
</g>
<g filter="url(#filter55_f_133_18430)">
<path d="M133.43 151.253L133.457 151.204L133.43 151.155L128.986 143.252L128.957 143.201L128.899 143.201L120.011 143.201L119.953 143.201L119.924 143.252L115.48 151.155L115.453 151.204L115.48 151.253L119.924 159.157L119.953 159.208L120.011 159.208L128.899 159.208L128.957 159.208L128.986 159.157L133.43 151.253Z" stroke="#00FDFF" stroke-opacity="0.95" stroke-width="0.2"/>
</g>
<g filter="url(#filter56_f_133_18430)">
<path d="M119.788 159.412L119.816 159.363L119.788 159.314L115.344 151.411L115.316 151.36L115.257 151.36L106.37 151.36L106.311 151.36L106.282 151.411L101.839 159.314L101.811 159.363L101.839 159.412L106.282 167.316L106.311 167.367L106.37 167.367L115.257 167.367L115.316 167.367L115.344 167.316L119.788 159.412Z" stroke="#00FDFF" stroke-opacity="0.95" stroke-width="0.2"/>
</g>
<g filter="url(#filter57_f_133_18430)">
<path d="M133.43 167.573L133.457 167.524L133.43 167.475L128.986 159.571L128.957 159.52L128.899 159.52L120.011 159.52L119.953 159.52L119.924 159.571L115.48 167.475L115.453 167.524L115.48 167.573L119.924 175.476L119.953 175.527L120.011 175.527L128.899 175.527L128.957 175.527L128.986 175.476L133.43 167.573Z" stroke="#00FDFF" stroke-opacity="0.95" stroke-width="0.2"/>
</g>
</g>
<path d="M133.513 41.0523L133.602 40.8865L133.513 40.7207L128.878 32.1038L128.779 31.9196L128.57 31.9196L119.301 31.9196L119.091 31.9196L118.992 32.1038L114.358 40.7207L114.268 40.8865L114.358 41.0523L118.992 49.6692L119.091 49.8534L119.301 49.8534L128.57 49.8534L128.779 49.8534L128.878 49.6692L133.513 41.0523Z" stroke="#FF5500" stroke-width="0.7"/>
<path d="M119.286 49.9488L119.375 49.783L119.286 49.6172L114.651 41.0003L114.552 40.8161L114.343 40.8161L105.073 40.8161L104.864 40.8161L104.765 41.0003L100.13 49.6172L100.041 49.783L100.13 49.9488L104.765 58.5657L104.864 58.7499L105.073 58.7499L114.343 58.7499L114.552 58.7499L114.651 58.5657L119.286 49.9488Z" stroke="#FF5500" stroke-width="0.7"/>
<path d="M133.513 58.8453L133.602 58.6795L133.513 58.5137L128.878 49.8967L128.779 49.7125L128.57 49.7125L119.301 49.7125L119.091 49.7125L118.992 49.8967L114.358 58.5137L114.268 58.6795L114.358 58.8453L118.992 67.4622L119.091 67.6464L119.301 67.6464L128.57 67.6464L128.779 67.6464L128.878 67.4622L133.513 58.8453Z" stroke="#FF5500" stroke-width="0.7"/>
<path d="M133.513 76.6382L133.602 76.4724L133.513 76.3066L128.878 67.6897L128.779 67.5055L128.57 67.5055L119.301 67.5055L119.091 67.5055L118.992 67.6897L114.358 76.3066L114.268 76.4724L114.358 76.6382L118.992 85.2552L119.091 85.4394L119.301 85.4394L128.57 85.4394L128.779 85.4394L128.878 85.2552L133.513 76.6382Z" stroke="#FF5500" stroke-width="0.7"/>
<path d="M119.286 85.5347L119.375 85.3689L119.286 85.2031L114.651 76.5862L114.552 76.402L114.343 76.402L105.073 76.402L104.864 76.402L104.765 76.5862L100.13 85.2031L100.041 85.3689L100.13 85.5347L104.765 94.1516L104.864 94.3358L105.073 94.3358L114.343 94.3358L114.552 94.3358L114.651 94.1516L119.286 85.5347Z" stroke="#FF5500" stroke-width="0.7"/>
<path d="M133.513 94.4312L133.602 94.2654L133.513 94.0996L128.878 85.4827L128.779 85.2985L128.57 85.2985L119.301 85.2985L119.091 85.2985L118.992 85.4827L114.358 94.0996L114.268 94.2654L114.358 94.4312L118.992 103.048L119.091 103.232L119.301 103.232L128.57 103.232L128.779 103.232L128.878 103.048L133.513 94.4312Z" stroke="#FF5500" stroke-width="0.7"/>
<path d="M90.8317 49.9488L90.9209 49.783L90.8317 49.6172L86.1969 41.0003L86.0978 40.8161L85.8886 40.8161L76.619 40.8161L76.4098 40.8161L76.3107 41.0003L71.6759 49.6172L71.5867 49.783L71.6759 49.9488L76.3107 58.5657L76.4098 58.7499L76.619 58.7499L85.8886 58.7499L86.0978 58.7499L86.1969 58.5657L90.8317 49.9488Z" stroke="#FF5500" stroke-width="0.7"/>
<path d="M76.6032 58.8453L76.6923 58.6795L76.6032 58.5137L71.9683 49.8967L71.8693 49.7125L71.6601 49.7125L62.3905 49.7125L62.1813 49.7125L62.0822 49.8967L57.4474 58.5137L57.3582 58.6795L57.4474 58.8453L62.0822 67.4622L62.1813 67.6464L62.3905 67.6464L71.6601 67.6464L71.8693 67.6464L71.9683 67.4622L76.6032 58.8453Z" stroke="#FF5500" stroke-width="0.7"/>
<path d="M105.059 58.8453L105.148 58.6795L105.059 58.5137L100.424 49.8967L100.325 49.7125L100.116 49.7125L90.8465 49.7125L90.6374 49.7125L90.5383 49.8967L85.9035 58.5137L85.8143 58.6795L85.9035 58.8453L90.5383 67.4622L90.6374 67.6464L90.8465 67.6464L100.116 67.6464L100.325 67.6464L100.424 67.4622L105.059 58.8453Z" stroke="#FF5500" stroke-width="0.7"/>
<path d="M90.8317 67.7408L90.9209 67.575L90.8317 67.4092L86.1969 58.7922L86.0978 58.608L85.8886 58.608L76.619 58.608L76.4098 58.608L76.3107 58.7922L71.6759 67.4092L71.5867 67.575L71.6759 67.7408L76.3107 76.3577L76.4098 76.5419L76.619 76.5419L85.8886 76.5419L86.0978 76.5419L86.1969 76.3577L90.8317 67.7408Z" stroke="#FF5500" stroke-width="0.7"/>
<path d="M119.286 67.7408L119.375 67.575L119.286 67.4092L114.651 58.7922L114.552 58.608L114.343 58.608L105.073 58.608L104.864 58.608L104.765 58.7922L100.13 67.4092L100.041 67.575L100.13 67.7408L104.765 76.3577L104.864 76.5419L105.073 76.5419L114.343 76.5419L114.552 76.5419L114.651 76.3577L119.286 67.7408Z" stroke="#FF5500" stroke-width="0.7"/>
<path d="M105.059 76.6382L105.148 76.4724L105.059 76.3066L100.424 67.6897L100.325 67.5055L100.116 67.5055L90.8465 67.5055L90.6374 67.5055L90.5383 67.6897L85.9035 76.3066L85.8143 76.4724L85.9035 76.6382L90.5383 85.2552L90.6374 85.4394L90.8465 85.4394L100.116 85.4394L100.325 85.4394L100.424 85.2552L105.059 76.6382Z" stroke="#FF5500" stroke-width="0.7"/>
<path d="M76.6032 76.6382L76.6923 76.4724L76.6032 76.3066L71.9683 67.6897L71.8693 67.5055L71.6601 67.5055L62.3905 67.5055L62.1813 67.5055L62.0822 67.6897L57.4474 76.3066L57.3582 76.4724L57.4474 76.6382L62.0822 85.2552L62.1813 85.4394L62.3905 85.4394L71.6601 85.4394L71.8693 85.4394L71.9683 85.2552L76.6032 76.6382Z" stroke="#FF5500" stroke-width="0.7"/>
<path d="M62.3746 85.5347L62.4638 85.3689L62.3746 85.2031L57.7398 76.5862L57.6407 76.402L57.4316 76.402L48.1619 76.402L47.9528 76.402L47.8537 76.5862L43.2189 85.2031L43.1297 85.3689L43.2189 85.5347L47.8537 94.1516L47.9528 94.3358L48.1619 94.3358L57.4316 94.3358L57.6407 94.3358L57.7398 94.1516L62.3746 85.5347Z" stroke="#FF5500" stroke-width="0.7"/>
<path d="M90.8317 85.5347L90.9209 85.3689L90.8317 85.2031L86.1969 76.5862L86.0978 76.402L85.8886 76.402L76.619 76.402L76.4098 76.402L76.3107 76.5862L71.6759 85.2031L71.5867 85.3689L71.6759 85.5347L76.3107 94.1516L76.4098 94.3358L76.619 94.3358L85.8886 94.3358L86.0978 94.3358L86.1969 94.1516L90.8317 85.5347Z" stroke="#FF5500" stroke-width="0.7"/>
<path d="M76.6032 94.4312L76.6923 94.2654L76.6032 94.0996L71.9683 85.4827L71.8693 85.2985L71.6601 85.2985L62.3905 85.2985L62.1813 85.2985L62.0822 85.4827L57.4474 94.0996L57.3582 94.2654L57.4474 94.4312L62.0822 103.048L62.1813 103.232L62.3905 103.232L71.6601 103.232L71.8693 103.232L71.9683 103.048L76.6032 94.4312Z" stroke="#FF5500" stroke-width="0.7"/>
<path d="M105.059 94.4312L105.148 94.2654L105.059 94.0996L100.424 85.4827L100.325 85.2985L100.116 85.2985L90.8465 85.2985L90.6374 85.2985L90.5383 85.4827L85.9035 94.0996L85.8143 94.2654L85.9035 94.4312L90.5383 103.048L90.6374 103.232L90.8465 103.232L100.116 103.232L100.325 103.232L100.424 103.048L105.059 94.4312Z" stroke="#FF5500" stroke-width="0.7"/>
<path d="M90.8317 103.328L90.9209 103.162L90.8317 102.996L86.1969 94.3792L86.0978 94.195L85.8886 94.195L76.619 94.195L76.4098 94.195L76.3107 94.3792L71.6759 102.996L71.5867 103.162L71.6759 103.328L76.3107 111.945L76.4098 112.129L76.619 112.129L85.8886 112.129L86.0978 112.129L86.1969 111.945L90.8317 103.328Z" stroke="#FF5500" stroke-width="0.7"/>
<path d="M119.286 103.328L119.375 103.162L119.286 102.996L114.651 94.3792L114.552 94.195L114.343 94.195L105.073 94.195L104.864 94.195L104.765 94.3792L100.13 102.996L100.041 103.162L100.13 103.328L104.765 111.945L104.864 112.129L105.073 112.129L114.343 112.129L114.552 112.129L114.651 111.945L119.286 103.328Z" stroke="#FF5500" stroke-width="0.7"/>
<path d="M105.059 112.223L105.148 112.057L105.059 111.892L100.424 103.275L100.325 103.09L100.116 103.09L90.8465 103.09L90.6374 103.09L90.5383 103.275L85.9035 111.892L85.8143 112.057L85.9035 112.223L90.5383 120.84L90.6374 121.024L90.8465 121.024L100.116 121.024L100.325 121.024L100.424 120.84L105.059 112.223Z" stroke="#FF5500" stroke-width="0.7"/>
<path d="M133.513 112.223L133.602 112.057L133.513 111.892L128.878 103.275L128.779 103.09L128.57 103.09L119.301 103.09L119.091 103.09L118.992 103.275L114.358 111.892L114.268 112.057L114.358 112.223L118.992 120.84L119.091 121.024L119.301 121.024L128.57 121.024L128.779 121.024L128.878 120.84L133.513 112.223Z" stroke="#FF5500" stroke-width="0.7"/>
<path d="M119.286 121.121L119.375 120.955L119.286 120.789L114.651 112.172L114.552 111.988L114.343 111.988L105.073 111.988L104.864 111.988L104.765 112.172L100.13 120.789L100.041 120.955L100.13 121.121L104.765 129.738L104.864 129.922L105.073 129.922L114.343 129.922L114.552 129.922L114.651 129.738L119.286 121.121Z" stroke="#FF5500" stroke-width="0.7"/>
<path d="M133.513 130.016L133.602 129.85L133.513 129.685L128.878 121.068L128.779 120.883L128.57 120.883L119.301 120.883L119.091 120.883L118.992 121.068L114.358 129.685L114.268 129.85L114.358 130.016L118.992 138.633L119.091 138.817L119.301 138.817L128.57 138.817L128.779 138.817L128.878 138.633L133.513 130.016Z" stroke="#FF5500" stroke-width="0.7"/>
<path d="M90.8317 121.121L90.9209 120.955L90.8317 120.789L86.1969 112.172L86.0978 111.988L85.8886 111.988L76.619 111.988L76.4098 111.988L76.3107 112.172L71.6759 120.789L71.5867 120.955L71.6759 121.121L76.3107 129.738L76.4098 129.922L76.619 129.922L85.8886 129.922L86.0978 129.922L86.1969 129.738L90.8317 121.121Z" stroke="#FF5500" stroke-width="0.7"/>
<path d="M76.6032 130.016L76.6923 129.85L76.6032 129.685L71.9683 121.068L71.8693 120.883L71.6601 120.883L62.3905 120.883L62.1813 120.883L62.0822 121.068L57.4474 129.685L57.3582 129.85L57.4474 130.016L62.0822 138.633L62.1813 138.817L62.3905 138.817L71.6601 138.817L71.8693 138.817L71.9683 138.633L76.6032 130.016Z" stroke="#FF5500" stroke-width="0.7"/>
<path d="M105.059 130.016L105.148 129.85L105.059 129.685L100.424 121.068L100.325 120.883L100.116 120.883L90.8465 120.883L90.6374 120.883L90.5383 121.068L85.9035 129.685L85.8143 129.85L85.9035 130.016L90.5383 138.633L90.6374 138.817L90.8465 138.817L100.116 138.817L100.325 138.817L100.424 138.633L105.059 130.016Z" stroke="#FF5500" stroke-width="0.7"/>
<path d="M90.8317 138.913L90.9209 138.747L90.8317 138.581L86.1969 129.964L86.0978 129.78L85.8886 129.78L76.619 129.78L76.4098 129.78L76.3107 129.964L71.6759 138.581L71.5867 138.747L71.6759 138.913L76.3107 147.53L76.4098 147.714L76.619 147.714L85.8886 147.714L86.0978 147.714L86.1969 147.53L90.8317 138.913Z" stroke="#FF5500" stroke-width="0.7"/>
<path d="M119.286 138.913L119.375 138.747L119.286 138.581L114.651 129.964L114.552 129.78L114.343 129.78L105.073 129.78L104.864 129.78L104.765 129.964L100.13 138.581L100.041 138.747L100.13 138.913L104.765 147.53L104.864 147.714L105.073 147.714L114.343 147.714L114.552 147.714L114.651 147.53L119.286 138.913Z" stroke="#FF5500" stroke-width="0.7"/>
<path d="M105.059 147.809L105.148 147.643L105.059 147.478L100.424 138.861L100.325 138.676L100.116 138.676L90.8465 138.676L90.6374 138.676L90.5383 138.861L85.9035 147.478L85.8143 147.643L85.9035 147.809L90.5383 156.426L90.6374 156.61L90.8465 156.61L100.116 156.61L100.325 156.61L100.424 156.426L105.059 147.809Z" stroke="#FF5500" stroke-width="0.7"/>
<path d="M133.513 147.809L133.602 147.643L133.513 147.478L128.878 138.861L128.779 138.676L128.57 138.676L119.301 138.676L119.091 138.676L118.992 138.861L114.358 147.478L114.268 147.643L114.358 147.809L118.992 156.426L119.091 156.61L119.301 156.61L128.57 156.61L128.779 156.61L128.878 156.426L133.513 147.809Z" stroke="#FF5500" stroke-width="0.7"/>
<path d="M119.286 156.706L119.375 156.54L119.286 156.374L114.651 147.757L114.552 147.573L114.343 147.573L105.073 147.573L104.864 147.573L104.765 147.757L100.13 156.374L100.041 156.54L100.13 156.706L104.765 165.323L104.864 165.507L105.073 165.507L114.343 165.507L114.552 165.507L114.651 165.323L119.286 156.706Z" stroke="#FF5500" stroke-width="0.7"/>
<path d="M133.513 41.0523L133.602 40.8865L133.513 40.7207L128.878 32.1038L128.779 31.9196L128.57 31.9196L119.301 31.9196L119.091 31.9196L118.992 32.1038L114.358 40.7207L114.268 40.8865L114.358 41.0523L118.992 49.6692L119.091 49.8534L119.301 49.8534L128.57 49.8534L128.779 49.8534L128.878 49.6692L133.513 41.0523Z" stroke="#FF5500" stroke-width="0.7"/>
<path d="M119.286 49.9488L119.375 49.783L119.286 49.6172L114.651 41.0003L114.552 40.8161L114.343 40.8161L105.073 40.8161L104.864 40.8161L104.765 41.0003L100.13 49.6172L100.041 49.783L100.13 49.9488L104.765 58.5657L104.864 58.7499L105.073 58.7499L114.343 58.7499L114.552 58.7499L114.651 58.5657L119.286 49.9488Z" stroke="#FF5500" stroke-width="0.7"/>
<path d="M133.513 58.8453L133.602 58.6795L133.513 58.5137L128.878 49.8967L128.779 49.7125L128.57 49.7125L119.301 49.7125L119.091 49.7125L118.992 49.8967L114.358 58.5137L114.268 58.6795L114.358 58.8453L118.992 67.4622L119.091 67.6464L119.301 67.6464L128.57 67.6464L128.779 67.6464L128.878 67.4622L133.513 58.8453Z" stroke="#FF5500" stroke-width="0.7"/>
<path d="M133.513 76.6382L133.602 76.4724L133.513 76.3066L128.878 67.6897L128.779 67.5055L128.57 67.5055L119.301 67.5055L119.091 67.5055L118.992 67.6897L114.358 76.3066L114.268 76.4724L114.358 76.6382L118.992 85.2552L119.091 85.4394L119.301 85.4394L128.57 85.4394L128.779 85.4394L128.878 85.2552L133.513 76.6382Z" stroke="#FF5500" stroke-width="0.7"/>
<path d="M119.286 85.5347L119.375 85.3689L119.286 85.2031L114.651 76.5862L114.552 76.402L114.343 76.402L105.073 76.402L104.864 76.402L104.765 76.5862L100.13 85.2031L100.041 85.3689L100.13 85.5347L104.765 94.1516L104.864 94.3358L105.073 94.3358L114.343 94.3358L114.552 94.3358L114.651 94.1516L119.286 85.5347Z" stroke="#FF5500" stroke-width="0.7"/>
<path d="M133.513 94.4312L133.602 94.2654L133.513 94.0996L128.878 85.4827L128.779 85.2985L128.57 85.2985L119.301 85.2985L119.091 85.2985L118.992 85.4827L114.358 94.0996L114.268 94.2654L114.358 94.4312L118.992 103.048L119.091 103.232L119.301 103.232L128.57 103.232L128.779 103.232L128.878 103.048L133.513 94.4312Z" stroke="#FF5500" stroke-width="0.7"/>
<path d="M90.8317 49.9488L90.9209 49.783L90.8317 49.6172L86.1969 41.0003L86.0978 40.8161L85.8886 40.8161L76.619 40.8161L76.4098 40.8161L76.3107 41.0003L71.6759 49.6172L71.5867 49.783L71.6759 49.9488L76.3107 58.5657L76.4098 58.7499L76.619 58.7499L85.8886 58.7499L86.0978 58.7499L86.1969 58.5657L90.8317 49.9488Z" stroke="#FF5500" stroke-width="0.7"/>
<path d="M76.6032 58.8453L76.6923 58.6795L76.6032 58.5137L71.9683 49.8967L71.8693 49.7125L71.6601 49.7125L62.3905 49.7125L62.1813 49.7125L62.0822 49.8967L57.4474 58.5137L57.3582 58.6795L57.4474 58.8453L62.0822 67.4622L62.1813 67.6464L62.3905 67.6464L71.6601 67.6464L71.8693 67.6464L71.9683 67.4622L76.6032 58.8453Z" stroke="#FF5500" stroke-width="0.7"/>
<path d="M105.059 58.8453L105.148 58.6795L105.059 58.5137L100.424 49.8967L100.325 49.7125L100.116 49.7125L90.8465 49.7125L90.6374 49.7125L90.5383 49.8967L85.9035 58.5137L85.8143 58.6795L85.9035 58.8453L90.5383 67.4622L90.6374 67.6464L90.8465 67.6464L100.116 67.6464L100.325 67.6464L100.424 67.4622L105.059 58.8453Z" stroke="#FF5500" stroke-width="0.7"/>
<path d="M90.8317 67.7408L90.9209 67.575L90.8317 67.4092L86.1969 58.7922L86.0978 58.608L85.8886 58.608L76.619 58.608L76.4098 58.608L76.3107 58.7922L71.6759 67.4092L71.5867 67.575L71.6759 67.7408L76.3107 76.3577L76.4098 76.5419L76.619 76.5419L85.8886 76.5419L86.0978 76.5419L86.1969 76.3577L90.8317 67.7408Z" stroke="#FF5500" stroke-width="0.7"/>
<path d="M119.286 67.7408L119.375 67.575L119.286 67.4092L114.651 58.7922L114.552 58.608L114.343 58.608L105.073 58.608L104.864 58.608L104.765 58.7922L100.13 67.4092L100.041 67.575L100.13 67.7408L104.765 76.3577L104.864 76.5419L105.073 76.5419L114.343 76.5419L114.552 76.5419L114.651 76.3577L119.286 67.7408Z" stroke="#FF5500" stroke-width="0.7"/>
<path d="M105.059 76.6382L105.148 76.4724L105.059 76.3066L100.424 67.6897L100.325 67.5055L100.116 67.5055L90.8465 67.5055L90.6374 67.5055L90.5383 67.6897L85.9035 76.3066L85.8143 76.4724L85.9035 76.6382L90.5383 85.2552L90.6374 85.4394L90.8465 85.4394L100.116 85.4394L100.325 85.4394L100.424 85.2552L105.059 76.6382Z" stroke="#FF5500" stroke-width="0.7"/>
<path d="M76.6032 76.6382L76.6923 76.4724L76.6032 76.3066L71.9683 67.6897L71.8693 67.5055L71.6601 67.5055L62.3905 67.5055L62.1813 67.5055L62.0822 67.6897L57.4474 76.3066L57.3582 76.4724L57.4474 76.6382L62.0822 85.2552L62.1813 85.4394L62.3905 85.4394L71.6601 85.4394L71.8693 85.4394L71.9683 85.2552L76.6032 76.6382Z" stroke="#FF5500" stroke-width="0.7"/>
<path d="M62.3746 85.5347L62.4638 85.3689L62.3746 85.2031L57.7398 76.5862L57.6407 76.402L57.4316 76.402L48.1619 76.402L47.9528 76.402L47.8537 76.5862L43.2189 85.2031L43.1297 85.3689L43.2189 85.5347L47.8537 94.1516L47.9528 94.3358L48.1619 94.3358L57.4316 94.3358L57.6407 94.3358L57.7398 94.1516L62.3746 85.5347Z" stroke="#FF5500" stroke-width="0.7"/>
<path d="M90.8317 85.5347L90.9209 85.3689L90.8317 85.2031L86.1969 76.5862L86.0978 76.402L85.8886 76.402L76.619 76.402L76.4098 76.402L76.3107 76.5862L71.6759 85.2031L71.5867 85.3689L71.6759 85.5347L76.3107 94.1516L76.4098 94.3358L76.619 94.3358L85.8886 94.3358L86.0978 94.3358L86.1969 94.1516L90.8317 85.5347Z" stroke="#FF5500" stroke-width="0.7"/>
<path d="M76.6032 94.4312L76.6923 94.2654L76.6032 94.0996L71.9683 85.4827L71.8693 85.2985L71.6601 85.2985L62.3905 85.2985L62.1813 85.2985L62.0822 85.4827L57.4474 94.0996L57.3582 94.2654L57.4474 94.4312L62.0822 103.048L62.1813 103.232L62.3905 103.232L71.6601 103.232L71.8693 103.232L71.9683 103.048L76.6032 94.4312Z" stroke="#FF5500" stroke-width="0.7"/>
<path d="M105.059 94.4312L105.148 94.2654L105.059 94.0996L100.424 85.4827L100.325 85.2985L100.116 85.2985L90.8465 85.2985L90.6374 85.2985L90.5383 85.4827L85.9035 94.0996L85.8143 94.2654L85.9035 94.4312L90.5383 103.048L90.6374 103.232L90.8465 103.232L100.116 103.232L100.325 103.232L100.424 103.048L105.059 94.4312Z" stroke="#FF5500" stroke-width="0.7"/>
<path d="M90.8317 103.328L90.9209 103.162L90.8317 102.996L86.1969 94.3792L86.0978 94.195L85.8886 94.195L76.619 94.195L76.4098 94.195L76.3107 94.3792L71.6759 102.996L71.5867 103.162L71.6759 103.328L76.3107 111.945L76.4098 112.129L76.619 112.129L85.8886 112.129L86.0978 112.129L86.1969 111.945L90.8317 103.328Z" stroke="#FF5500" stroke-width="0.7"/>
<path d="M119.286 103.328L119.375 103.162L119.286 102.996L114.651 94.3792L114.552 94.195L114.343 94.195L105.073 94.195L104.864 94.195L104.765 94.3792L100.13 102.996L100.041 103.162L100.13 103.328L104.765 111.945L104.864 112.129L105.073 112.129L114.343 112.129L114.552 112.129L114.651 111.945L119.286 103.328Z" stroke="#FF5500" stroke-width="0.7"/>
<path d="M105.059 112.223L105.148 112.057L105.059 111.892L100.424 103.275L100.325 103.09L100.116 103.09L90.8465 103.09L90.6374 103.09L90.5383 103.275L85.9035 111.892L85.8143 112.057L85.9035 112.223L90.5383 120.84L90.6374 121.024L90.8465 121.024L100.116 121.024L100.325 121.024L100.424 120.84L105.059 112.223Z" stroke="#FF5500" stroke-width="0.7"/>
<path d="M133.513 112.223L133.602 112.057L133.513 111.892L128.878 103.275L128.779 103.09L128.57 103.09L119.301 103.09L119.091 103.09L118.992 103.275L114.358 111.892L114.268 112.057L114.358 112.223L118.992 120.84L119.091 121.024L119.301 121.024L128.57 121.024L128.779 121.024L128.878 120.84L133.513 112.223Z" stroke="#FF5500" stroke-width="0.7"/>
<path d="M119.286 121.121L119.375 120.955L119.286 120.789L114.651 112.172L114.552 111.988L114.343 111.988L105.073 111.988L104.864 111.988L104.765 112.172L100.13 120.789L100.041 120.955L100.13 121.121L104.765 129.738L104.864 129.922L105.073 129.922L114.343 129.922L114.552 129.922L114.651 129.738L119.286 121.121Z" stroke="#FF5500" stroke-width="0.7"/>
<path d="M133.513 130.016L133.602 129.85L133.513 129.685L128.878 121.068L128.779 120.883L128.57 120.883L119.301 120.883L119.091 120.883L118.992 121.068L114.358 129.685L114.268 129.85L114.358 130.016L118.992 138.633L119.091 138.817L119.301 138.817L128.57 138.817L128.779 138.817L128.878 138.633L133.513 130.016Z" stroke="#FF5500" stroke-width="0.7"/>
<path d="M90.8317 121.121L90.9209 120.955L90.8317 120.789L86.1969 112.172L86.0978 111.988L85.8886 111.988L76.619 111.988L76.4098 111.988L76.3107 112.172L71.6759 120.789L71.5867 120.955L71.6759 121.121L76.3107 129.738L76.4098 129.922L76.619 129.922L85.8886 129.922L86.0978 129.922L86.1969 129.738L90.8317 121.121Z" stroke="#FF5500" stroke-width="0.7"/>
<path d="M76.6032 130.016L76.6923 129.85L76.6032 129.685L71.9683 121.068L71.8693 120.883L71.6601 120.883L62.3905 120.883L62.1813 120.883L62.0822 121.068L57.4474 129.685L57.3582 129.85L57.4474 130.016L62.0822 138.633L62.1813 138.817L62.3905 138.817L71.6601 138.817L71.8693 138.817L71.9683 138.633L76.6032 130.016Z" stroke="#FF5500" stroke-width="0.7"/>
<path d="M105.059 130.016L105.148 129.85L105.059 129.685L100.424 121.068L100.325 120.883L100.116 120.883L90.8465 120.883L90.6374 120.883L90.5383 121.068L85.9035 129.685L85.8143 129.85L85.9035 130.016L90.5383 138.633L90.6374 138.817L90.8465 138.817L100.116 138.817L100.325 138.817L100.424 138.633L105.059 130.016Z" stroke="#FF5500" stroke-width="0.7"/>
<path d="M90.8317 138.913L90.9209 138.747L90.8317 138.581L86.1969 129.964L86.0978 129.78L85.8886 129.78L76.619 129.78L76.4098 129.78L76.3107 129.964L71.6759 138.581L71.5867 138.747L71.6759 138.913L76.3107 147.53L76.4098 147.714L76.619 147.714L85.8886 147.714L86.0978 147.714L86.1969 147.53L90.8317 138.913Z" stroke="#FF5500" stroke-width="0.7"/>
<path d="M119.286 138.913L119.375 138.747L119.286 138.581L114.651 129.964L114.552 129.78L114.343 129.78L105.073 129.78L104.864 129.78L104.765 129.964L100.13 138.581L100.041 138.747L100.13 138.913L104.765 147.53L104.864 147.714L105.073 147.714L114.343 147.714L114.552 147.714L114.651 147.53L119.286 138.913Z" stroke="#FF5500" stroke-width="0.7"/>
<path d="M105.059 147.809L105.148 147.643L105.059 147.478L100.424 138.861L100.325 138.676L100.116 138.676L90.8465 138.676L90.6374 138.676L90.5383 138.861L85.9035 147.478L85.8143 147.643L85.9035 147.809L90.5383 156.426L90.6374 156.61L90.8465 156.61L100.116 156.61L100.325 156.61L100.424 156.426L105.059 147.809Z" stroke="#FF5500" stroke-width="0.7"/>
<path d="M133.513 147.809L133.602 147.643L133.513 147.478L128.878 138.861L128.779 138.676L128.57 138.676L119.301 138.676L119.091 138.676L118.992 138.861L114.358 147.478L114.268 147.643L114.358 147.809L118.992 156.426L119.091 156.61L119.301 156.61L128.57 156.61L128.779 156.61L128.878 156.426L133.513 147.809Z" stroke="#FF5500" stroke-width="0.7"/>
<path d="M119.286 156.706L119.375 156.54L119.286 156.374L114.651 147.757L114.552 147.573L114.343 147.573L105.073 147.573L104.864 147.573L104.765 147.757L100.13 156.374L100.041 156.54L100.13 156.706L104.765 165.323L104.864 165.507L105.073 165.507L114.343 165.507L114.552 165.507L114.651 165.323L119.286 156.706Z" stroke="#FF5500" stroke-width="0.7"/>
<g filter="url(#filter58_f_133_18430)">
<path d="M133.718 42.2278L133.815 42.0564L133.718 41.885L128.879 33.2681L128.779 33.0895L128.574 33.0895L118.896 33.0895L118.691 33.0895L118.59 33.2681L113.751 41.885L113.655 42.0564L113.751 42.2278L118.59 50.8447L118.691 51.0233L118.896 51.0233L128.574 51.0233L128.779 51.0233L128.879 50.8447L133.718 42.2278Z" stroke="#FF9900" stroke-width="0.7"/>
<path d="M118.863 51.1243L118.959 50.9529L118.863 50.7815L114.024 42.1646L113.923 41.986L113.718 41.986L104.04 41.986L103.835 41.986L103.735 42.1646L98.8958 50.7815L98.7996 50.9529L98.8958 51.1243L103.735 59.7412L103.835 59.9198L104.04 59.9198L113.718 59.9198L113.923 59.9198L114.024 59.7412L118.863 51.1243Z" stroke="#FF9900" stroke-width="0.7"/>
<path d="M133.718 60.0208L133.815 59.8494L133.718 59.678L128.879 51.0611L128.779 50.8825L128.574 50.8825L118.896 50.8825L118.691 50.8825L118.59 51.0611L113.751 59.678L113.655 59.8494L113.751 60.0208L118.59 68.6377L118.691 68.8163L118.896 68.8163L128.574 68.8163L128.779 68.8163L128.879 68.6377L133.718 60.0208Z" stroke="#FF9900" stroke-width="0.7"/>
<path d="M133.718 77.8137L133.815 77.6424L133.718 77.471L128.879 68.854L128.779 68.6754L128.574 68.6754L118.896 68.6754L118.691 68.6754L118.59 68.854L113.751 77.471L113.655 77.6424L113.751 77.8137L118.59 86.4307L118.691 86.6093L118.896 86.6093L128.574 86.6093L128.779 86.6093L128.879 86.4307L133.718 77.8137Z" stroke="#FF9900" stroke-width="0.7"/>
<path d="M118.863 86.7102L118.959 86.5388L118.863 86.3675L114.024 77.7505L113.923 77.5719L113.718 77.5719L104.04 77.5719L103.835 77.5719L103.735 77.7505L98.8958 86.3675L98.7996 86.5388L98.8958 86.7102L103.735 95.3271L103.835 95.5058L104.04 95.5058L113.718 95.5058L113.923 95.5058L114.024 95.3271L118.863 86.7102Z" stroke="#FF9900" stroke-width="0.7"/>
<path d="M133.718 95.6067L133.815 95.4353L133.718 95.2639L128.879 86.647L128.779 86.4684L128.574 86.4684L118.896 86.4684L118.691 86.4684L118.59 86.647L113.751 95.2639L113.655 95.4353L113.751 95.6067L118.59 104.224L118.691 104.402L118.896 104.402L128.574 104.402L128.779 104.402L128.879 104.224L133.718 95.6067Z" stroke="#FF9900" stroke-width="0.7"/>
<path d="M89.1538 51.1243L89.25 50.9529L89.1538 50.7815L84.3147 42.1646L84.2143 41.986L84.0095 41.986L74.3312 41.986L74.1263 41.986L74.026 42.1646L69.1869 50.7815L69.0906 50.9529L69.1869 51.1243L74.026 59.7412L74.1263 59.9198L74.3312 59.9198L84.0095 59.9198L84.2143 59.9198L84.3147 59.7412L89.1538 51.1243Z" stroke="#FF9900" stroke-width="0.7"/>
<path d="M74.2983 60.0208L74.3946 59.8494L74.2983 59.678L69.4592 51.0611L69.3589 50.8825L69.154 50.8825L59.4757 50.8825L59.2708 50.8825L59.1705 51.0611L54.3314 59.678L54.2351 59.8494L54.3314 60.0208L59.1705 68.6377L59.2708 68.8163L59.4757 68.8163L69.154 68.8163L69.3589 68.8163L69.4592 68.6377L74.2983 60.0208Z" stroke="#FF9900" stroke-width="0.7"/>
<path d="M104.007 60.0208L104.104 59.8494L104.007 59.678L99.1682 51.0611L99.0679 50.8825L98.863 50.8825L89.1847 50.8825L88.9798 50.8825L88.8795 51.0611L84.0404 59.678L83.9441 59.8494L84.0404 60.0208L88.8795 68.6377L88.9798 68.8163L89.1847 68.8163L98.863 68.8163L99.0679 68.8163L99.1682 68.6377L104.007 60.0208Z" stroke="#FF9900" stroke-width="0.7"/>
<path d="M89.1538 68.9173L89.25 68.7459L89.1538 68.5745L84.3147 59.9576L84.2143 59.7789L84.0095 59.7789L74.3312 59.7789L74.1263 59.7789L74.026 59.9576L69.1869 68.5745L69.0906 68.7459L69.1869 68.9173L74.026 77.5342L74.1263 77.7128L74.3312 77.7128L84.0095 77.7128L84.2143 77.7128L84.3147 77.5342L89.1538 68.9173Z" stroke="#FF9900" stroke-width="0.7"/>
<path d="M118.863 68.9173L118.959 68.7459L118.863 68.5745L114.024 59.9576L113.923 59.7789L113.718 59.7789L104.04 59.7789L103.835 59.7789L103.735 59.9576L98.8958 68.5745L98.7996 68.7459L98.8958 68.9173L103.735 77.5342L103.835 77.7128L104.04 77.7128L113.718 77.7128L113.923 77.7128L114.024 77.5342L118.863 68.9173Z" stroke="#FF9900" stroke-width="0.7"/>
<path d="M104.007 77.8137L104.104 77.6424L104.007 77.471L99.1682 68.854L99.0679 68.6754L98.863 68.6754L89.1847 68.6754L88.9798 68.6754L88.8795 68.854L84.0404 77.471L83.9441 77.6424L84.0404 77.8137L88.8795 86.4307L88.9798 86.6093L89.1847 86.6093L98.863 86.6093L99.0679 86.6093L99.1682 86.4307L104.007 77.8137Z" stroke="#FF9900" stroke-width="0.7"/>
<path d="M74.2983 77.8137L74.3946 77.6424L74.2983 77.471L69.4592 68.854L69.3589 68.6754L69.154 68.6754L59.4757 68.6754L59.2708 68.6754L59.1705 68.854L54.3314 77.471L54.2351 77.6424L54.3314 77.8137L59.1705 86.4307L59.2708 86.6093L59.4757 86.6093L69.154 86.6093L69.3589 86.6093L69.4592 86.4307L74.2983 77.8137Z" stroke="#FF9900" stroke-width="0.7"/>
<path d="M59.4429 86.7102L59.5391 86.5388L59.4429 86.3675L54.6037 77.7505L54.5034 77.5719L54.2985 77.5719L44.6202 77.5719L44.4154 77.5719L44.3151 77.7505L39.4759 86.3675L39.3797 86.5388L39.4759 86.7102L44.3151 95.3271L44.4154 95.5058L44.6202 95.5058L54.2985 95.5058L54.5034 95.5058L54.6037 95.3271L59.4429 86.7102Z" stroke="#FF9900" stroke-width="0.7"/>
<path d="M89.1538 86.7102L89.25 86.5388L89.1538 86.3675L84.3147 77.7505L84.2143 77.5719L84.0095 77.5719L74.3312 77.5719L74.1263 77.5719L74.026 77.7505L69.1869 86.3675L69.0906 86.5388L69.1869 86.7102L74.026 95.3271L74.1263 95.5058L74.3312 95.5058L84.0095 95.5058L84.2143 95.5058L84.3147 95.3271L89.1538 86.7102Z" stroke="#FF9900" stroke-width="0.7"/>
<path d="M74.2983 95.6067L74.3946 95.4353L74.2983 95.2639L69.4592 86.647L69.3589 86.4684L69.154 86.4684L59.4757 86.4684L59.2708 86.4684L59.1705 86.647L54.3314 95.2639L54.2351 95.4353L54.3314 95.6067L59.1705 104.224L59.2708 104.402L59.4757 104.402L69.154 104.402L69.3589 104.402L69.4592 104.224L74.2983 95.6067Z" stroke="#FF9900" stroke-width="0.7"/>
<path d="M104.007 95.6067L104.104 95.4353L104.007 95.2639L99.1682 86.647L99.0679 86.4684L98.863 86.4684L89.1847 86.4684L88.9798 86.4684L88.8795 86.647L84.0404 95.2639L83.9441 95.4353L84.0404 95.6067L88.8795 104.224L88.9798 104.402L89.1847 104.402L98.863 104.402L99.0679 104.402L99.1682 104.224L104.007 95.6067Z" stroke="#FF9900" stroke-width="0.7"/>
<path d="M89.1538 104.503L89.25 104.332L89.1538 104.16L84.3147 95.5435L84.2143 95.3649L84.0095 95.3649L74.3312 95.3649L74.1263 95.3649L74.026 95.5435L69.1869 104.16L69.0906 104.332L69.1869 104.503L74.026 113.12L74.1263 113.299L74.3312 113.299L84.0095 113.299L84.2143 113.299L84.3147 113.12L89.1538 104.503Z" stroke="#FF9900" stroke-width="0.7"/>
<path d="M118.863 104.503L118.959 104.332L118.863 104.16L114.024 95.5435L113.923 95.3649L113.718 95.3649L104.04 95.3649L103.835 95.3649L103.735 95.5435L98.8958 104.16L98.7996 104.332L98.8958 104.503L103.735 113.12L103.835 113.299L104.04 113.299L113.718 113.299L113.923 113.299L114.024 113.12L118.863 104.503Z" stroke="#FF9900" stroke-width="0.7"/>
<path d="M104.007 113.399L104.104 113.227L104.007 113.056L99.1682 104.439L99.0679 104.26L98.863 104.26L89.1847 104.26L88.9798 104.26L88.8795 104.439L84.0404 113.056L83.9441 113.227L84.0404 113.399L88.8795 122.016L88.9798 122.194L89.1847 122.194L98.863 122.194L99.0679 122.194L99.1682 122.016L104.007 113.399Z" stroke="#FF9900" stroke-width="0.7"/>
<path d="M133.718 113.399L133.815 113.227L133.718 113.056L128.879 104.439L128.779 104.26L128.574 104.26L118.896 104.26L118.691 104.26L118.59 104.439L113.751 113.056L113.655 113.227L113.751 113.399L118.59 122.016L118.691 122.194L118.896 122.194L128.574 122.194L128.779 122.194L128.879 122.016L133.718 113.399Z" stroke="#FF9900" stroke-width="0.7"/>
<path d="M118.863 122.296L118.959 122.125L118.863 121.953L114.024 113.336L113.923 113.158L113.718 113.158L104.04 113.158L103.835 113.158L103.735 113.336L98.8958 121.953L98.7996 122.125L98.8958 122.296L103.735 130.913L103.835 131.092L104.04 131.092L113.718 131.092L113.923 131.092L114.024 130.913L118.863 122.296Z" stroke="#FF9900" stroke-width="0.7"/>
<path d="M133.718 131.193L133.815 131.021L133.718 130.85L128.879 122.233L128.779 122.054L128.574 122.054L118.896 122.054L118.691 122.054L118.59 122.233L113.751 130.85L113.655 131.021L113.751 131.193L118.59 139.81L118.691 139.988L118.896 139.988L128.574 139.988L128.779 139.988L128.879 139.81L133.718 131.193Z" stroke="#FF9900" stroke-width="0.7"/>
<path d="M89.1538 122.296L89.25 122.125L89.1538 121.953L84.3147 113.336L84.2143 113.158L84.0095 113.158L74.3312 113.158L74.1263 113.158L74.026 113.336L69.1869 121.953L69.0906 122.125L69.1869 122.296L74.026 130.913L74.1263 131.092L74.3312 131.092L84.0095 131.092L84.2143 131.092L84.3147 130.913L89.1538 122.296Z" stroke="#FF9900" stroke-width="0.7"/>
<path d="M74.2983 131.193L74.3946 131.021L74.2983 130.85L69.4592 122.233L69.3589 122.054L69.154 122.054L59.4757 122.054L59.2708 122.054L59.1705 122.233L54.3314 130.85L54.2351 131.021L54.3314 131.193L59.1705 139.81L59.2708 139.988L59.4757 139.988L69.154 139.988L69.3589 139.988L69.4592 139.81L74.2983 131.193Z" stroke="#FF9900" stroke-width="0.7"/>
<path d="M104.007 131.193L104.104 131.021L104.007 130.85L99.1682 122.233L99.0679 122.054L98.863 122.054L89.1847 122.054L88.9798 122.054L88.8795 122.233L84.0404 130.85L83.9441 131.021L84.0404 131.193L88.8795 139.81L88.9798 139.988L89.1847 139.988L98.863 139.988L99.0679 139.988L99.1682 139.81L104.007 131.193Z" stroke="#FF9900" stroke-width="0.7"/>
<path d="M89.1538 140.088L89.25 139.917L89.1538 139.745L84.3147 131.128L84.2143 130.95L84.0095 130.95L74.3312 130.95L74.1263 130.95L74.026 131.128L69.1869 139.745L69.0906 139.917L69.1869 140.088L74.026 148.705L74.1263 148.884L74.3312 148.884L84.0095 148.884L84.2143 148.884L84.3147 148.705L89.1538 140.088Z" stroke="#FF9900" stroke-width="0.7"/>
<path d="M118.863 140.088L118.959 139.917L118.863 139.745L114.024 131.128L113.923 130.95L113.718 130.95L104.04 130.95L103.835 130.95L103.735 131.128L98.8958 139.745L98.7996 139.917L98.8958 140.088L103.735 148.705L103.835 148.884L104.04 148.884L113.718 148.884L113.923 148.884L114.024 148.705L118.863 140.088Z" stroke="#FF9900" stroke-width="0.7"/>
<path d="M104.007 148.986L104.104 148.814L104.007 148.643L99.1682 140.026L99.0679 139.847L98.863 139.847L89.1847 139.847L88.9798 139.847L88.8795 140.026L84.0404 148.643L83.9441 148.814L84.0404 148.986L88.8795 157.603L88.9798 157.781L89.1847 157.781L98.863 157.781L99.0679 157.781L99.1682 157.603L104.007 148.986Z" stroke="#FF9900" stroke-width="0.7"/>
<path d="M133.718 148.986L133.815 148.814L133.718 148.643L128.879 140.026L128.779 139.847L128.574 139.847L118.896 139.847L118.691 139.847L118.59 140.026L113.751 148.643L113.655 148.814L113.751 148.986L118.59 157.603L118.691 157.781L118.896 157.781L128.574 157.781L128.779 157.781L128.879 157.603L133.718 148.986Z" stroke="#FF9900" stroke-width="0.7"/>
<path d="M118.863 157.881L118.959 157.71L118.863 157.538L114.024 148.921L113.923 148.743L113.718 148.743L104.04 148.743L103.835 148.743L103.735 148.921L98.8958 157.538L98.7996 157.71L98.8958 157.881L103.735 166.498L103.835 166.677L104.04 166.677L113.718 166.677L113.923 166.677L114.024 166.498L118.863 157.881Z" stroke="#FF9900" stroke-width="0.7"/>
<path d="M133.718 42.2278L133.815 42.0564L133.718 41.885L128.879 33.2681L128.779 33.0895L128.574 33.0895L118.896 33.0895L118.691 33.0895L118.59 33.2681L113.751 41.885L113.655 42.0564L113.751 42.2278L118.59 50.8447L118.691 51.0233L118.896 51.0233L128.574 51.0233L128.779 51.0233L128.879 50.8447L133.718 42.2278Z" stroke="#FF9900" stroke-width="0.7"/>
<path d="M118.863 51.1243L118.959 50.9529L118.863 50.7815L114.024 42.1646L113.923 41.986L113.718 41.986L104.04 41.986L103.835 41.986L103.735 42.1646L98.8958 50.7815L98.7996 50.9529L98.8958 51.1243L103.735 59.7412L103.835 59.9198L104.04 59.9198L113.718 59.9198L113.923 59.9198L114.024 59.7412L118.863 51.1243Z" stroke="#FF9900" stroke-width="0.7"/>
<path d="M133.718 60.0208L133.815 59.8494L133.718 59.678L128.879 51.0611L128.779 50.8825L128.574 50.8825L118.896 50.8825L118.691 50.8825L118.59 51.0611L113.751 59.678L113.655 59.8494L113.751 60.0208L118.59 68.6377L118.691 68.8163L118.896 68.8163L128.574 68.8163L128.779 68.8163L128.879 68.6377L133.718 60.0208Z" stroke="#FF9900" stroke-width="0.7"/>
<path d="M133.718 77.8137L133.815 77.6424L133.718 77.471L128.879 68.854L128.779 68.6754L128.574 68.6754L118.896 68.6754L118.691 68.6754L118.59 68.854L113.751 77.471L113.655 77.6424L113.751 77.8137L118.59 86.4307L118.691 86.6093L118.896 86.6093L128.574 86.6093L128.779 86.6093L128.879 86.4307L133.718 77.8137Z" stroke="#FF9900" stroke-width="0.7"/>
<path d="M118.863 86.7102L118.959 86.5388L118.863 86.3675L114.024 77.7505L113.923 77.5719L113.718 77.5719L104.04 77.5719L103.835 77.5719L103.735 77.7505L98.8958 86.3675L98.7996 86.5388L98.8958 86.7102L103.735 95.3271L103.835 95.5058L104.04 95.5058L113.718 95.5058L113.923 95.5058L114.024 95.3271L118.863 86.7102Z" stroke="#FF9900" stroke-width="0.7"/>
<path d="M133.718 95.6067L133.815 95.4353L133.718 95.2639L128.879 86.647L128.779 86.4684L128.574 86.4684L118.896 86.4684L118.691 86.4684L118.59 86.647L113.751 95.2639L113.655 95.4353L113.751 95.6067L118.59 104.224L118.691 104.402L118.896 104.402L128.574 104.402L128.779 104.402L128.879 104.224L133.718 95.6067Z" stroke="#FF9900" stroke-width="0.7"/>
<path d="M89.1538 51.1243L89.25 50.9529L89.1538 50.7815L84.3147 42.1646L84.2143 41.986L84.0095 41.986L74.3312 41.986L74.1263 41.986L74.026 42.1646L69.1869 50.7815L69.0906 50.9529L69.1869 51.1243L74.026 59.7412L74.1263 59.9198L74.3312 59.9198L84.0095 59.9198L84.2143 59.9198L84.3147 59.7412L89.1538 51.1243Z" stroke="#FF9900" stroke-width="0.7"/>
<path d="M74.2983 60.0208L74.3946 59.8494L74.2983 59.678L69.4592 51.0611L69.3589 50.8825L69.154 50.8825L59.4757 50.8825L59.2708 50.8825L59.1705 51.0611L54.3314 59.678L54.2351 59.8494L54.3314 60.0208L59.1705 68.6377L59.2708 68.8163L59.4757 68.8163L69.154 68.8163L69.3589 68.8163L69.4592 68.6377L74.2983 60.0208Z" stroke="#FF9900" stroke-width="0.7"/>
<path d="M104.007 60.0208L104.104 59.8494L104.007 59.678L99.1682 51.0611L99.0679 50.8825L98.863 50.8825L89.1847 50.8825L88.9798 50.8825L88.8795 51.0611L84.0404 59.678L83.9441 59.8494L84.0404 60.0208L88.8795 68.6377L88.9798 68.8163L89.1847 68.8163L98.863 68.8163L99.0679 68.8163L99.1682 68.6377L104.007 60.0208Z" stroke="#FF9900" stroke-width="0.7"/>
<path d="M89.1538 68.9173L89.25 68.7459L89.1538 68.5745L84.3147 59.9576L84.2143 59.7789L84.0095 59.7789L74.3312 59.7789L74.1263 59.7789L74.026 59.9576L69.1869 68.5745L69.0906 68.7459L69.1869 68.9173L74.026 77.5342L74.1263 77.7128L74.3312 77.7128L84.0095 77.7128L84.2143 77.7128L84.3147 77.5342L89.1538 68.9173Z" stroke="#FF9900" stroke-width="0.7"/>
<path d="M118.863 68.9173L118.959 68.7459L118.863 68.5745L114.024 59.9576L113.923 59.7789L113.718 59.7789L104.04 59.7789L103.835 59.7789L103.735 59.9576L98.8958 68.5745L98.7996 68.7459L98.8958 68.9173L103.735 77.5342L103.835 77.7128L104.04 77.7128L113.718 77.7128L113.923 77.7128L114.024 77.5342L118.863 68.9173Z" stroke="#FF9900" stroke-width="0.7"/>
<path d="M104.007 77.8137L104.104 77.6424L104.007 77.471L99.1682 68.854L99.0679 68.6754L98.863 68.6754L89.1847 68.6754L88.9798 68.6754L88.8795 68.854L84.0404 77.471L83.9441 77.6424L84.0404 77.8137L88.8795 86.4307L88.9798 86.6093L89.1847 86.6093L98.863 86.6093L99.0679 86.6093L99.1682 86.4307L104.007 77.8137Z" stroke="#FF9900" stroke-width="0.7"/>
<path d="M74.2983 77.8137L74.3946 77.6424L74.2983 77.471L69.4592 68.854L69.3589 68.6754L69.154 68.6754L59.4757 68.6754L59.2708 68.6754L59.1705 68.854L54.3314 77.471L54.2351 77.6424L54.3314 77.8137L59.1705 86.4307L59.2708 86.6093L59.4757 86.6093L69.154 86.6093L69.3589 86.6093L69.4592 86.4307L74.2983 77.8137Z" stroke="#FF9900" stroke-width="0.7"/>
<path d="M59.4429 86.7102L59.5391 86.5388L59.4429 86.3675L54.6037 77.7505L54.5034 77.5719L54.2985 77.5719L44.6202 77.5719L44.4154 77.5719L44.3151 77.7505L39.4759 86.3675L39.3797 86.5388L39.4759 86.7102L44.3151 95.3271L44.4154 95.5058L44.6202 95.5058L54.2985 95.5058L54.5034 95.5058L54.6037 95.3271L59.4429 86.7102Z" stroke="#FF9900" stroke-width="0.7"/>
<path d="M89.1538 86.7102L89.25 86.5388L89.1538 86.3675L84.3147 77.7505L84.2143 77.5719L84.0095 77.5719L74.3312 77.5719L74.1263 77.5719L74.026 77.7505L69.1869 86.3675L69.0906 86.5388L69.1869 86.7102L74.026 95.3271L74.1263 95.5058L74.3312 95.5058L84.0095 95.5058L84.2143 95.5058L84.3147 95.3271L89.1538 86.7102Z" stroke="#FF9900" stroke-width="0.7"/>
<path d="M74.2983 95.6067L74.3946 95.4353L74.2983 95.2639L69.4592 86.647L69.3589 86.4684L69.154 86.4684L59.4757 86.4684L59.2708 86.4684L59.1705 86.647L54.3314 95.2639L54.2351 95.4353L54.3314 95.6067L59.1705 104.224L59.2708 104.402L59.4757 104.402L69.154 104.402L69.3589 104.402L69.4592 104.224L74.2983 95.6067Z" stroke="#FF9900" stroke-width="0.7"/>
<path d="M104.007 95.6067L104.104 95.4353L104.007 95.2639L99.1682 86.647L99.0679 86.4684L98.863 86.4684L89.1847 86.4684L88.9798 86.4684L88.8795 86.647L84.0404 95.2639L83.9441 95.4353L84.0404 95.6067L88.8795 104.224L88.9798 104.402L89.1847 104.402L98.863 104.402L99.0679 104.402L99.1682 104.224L104.007 95.6067Z" stroke="#FF9900" stroke-width="0.7"/>
<path d="M89.1538 104.503L89.25 104.332L89.1538 104.16L84.3147 95.5435L84.2143 95.3649L84.0095 95.3649L74.3312 95.3649L74.1263 95.3649L74.026 95.5435L69.1869 104.16L69.0906 104.332L69.1869 104.503L74.026 113.12L74.1263 113.299L74.3312 113.299L84.0095 113.299L84.2143 113.299L84.3147 113.12L89.1538 104.503Z" stroke="#FF9900" stroke-width="0.7"/>
<path d="M118.863 104.503L118.959 104.332L118.863 104.16L114.024 95.5435L113.923 95.3649L113.718 95.3649L104.04 95.3649L103.835 95.3649L103.735 95.5435L98.8958 104.16L98.7996 104.332L98.8958 104.503L103.735 113.12L103.835 113.299L104.04 113.299L113.718 113.299L113.923 113.299L114.024 113.12L118.863 104.503Z" stroke="#FF9900" stroke-width="0.7"/>
<path d="M104.007 113.399L104.104 113.227L104.007 113.056L99.1682 104.439L99.0679 104.26L98.863 104.26L89.1847 104.26L88.9798 104.26L88.8795 104.439L84.0404 113.056L83.9441 113.227L84.0404 113.399L88.8795 122.016L88.9798 122.194L89.1847 122.194L98.863 122.194L99.0679 122.194L99.1682 122.016L104.007 113.399Z" stroke="#FF9900" stroke-width="0.7"/>
<path d="M133.718 113.399L133.815 113.227L133.718 113.056L128.879 104.439L128.779 104.26L128.574 104.26L118.896 104.26L118.691 104.26L118.59 104.439L113.751 113.056L113.655 113.227L113.751 113.399L118.59 122.016L118.691 122.194L118.896 122.194L128.574 122.194L128.779 122.194L128.879 122.016L133.718 113.399Z" stroke="#FF9900" stroke-width="0.7"/>
<path d="M118.863 122.296L118.959 122.125L118.863 121.953L114.024 113.336L113.923 113.158L113.718 113.158L104.04 113.158L103.835 113.158L103.735 113.336L98.8958 121.953L98.7996 122.125L98.8958 122.296L103.735 130.913L103.835 131.092L104.04 131.092L113.718 131.092L113.923 131.092L114.024 130.913L118.863 122.296Z" stroke="#FF9900" stroke-width="0.7"/>
<path d="M133.718 131.193L133.815 131.021L133.718 130.85L128.879 122.233L128.779 122.054L128.574 122.054L118.896 122.054L118.691 122.054L118.59 122.233L113.751 130.85L113.655 131.021L113.751 131.193L118.59 139.81L118.691 139.988L118.896 139.988L128.574 139.988L128.779 139.988L128.879 139.81L133.718 131.193Z" stroke="#FF9900" stroke-width="0.7"/>
<path d="M89.1538 122.296L89.25 122.125L89.1538 121.953L84.3147 113.336L84.2143 113.158L84.0095 113.158L74.3312 113.158L74.1263 113.158L74.026 113.336L69.1869 121.953L69.0906 122.125L69.1869 122.296L74.026 130.913L74.1263 131.092L74.3312 131.092L84.0095 131.092L84.2143 131.092L84.3147 130.913L89.1538 122.296Z" stroke="#FF9900" stroke-width="0.7"/>
<path d="M74.2983 131.193L74.3946 131.021L74.2983 130.85L69.4592 122.233L69.3589 122.054L69.154 122.054L59.4757 122.054L59.2708 122.054L59.1705 122.233L54.3314 130.85L54.2351 131.021L54.3314 131.193L59.1705 139.81L59.2708 139.988L59.4757 139.988L69.154 139.988L69.3589 139.988L69.4592 139.81L74.2983 131.193Z" stroke="#FF9900" stroke-width="0.7"/>
<path d="M104.007 131.193L104.104 131.021L104.007 130.85L99.1682 122.233L99.0679 122.054L98.863 122.054L89.1847 122.054L88.9798 122.054L88.8795 122.233L84.0404 130.85L83.9441 131.021L84.0404 131.193L88.8795 139.81L88.9798 139.988L89.1847 139.988L98.863 139.988L99.0679 139.988L99.1682 139.81L104.007 131.193Z" stroke="#FF9900" stroke-width="0.7"/>
<path d="M89.1538 140.088L89.25 139.917L89.1538 139.745L84.3147 131.128L84.2143 130.95L84.0095 130.95L74.3312 130.95L74.1263 130.95L74.026 131.128L69.1869 139.745L69.0906 139.917L69.1869 140.088L74.026 148.705L74.1263 148.884L74.3312 148.884L84.0095 148.884L84.2143 148.884L84.3147 148.705L89.1538 140.088Z" stroke="#FF9900" stroke-width="0.7"/>
<path d="M118.863 140.088L118.959 139.917L118.863 139.745L114.024 131.128L113.923 130.95L113.718 130.95L104.04 130.95L103.835 130.95L103.735 131.128L98.8958 139.745L98.7996 139.917L98.8958 140.088L103.735 148.705L103.835 148.884L104.04 148.884L113.718 148.884L113.923 148.884L114.024 148.705L118.863 140.088Z" stroke="#FF9900" stroke-width="0.7"/>
<path d="M104.007 148.986L104.104 148.814L104.007 148.643L99.1682 140.026L99.0679 139.847L98.863 139.847L89.1847 139.847L88.9798 139.847L88.8795 140.026L84.0404 148.643L83.9441 148.814L84.0404 148.986L88.8795 157.603L88.9798 157.781L89.1847 157.781L98.863 157.781L99.0679 157.781L99.1682 157.603L104.007 148.986Z" stroke="#FF9900" stroke-width="0.7"/>
<path d="M133.718 148.986L133.815 148.814L133.718 148.643L128.879 140.026L128.779 139.847L128.574 139.847L118.896 139.847L118.691 139.847L118.59 140.026L113.751 148.643L113.655 148.814L113.751 148.986L118.59 157.603L118.691 157.781L118.896 157.781L128.574 157.781L128.779 157.781L128.879 157.603L133.718 148.986Z" stroke="#FF9900" stroke-width="0.7"/>
<path d="M118.863 157.881L118.959 157.71L118.863 157.538L114.024 148.921L113.923 148.743L113.718 148.743L104.04 148.743L103.835 148.743L103.735 148.921L98.8958 157.538L98.7996 157.71L98.8958 157.881L103.735 166.498L103.835 166.677L104.04 166.677L113.718 166.677L113.923 166.677L114.024 166.498L118.863 157.881Z" stroke="#FF9900" stroke-width="0.7"/>
</g>
</g>
<defs>
<filter id="filter0_f_133_18430" x="-18.4668" y="-50.7451" width="312.453" height="312.453" filterUnits="userSpaceOnUse" color-interpolation-filters="sRGB">
<feFlood flood-opacity="0" result="BackgroundImageFix"/>
<feBlend mode="normal" in="SourceGraphic" in2="BackgroundImageFix" result="shape"/>
<feGaussianBlur stdDeviation="63" result="effect1_foregroundBlur_133_18430"/>
</filter>
<filter id="filter1_f_133_18430" x="60.2705" y="36.5225" width="210.218" height="139.604" filterUnits="userSpaceOnUse" color-interpolation-filters="sRGB">
<feFlood flood-opacity="0" result="BackgroundImageFix"/>
<feBlend mode="normal" in="SourceGraphic" in2="BackgroundImageFix" result="shape"/>
<feGaussianBlur stdDeviation="0.25" result="effect1_foregroundBlur_133_18430"/>
</filter>
<filter id="filter2_f_133_18430" x="110.338" y="40.1816" width="28.2344" height="26.207" filterUnits="userSpaceOnUse" color-interpolation-filters="sRGB">
<feFlood flood-opacity="0" result="BackgroundImageFix"/>
<feBlend mode="normal" in="SourceGraphic" in2="BackgroundImageFix" result="shape"/>
<feGaussianBlur stdDeviation="2.5" result="effect1_foregroundBlur_133_18430"/>
</filter>
<filter id="filter3_f_133_18430" x="96.6963" y="48.3418" width="28.2344" height="26.207" filterUnits="userSpaceOnUse" color-interpolation-filters="sRGB">
<feFlood flood-opacity="0" result="BackgroundImageFix"/>
<feBlend mode="normal" in="SourceGraphic" in2="BackgroundImageFix" result="shape"/>
<feGaussianBlur stdDeviation="2.5" result="effect1_foregroundBlur_133_18430"/>
</filter>
<filter id="filter4_f_133_18430" x="110.338" y="56.5029" width="28.2344" height="26.207" filterUnits="userSpaceOnUse" color-interpolation-filters="sRGB">
<feFlood flood-opacity="0" result="BackgroundImageFix"/>
<feBlend mode="normal" in="SourceGraphic" in2="BackgroundImageFix" result="shape"/>
<feGaussianBlur stdDeviation="2.5" result="effect1_foregroundBlur_133_18430"/>
</filter>
<filter id="filter5_f_133_18430" x="110.338" y="89.1416" width="28.2344" height="26.207" filterUnits="userSpaceOnUse" color-interpolation-filters="sRGB">
<feFlood flood-opacity="0" result="BackgroundImageFix"/>
<feBlend mode="normal" in="SourceGraphic" in2="BackgroundImageFix" result="shape"/>
<feGaussianBlur stdDeviation="2.5" result="effect1_foregroundBlur_133_18430"/>
</filter>
<filter id="filter6_f_133_18430" x="69.4141" y="48.3418" width="28.2344" height="26.207" filterUnits="userSpaceOnUse" color-interpolation-filters="sRGB">
<feFlood flood-opacity="0" result="BackgroundImageFix"/>
<feBlend mode="normal" in="SourceGraphic" in2="BackgroundImageFix" result="shape"/>
<feGaussianBlur stdDeviation="2.5" result="effect1_foregroundBlur_133_18430"/>
</filter>
<filter id="filter7_f_133_18430" x="55.7705" y="56.5029" width="28.2344" height="26.207" filterUnits="userSpaceOnUse" color-interpolation-filters="sRGB">
<feFlood flood-opacity="0" result="BackgroundImageFix"/>
<feBlend mode="normal" in="SourceGraphic" in2="BackgroundImageFix" result="shape"/>
<feGaussianBlur stdDeviation="2.5" result="effect1_foregroundBlur_133_18430"/>
</filter>
<filter id="filter8_f_133_18430" x="83.0557" y="56.5029" width="28.2344" height="26.207" filterUnits="userSpaceOnUse" color-interpolation-filters="sRGB">
<feFlood flood-opacity="0" result="BackgroundImageFix"/>
<feBlend mode="normal" in="SourceGraphic" in2="BackgroundImageFix" result="shape"/>
<feGaussianBlur stdDeviation="2.5" result="effect1_foregroundBlur_133_18430"/>
</filter>
<filter id="filter9_f_133_18430" x="69.4141" y="64.6621" width="28.2344" height="26.207" filterUnits="userSpaceOnUse" color-interpolation-filters="sRGB">
<feFlood flood-opacity="0" result="BackgroundImageFix"/>
<feBlend mode="normal" in="SourceGraphic" in2="BackgroundImageFix" result="shape"/>
<feGaussianBlur stdDeviation="2.5" result="effect1_foregroundBlur_133_18430"/>
</filter>
<filter id="filter10_f_133_18430" x="96.6963" y="64.6621" width="28.2344" height="26.207" filterUnits="userSpaceOnUse" color-interpolation-filters="sRGB">
<feFlood flood-opacity="0" result="BackgroundImageFix"/>
<feBlend mode="normal" in="SourceGraphic" in2="BackgroundImageFix" result="shape"/>
<feGaussianBlur stdDeviation="2.5" result="effect1_foregroundBlur_133_18430"/>
</filter>
<filter id="filter11_f_133_18430" x="83.0557" y="72.8213" width="28.2344" height="26.207" filterUnits="userSpaceOnUse" color-interpolation-filters="sRGB">
<feFlood flood-opacity="0" result="BackgroundImageFix"/>
<feBlend mode="normal" in="SourceGraphic" in2="BackgroundImageFix" result="shape"/>
<feGaussianBlur stdDeviation="2.5" result="effect1_foregroundBlur_133_18430"/>
</filter>
<filter id="filter12_f_133_18430" x="110.338" y="72.8213" width="28.2344" height="26.207" filterUnits="userSpaceOnUse" color-interpolation-filters="sRGB">
<feFlood flood-opacity="0" result="BackgroundImageFix"/>
<feBlend mode="normal" in="SourceGraphic" in2="BackgroundImageFix" result="shape"/>
<feGaussianBlur stdDeviation="2.5" result="effect1_foregroundBlur_133_18430"/>
</filter>
<filter id="filter13_f_133_18430" x="96.6963" y="80.9814" width="28.2344" height="26.207" filterUnits="userSpaceOnUse" color-interpolation-filters="sRGB">
<feFlood flood-opacity="0" result="BackgroundImageFix"/>
<feBlend mode="normal" in="SourceGraphic" in2="BackgroundImageFix" result="shape"/>
<feGaussianBlur stdDeviation="2.5" result="effect1_foregroundBlur_133_18430"/>
</filter>
<filter id="filter14_f_133_18430" x="69.4141" y="80.9814" width="28.2344" height="26.207" filterUnits="userSpaceOnUse" color-interpolation-filters="sRGB">
<feFlood flood-opacity="0" result="BackgroundImageFix"/>
<feBlend mode="normal" in="SourceGraphic" in2="BackgroundImageFix" result="shape"/>
<feGaussianBlur stdDeviation="2.5" result="effect1_foregroundBlur_133_18430"/>
</filter>
<filter id="filter15_f_133_18430" x="55.7705" y="89.1416" width="28.2344" height="26.207" filterUnits="userSpaceOnUse" color-interpolation-filters="sRGB">
<feFlood flood-opacity="0" result="BackgroundImageFix"/>
<feBlend mode="normal" in="SourceGraphic" in2="BackgroundImageFix" result="shape"/>
<feGaussianBlur stdDeviation="2.5" result="effect1_foregroundBlur_133_18430"/>
</filter>
<filter id="filter16_f_133_18430" x="83.0557" y="89.1416" width="28.2344" height="26.207" filterUnits="userSpaceOnUse" color-interpolation-filters="sRGB">
<feFlood flood-opacity="0" result="BackgroundImageFix"/>
<feBlend mode="normal" in="SourceGraphic" in2="BackgroundImageFix" result="shape"/>
<feGaussianBlur stdDeviation="2.5" result="effect1_foregroundBlur_133_18430"/>
</filter>
<filter id="filter17_f_133_18430" x="69.4141" y="97.3018" width="28.2344" height="26.207" filterUnits="userSpaceOnUse" color-interpolation-filters="sRGB">
<feFlood flood-opacity="0" result="BackgroundImageFix"/>
<feBlend mode="normal" in="SourceGraphic" in2="BackgroundImageFix" result="shape"/>
<feGaussianBlur stdDeviation="2.5" result="effect1_foregroundBlur_133_18430"/>
</filter>
<filter id="filter18_f_133_18430" x="96.6963" y="97.3018" width="28.2344" height="26.207" filterUnits="userSpaceOnUse" color-interpolation-filters="sRGB">
<feFlood flood-opacity="0" result="BackgroundImageFix"/>
<feBlend mode="normal" in="SourceGraphic" in2="BackgroundImageFix" result="shape"/>
<feGaussianBlur stdDeviation="2.5" result="effect1_foregroundBlur_133_18430"/>
</filter>
<filter id="filter19_f_133_18430" x="83.0557" y="105.461" width="28.2344" height="26.207" filterUnits="userSpaceOnUse" color-interpolation-filters="sRGB">
<feFlood flood-opacity="0" result="BackgroundImageFix"/>
<feBlend mode="normal" in="SourceGraphic" in2="BackgroundImageFix" result="shape"/>
<feGaussianBlur stdDeviation="2.5" result="effect1_foregroundBlur_133_18430"/>
</filter>
<filter id="filter20_f_133_18430" x="110.338" y="105.461" width="28.2344" height="26.207" filterUnits="userSpaceOnUse" color-interpolation-filters="sRGB">
<feFlood flood-opacity="0" result="BackgroundImageFix"/>
<feBlend mode="normal" in="SourceGraphic" in2="BackgroundImageFix" result="shape"/>
<feGaussianBlur stdDeviation="2.5" result="effect1_foregroundBlur_133_18430"/>
</filter>
<filter id="filter21_f_133_18430" x="96.6963" y="113.62" width="28.2344" height="26.207" filterUnits="userSpaceOnUse" color-interpolation-filters="sRGB">
<feFlood flood-opacity="0" result="BackgroundImageFix"/>
<feBlend mode="normal" in="SourceGraphic" in2="BackgroundImageFix" result="shape"/>
<feGaussianBlur stdDeviation="2.5" result="effect1_foregroundBlur_133_18430"/>
</filter>
<filter id="filter22_f_133_18430" x="110.338" y="121.781" width="28.2344" height="26.207" filterUnits="userSpaceOnUse" color-interpolation-filters="sRGB">
<feFlood flood-opacity="0" result="BackgroundImageFix"/>
<feBlend mode="normal" in="SourceGraphic" in2="BackgroundImageFix" result="shape"/>
<feGaussianBlur stdDeviation="2.5" result="effect1_foregroundBlur_133_18430"/>
</filter>
<filter id="filter23_f_133_18430" x="83.0557" y="121.781" width="28.2344" height="26.207" filterUnits="userSpaceOnUse" color-interpolation-filters="sRGB">
<feFlood flood-opacity="0" result="BackgroundImageFix"/>
<feBlend mode="normal" in="SourceGraphic" in2="BackgroundImageFix" result="shape"/>
<feGaussianBlur stdDeviation="2.5" result="effect1_foregroundBlur_133_18430"/>
</filter>
<filter id="filter24_f_133_18430" x="69.4141" y="129.941" width="28.2344" height="26.207" filterUnits="userSpaceOnUse" color-interpolation-filters="sRGB">
<feFlood flood-opacity="0" result="BackgroundImageFix"/>
<feBlend mode="normal" in="SourceGraphic" in2="BackgroundImageFix" result="shape"/>
<feGaussianBlur stdDeviation="2.5" result="effect1_foregroundBlur_133_18430"/>
</filter>
<filter id="filter25_f_133_18430" x="96.6963" y="129.941" width="28.2344" height="26.207" filterUnits="userSpaceOnUse" color-interpolation-filters="sRGB">
<feFlood flood-opacity="0" result="BackgroundImageFix"/>
<feBlend mode="normal" in="SourceGraphic" in2="BackgroundImageFix" result="shape"/>
<feGaussianBlur stdDeviation="2.5" result="effect1_foregroundBlur_133_18430"/>
</filter>
<filter id="filter26_f_133_18430" x="83.0557" y="138.101" width="28.2344" height="26.207" filterUnits="userSpaceOnUse" color-interpolation-filters="sRGB">
<feFlood flood-opacity="0" result="BackgroundImageFix"/>
<feBlend mode="normal" in="SourceGraphic" in2="BackgroundImageFix" result="shape"/>
<feGaussianBlur stdDeviation="2.5" result="effect1_foregroundBlur_133_18430"/>
</filter>
<filter id="filter27_f_133_18430" x="110.338" y="138.101" width="28.2344" height="26.207" filterUnits="userSpaceOnUse" color-interpolation-filters="sRGB">
<feFlood flood-opacity="0" result="BackgroundImageFix"/>
<feBlend mode="normal" in="SourceGraphic" in2="BackgroundImageFix" result="shape"/>
<feGaussianBlur stdDeviation="2.5" result="effect1_foregroundBlur_133_18430"/>
</filter>
<filter id="filter28_f_133_18430" x="96.6963" y="146.26" width="28.2344" height="26.207" filterUnits="userSpaceOnUse" color-interpolation-filters="sRGB">
<feFlood flood-opacity="0" result="BackgroundImageFix"/>
<feBlend mode="normal" in="SourceGraphic" in2="BackgroundImageFix" result="shape"/>
<feGaussianBlur stdDeviation="2.5" result="effect1_foregroundBlur_133_18430"/>
</filter>
<filter id="filter29_f_133_18430" x="110.338" y="154.42" width="28.2344" height="26.207" filterUnits="userSpaceOnUse" color-interpolation-filters="sRGB">
<feFlood flood-opacity="0" result="BackgroundImageFix"/>
<feBlend mode="normal" in="SourceGraphic" in2="BackgroundImageFix" result="shape"/>
<feGaussianBlur stdDeviation="2.5" result="effect1_foregroundBlur_133_18430"/>
</filter>
<filter id="filter30_f_133_18430" x="110.338" y="40.1816" width="28.2344" height="26.207" filterUnits="userSpaceOnUse" color-interpolation-filters="sRGB">
<feFlood flood-opacity="0" result="BackgroundImageFix"/>
<feBlend mode="normal" in="SourceGraphic" in2="BackgroundImageFix" result="shape"/>
<feGaussianBlur stdDeviation="2.5" result="effect1_foregroundBlur_133_18430"/>
</filter>
<filter id="filter31_f_133_18430" x="96.6963" y="48.3418" width="28.2344" height="26.207" filterUnits="userSpaceOnUse" color-interpolation-filters="sRGB">
<feFlood flood-opacity="0" result="BackgroundImageFix"/>
<feBlend mode="normal" in="SourceGraphic" in2="BackgroundImageFix" result="shape"/>
<feGaussianBlur stdDeviation="2.5" result="effect1_foregroundBlur_133_18430"/>
</filter>
<filter id="filter32_f_133_18430" x="110.338" y="56.5029" width="28.2344" height="26.207" filterUnits="userSpaceOnUse" color-interpolation-filters="sRGB">
<feFlood flood-opacity="0" result="BackgroundImageFix"/>
<feBlend mode="normal" in="SourceGraphic" in2="BackgroundImageFix" result="shape"/>
<feGaussianBlur stdDeviation="2.5" result="effect1_foregroundBlur_133_18430"/>
</filter>
<filter id="filter33_f_133_18430" x="110.338" y="89.1416" width="28.2344" height="26.207" filterUnits="userSpaceOnUse" color-interpolation-filters="sRGB">
<feFlood flood-opacity="0" result="BackgroundImageFix"/>
<feBlend mode="normal" in="SourceGraphic" in2="BackgroundImageFix" result="shape"/>
<feGaussianBlur stdDeviation="2.5" result="effect1_foregroundBlur_133_18430"/>
</filter>
<filter id="filter34_f_133_18430" x="69.4141" y="48.3418" width="28.2344" height="26.207" filterUnits="userSpaceOnUse" color-interpolation-filters="sRGB">
<feFlood flood-opacity="0" result="BackgroundImageFix"/>
<feBlend mode="normal" in="SourceGraphic" in2="BackgroundImageFix" result="shape"/>
<feGaussianBlur stdDeviation="2.5" result="effect1_foregroundBlur_133_18430"/>
</filter>
<filter id="filter35_f_133_18430" x="55.7705" y="56.5029" width="28.2344" height="26.207" filterUnits="userSpaceOnUse" color-interpolation-filters="sRGB">
<feFlood flood-opacity="0" result="BackgroundImageFix"/>
<feBlend mode="normal" in="SourceGraphic" in2="BackgroundImageFix" result="shape"/>
<feGaussianBlur stdDeviation="2.5" result="effect1_foregroundBlur_133_18430"/>
</filter>
<filter id="filter36_f_133_18430" x="83.0557" y="56.5029" width="28.2344" height="26.207" filterUnits="userSpaceOnUse" color-interpolation-filters="sRGB">
<feFlood flood-opacity="0" result="BackgroundImageFix"/>
<feBlend mode="normal" in="SourceGraphic" in2="BackgroundImageFix" result="shape"/>
<feGaussianBlur stdDeviation="2.5" result="effect1_foregroundBlur_133_18430"/>
</filter>
<filter id="filter37_f_133_18430" x="69.4141" y="64.6621" width="28.2344" height="26.207" filterUnits="userSpaceOnUse" color-interpolation-filters="sRGB">
<feFlood flood-opacity="0" result="BackgroundImageFix"/>
<feBlend mode="normal" in="SourceGraphic" in2="BackgroundImageFix" result="shape"/>
<feGaussianBlur stdDeviation="2.5" result="effect1_foregroundBlur_133_18430"/>
</filter>
<filter id="filter38_f_133_18430" x="96.6963" y="64.6621" width="28.2344" height="26.207" filterUnits="userSpaceOnUse" color-interpolation-filters="sRGB">
<feFlood flood-opacity="0" result="BackgroundImageFix"/>
<feBlend mode="normal" in="SourceGraphic" in2="BackgroundImageFix" result="shape"/>
<feGaussianBlur stdDeviation="2.5" result="effect1_foregroundBlur_133_18430"/>
</filter>
<filter id="filter39_f_133_18430" x="83.0557" y="72.8213" width="28.2344" height="26.207" filterUnits="userSpaceOnUse" color-interpolation-filters="sRGB">
<feFlood flood-opacity="0" result="BackgroundImageFix"/>
<feBlend mode="normal" in="SourceGraphic" in2="BackgroundImageFix" result="shape"/>
<feGaussianBlur stdDeviation="2.5" result="effect1_foregroundBlur_133_18430"/>
</filter>
<filter id="filter40_f_133_18430" x="110.338" y="72.8213" width="28.2344" height="26.207" filterUnits="userSpaceOnUse" color-interpolation-filters="sRGB">
<feFlood flood-opacity="0" result="BackgroundImageFix"/>
<feBlend mode="normal" in="SourceGraphic" in2="BackgroundImageFix" result="shape"/>
<feGaussianBlur stdDeviation="2.5" result="effect1_foregroundBlur_133_18430"/>
</filter>
<filter id="filter41_f_133_18430" x="96.6963" y="80.9814" width="28.2344" height="26.207" filterUnits="userSpaceOnUse" color-interpolation-filters="sRGB">
<feFlood flood-opacity="0" result="BackgroundImageFix"/>
<feBlend mode="normal" in="SourceGraphic" in2="BackgroundImageFix" result="shape"/>
<feGaussianBlur stdDeviation="2.5" result="effect1_foregroundBlur_133_18430"/>
</filter>
<filter id="filter42_f_133_18430" x="69.4141" y="80.9814" width="28.2344" height="26.207" filterUnits="userSpaceOnUse" color-interpolation-filters="sRGB">
<feFlood flood-opacity="0" result="BackgroundImageFix"/>
<feBlend mode="normal" in="SourceGraphic" in2="BackgroundImageFix" result="shape"/>
<feGaussianBlur stdDeviation="2.5" result="effect1_foregroundBlur_133_18430"/>
</filter>
<filter id="filter43_f_133_18430" x="55.7705" y="89.1416" width="28.2344" height="26.207" filterUnits="userSpaceOnUse" color-interpolation-filters="sRGB">
<feFlood flood-opacity="0" result="BackgroundImageFix"/>
<feBlend mode="normal" in="SourceGraphic" in2="BackgroundImageFix" result="shape"/>
<feGaussianBlur stdDeviation="2.5" result="effect1_foregroundBlur_133_18430"/>
</filter>
<filter id="filter44_f_133_18430" x="83.0557" y="89.1416" width="28.2344" height="26.207" filterUnits="userSpaceOnUse" color-interpolation-filters="sRGB">
<feFlood flood-opacity="0" result="BackgroundImageFix"/>
<feBlend mode="normal" in="SourceGraphic" in2="BackgroundImageFix" result="shape"/>
<feGaussianBlur stdDeviation="2.5" result="effect1_foregroundBlur_133_18430"/>
</filter>
<filter id="filter45_f_133_18430" x="69.4141" y="97.3018" width="28.2344" height="26.207" filterUnits="userSpaceOnUse" color-interpolation-filters="sRGB">
<feFlood flood-opacity="0" result="BackgroundImageFix"/>
<feBlend mode="normal" in="SourceGraphic" in2="BackgroundImageFix" result="shape"/>
<feGaussianBlur stdDeviation="2.5" result="effect1_foregroundBlur_133_18430"/>
</filter>
<filter id="filter46_f_133_18430" x="96.6963" y="97.3018" width="28.2344" height="26.207" filterUnits="userSpaceOnUse" color-interpolation-filters="sRGB">
<feFlood flood-opacity="0" result="BackgroundImageFix"/>
<feBlend mode="normal" in="SourceGraphic" in2="BackgroundImageFix" result="shape"/>
<feGaussianBlur stdDeviation="2.5" result="effect1_foregroundBlur_133_18430"/>
</filter>
<filter id="filter47_f_133_18430" x="83.0557" y="105.461" width="28.2344" height="26.207" filterUnits="userSpaceOnUse" color-interpolation-filters="sRGB">
<feFlood flood-opacity="0" result="BackgroundImageFix"/>
<feBlend mode="normal" in="SourceGraphic" in2="BackgroundImageFix" result="shape"/>
<feGaussianBlur stdDeviation="2.5" result="effect1_foregroundBlur_133_18430"/>
</filter>
<filter id="filter48_f_133_18430" x="110.338" y="105.461" width="28.2344" height="26.207" filterUnits="userSpaceOnUse" color-interpolation-filters="sRGB">
<feFlood flood-opacity="0" result="BackgroundImageFix"/>
<feBlend mode="normal" in="SourceGraphic" in2="BackgroundImageFix" result="shape"/>
<feGaussianBlur stdDeviation="2.5" result="effect1_foregroundBlur_133_18430"/>
</filter>
<filter id="filter49_f_133_18430" x="96.6963" y="113.62" width="28.2344" height="26.207" filterUnits="userSpaceOnUse" color-interpolation-filters="sRGB">
<feFlood flood-opacity="0" result="BackgroundImageFix"/>
<feBlend mode="normal" in="SourceGraphic" in2="BackgroundImageFix" result="shape"/>
<feGaussianBlur stdDeviation="2.5" result="effect1_foregroundBlur_133_18430"/>
</filter>
<filter id="filter50_f_133_18430" x="110.338" y="121.781" width="28.2344" height="26.207" filterUnits="userSpaceOnUse" color-interpolation-filters="sRGB">
<feFlood flood-opacity="0" result="BackgroundImageFix"/>
<feBlend mode="normal" in="SourceGraphic" in2="BackgroundImageFix" result="shape"/>
<feGaussianBlur stdDeviation="2.5" result="effect1_foregroundBlur_133_18430"/>
</filter>
<filter id="filter51_f_133_18430" x="83.0557" y="121.781" width="28.2344" height="26.207" filterUnits="userSpaceOnUse" color-interpolation-filters="sRGB">
<feFlood flood-opacity="0" result="BackgroundImageFix"/>
<feBlend mode="normal" in="SourceGraphic" in2="BackgroundImageFix" result="shape"/>
<feGaussianBlur stdDeviation="2.5" result="effect1_foregroundBlur_133_18430"/>
</filter>
<filter id="filter52_f_133_18430" x="69.4141" y="129.941" width="28.2344" height="26.207" filterUnits="userSpaceOnUse" color-interpolation-filters="sRGB">
<feFlood flood-opacity="0" result="BackgroundImageFix"/>
<feBlend mode="normal" in="SourceGraphic" in2="BackgroundImageFix" result="shape"/>
<feGaussianBlur stdDeviation="2.5" result="effect1_foregroundBlur_133_18430"/>
</filter>
<filter id="filter53_f_133_18430" x="96.6963" y="129.941" width="28.2344" height="26.207" filterUnits="userSpaceOnUse" color-interpolation-filters="sRGB">
<feFlood flood-opacity="0" result="BackgroundImageFix"/>
<feBlend mode="normal" in="SourceGraphic" in2="BackgroundImageFix" result="shape"/>
<feGaussianBlur stdDeviation="2.5" result="effect1_foregroundBlur_133_18430"/>
</filter>
<filter id="filter54_f_133_18430" x="83.0557" y="138.101" width="28.2344" height="26.207" filterUnits="userSpaceOnUse" color-interpolation-filters="sRGB">
<feFlood flood-opacity="0" result="BackgroundImageFix"/>
<feBlend mode="normal" in="SourceGraphic" in2="BackgroundImageFix" result="shape"/>
<feGaussianBlur stdDeviation="2.5" result="effect1_foregroundBlur_133_18430"/>
</filter>
<filter id="filter55_f_133_18430" x="110.338" y="138.101" width="28.2344" height="26.207" filterUnits="userSpaceOnUse" color-interpolation-filters="sRGB">
<feFlood flood-opacity="0" result="BackgroundImageFix"/>
<feBlend mode="normal" in="SourceGraphic" in2="BackgroundImageFix" result="shape"/>
<feGaussianBlur stdDeviation="2.5" result="effect1_foregroundBlur_133_18430"/>
</filter>
<filter id="filter56_f_133_18430" x="96.6963" y="146.26" width="28.2344" height="26.207" filterUnits="userSpaceOnUse" color-interpolation-filters="sRGB">
<feFlood flood-opacity="0" result="BackgroundImageFix"/>
<feBlend mode="normal" in="SourceGraphic" in2="BackgroundImageFix" result="shape"/>
<feGaussianBlur stdDeviation="2.5" result="effect1_foregroundBlur_133_18430"/>
</filter>
<filter id="filter57_f_133_18430" x="110.338" y="154.42" width="28.2344" height="26.207" filterUnits="userSpaceOnUse" color-interpolation-filters="sRGB">
<feFlood flood-opacity="0" result="BackgroundImageFix"/>
<feBlend mode="normal" in="SourceGraphic" in2="BackgroundImageFix" result="shape"/>
<feGaussianBlur stdDeviation="2.5" result="effect1_foregroundBlur_133_18430"/>
</filter>
<filter id="filter58_f_133_18430" x="36.9785" y="12.9463" width="232.934" height="156.08" filterUnits="userSpaceOnUse" color-interpolation-filters="sRGB">
<feFlood flood-opacity="0" result="BackgroundImageFix"/>
<feBlend mode="normal" in="SourceGraphic" in2="BackgroundImageFix" result="shape"/>
<feGaussianBlur stdDeviation="1" result="effect1_foregroundBlur_133_18430"/>
</filter>
</defs>
</svg>
