<svg width="122" height="175" viewBox="0 0 122 175" fill="none" xmlns="http://www.w3.org/2000/svg">
<mask id="mask0_133_18937" style="mask-type:alpha" maskUnits="userSpaceOnUse" x="-106" y="-56" width="228" height="231">
<rect x="35.9454" y="173.992" width="163.116" height="170.608" transform="rotate(-150 35.9454 173.992)" fill="#D9D9D9" stroke="black"/>
</mask>
<g mask="url(#mask0_133_18937)">
<g filter="url(#filter0_f_133_18937)">
<circle cx="-30.2965" cy="15.1045" r="30.2264" transform="rotate(-150 -30.2965 15.1045)" fill="#FB5C02"/>
</g>
<g filter="url(#filter1_f_133_18937)">
<g filter="url(#filter2_f_133_18937)">
<path d="M-16.9846 87.2817L-17.1055 87.3534L-17.1071 87.494L-17.1834 94.1946L-17.1851 94.3408L-17.0584 94.414L-11.37 97.6982L-11.2433 97.7713L-11.1175 97.6968L-5.35272 94.2804L-5.23179 94.2087L-5.23019 94.0681L-5.15389 87.3675L-5.15222 87.2212L-5.27887 87.1481L-10.9673 83.8639L-11.094 83.7908L-11.2198 83.8653L-16.9846 87.2817Z" stroke="#00FDFF" stroke-opacity="0.41" stroke-width="0.5"/>
</g>
<g filter="url(#filter3_f_133_18937)">
<path d="M-5.23606 87.1001L-5.35698 87.1718L-5.35858 87.3123L-5.43489 94.013L-5.43656 94.1592L-5.30991 94.2323L0.378571 97.5166L0.505221 97.5897L0.631029 97.5151L6.39581 94.0987L6.51674 94.0271L6.51834 93.8865L6.59465 87.1858L6.59631 87.0396L6.46967 86.9665L0.781186 83.6822L0.654537 83.6091L0.528729 83.6837L-5.23606 87.1001Z" stroke="#00FDFF" stroke-opacity="0.41" stroke-width="0.5"/>
</g>
<g filter="url(#filter4_f_133_18937)">
<path d="M-10.9538 76.8354L-11.0748 76.9071L-11.0764 77.0477L-11.1527 83.7483L-11.1543 83.8946L-11.0277 83.9677L-5.3392 87.2519L-5.21255 87.325L-5.08674 87.2505L0.678042 83.8341L0.798968 83.7624L0.800569 83.6218L0.876877 76.9212L0.878543 76.775L0.751894 76.7018L-4.93659 73.4176L-5.06323 73.3445L-5.18904 73.419L-10.9538 76.8354Z" stroke="#00FDFF" stroke-opacity="0.41" stroke-width="0.5"/>
</g>
<g filter="url(#filter5_f_133_18937)">
<path d="M-16.6692 66.5727L-16.7901 66.6444L-16.7917 66.785L-16.868 73.4856L-16.8697 73.6319L-16.743 73.705L-11.0545 76.9892L-10.9279 77.0623L-10.8021 76.9878L-5.03729 73.5714L-4.91636 73.4997L-4.91476 73.3591L-4.83845 66.6585L-4.83679 66.5123L-4.96344 66.4391L-10.6519 63.1549L-10.7786 63.0818L-10.9044 63.1563L-16.6692 66.5727Z" stroke="#00FDFF" stroke-opacity="0.41" stroke-width="0.5"/>
</g>
<g filter="url(#filter6_f_133_18937)">
<path d="M-4.92356 66.3911L-5.04448 66.4628L-5.04608 66.6033L-5.12239 73.304L-5.12406 73.4502L-4.99741 73.5233L0.691071 76.8076L0.817721 76.8807L0.943529 76.8061L6.70831 73.3897L6.82924 73.3181L6.83084 73.1775L6.90715 66.4769L6.90881 66.3306L6.78217 66.2575L1.09369 62.9733L0.967037 62.9001L0.841229 62.9747L-4.92356 66.3911Z" stroke="#00FDFF" stroke-opacity="0.41" stroke-width="0.5"/>
</g>
<g filter="url(#filter7_f_133_18937)">
<path d="M6.82498 66.2095L6.70405 66.2811L6.70245 66.4217L6.62614 73.1223L6.62448 73.2686L6.75113 73.3417L12.4396 76.6259L12.5663 76.6991L12.6921 76.6245L18.4568 73.2081L18.5778 73.1364L18.5794 72.9959L18.6557 66.2952L18.6573 66.149L18.5307 66.0759L12.8422 62.7916L12.7156 62.7185L12.5898 62.793L6.82498 66.2095Z" stroke="#00FDFF" stroke-opacity="0.41" stroke-width="0.5"/>
</g>
<g filter="url(#filter8_f_133_18937)">
<path d="M-10.6389 56.1265L-10.7598 56.1981L-10.7614 56.3387L-10.8377 63.0393L-10.8394 63.1856L-10.7127 63.2587L-5.02426 66.5429L-4.89761 66.6161L-4.7718 66.5415L0.992982 63.1251L1.11391 63.0534L1.11551 62.9129L1.19182 56.2122L1.19348 56.066L1.06683 55.9928L-4.62165 52.7086L-4.74829 52.6355L-4.8741 52.71L-10.6389 56.1265Z" stroke="#00FDFF" stroke-opacity="0.41" stroke-width="0.5"/>
</g>
<g filter="url(#filter9_f_133_18937)">
<path d="M1.1072 55.9448L0.986278 56.0165L0.984678 56.157L0.90837 62.8577L0.906705 63.0039L1.03335 63.077L6.72183 66.3613L6.84848 66.4344L6.97429 66.3599L12.7391 62.9434L12.86 62.8718L12.8616 62.7312L12.9379 56.0306L12.9396 55.8843L12.8129 55.8112L7.12445 52.527L6.9978 52.4538L6.87199 52.5284L1.1072 55.9448Z" stroke="#00FDFF" stroke-opacity="0.41" stroke-width="0.5"/>
</g>
<g filter="url(#filter10_f_133_18937)">
<path d="M-16.3542 45.8638L-16.4751 45.9354L-16.4767 46.076L-16.5531 52.7766L-16.5547 52.9229L-16.4281 52.996L-10.7396 56.2802L-10.6129 56.3534L-10.4871 56.2788L-4.72235 52.8624L-4.60142 52.7907L-4.59982 52.6502L-4.52352 45.9495L-4.52185 45.8033L-4.6485 45.7302L-10.337 42.4459L-10.4636 42.3728L-10.5894 42.4473L-16.3542 45.8638Z" stroke="#00FDFF" stroke-opacity="0.41" stroke-width="0.5"/>
</g>
<g filter="url(#filter11_f_133_18937)">
<path d="M-4.60813 45.6821L-4.72905 45.7538L-4.73065 45.8943L-4.80696 52.595L-4.80863 52.7412L-4.68198 52.8144L1.0065 56.0986L1.13315 56.1717L1.25896 56.0972L7.02374 52.6807L7.14467 52.6091L7.14627 52.4685L7.22258 45.7679L7.22424 45.6216L7.09759 45.5485L1.40912 42.2643L1.28247 42.1911L1.15666 42.2657L-4.60813 45.6821Z" stroke="#00FDFF" stroke-opacity="0.41" stroke-width="0.5"/>
</g>
<g filter="url(#filter12_f_133_18937)">
<path d="M-10.3239 35.4184L-10.4449 35.4901L-10.4465 35.6307L-10.5228 42.3313L-10.5244 42.4776L-10.3978 42.5507L-4.70932 45.8349L-4.58267 45.908L-4.45686 45.8335L1.30793 42.4171L1.42885 42.3454L1.43045 42.2048L1.50676 35.5042L1.50843 35.358L1.38178 35.2848L-4.3067 32.0006L-4.43335 31.9275L-4.55916 32.002L-10.3239 35.4184Z" stroke="#00FDFF" stroke-opacity="0.41" stroke-width="0.5"/>
</g>
<g filter="url(#filter13_f_133_18937)">
<path d="M-16.0393 25.1548L-16.1602 25.2264L-16.1618 25.367L-16.2381 32.0677L-16.2398 32.2139L-16.1131 32.287L-10.4247 35.5713L-10.298 35.6444L-10.1722 35.5698L-4.40741 32.1534L-4.28648 32.0817L-4.28488 31.9412L-4.20857 25.2405L-4.20691 25.0943L-4.33356 25.0212L-10.022 21.7369L-10.1487 21.6638L-10.2745 21.7384L-16.0393 25.1548Z" stroke="#00FDFF" stroke-opacity="0.41" stroke-width="0.5"/>
</g>
<g filter="url(#filter14_f_133_18937)">
<path d="M1.42263 35.2358L1.30171 35.3075L1.30011 35.4481L1.2238 42.1487L1.22213 42.2949L1.34878 42.3681L7.03726 45.6523L7.16391 45.7254L7.28972 45.6509L13.0545 42.2345L13.1754 42.1628L13.177 42.0222L13.2533 35.3216L13.255 35.1753L13.1284 35.1022L7.43988 31.818L7.31323 31.7449L7.18742 31.8194L1.42263 35.2358Z" stroke="#00FDFF" stroke-opacity="0.41" stroke-width="0.5"/>
</g>
<g filter="url(#filter15_f_133_18937)">
<path d="M13.1692 35.0542L13.0483 35.1259L13.0467 35.2664L12.9704 41.9671L12.9687 42.1133L13.0954 42.1864L18.7838 45.4707L18.9105 45.5438L19.0363 45.4692L24.8011 42.0528L24.922 41.9812L24.9236 41.8406L24.9999 35.1399L25.0016 34.9937L24.8749 34.9206L19.1865 31.6363L19.0598 31.5632L18.934 31.6378L13.1692 35.0542Z" stroke="#00FDFF" stroke-opacity="0.41" stroke-width="0.5"/>
</g>
<g filter="url(#filter16_f_133_18937)">
<path d="M-4.29319 24.9731L-4.41411 25.0448L-4.41571 25.1854L-4.49202 31.886L-4.49369 32.0322L-4.36704 32.1054L1.32144 35.3896L1.44809 35.4627L1.5739 35.3882L7.33868 31.9718L7.45961 31.9001L7.46121 31.7595L7.53752 25.0589L7.53918 24.9126L7.41254 24.8395L1.72406 21.5553L1.59741 21.4822L1.4716 21.5567L-4.29319 24.9731Z" stroke="#00FDFF" stroke-opacity="0.41" stroke-width="0.5"/>
</g>
<g filter="url(#filter17_f_133_18937)">
<path d="M7.45291 24.7915L7.33198 24.8632L7.33038 25.0037L7.25407 31.7044L7.25241 31.8506L7.37906 31.9237L13.0675 35.208L13.1942 35.2811L13.32 35.2065L19.0848 31.7901L19.2057 31.7185L19.2073 31.5779L19.2836 24.8772L19.2853 24.731L19.1586 24.6579L13.4702 21.3736L13.3435 21.3005L13.2177 21.3751L7.45291 24.7915Z" stroke="#00FDFF" stroke-opacity="0.41" stroke-width="0.5"/>
</g>
<g filter="url(#filter18_f_133_18937)">
<path d="M-10.009 14.7095L-10.1299 14.7811L-10.1315 14.9217L-10.2078 21.6223L-10.2095 21.7686L-10.0829 21.8417L-4.39438 25.1259L-4.26773 25.1991L-4.14192 25.1245L1.62287 21.7081L1.74379 21.6364L1.74539 21.4959L1.8217 14.7952L1.82337 14.649L1.69672 14.5758L-3.99176 11.2916L-4.11841 11.2185L-4.24422 11.293L-10.009 14.7095Z" stroke="#00FDFF" stroke-opacity="0.41" stroke-width="0.5"/>
</g>
<g filter="url(#filter19_f_133_18937)">
<path d="M1.73709 14.5278L1.61616 14.5995L1.61456 14.74L1.53825 21.4407L1.53659 21.5869L1.66324 21.6601L7.35172 24.9443L7.47836 25.0174L7.60417 24.9429L13.369 21.5264L13.4899 21.4548L13.4915 21.3142L13.5678 14.6136L13.5695 14.4673L13.4428 14.3942L7.75433 11.11L7.62768 11.0369L7.50187 11.1114L1.73709 14.5278Z" stroke="#00FDFF" stroke-opacity="0.41" stroke-width="0.5"/>
</g>
<g filter="url(#filter20_f_133_18937)">
<path d="M-15.7248 4.44579L-15.8458 4.51746L-15.8474 4.65801L-15.9237 11.3587L-15.9253 11.5049L-15.7987 11.578L-10.1102 14.8623L-9.98355 14.9354L-9.85774 14.8608L-4.09295 11.4444L-3.97203 11.3728L-3.97043 11.2322L-3.89412 4.53154L-3.89245 4.38531L-4.0191 4.31219L-9.70758 1.02794L-9.83423 0.95482L-9.96004 1.02938L-15.7248 4.44579Z" stroke="#00FDFF" stroke-opacity="0.41" stroke-width="0.5"/>
</g>
<g filter="url(#filter21_f_133_18937)">
<path d="M-3.97824 4.26415L-4.09917 4.33582L-4.10077 4.47637L-4.17708 11.177L-4.17874 11.3233L-4.0521 11.3964L1.63638 14.6806L1.76303 14.7537L1.88884 14.6792L7.65363 11.2628L7.77455 11.1911L7.77615 11.0506L7.85246 4.3499L7.85413 4.20366L7.72748 4.13054L2.039 0.846299L1.91235 0.773179L1.78654 0.847737L-3.97824 4.26415Z" stroke="#00FDFF" stroke-opacity="0.41" stroke-width="0.5"/>
</g>
<g filter="url(#filter22_f_133_18937)">
<path d="M-16.9846 87.2817L-17.1055 87.3534L-17.1071 87.494L-17.1834 94.1946L-17.1851 94.3408L-17.0584 94.414L-11.37 97.6982L-11.2433 97.7713L-11.1175 97.6968L-5.35272 94.2804L-5.23179 94.2087L-5.23019 94.0681L-5.15389 87.3675L-5.15222 87.2212L-5.27887 87.1481L-10.9673 83.8639L-11.094 83.7908L-11.2198 83.8653L-16.9846 87.2817Z" stroke="#00FDFF" stroke-opacity="0.41" stroke-width="0.5"/>
</g>
<g filter="url(#filter23_f_133_18937)">
<path d="M-5.23606 87.1001L-5.35698 87.1718L-5.35858 87.3123L-5.43489 94.013L-5.43656 94.1592L-5.30991 94.2323L0.378571 97.5166L0.505221 97.5897L0.631029 97.5151L6.39581 94.0987L6.51674 94.0271L6.51834 93.8865L6.59465 87.1858L6.59631 87.0396L6.46967 86.9665L0.781186 83.6822L0.654537 83.6091L0.528729 83.6837L-5.23606 87.1001Z" stroke="#00FDFF" stroke-opacity="0.41" stroke-width="0.5"/>
</g>
<g filter="url(#filter24_f_133_18937)">
<path d="M-10.9538 76.8354L-11.0748 76.9071L-11.0764 77.0477L-11.1527 83.7483L-11.1543 83.8946L-11.0277 83.9677L-5.3392 87.2519L-5.21255 87.325L-5.08674 87.2505L0.678042 83.8341L0.798968 83.7624L0.800569 83.6218L0.876877 76.9212L0.878543 76.775L0.751894 76.7018L-4.93659 73.4176L-5.06323 73.3445L-5.18904 73.419L-10.9538 76.8354Z" stroke="#00FDFF" stroke-opacity="0.41" stroke-width="0.5"/>
</g>
<g filter="url(#filter25_f_133_18937)">
<path d="M-16.6692 66.5727L-16.7901 66.6444L-16.7917 66.785L-16.868 73.4856L-16.8697 73.6319L-16.743 73.705L-11.0545 76.9892L-10.9279 77.0623L-10.8021 76.9878L-5.03729 73.5714L-4.91636 73.4997L-4.91476 73.3591L-4.83845 66.6585L-4.83679 66.5123L-4.96344 66.4391L-10.6519 63.1549L-10.7786 63.0818L-10.9044 63.1563L-16.6692 66.5727Z" stroke="#00FDFF" stroke-opacity="0.41" stroke-width="0.5"/>
</g>
<g filter="url(#filter26_f_133_18937)">
<path d="M-4.92356 66.3911L-5.04448 66.4628L-5.04608 66.6033L-5.12239 73.304L-5.12406 73.4502L-4.99741 73.5233L0.691071 76.8076L0.817721 76.8807L0.943529 76.8061L6.70831 73.3897L6.82924 73.3181L6.83084 73.1775L6.90715 66.4769L6.90881 66.3306L6.78217 66.2575L1.09369 62.9733L0.967037 62.9001L0.841229 62.9747L-4.92356 66.3911Z" stroke="#00FDFF" stroke-opacity="0.41" stroke-width="0.5"/>
</g>
<g filter="url(#filter27_f_133_18937)">
<path d="M6.82498 66.2095L6.70405 66.2811L6.70245 66.4217L6.62614 73.1223L6.62448 73.2686L6.75113 73.3417L12.4396 76.6259L12.5663 76.6991L12.6921 76.6245L18.4568 73.2081L18.5778 73.1364L18.5794 72.9959L18.6557 66.2952L18.6573 66.149L18.5307 66.0759L12.8422 62.7916L12.7156 62.7185L12.5898 62.793L6.82498 66.2095Z" stroke="#00FDFF" stroke-opacity="0.41" stroke-width="0.5"/>
</g>
<g filter="url(#filter28_f_133_18937)">
<path d="M-10.6389 56.1265L-10.7598 56.1981L-10.7614 56.3387L-10.8377 63.0393L-10.8394 63.1856L-10.7127 63.2587L-5.02426 66.5429L-4.89761 66.6161L-4.7718 66.5415L0.992982 63.1251L1.11391 63.0534L1.11551 62.9129L1.19182 56.2122L1.19348 56.066L1.06683 55.9928L-4.62165 52.7086L-4.74829 52.6355L-4.8741 52.71L-10.6389 56.1265Z" stroke="#00FDFF" stroke-opacity="0.41" stroke-width="0.5"/>
</g>
<g filter="url(#filter29_f_133_18937)">
<path d="M1.1072 55.9448L0.986278 56.0165L0.984678 56.157L0.90837 62.8577L0.906705 63.0039L1.03335 63.077L6.72183 66.3613L6.84848 66.4344L6.97429 66.3599L12.7391 62.9434L12.86 62.8718L12.8616 62.7312L12.9379 56.0306L12.9396 55.8843L12.8129 55.8112L7.12445 52.527L6.9978 52.4538L6.87199 52.5284L1.1072 55.9448Z" stroke="#00FDFF" stroke-opacity="0.41" stroke-width="0.5"/>
</g>
<g filter="url(#filter30_f_133_18937)">
<path d="M-16.3542 45.8638L-16.4751 45.9354L-16.4767 46.076L-16.5531 52.7766L-16.5547 52.9229L-16.4281 52.996L-10.7396 56.2802L-10.6129 56.3534L-10.4871 56.2788L-4.72235 52.8624L-4.60142 52.7907L-4.59982 52.6502L-4.52352 45.9495L-4.52185 45.8033L-4.6485 45.7302L-10.337 42.4459L-10.4636 42.3728L-10.5894 42.4473L-16.3542 45.8638Z" stroke="#00FDFF" stroke-opacity="0.41" stroke-width="0.5"/>
</g>
<g filter="url(#filter31_f_133_18937)">
<path d="M-4.60813 45.6821L-4.72905 45.7538L-4.73065 45.8943L-4.80696 52.595L-4.80863 52.7412L-4.68198 52.8144L1.0065 56.0986L1.13315 56.1717L1.25896 56.0972L7.02374 52.6807L7.14467 52.6091L7.14627 52.4685L7.22258 45.7679L7.22424 45.6216L7.09759 45.5485L1.40912 42.2643L1.28247 42.1911L1.15666 42.2657L-4.60813 45.6821Z" stroke="#00FDFF" stroke-opacity="0.41" stroke-width="0.5"/>
</g>
<g filter="url(#filter32_f_133_18937)">
<path d="M-10.3239 35.4184L-10.4449 35.4901L-10.4465 35.6307L-10.5228 42.3313L-10.5244 42.4776L-10.3978 42.5507L-4.70932 45.8349L-4.58267 45.908L-4.45686 45.8335L1.30793 42.4171L1.42885 42.3454L1.43045 42.2048L1.50676 35.5042L1.50843 35.358L1.38178 35.2848L-4.3067 32.0006L-4.43335 31.9275L-4.55916 32.002L-10.3239 35.4184Z" stroke="#00FDFF" stroke-opacity="0.41" stroke-width="0.5"/>
</g>
<g filter="url(#filter33_f_133_18937)">
<path d="M-16.0393 25.1548L-16.1602 25.2264L-16.1618 25.367L-16.2381 32.0677L-16.2398 32.2139L-16.1131 32.287L-10.4247 35.5713L-10.298 35.6444L-10.1722 35.5698L-4.40741 32.1534L-4.28648 32.0817L-4.28488 31.9412L-4.20857 25.2405L-4.20691 25.0943L-4.33356 25.0212L-10.022 21.7369L-10.1487 21.6638L-10.2745 21.7384L-16.0393 25.1548Z" stroke="#00FDFF" stroke-opacity="0.41" stroke-width="0.5"/>
</g>
<g filter="url(#filter34_f_133_18937)">
<path d="M1.42263 35.2358L1.30171 35.3075L1.30011 35.4481L1.2238 42.1487L1.22213 42.2949L1.34878 42.3681L7.03726 45.6523L7.16391 45.7254L7.28972 45.6509L13.0545 42.2345L13.1754 42.1628L13.177 42.0222L13.2533 35.3216L13.255 35.1753L13.1284 35.1022L7.43988 31.818L7.31323 31.7449L7.18742 31.8194L1.42263 35.2358Z" stroke="#00FDFF" stroke-opacity="0.41" stroke-width="0.5"/>
</g>
<g filter="url(#filter35_f_133_18937)">
<path d="M13.1692 35.0542L13.0483 35.1259L13.0467 35.2664L12.9704 41.9671L12.9687 42.1133L13.0954 42.1864L18.7838 45.4707L18.9105 45.5438L19.0363 45.4692L24.8011 42.0528L24.922 41.9812L24.9236 41.8406L24.9999 35.1399L25.0016 34.9937L24.8749 34.9206L19.1865 31.6363L19.0598 31.5632L18.934 31.6378L13.1692 35.0542Z" stroke="#00FDFF" stroke-opacity="0.41" stroke-width="0.5"/>
</g>
<g filter="url(#filter36_f_133_18937)">
<path d="M-4.29319 24.9731L-4.41411 25.0448L-4.41571 25.1854L-4.49202 31.886L-4.49369 32.0322L-4.36704 32.1054L1.32144 35.3896L1.44809 35.4627L1.5739 35.3882L7.33868 31.9718L7.45961 31.9001L7.46121 31.7595L7.53752 25.0589L7.53918 24.9126L7.41254 24.8395L1.72406 21.5553L1.59741 21.4822L1.4716 21.5567L-4.29319 24.9731Z" stroke="#00FDFF" stroke-opacity="0.41" stroke-width="0.5"/>
</g>
<g filter="url(#filter37_f_133_18937)">
<path d="M7.45291 24.7915L7.33198 24.8632L7.33038 25.0037L7.25407 31.7044L7.25241 31.8506L7.37906 31.9237L13.0675 35.208L13.1942 35.2811L13.32 35.2065L19.0848 31.7901L19.2057 31.7185L19.2073 31.5779L19.2836 24.8772L19.2853 24.731L19.1586 24.6579L13.4702 21.3736L13.3435 21.3005L13.2177 21.3751L7.45291 24.7915Z" stroke="#00FDFF" stroke-opacity="0.41" stroke-width="0.5"/>
</g>
<g filter="url(#filter38_f_133_18937)">
<path d="M-10.009 14.7095L-10.1299 14.7811L-10.1315 14.9217L-10.2078 21.6223L-10.2095 21.7686L-10.0829 21.8417L-4.39438 25.1259L-4.26773 25.1991L-4.14192 25.1245L1.62287 21.7081L1.74379 21.6364L1.74539 21.4959L1.8217 14.7952L1.82337 14.649L1.69672 14.5758L-3.99176 11.2916L-4.11841 11.2185L-4.24422 11.293L-10.009 14.7095Z" stroke="#00FDFF" stroke-opacity="0.41" stroke-width="0.5"/>
</g>
<g filter="url(#filter39_f_133_18937)">
<path d="M1.73709 14.5278L1.61616 14.5995L1.61456 14.74L1.53825 21.4407L1.53659 21.5869L1.66324 21.6601L7.35172 24.9443L7.47836 25.0174L7.60417 24.9429L13.369 21.5264L13.4899 21.4548L13.4915 21.3142L13.5678 14.6136L13.5695 14.4673L13.4428 14.3942L7.75433 11.11L7.62768 11.0369L7.50187 11.1114L1.73709 14.5278Z" stroke="#00FDFF" stroke-opacity="0.41" stroke-width="0.5"/>
</g>
<g filter="url(#filter40_f_133_18937)">
<path d="M-15.7248 4.44579L-15.8458 4.51746L-15.8474 4.65801L-15.9237 11.3587L-15.9253 11.5049L-15.7987 11.578L-10.1102 14.8623L-9.98355 14.9354L-9.85774 14.8608L-4.09295 11.4444L-3.97203 11.3728L-3.97043 11.2322L-3.89412 4.53154L-3.89245 4.38531L-4.0191 4.31219L-9.70758 1.02794L-9.83423 0.95482L-9.96004 1.02938L-15.7248 4.44579Z" stroke="#00FDFF" stroke-opacity="0.41" stroke-width="0.5"/>
</g>
<g filter="url(#filter41_f_133_18937)">
<path d="M-3.97824 4.26415L-4.09917 4.33582L-4.10077 4.47637L-4.17708 11.177L-4.17874 11.3233L-4.0521 11.3964L1.63638 14.6806L1.76303 14.7537L1.88884 14.6792L7.65363 11.2628L7.77455 11.1911L7.77615 11.0506L7.85246 4.3499L7.85413 4.20366L7.72748 4.13054L2.039 0.846299L1.91235 0.773179L1.78654 0.847737L-3.97824 4.26415Z" stroke="#00FDFF" stroke-opacity="0.41" stroke-width="0.5"/>
</g>
</g>
<path d="M-17.4989 86.534L-17.7276 86.6754L-17.7357 86.9442L-18.0303 96.7241L-18.0393 97.0227L-17.7805 97.1721L-9.7528 101.807L-9.49403 101.956L-9.23987 101.799L-0.917533 96.6542L-0.68878 96.5128L-0.680683 96.2439L-0.386093 86.4641L-0.377097 86.1654L-0.635866 86.016L-8.66361 81.3812L-8.92238 81.2318L-9.17654 81.3889L-17.4989 86.534Z" stroke="#FF5500"/>
<path d="M-0.728367 85.9431L-0.957119 86.0846L-0.965217 86.3534L-1.25981 96.1333L-1.2688 96.4319L-1.01003 96.5813L7.01771 101.216L7.27648 101.366L7.53064 101.208L15.853 96.0634L16.0817 95.9219L16.0898 95.6531L16.3844 85.8732L16.3934 85.5746L16.1346 85.4252L8.1069 80.7903L7.84813 80.6409L7.59397 80.7981L-0.728367 85.9431Z" stroke="#FF5500"/>
<path d="M-8.60239 71.1248L-8.83114 71.2662L-8.83924 71.535L-9.13383 81.3149L-9.14283 81.6136L-8.88406 81.763L-0.856311 86.3978L-0.597541 86.5472L-0.343387 86.3901L7.97895 81.245L8.2077 81.1036L8.2158 80.8348L8.51039 71.0549L8.51939 70.7562L8.26062 70.6068L0.232871 65.972L-0.0258982 65.8226L-0.280053 65.9797L-8.60239 71.1248Z" stroke="#FF5500"/>
<path d="M-16.4764 56.3064L-16.7052 56.4478L-16.7133 56.7166L-17.0079 66.4965L-17.0169 66.7952L-16.7581 66.9446L-8.73034 71.5794L-8.47157 71.7288L-8.21741 71.5717L0.104925 66.4266L0.333677 66.2852L0.341774 66.0164L0.636366 56.2365L0.645362 55.9378L0.386592 55.7884L-7.64115 51.1536L-7.89992 51.0042L-8.15408 51.1613L-16.4764 56.3064Z" stroke="#FF5500"/>
<path d="M8.16763 70.534L7.93888 70.6754L7.93078 70.9442L7.63619 80.7241L7.62719 81.0227L7.88596 81.1721L15.9137 85.807L16.1725 85.9564L16.4266 85.7992L24.749 80.6542L24.9777 80.5128L24.9858 80.2439L25.2804 70.4641L25.2894 70.1654L25.0306 70.016L17.0029 65.3812L16.7441 65.2318L16.49 65.3889L8.16763 70.534Z" stroke="#FF5500"/>
<path d="M24.9381 69.9431L24.7094 70.0846L24.7013 70.3534L24.4067 80.1333L24.3977 80.4319L24.6565 80.5813L32.6842 85.2161L32.943 85.3655L33.1971 85.2084L41.5195 80.0634L41.7482 79.9219L41.7563 79.6531L42.0509 69.8732L42.0599 69.5746L41.8011 69.4252L33.7734 64.7903L33.5146 64.6409L33.2605 64.7981L24.9381 69.9431Z" stroke="#FF5500"/>
<path d="M0.293606 55.7156L0.0648535 55.857L0.056756 56.1258L-0.237835 65.9057L-0.246831 66.2044L0.0119384 66.3538L8.03969 70.9886L8.29845 71.138L8.55261 70.9809L16.8749 65.8358L17.1037 65.6944L17.1118 65.4256L17.4064 55.6457L17.4154 55.347L17.1566 55.1976L9.12887 50.5628L8.8701 50.4134L8.61594 50.5705L0.293606 55.7156Z" stroke="#FF5500"/>
<path d="M17.0641 55.1248L16.8354 55.2662L16.8273 55.535L16.5327 65.3149L16.5237 65.6136L16.7824 65.763L24.8102 70.3978L25.069 70.5472L25.3231 70.3901L33.6455 65.245L33.8742 65.1036L33.8823 64.8348L34.1769 55.0549L34.1859 54.7562L33.9271 54.6068L25.8994 49.972L25.6406 49.8226L25.3865 49.9797L17.0641 55.1248Z" stroke="#FF5500"/>
<path d="M-7.57944 40.8972L-7.80819 41.0387L-7.81629 41.3075L-8.11088 51.0874L-8.11988 51.386L-7.86111 51.5354L0.166636 56.1702L0.425406 56.3196L0.67956 56.1625L9.0019 51.0175L9.23065 50.876L9.23875 50.6072L9.53334 40.8273L9.54233 40.5287L9.28356 40.3793L1.25582 35.7444L0.99705 35.595L0.742896 35.7522L-7.57944 40.8972Z" stroke="#FF5500"/>
<path d="M9.19058 40.3064L8.96183 40.4478L8.95373 40.7166L8.65914 50.4965L8.65014 50.7952L8.90891 50.9446L16.9367 55.5794L17.1954 55.7288L17.4496 55.5717L25.7719 50.4266L26.0007 50.2852L26.0088 50.0164L26.3034 40.2365L26.3124 39.9378L26.0536 39.7884L18.0258 35.1536L17.7671 35.0042L17.5129 35.1613L9.19058 40.3064Z" stroke="#FF5500"/>
<path d="M-15.452 26.0789L-15.6808 26.2203L-15.6888 26.4891L-15.9834 36.269L-15.9924 36.5677L-15.7337 36.7171L-7.70592 41.3519L-7.44715 41.5013L-7.193 41.3442L1.12934 36.1991L1.35809 36.0577L1.36619 35.7889L1.66078 26.009L1.66978 25.7103L1.41101 25.5609L-6.61674 20.9261L-6.87551 20.7767L-7.12966 20.9338L-15.452 26.0789Z" stroke="#FF5500"/>
<path d="M1.31655 25.4871L1.0878 25.6285L1.07971 25.8973L0.785114 35.6772L0.776117 35.9759L1.03489 36.1253L9.06263 40.7601L9.3214 40.9095L9.57556 40.7524L17.8979 35.6073L18.1266 35.4659L18.1347 35.1971L18.4293 25.4172L18.4383 25.1185L18.1796 24.9691L10.1518 20.3343L9.89305 20.1849L9.63889 20.342L1.31655 25.4871Z" stroke="#FF5500"/>
<path d="M-6.55552 10.6697L-6.78427 10.8111L-6.79236 11.0799L-7.08696 20.8598L-7.09595 21.1585L-6.83718 21.3079L1.19056 25.9427L1.44933 26.0921L1.70349 25.935L10.0258 20.7899L10.2546 20.6485L10.2627 20.3797L10.5573 10.5998L10.5663 10.3011L10.3075 10.1517L2.27975 5.5169L2.02098 5.3675L1.76682 5.52463L-6.55552 10.6697Z" stroke="#FF5500"/>
<path d="M-14.4291 -4.14866L-14.6578 -4.00724L-14.6659 -3.73843L-14.9605 6.04146L-14.9695 6.34013L-14.7107 6.48953L-6.68297 11.1243L-6.4242 11.2737L-6.17005 11.1166L2.15229 5.97156L2.38104 5.83014L2.38914 5.56132L2.68373 -4.21857L2.69273 -4.51723L2.43396 -4.66664L-5.59379 -9.30146L-5.85256 -9.45086L-6.10671 -9.29373L-14.4291 -4.14866Z" stroke="#FF5500"/>
<path d="M18.0871 24.8972L17.8583 25.0387L17.8502 25.3075L17.5556 35.0874L17.5466 35.386L17.8054 35.5354L25.8331 40.1702L26.0919 40.3196L26.3461 40.1625L34.6684 35.0175L34.8972 34.876L34.9053 34.6072L35.1998 24.8273L35.2088 24.5287L34.9501 24.3793L26.9223 19.7444L26.6636 19.595L26.4094 19.7522L18.0871 24.8972Z" stroke="#FF5500"/>
<path d="M34.8571 24.3064L34.6283 24.4478L34.6202 24.7166L34.3256 34.4965L34.3166 34.7952L34.5754 34.9446L42.6032 39.5794L42.8619 39.7288L43.1161 39.5717L51.4384 34.4266L51.6672 34.2852L51.6753 34.0164L51.9699 24.2365L51.9789 23.9378L51.7201 23.7884L43.6923 19.1536L43.4336 19.0042L43.1794 19.1613L34.8571 24.3064Z" stroke="#FF5500"/>
<path d="M10.2135 10.0789L9.98478 10.2203L9.97668 10.4891L9.68209 20.269L9.67309 20.5677L9.93186 20.7171L17.9596 25.3519L18.2184 25.5013L18.4725 25.3442L26.7949 20.1991L27.0236 20.0577L27.0317 19.7889L27.3263 10.009L27.3353 9.7103L27.0765 9.5609L19.0488 4.92608L18.79 4.77668L18.5359 4.93381L10.2135 10.0789Z" stroke="#FF5500"/>
<path d="M26.9831 9.48805L26.7543 9.62947L26.7462 9.89829L26.4516 19.6782L26.4426 19.9768L26.7014 20.1262L34.7291 24.7611L34.9879 24.9105L35.2421 24.7533L43.5644 19.6083L43.7932 19.4669L43.8013 19.198L44.0958 9.41815L44.1048 9.11949L43.8461 8.97008L35.8183 4.33526L35.5596 4.18586L35.3054 4.34299L26.9831 9.48805Z" stroke="#FF5500"/>
<path d="M2.34146 -4.73948L2.11271 -4.59806L2.10461 -4.32925L1.81002 5.45064L1.80102 5.74931L2.05979 5.89871L10.0875 10.5335L10.3463 10.6829L10.6005 10.5258L18.9228 5.38074L19.1515 5.23932L19.1596 4.9705L19.4542 -4.80939L19.4632 -5.10805L19.2045 -5.25746L11.1767 -9.89228L10.9179 -10.0417L10.6638 -9.88455L2.34146 -4.73948Z" stroke="#FF5500"/>
<path d="M19.11 -5.3303L18.8813 -5.18888L18.8732 -4.92007L18.5786 4.85982L18.5696 5.15849L18.8283 5.30789L26.8561 9.94271L27.1149 10.0921L27.369 9.93498L35.6914 4.78992L35.9201 4.6485L35.9282 4.37968L36.2228 -5.40021L36.2318 -5.69888L35.973 -5.84828L27.9453 -10.4831L27.6865 -10.6325L27.4323 -10.4754L19.11 -5.3303Z" stroke="#FF5500"/>
<path d="M-17.4989 86.534L-17.7276 86.6754L-17.7357 86.9442L-18.0303 96.7241L-18.0393 97.0227L-17.7805 97.1721L-9.7528 101.807L-9.49403 101.956L-9.23987 101.799L-0.917533 96.6542L-0.68878 96.5128L-0.680683 96.2439L-0.386093 86.4641L-0.377097 86.1654L-0.635866 86.016L-8.66361 81.3812L-8.92238 81.2318L-9.17654 81.3889L-17.4989 86.534Z" stroke="#FF5500"/>
<path d="M-0.728367 85.9431L-0.957119 86.0846L-0.965217 86.3534L-1.25981 96.1333L-1.2688 96.4319L-1.01003 96.5813L7.01771 101.216L7.27648 101.366L7.53064 101.208L15.853 96.0634L16.0817 95.9219L16.0898 95.6531L16.3844 85.8732L16.3934 85.5746L16.1346 85.4252L8.1069 80.7903L7.84813 80.6409L7.59397 80.7981L-0.728367 85.9431Z" stroke="#FF5500"/>
<path d="M-8.60239 71.1248L-8.83114 71.2662L-8.83924 71.535L-9.13383 81.3149L-9.14283 81.6136L-8.88406 81.763L-0.856311 86.3978L-0.597541 86.5472L-0.343387 86.3901L7.97895 81.245L8.2077 81.1036L8.2158 80.8348L8.51039 71.0549L8.51939 70.7562L8.26062 70.6068L0.232871 65.972L-0.0258982 65.8226L-0.280053 65.9797L-8.60239 71.1248Z" stroke="#FF5500"/>
<path d="M-16.4764 56.3064L-16.7052 56.4478L-16.7133 56.7166L-17.0079 66.4965L-17.0169 66.7952L-16.7581 66.9446L-8.73034 71.5794L-8.47157 71.7288L-8.21741 71.5717L0.104925 66.4266L0.333677 66.2852L0.341774 66.0164L0.636366 56.2365L0.645362 55.9378L0.386592 55.7884L-7.64115 51.1536L-7.89992 51.0042L-8.15408 51.1613L-16.4764 56.3064Z" stroke="#FF5500"/>
<path d="M8.16763 70.534L7.93888 70.6754L7.93078 70.9442L7.63619 80.7241L7.62719 81.0227L7.88596 81.1721L15.9137 85.807L16.1725 85.9564L16.4266 85.7992L24.749 80.6542L24.9777 80.5128L24.9858 80.2439L25.2804 70.4641L25.2894 70.1654L25.0306 70.016L17.0029 65.3812L16.7441 65.2318L16.49 65.3889L8.16763 70.534Z" stroke="#FF5500"/>
<path d="M24.9381 69.9431L24.7094 70.0846L24.7013 70.3534L24.4067 80.1333L24.3977 80.4319L24.6565 80.5813L32.6842 85.2161L32.943 85.3655L33.1971 85.2084L41.5195 80.0634L41.7482 79.9219L41.7563 79.6531L42.0509 69.8732L42.0599 69.5746L41.8011 69.4252L33.7734 64.7903L33.5146 64.6409L33.2605 64.7981L24.9381 69.9431Z" stroke="#FF5500"/>
<path d="M0.293606 55.7156L0.0648535 55.857L0.056756 56.1258L-0.237835 65.9057L-0.246831 66.2044L0.0119384 66.3538L8.03969 70.9886L8.29845 71.138L8.55261 70.9809L16.8749 65.8358L17.1037 65.6944L17.1118 65.4256L17.4064 55.6457L17.4154 55.347L17.1566 55.1976L9.12887 50.5628L8.8701 50.4134L8.61594 50.5705L0.293606 55.7156Z" stroke="#FF5500"/>
<path d="M17.0641 55.1248L16.8354 55.2662L16.8273 55.535L16.5327 65.3149L16.5237 65.6136L16.7824 65.763L24.8102 70.3978L25.069 70.5472L25.3231 70.3901L33.6455 65.245L33.8742 65.1036L33.8823 64.8348L34.1769 55.0549L34.1859 54.7562L33.9271 54.6068L25.8994 49.972L25.6406 49.8226L25.3865 49.9797L17.0641 55.1248Z" stroke="#FF5500"/>
<path d="M-7.57944 40.8972L-7.80819 41.0387L-7.81629 41.3075L-8.11088 51.0874L-8.11988 51.386L-7.86111 51.5354L0.166636 56.1702L0.425406 56.3196L0.67956 56.1625L9.0019 51.0175L9.23065 50.876L9.23875 50.6072L9.53334 40.8273L9.54233 40.5287L9.28356 40.3793L1.25582 35.7444L0.99705 35.595L0.742896 35.7522L-7.57944 40.8972Z" stroke="#FF5500"/>
<path d="M9.19058 40.3064L8.96183 40.4478L8.95373 40.7166L8.65914 50.4965L8.65014 50.7952L8.90891 50.9446L16.9367 55.5794L17.1954 55.7288L17.4496 55.5717L25.7719 50.4266L26.0007 50.2852L26.0088 50.0164L26.3034 40.2365L26.3124 39.9378L26.0536 39.7884L18.0258 35.1536L17.7671 35.0042L17.5129 35.1613L9.19058 40.3064Z" stroke="#FF5500"/>
<path d="M-15.452 26.0789L-15.6808 26.2203L-15.6888 26.4891L-15.9834 36.269L-15.9924 36.5677L-15.7337 36.7171L-7.70592 41.3519L-7.44715 41.5013L-7.193 41.3442L1.12934 36.1991L1.35809 36.0577L1.36619 35.7889L1.66078 26.009L1.66978 25.7103L1.41101 25.5609L-6.61674 20.9261L-6.87551 20.7767L-7.12966 20.9338L-15.452 26.0789Z" stroke="#FF5500"/>
<path d="M1.31655 25.4871L1.0878 25.6285L1.07971 25.8973L0.785114 35.6772L0.776117 35.9759L1.03489 36.1253L9.06263 40.7601L9.3214 40.9095L9.57556 40.7524L17.8979 35.6073L18.1266 35.4659L18.1347 35.1971L18.4293 25.4172L18.4383 25.1185L18.1796 24.9691L10.1518 20.3343L9.89305 20.1849L9.63889 20.342L1.31655 25.4871Z" stroke="#FF5500"/>
<path d="M-6.55552 10.6697L-6.78427 10.8111L-6.79236 11.0799L-7.08696 20.8598L-7.09595 21.1585L-6.83718 21.3079L1.19056 25.9427L1.44933 26.0921L1.70349 25.935L10.0258 20.7899L10.2546 20.6485L10.2627 20.3797L10.5573 10.5998L10.5663 10.3011L10.3075 10.1517L2.27975 5.5169L2.02098 5.3675L1.76682 5.52463L-6.55552 10.6697Z" stroke="#FF5500"/>
<path d="M-14.4291 -4.14866L-14.6578 -4.00724L-14.6659 -3.73843L-14.9605 6.04146L-14.9695 6.34013L-14.7107 6.48953L-6.68297 11.1243L-6.4242 11.2737L-6.17005 11.1166L2.15229 5.97156L2.38104 5.83014L2.38914 5.56132L2.68373 -4.21857L2.69273 -4.51723L2.43396 -4.66664L-5.59379 -9.30146L-5.85256 -9.45086L-6.10671 -9.29373L-14.4291 -4.14866Z" stroke="#FF5500"/>
<path d="M18.0871 24.8972L17.8583 25.0387L17.8502 25.3075L17.5556 35.0874L17.5466 35.386L17.8054 35.5354L25.8331 40.1702L26.0919 40.3196L26.3461 40.1625L34.6684 35.0175L34.8972 34.876L34.9053 34.6072L35.1998 24.8273L35.2088 24.5287L34.9501 24.3793L26.9223 19.7444L26.6636 19.595L26.4094 19.7522L18.0871 24.8972Z" stroke="#FF5500"/>
<path d="M34.8571 24.3064L34.6283 24.4478L34.6202 24.7166L34.3256 34.4965L34.3166 34.7952L34.5754 34.9446L42.6032 39.5794L42.8619 39.7288L43.1161 39.5717L51.4384 34.4266L51.6672 34.2852L51.6753 34.0164L51.9699 24.2365L51.9789 23.9378L51.7201 23.7884L43.6923 19.1536L43.4336 19.0042L43.1794 19.1613L34.8571 24.3064Z" stroke="#FF5500"/>
<path d="M10.2135 10.0789L9.98478 10.2203L9.97668 10.4891L9.68209 20.269L9.67309 20.5677L9.93186 20.7171L17.9596 25.3519L18.2184 25.5013L18.4725 25.3442L26.7949 20.1991L27.0236 20.0577L27.0317 19.7889L27.3263 10.009L27.3353 9.7103L27.0765 9.5609L19.0488 4.92608L18.79 4.77668L18.5359 4.93381L10.2135 10.0789Z" stroke="#FF5500"/>
<path d="M26.9831 9.48805L26.7543 9.62947L26.7462 9.89829L26.4516 19.6782L26.4426 19.9768L26.7014 20.1262L34.7291 24.7611L34.9879 24.9105L35.2421 24.7533L43.5644 19.6083L43.7932 19.4669L43.8013 19.198L44.0958 9.41815L44.1048 9.11949L43.8461 8.97008L35.8183 4.33526L35.5596 4.18586L35.3054 4.34299L26.9831 9.48805Z" stroke="#FF5500"/>
<path d="M2.34146 -4.73948L2.11271 -4.59806L2.10461 -4.32925L1.81002 5.45064L1.80102 5.74931L2.05979 5.89871L10.0875 10.5335L10.3463 10.6829L10.6005 10.5258L18.9228 5.38074L19.1515 5.23932L19.1596 4.9705L19.4542 -4.80939L19.4632 -5.10805L19.2045 -5.25746L11.1767 -9.89228L10.9179 -10.0417L10.6638 -9.88455L2.34146 -4.73948Z" stroke="#FF5500"/>
<path d="M19.11 -5.3303L18.8813 -5.18888L18.8732 -4.92007L18.5786 4.85982L18.5696 5.15849L18.8283 5.30789L26.8561 9.94271L27.1149 10.0921L27.369 9.93498L35.6914 4.78992L35.9201 4.6485L35.9282 4.37968L36.2228 -5.40021L36.2318 -5.69888L35.973 -5.84828L27.9453 -10.4831L27.6865 -10.6325L27.4323 -10.4754L19.11 -5.3303Z" stroke="#FF5500"/>
<g filter="url(#filter42_f_133_18937)">
<path d="M-15.4564 86.3525L-15.6979 86.4958L-15.7012 86.7765L-15.8189 96.6586L-15.8224 96.9512L-15.5689 97.0976L-7.18726 101.937L-6.93381 102.083L-6.68212 101.934L1.81717 96.8908L2.05866 96.7475L2.062 96.4667L2.17963 86.5847L2.18312 86.2921L1.92967 86.1457L-6.45199 81.3066L-6.70544 81.1602L-6.95713 81.3096L-15.4564 86.3525Z" stroke="#FF9900"/>
<path d="M1.85706 86.0751L1.61557 86.2184L1.61223 86.4992L1.49459 96.3812L1.49111 96.6739L1.74456 96.8202L10.1262 101.659L10.3797 101.806L10.6314 101.656L19.1306 96.6135L19.3721 96.4702L19.3755 96.1894L19.4931 86.3073L19.4966 86.0147L19.2431 85.8684L10.8615 81.0292L10.608 80.8829L10.3564 81.0322L1.85706 86.0751Z" stroke="#FF9900"/>
<path d="M-6.55994 70.9433L-6.80142 71.0866L-6.80476 71.3674L-6.9224 81.2494L-6.92588 81.542L-6.67243 81.6884L1.70923 86.5275L1.96267 86.6739L2.21436 86.5245L10.7137 81.4816L10.9551 81.3383L10.9585 81.0576L11.0761 71.1755L11.0796 70.8829L10.8262 70.7365L2.4445 65.8974L2.19105 65.7511L1.93936 65.9004L-6.55994 70.9433Z" stroke="#FF9900"/>
<path d="M-14.976 55.8124L-15.2174 55.9557L-15.2208 56.2365L-15.3384 66.1186L-15.3419 66.4112L-15.0884 66.5575L-6.70679 71.3967L-6.45334 71.543L-6.20165 71.3937L2.29764 66.3508L2.53913 66.2075L2.54247 65.9267L2.6601 56.0446L2.66359 55.752L2.41014 55.6057L-5.97152 50.7665L-6.22497 50.6202L-6.47666 50.7695L-14.976 55.8124Z" stroke="#FF9900"/>
<path d="M10.7531 70.6669L10.5116 70.8102L10.5082 71.091L10.3906 80.973L10.3871 81.2657L10.6406 81.412L19.0222 86.2512L19.2757 86.3975L19.5274 86.2482L28.0266 81.2053L28.2681 81.062L28.2715 80.7812L28.3891 70.8991L28.3926 70.6065L28.1391 70.4602L19.7575 65.621L19.504 65.4747L19.2523 65.624L10.7531 70.6669Z" stroke="#FF9900"/>
<path d="M28.0665 70.3896L27.825 70.5329L27.8217 70.8136L27.7041 80.6957L27.7006 80.9883L27.954 81.1347L36.3357 85.9738L36.5891 86.1201L36.8408 85.9708L45.3401 80.9279L45.5816 80.7846L45.5849 80.5039L45.7026 70.6218L45.7061 70.3292L45.4526 70.1828L37.071 65.3437L36.8175 65.1974L36.5658 65.3467L28.0665 70.3896Z" stroke="#FF9900"/>
<path d="M2.33606 55.5341L2.09458 55.6774L2.09123 55.9582L1.9736 65.8402L1.97011 66.1329L2.22356 66.2792L10.6052 71.1183L10.8587 71.2647L11.1104 71.1153L19.6097 66.0724L19.8511 65.9292L19.8545 65.6484L19.9721 55.7663L19.9756 55.4737L19.7222 55.3274L11.3405 50.4882L11.087 50.3419L10.8354 50.4912L2.33606 55.5341Z" stroke="#FF9900"/>
<path d="M19.65 55.2568L19.4085 55.4001L19.4052 55.6808L19.2876 65.5629L19.2841 65.8555L19.5375 66.0019L27.9192 70.841L28.1726 70.9873L28.4243 70.838L36.9236 65.7951L37.1651 65.6518L37.1684 65.371L37.2861 55.489L37.2896 55.1963L37.0361 55.05L28.6545 50.2109L28.401 50.0645L28.1493 50.2139L19.65 55.2568Z" stroke="#FF9900"/>
<path d="M-6.07898 40.4033L-6.32046 40.5465L-6.32381 40.8273L-6.44144 50.7094L-6.44492 51.002L-6.19148 51.1483L2.19018 55.9875L2.44363 56.1338L2.69532 55.9845L11.1946 50.9416L11.4361 50.7983L11.4394 50.5175L11.5571 40.6355L11.5606 40.3428L11.3071 40.1965L2.92545 35.3574L2.672 35.211L2.42032 35.3604L-6.07898 40.4033Z" stroke="#FF9900"/>
<path d="M11.2325 40.1249L10.9911 40.2682L10.9877 40.549L10.8701 50.4311L10.8666 50.7237L11.12 50.87L19.5017 55.7092L19.7552 55.8555L20.0068 55.7062L28.5061 50.6633L28.7476 50.52L28.751 50.2392L28.8686 40.3571L28.8721 40.0645L28.6186 39.9182L20.237 35.079L19.9835 34.9327L19.7318 35.082L11.2325 40.1249Z" stroke="#FF9900"/>
<path d="M-14.4965 25.2704L-14.7379 25.4137L-14.7413 25.6945L-14.8589 35.5766L-14.8624 35.8692L-14.609 36.0155L-6.2273 40.8547L-5.97385 41.001L-5.72216 40.8517L2.77713 35.8088L3.01862 35.6655L3.02196 35.3847L3.13959 25.5027L3.14308 25.21L2.88963 25.0637L-5.49203 20.2245L-5.74548 20.0782L-5.99717 20.2275L-14.4965 25.2704Z" stroke="#FF9900"/>
<path d="M2.81751 24.9931L2.57602 25.1364L2.57268 25.4172L2.45504 35.2992L2.45156 35.5919L2.70501 35.7382L11.0867 40.5773L11.3401 40.7237L11.5918 40.5743L20.0911 35.5314L20.3326 35.3881L20.3359 35.1074L20.4536 25.2253L20.457 24.9327L20.2036 24.7863L11.8219 19.9472L11.5685 19.8009L11.3168 19.9502L2.81751 24.9931Z" stroke="#FF9900"/>
<path d="M-5.59949 9.86127L-5.84097 10.0045L-5.84431 10.2853L-5.96195 20.1674L-5.96543 20.46L-5.71199 20.6063L2.66967 25.4455L2.92312 25.5918L3.17481 25.4425L11.6741 20.3996L11.9156 20.2563L11.9189 19.9755L12.0366 10.0935L12.04 9.80084L11.7866 9.65451L3.40494 4.81536L3.1515 4.66903L2.89981 4.81837L-5.59949 9.86127Z" stroke="#FF9900"/>
<path d="M-14.0165 -5.27057L-14.258 -5.12729L-14.2613 -4.84651L-14.3789 5.03554L-14.3824 5.32818L-14.129 5.47451L-5.74731 10.3137L-5.49387 10.46L-5.24218 10.3107L3.25712 5.26775L3.4986 5.12447L3.50194 4.8437L3.61958 -5.03836L3.62306 -5.33099L3.36961 -5.47732L-5.01205 -10.3165L-5.26549 -10.4628L-5.51718 -10.3135L-14.0165 -5.27057Z" stroke="#FF9900"/>
<path d="M20.1295 24.7158L19.888 24.859L19.8847 25.1398L19.7671 35.0219L19.7636 35.3145L20.017 35.4608L28.3987 40.3L28.6521 40.4463L28.9038 40.297L37.4031 35.2541L37.6446 35.1108L37.6479 34.83L37.7656 24.948L37.7691 24.6553L37.5156 24.509L29.1339 19.6699L28.8805 19.5235L28.6288 19.6729L20.1295 24.7158Z" stroke="#FF9900"/>
<path d="M37.4425 24.4394L37.201 24.5827L37.1977 24.8634L37.08 34.7455L37.0766 35.0381L37.33 35.1845L45.7117 40.0236L45.9651 40.1699L46.2168 40.0206L54.7161 34.9777L54.9576 34.8344L54.9609 34.5537L55.0786 24.6716L55.082 24.379L54.8286 24.2326L46.4469 19.3935L46.1935 19.2472L45.9418 19.3965L37.4425 24.4394Z" stroke="#FF9900"/>
<path d="M11.7135 9.5849L11.472 9.72818L11.4687 10.009L11.351 19.891L11.3476 20.1836L11.601 20.33L19.9827 25.1691L20.2361 25.3155L20.4878 25.1661L28.9871 20.1232L29.2286 19.9799L29.2319 19.6992L29.3496 9.81711L29.353 9.52447L29.0996 9.37814L20.7179 4.53899L20.4645 4.39266L20.2128 4.542L11.7135 9.5849Z" stroke="#FF9900"/>
<path d="M29.0255 9.30658L28.784 9.44986L28.7807 9.73063L28.6631 19.6127L28.6596 19.9053L28.913 20.0517L37.2947 24.8908L37.5481 25.0371L37.7998 24.8878L46.2991 19.8449L46.5406 19.7016L46.5439 19.4208L46.6616 9.53879L46.6651 9.24615L46.4116 9.09982L38.0299 4.26067L37.7765 4.11434L37.5248 4.26368L29.0255 9.30658Z" stroke="#FF9900"/>
<path d="M3.29651 -5.54791L3.05502 -5.40463L3.05168 -5.12386L2.93405 4.7582L2.93056 5.05083L3.18401 5.19716L11.5657 10.0363L11.8191 10.1826L12.0708 10.0333L20.5701 4.9904L20.8116 4.84712L20.8149 4.56635L20.9326 -5.3157L20.936 -5.60834L20.6826 -5.75467L12.3009 -10.5938L12.0475 -10.7402L11.7958 -10.5908L3.29651 -5.54791Z" stroke="#FF9900"/>
<path d="M20.6105 -5.82428L20.369 -5.681L20.3656 -5.40022L20.248 4.48183L20.2445 4.77447L20.498 4.9208L28.8796 9.75995L29.1331 9.90628L29.3848 9.75694L37.8841 4.71404L38.1256 4.57076L38.1289 4.28998L38.2465 -5.59207L38.25 -5.88471L37.9966 -6.03104L29.6149 -10.8702L29.3615 -11.0165L29.1098 -10.8672L20.6105 -5.82428Z" stroke="#FF9900"/>
<path d="M-15.4564 86.3525L-15.6979 86.4958L-15.7012 86.7765L-15.8189 96.6586L-15.8224 96.9512L-15.5689 97.0976L-7.18726 101.937L-6.93381 102.083L-6.68212 101.934L1.81717 96.8908L2.05866 96.7475L2.062 96.4667L2.17963 86.5847L2.18312 86.2921L1.92967 86.1457L-6.45199 81.3066L-6.70544 81.1602L-6.95713 81.3096L-15.4564 86.3525Z" stroke="#FF9900"/>
<path d="M1.85706 86.0751L1.61557 86.2184L1.61223 86.4992L1.49459 96.3812L1.49111 96.6739L1.74456 96.8202L10.1262 101.659L10.3797 101.806L10.6314 101.656L19.1306 96.6135L19.3721 96.4702L19.3755 96.1894L19.4931 86.3073L19.4966 86.0147L19.2431 85.8684L10.8615 81.0292L10.608 80.8829L10.3564 81.0322L1.85706 86.0751Z" stroke="#FF9900"/>
<path d="M-6.55994 70.9433L-6.80142 71.0866L-6.80476 71.3674L-6.9224 81.2494L-6.92588 81.542L-6.67243 81.6884L1.70923 86.5275L1.96267 86.6739L2.21436 86.5245L10.7137 81.4816L10.9551 81.3383L10.9585 81.0576L11.0761 71.1755L11.0796 70.8829L10.8262 70.7365L2.4445 65.8974L2.19105 65.7511L1.93936 65.9004L-6.55994 70.9433Z" stroke="#FF9900"/>
<path d="M-14.976 55.8124L-15.2174 55.9557L-15.2208 56.2365L-15.3384 66.1186L-15.3419 66.4112L-15.0884 66.5575L-6.70679 71.3967L-6.45334 71.543L-6.20165 71.3937L2.29764 66.3508L2.53913 66.2075L2.54247 65.9267L2.6601 56.0446L2.66359 55.752L2.41014 55.6057L-5.97152 50.7665L-6.22497 50.6202L-6.47666 50.7695L-14.976 55.8124Z" stroke="#FF9900"/>
<path d="M10.7531 70.6669L10.5116 70.8102L10.5082 71.091L10.3906 80.973L10.3871 81.2657L10.6406 81.412L19.0222 86.2512L19.2757 86.3975L19.5274 86.2482L28.0266 81.2053L28.2681 81.062L28.2715 80.7812L28.3891 70.8991L28.3926 70.6065L28.1391 70.4602L19.7575 65.621L19.504 65.4747L19.2523 65.624L10.7531 70.6669Z" stroke="#FF9900"/>
<path d="M28.0665 70.3896L27.825 70.5329L27.8217 70.8136L27.7041 80.6957L27.7006 80.9883L27.954 81.1347L36.3357 85.9738L36.5891 86.1201L36.8408 85.9708L45.3401 80.9279L45.5816 80.7846L45.5849 80.5039L45.7026 70.6218L45.7061 70.3292L45.4526 70.1828L37.071 65.3437L36.8175 65.1974L36.5658 65.3467L28.0665 70.3896Z" stroke="#FF9900"/>
<path d="M2.33606 55.5341L2.09458 55.6774L2.09123 55.9582L1.9736 65.8402L1.97011 66.1329L2.22356 66.2792L10.6052 71.1183L10.8587 71.2647L11.1104 71.1153L19.6097 66.0724L19.8511 65.9292L19.8545 65.6484L19.9721 55.7663L19.9756 55.4737L19.7222 55.3274L11.3405 50.4882L11.087 50.3419L10.8354 50.4912L2.33606 55.5341Z" stroke="#FF9900"/>
<path d="M19.65 55.2568L19.4085 55.4001L19.4052 55.6808L19.2876 65.5629L19.2841 65.8555L19.5375 66.0019L27.9192 70.841L28.1726 70.9873L28.4243 70.838L36.9236 65.7951L37.1651 65.6518L37.1684 65.371L37.2861 55.489L37.2896 55.1963L37.0361 55.05L28.6545 50.2109L28.401 50.0645L28.1493 50.2139L19.65 55.2568Z" stroke="#FF9900"/>
<path d="M-6.07898 40.4033L-6.32046 40.5465L-6.32381 40.8273L-6.44144 50.7094L-6.44492 51.002L-6.19148 51.1483L2.19018 55.9875L2.44363 56.1338L2.69532 55.9845L11.1946 50.9416L11.4361 50.7983L11.4394 50.5175L11.5571 40.6355L11.5606 40.3428L11.3071 40.1965L2.92545 35.3574L2.672 35.211L2.42032 35.3604L-6.07898 40.4033Z" stroke="#FF9900"/>
<path d="M11.2325 40.1249L10.9911 40.2682L10.9877 40.549L10.8701 50.4311L10.8666 50.7237L11.12 50.87L19.5017 55.7092L19.7552 55.8555L20.0068 55.7062L28.5061 50.6633L28.7476 50.52L28.751 50.2392L28.8686 40.3571L28.8721 40.0645L28.6186 39.9182L20.237 35.079L19.9835 34.9327L19.7318 35.082L11.2325 40.1249Z" stroke="#FF9900"/>
<path d="M-14.4965 25.2704L-14.7379 25.4137L-14.7413 25.6945L-14.8589 35.5766L-14.8624 35.8692L-14.609 36.0155L-6.2273 40.8547L-5.97385 41.001L-5.72216 40.8517L2.77713 35.8088L3.01862 35.6655L3.02196 35.3847L3.13959 25.5027L3.14308 25.21L2.88963 25.0637L-5.49203 20.2245L-5.74548 20.0782L-5.99717 20.2275L-14.4965 25.2704Z" stroke="#FF9900"/>
<path d="M2.81751 24.9931L2.57602 25.1364L2.57268 25.4172L2.45504 35.2992L2.45156 35.5919L2.70501 35.7382L11.0867 40.5773L11.3401 40.7237L11.5918 40.5743L20.0911 35.5314L20.3326 35.3881L20.3359 35.1074L20.4536 25.2253L20.457 24.9327L20.2036 24.7863L11.8219 19.9472L11.5685 19.8009L11.3168 19.9502L2.81751 24.9931Z" stroke="#FF9900"/>
<path d="M-5.59949 9.86127L-5.84097 10.0045L-5.84431 10.2853L-5.96195 20.1674L-5.96543 20.46L-5.71199 20.6063L2.66967 25.4455L2.92312 25.5918L3.17481 25.4425L11.6741 20.3996L11.9156 20.2563L11.9189 19.9755L12.0366 10.0935L12.04 9.80084L11.7866 9.65451L3.40494 4.81536L3.1515 4.66903L2.89981 4.81837L-5.59949 9.86127Z" stroke="#FF9900"/>
<path d="M-14.0165 -5.27057L-14.258 -5.12729L-14.2613 -4.84651L-14.3789 5.03554L-14.3824 5.32818L-14.129 5.47451L-5.74731 10.3137L-5.49387 10.46L-5.24218 10.3107L3.25712 5.26775L3.4986 5.12447L3.50194 4.8437L3.61958 -5.03836L3.62306 -5.33099L3.36961 -5.47732L-5.01205 -10.3165L-5.26549 -10.4628L-5.51718 -10.3135L-14.0165 -5.27057Z" stroke="#FF9900"/>
<path d="M20.1295 24.7158L19.888 24.859L19.8847 25.1398L19.7671 35.0219L19.7636 35.3145L20.017 35.4608L28.3987 40.3L28.6521 40.4463L28.9038 40.297L37.4031 35.2541L37.6446 35.1108L37.6479 34.83L37.7656 24.948L37.7691 24.6553L37.5156 24.509L29.1339 19.6699L28.8805 19.5235L28.6288 19.6729L20.1295 24.7158Z" stroke="#FF9900"/>
<path d="M37.4425 24.4394L37.201 24.5827L37.1977 24.8634L37.08 34.7455L37.0766 35.0381L37.33 35.1845L45.7117 40.0236L45.9651 40.1699L46.2168 40.0206L54.7161 34.9777L54.9576 34.8344L54.9609 34.5537L55.0786 24.6716L55.082 24.379L54.8286 24.2326L46.4469 19.3935L46.1935 19.2472L45.9418 19.3965L37.4425 24.4394Z" stroke="#FF9900"/>
<path d="M11.7135 9.5849L11.472 9.72818L11.4687 10.009L11.351 19.891L11.3476 20.1836L11.601 20.33L19.9827 25.1691L20.2361 25.3155L20.4878 25.1661L28.9871 20.1232L29.2286 19.9799L29.2319 19.6992L29.3496 9.81711L29.353 9.52447L29.0996 9.37814L20.7179 4.53899L20.4645 4.39266L20.2128 4.542L11.7135 9.5849Z" stroke="#FF9900"/>
<path d="M29.0255 9.30658L28.784 9.44986L28.7807 9.73063L28.6631 19.6127L28.6596 19.9053L28.913 20.0517L37.2947 24.8908L37.5481 25.0371L37.7998 24.8878L46.2991 19.8449L46.5406 19.7016L46.5439 19.4208L46.6616 9.53879L46.6651 9.24615L46.4116 9.09982L38.0299 4.26067L37.7765 4.11434L37.5248 4.26368L29.0255 9.30658Z" stroke="#FF9900"/>
<path d="M3.29651 -5.54791L3.05502 -5.40463L3.05168 -5.12386L2.93405 4.7582L2.93056 5.05083L3.18401 5.19716L11.5657 10.0363L11.8191 10.1826L12.0708 10.0333L20.5701 4.9904L20.8116 4.84712L20.8149 4.56635L20.9326 -5.3157L20.936 -5.60834L20.6826 -5.75467L12.3009 -10.5938L12.0475 -10.7402L11.7958 -10.5908L3.29651 -5.54791Z" stroke="#FF9900"/>
<path d="M20.6105 -5.82428L20.369 -5.681L20.3656 -5.40022L20.248 4.48183L20.2445 4.77447L20.498 4.9208L28.8796 9.75995L29.1331 9.90628L29.3848 9.75694L37.8841 4.71404L38.1256 4.57076L38.1289 4.28998L38.2465 -5.59207L38.25 -5.88471L37.9966 -6.03104L29.6149 -10.8702L29.3615 -11.0165L29.1098 -10.8672L20.6105 -5.82428Z" stroke="#FF9900"/>
</g>
</g>
<defs>
<filter id="filter0_f_133_18937" x="-186.528" y="-141.127" width="312.463" height="312.463" filterUnits="userSpaceOnUse" color-interpolation-filters="sRGB">
<feFlood flood-opacity="0" result="BackgroundImageFix"/>
<feBlend mode="normal" in="SourceGraphic" in2="BackgroundImageFix" result="shape"/>
<feGaussianBlur stdDeviation="63" result="effect1_foregroundBlur_133_18937"/>
</filter>
<filter id="filter1_f_133_18937" x="-120.864" y="-34.5801" width="151.117" height="137.641" filterUnits="userSpaceOnUse" color-interpolation-filters="sRGB">
<feFlood flood-opacity="0" result="BackgroundImageFix"/>
<feBlend mode="normal" in="SourceGraphic" in2="BackgroundImageFix" result="shape"/>
<feGaussianBlur stdDeviation="2.5" result="effect1_foregroundBlur_133_18937"/>
</filter>
<filter id="filter2_f_133_18937" x="-22.4365" y="78.501" width="22.5361" height="24.5596" filterUnits="userSpaceOnUse" color-interpolation-filters="sRGB">
<feFlood flood-opacity="0" result="BackgroundImageFix"/>
<feBlend mode="normal" in="SourceGraphic" in2="BackgroundImageFix" result="shape"/>
<feGaussianBlur stdDeviation="2.5" result="effect1_foregroundBlur_133_18937"/>
</filter>
<filter id="filter3_f_133_18937" x="-10.688" y="78.3193" width="22.5361" height="24.5596" filterUnits="userSpaceOnUse" color-interpolation-filters="sRGB">
<feFlood flood-opacity="0" result="BackgroundImageFix"/>
<feBlend mode="normal" in="SourceGraphic" in2="BackgroundImageFix" result="shape"/>
<feGaussianBlur stdDeviation="2.5" result="effect1_foregroundBlur_133_18937"/>
</filter>
<filter id="filter4_f_133_18937" x="-16.4058" y="68.0547" width="22.5361" height="24.5596" filterUnits="userSpaceOnUse" color-interpolation-filters="sRGB">
<feFlood flood-opacity="0" result="BackgroundImageFix"/>
<feBlend mode="normal" in="SourceGraphic" in2="BackgroundImageFix" result="shape"/>
<feGaussianBlur stdDeviation="2.5" result="effect1_foregroundBlur_133_18937"/>
</filter>
<filter id="filter5_f_133_18937" x="-22.1211" y="57.792" width="22.5361" height="24.5596" filterUnits="userSpaceOnUse" color-interpolation-filters="sRGB">
<feFlood flood-opacity="0" result="BackgroundImageFix"/>
<feBlend mode="normal" in="SourceGraphic" in2="BackgroundImageFix" result="shape"/>
<feGaussianBlur stdDeviation="2.5" result="effect1_foregroundBlur_133_18937"/>
</filter>
<filter id="filter6_f_133_18937" x="-10.3755" y="57.6104" width="22.5361" height="24.5596" filterUnits="userSpaceOnUse" color-interpolation-filters="sRGB">
<feFlood flood-opacity="0" result="BackgroundImageFix"/>
<feBlend mode="normal" in="SourceGraphic" in2="BackgroundImageFix" result="shape"/>
<feGaussianBlur stdDeviation="2.5" result="effect1_foregroundBlur_133_18937"/>
</filter>
<filter id="filter7_f_133_18937" x="1.37305" y="57.4287" width="22.5361" height="24.5596" filterUnits="userSpaceOnUse" color-interpolation-filters="sRGB">
<feFlood flood-opacity="0" result="BackgroundImageFix"/>
<feBlend mode="normal" in="SourceGraphic" in2="BackgroundImageFix" result="shape"/>
<feGaussianBlur stdDeviation="2.5" result="effect1_foregroundBlur_133_18937"/>
</filter>
<filter id="filter8_f_133_18937" x="-16.0908" y="47.3457" width="22.5361" height="24.5596" filterUnits="userSpaceOnUse" color-interpolation-filters="sRGB">
<feFlood flood-opacity="0" result="BackgroundImageFix"/>
<feBlend mode="normal" in="SourceGraphic" in2="BackgroundImageFix" result="shape"/>
<feGaussianBlur stdDeviation="2.5" result="effect1_foregroundBlur_133_18937"/>
</filter>
<filter id="filter9_f_133_18937" x="-4.34473" y="47.1641" width="22.5361" height="24.5596" filterUnits="userSpaceOnUse" color-interpolation-filters="sRGB">
<feFlood flood-opacity="0" result="BackgroundImageFix"/>
<feBlend mode="normal" in="SourceGraphic" in2="BackgroundImageFix" result="shape"/>
<feGaussianBlur stdDeviation="2.5" result="effect1_foregroundBlur_133_18937"/>
</filter>
<filter id="filter10_f_133_18937" x="-21.8062" y="37.083" width="22.5361" height="24.5596" filterUnits="userSpaceOnUse" color-interpolation-filters="sRGB">
<feFlood flood-opacity="0" result="BackgroundImageFix"/>
<feBlend mode="normal" in="SourceGraphic" in2="BackgroundImageFix" result="shape"/>
<feGaussianBlur stdDeviation="2.5" result="effect1_foregroundBlur_133_18937"/>
</filter>
<filter id="filter11_f_133_18937" x="-10.0601" y="36.9014" width="22.5361" height="24.5596" filterUnits="userSpaceOnUse" color-interpolation-filters="sRGB">
<feFlood flood-opacity="0" result="BackgroundImageFix"/>
<feBlend mode="normal" in="SourceGraphic" in2="BackgroundImageFix" result="shape"/>
<feGaussianBlur stdDeviation="2.5" result="effect1_foregroundBlur_133_18937"/>
</filter>
<filter id="filter12_f_133_18937" x="-15.7759" y="26.6377" width="22.5361" height="24.5596" filterUnits="userSpaceOnUse" color-interpolation-filters="sRGB">
<feFlood flood-opacity="0" result="BackgroundImageFix"/>
<feBlend mode="normal" in="SourceGraphic" in2="BackgroundImageFix" result="shape"/>
<feGaussianBlur stdDeviation="2.5" result="effect1_foregroundBlur_133_18937"/>
</filter>
<filter id="filter13_f_133_18937" x="-21.4912" y="16.374" width="22.5361" height="24.5596" filterUnits="userSpaceOnUse" color-interpolation-filters="sRGB">
<feFlood flood-opacity="0" result="BackgroundImageFix"/>
<feBlend mode="normal" in="SourceGraphic" in2="BackgroundImageFix" result="shape"/>
<feGaussianBlur stdDeviation="2.5" result="effect1_foregroundBlur_133_18937"/>
</filter>
<filter id="filter14_f_133_18937" x="-4.0293" y="26.4551" width="22.5361" height="24.5596" filterUnits="userSpaceOnUse" color-interpolation-filters="sRGB">
<feFlood flood-opacity="0" result="BackgroundImageFix"/>
<feBlend mode="normal" in="SourceGraphic" in2="BackgroundImageFix" result="shape"/>
<feGaussianBlur stdDeviation="2.5" result="effect1_foregroundBlur_133_18937"/>
</filter>
<filter id="filter15_f_133_18937" x="7.71729" y="26.2734" width="22.5361" height="24.5596" filterUnits="userSpaceOnUse" color-interpolation-filters="sRGB">
<feFlood flood-opacity="0" result="BackgroundImageFix"/>
<feBlend mode="normal" in="SourceGraphic" in2="BackgroundImageFix" result="shape"/>
<feGaussianBlur stdDeviation="2.5" result="effect1_foregroundBlur_133_18937"/>
</filter>
<filter id="filter16_f_133_18937" x="-9.74512" y="16.1924" width="22.5361" height="24.5596" filterUnits="userSpaceOnUse" color-interpolation-filters="sRGB">
<feFlood flood-opacity="0" result="BackgroundImageFix"/>
<feBlend mode="normal" in="SourceGraphic" in2="BackgroundImageFix" result="shape"/>
<feGaussianBlur stdDeviation="2.5" result="effect1_foregroundBlur_133_18937"/>
</filter>
<filter id="filter17_f_133_18937" x="2.00098" y="16.0107" width="22.5361" height="24.5596" filterUnits="userSpaceOnUse" color-interpolation-filters="sRGB">
<feFlood flood-opacity="0" result="BackgroundImageFix"/>
<feBlend mode="normal" in="SourceGraphic" in2="BackgroundImageFix" result="shape"/>
<feGaussianBlur stdDeviation="2.5" result="effect1_foregroundBlur_133_18937"/>
</filter>
<filter id="filter18_f_133_18937" x="-15.4609" y="5.92871" width="22.5361" height="24.5596" filterUnits="userSpaceOnUse" color-interpolation-filters="sRGB">
<feFlood flood-opacity="0" result="BackgroundImageFix"/>
<feBlend mode="normal" in="SourceGraphic" in2="BackgroundImageFix" result="shape"/>
<feGaussianBlur stdDeviation="2.5" result="effect1_foregroundBlur_133_18937"/>
</filter>
<filter id="filter19_f_133_18937" x="-3.71484" y="5.74707" width="22.5361" height="24.5596" filterUnits="userSpaceOnUse" color-interpolation-filters="sRGB">
<feFlood flood-opacity="0" result="BackgroundImageFix"/>
<feBlend mode="normal" in="SourceGraphic" in2="BackgroundImageFix" result="shape"/>
<feGaussianBlur stdDeviation="2.5" result="effect1_foregroundBlur_133_18937"/>
</filter>
<filter id="filter20_f_133_18937" x="-21.1768" y="-4.33496" width="22.5361" height="24.5596" filterUnits="userSpaceOnUse" color-interpolation-filters="sRGB">
<feFlood flood-opacity="0" result="BackgroundImageFix"/>
<feBlend mode="normal" in="SourceGraphic" in2="BackgroundImageFix" result="shape"/>
<feGaussianBlur stdDeviation="2.5" result="effect1_foregroundBlur_133_18937"/>
</filter>
<filter id="filter21_f_133_18937" x="-9.43018" y="-4.5166" width="22.5361" height="24.5596" filterUnits="userSpaceOnUse" color-interpolation-filters="sRGB">
<feFlood flood-opacity="0" result="BackgroundImageFix"/>
<feBlend mode="normal" in="SourceGraphic" in2="BackgroundImageFix" result="shape"/>
<feGaussianBlur stdDeviation="2.5" result="effect1_foregroundBlur_133_18937"/>
</filter>
<filter id="filter22_f_133_18937" x="-22.4365" y="78.501" width="22.5361" height="24.5596" filterUnits="userSpaceOnUse" color-interpolation-filters="sRGB">
<feFlood flood-opacity="0" result="BackgroundImageFix"/>
<feBlend mode="normal" in="SourceGraphic" in2="BackgroundImageFix" result="shape"/>
<feGaussianBlur stdDeviation="2.5" result="effect1_foregroundBlur_133_18937"/>
</filter>
<filter id="filter23_f_133_18937" x="-10.688" y="78.3193" width="22.5361" height="24.5596" filterUnits="userSpaceOnUse" color-interpolation-filters="sRGB">
<feFlood flood-opacity="0" result="BackgroundImageFix"/>
<feBlend mode="normal" in="SourceGraphic" in2="BackgroundImageFix" result="shape"/>
<feGaussianBlur stdDeviation="2.5" result="effect1_foregroundBlur_133_18937"/>
</filter>
<filter id="filter24_f_133_18937" x="-16.4058" y="68.0547" width="22.5361" height="24.5596" filterUnits="userSpaceOnUse" color-interpolation-filters="sRGB">
<feFlood flood-opacity="0" result="BackgroundImageFix"/>
<feBlend mode="normal" in="SourceGraphic" in2="BackgroundImageFix" result="shape"/>
<feGaussianBlur stdDeviation="2.5" result="effect1_foregroundBlur_133_18937"/>
</filter>
<filter id="filter25_f_133_18937" x="-22.1211" y="57.792" width="22.5361" height="24.5596" filterUnits="userSpaceOnUse" color-interpolation-filters="sRGB">
<feFlood flood-opacity="0" result="BackgroundImageFix"/>
<feBlend mode="normal" in="SourceGraphic" in2="BackgroundImageFix" result="shape"/>
<feGaussianBlur stdDeviation="2.5" result="effect1_foregroundBlur_133_18937"/>
</filter>
<filter id="filter26_f_133_18937" x="-10.3755" y="57.6104" width="22.5361" height="24.5596" filterUnits="userSpaceOnUse" color-interpolation-filters="sRGB">
<feFlood flood-opacity="0" result="BackgroundImageFix"/>
<feBlend mode="normal" in="SourceGraphic" in2="BackgroundImageFix" result="shape"/>
<feGaussianBlur stdDeviation="2.5" result="effect1_foregroundBlur_133_18937"/>
</filter>
<filter id="filter27_f_133_18937" x="1.37305" y="57.4287" width="22.5361" height="24.5596" filterUnits="userSpaceOnUse" color-interpolation-filters="sRGB">
<feFlood flood-opacity="0" result="BackgroundImageFix"/>
<feBlend mode="normal" in="SourceGraphic" in2="BackgroundImageFix" result="shape"/>
<feGaussianBlur stdDeviation="2.5" result="effect1_foregroundBlur_133_18937"/>
</filter>
<filter id="filter28_f_133_18937" x="-16.0908" y="47.3457" width="22.5361" height="24.5596" filterUnits="userSpaceOnUse" color-interpolation-filters="sRGB">
<feFlood flood-opacity="0" result="BackgroundImageFix"/>
<feBlend mode="normal" in="SourceGraphic" in2="BackgroundImageFix" result="shape"/>
<feGaussianBlur stdDeviation="2.5" result="effect1_foregroundBlur_133_18937"/>
</filter>
<filter id="filter29_f_133_18937" x="-4.34473" y="47.1641" width="22.5361" height="24.5596" filterUnits="userSpaceOnUse" color-interpolation-filters="sRGB">
<feFlood flood-opacity="0" result="BackgroundImageFix"/>
<feBlend mode="normal" in="SourceGraphic" in2="BackgroundImageFix" result="shape"/>
<feGaussianBlur stdDeviation="2.5" result="effect1_foregroundBlur_133_18937"/>
</filter>
<filter id="filter30_f_133_18937" x="-21.8062" y="37.083" width="22.5361" height="24.5596" filterUnits="userSpaceOnUse" color-interpolation-filters="sRGB">
<feFlood flood-opacity="0" result="BackgroundImageFix"/>
<feBlend mode="normal" in="SourceGraphic" in2="BackgroundImageFix" result="shape"/>
<feGaussianBlur stdDeviation="2.5" result="effect1_foregroundBlur_133_18937"/>
</filter>
<filter id="filter31_f_133_18937" x="-10.0601" y="36.9014" width="22.5361" height="24.5596" filterUnits="userSpaceOnUse" color-interpolation-filters="sRGB">
<feFlood flood-opacity="0" result="BackgroundImageFix"/>
<feBlend mode="normal" in="SourceGraphic" in2="BackgroundImageFix" result="shape"/>
<feGaussianBlur stdDeviation="2.5" result="effect1_foregroundBlur_133_18937"/>
</filter>
<filter id="filter32_f_133_18937" x="-15.7759" y="26.6377" width="22.5361" height="24.5596" filterUnits="userSpaceOnUse" color-interpolation-filters="sRGB">
<feFlood flood-opacity="0" result="BackgroundImageFix"/>
<feBlend mode="normal" in="SourceGraphic" in2="BackgroundImageFix" result="shape"/>
<feGaussianBlur stdDeviation="2.5" result="effect1_foregroundBlur_133_18937"/>
</filter>
<filter id="filter33_f_133_18937" x="-21.4912" y="16.374" width="22.5361" height="24.5596" filterUnits="userSpaceOnUse" color-interpolation-filters="sRGB">
<feFlood flood-opacity="0" result="BackgroundImageFix"/>
<feBlend mode="normal" in="SourceGraphic" in2="BackgroundImageFix" result="shape"/>
<feGaussianBlur stdDeviation="2.5" result="effect1_foregroundBlur_133_18937"/>
</filter>
<filter id="filter34_f_133_18937" x="-4.0293" y="26.4551" width="22.5361" height="24.5596" filterUnits="userSpaceOnUse" color-interpolation-filters="sRGB">
<feFlood flood-opacity="0" result="BackgroundImageFix"/>
<feBlend mode="normal" in="SourceGraphic" in2="BackgroundImageFix" result="shape"/>
<feGaussianBlur stdDeviation="2.5" result="effect1_foregroundBlur_133_18937"/>
</filter>
<filter id="filter35_f_133_18937" x="7.71729" y="26.2734" width="22.5361" height="24.5596" filterUnits="userSpaceOnUse" color-interpolation-filters="sRGB">
<feFlood flood-opacity="0" result="BackgroundImageFix"/>
<feBlend mode="normal" in="SourceGraphic" in2="BackgroundImageFix" result="shape"/>
<feGaussianBlur stdDeviation="2.5" result="effect1_foregroundBlur_133_18937"/>
</filter>
<filter id="filter36_f_133_18937" x="-9.74512" y="16.1924" width="22.5361" height="24.5596" filterUnits="userSpaceOnUse" color-interpolation-filters="sRGB">
<feFlood flood-opacity="0" result="BackgroundImageFix"/>
<feBlend mode="normal" in="SourceGraphic" in2="BackgroundImageFix" result="shape"/>
<feGaussianBlur stdDeviation="2.5" result="effect1_foregroundBlur_133_18937"/>
</filter>
<filter id="filter37_f_133_18937" x="2.00098" y="16.0107" width="22.5361" height="24.5596" filterUnits="userSpaceOnUse" color-interpolation-filters="sRGB">
<feFlood flood-opacity="0" result="BackgroundImageFix"/>
<feBlend mode="normal" in="SourceGraphic" in2="BackgroundImageFix" result="shape"/>
<feGaussianBlur stdDeviation="2.5" result="effect1_foregroundBlur_133_18937"/>
</filter>
<filter id="filter38_f_133_18937" x="-15.4609" y="5.92871" width="22.5361" height="24.5596" filterUnits="userSpaceOnUse" color-interpolation-filters="sRGB">
<feFlood flood-opacity="0" result="BackgroundImageFix"/>
<feBlend mode="normal" in="SourceGraphic" in2="BackgroundImageFix" result="shape"/>
<feGaussianBlur stdDeviation="2.5" result="effect1_foregroundBlur_133_18937"/>
</filter>
<filter id="filter39_f_133_18937" x="-3.71484" y="5.74707" width="22.5361" height="24.5596" filterUnits="userSpaceOnUse" color-interpolation-filters="sRGB">
<feFlood flood-opacity="0" result="BackgroundImageFix"/>
<feBlend mode="normal" in="SourceGraphic" in2="BackgroundImageFix" result="shape"/>
<feGaussianBlur stdDeviation="2.5" result="effect1_foregroundBlur_133_18937"/>
</filter>
<filter id="filter40_f_133_18937" x="-21.1768" y="-4.33496" width="22.5361" height="24.5596" filterUnits="userSpaceOnUse" color-interpolation-filters="sRGB">
<feFlood flood-opacity="0" result="BackgroundImageFix"/>
<feBlend mode="normal" in="SourceGraphic" in2="BackgroundImageFix" result="shape"/>
<feGaussianBlur stdDeviation="2.5" result="effect1_foregroundBlur_133_18937"/>
</filter>
<filter id="filter41_f_133_18937" x="-9.43018" y="-4.5166" width="22.5361" height="24.5596" filterUnits="userSpaceOnUse" color-interpolation-filters="sRGB">
<feFlood flood-opacity="0" result="BackgroundImageFix"/>
<feBlend mode="normal" in="SourceGraphic" in2="BackgroundImageFix" result="shape"/>
<feGaussianBlur stdDeviation="2.5" result="effect1_foregroundBlur_133_18937"/>
</filter>
<filter id="filter42_f_133_18937" x="-158.911" y="-77.0166" width="220.496" height="185.679" filterUnits="userSpaceOnUse" color-interpolation-filters="sRGB">
<feFlood flood-opacity="0" result="BackgroundImageFix"/>
<feBlend mode="normal" in="SourceGraphic" in2="BackgroundImageFix" result="shape"/>
<feGaussianBlur stdDeviation="3" result="effect1_foregroundBlur_133_18937"/>
</filter>
</defs>
</svg>
