<svg width="96" height="212" viewBox="0 0 96 212" fill="none" xmlns="http://www.w3.org/2000/svg">
<mask id="mask0_129_2050" style="mask-type:alpha" maskUnits="userSpaceOnUse" x="0" y="0" width="165" height="212">
<rect x="0.5" y="0.5" width="163.081" height="210.499" fill="#D9D9D9" stroke="black"/>
</mask>
<g mask="url(#mask0_129_2050)">
<g filter="url(#filter0_f_129_2050)">
<circle cx="137.309" cy="104.98" r="30.2264" fill="#FB5C02"/>
</g>
<g filter="url(#filter1_f_129_2050)">
<g filter="url(#filter2_f_129_2050)">
<path d="M92.0549 61.9935L92.0825 61.9445L92.0549 61.8955L87.6111 53.992L87.5824 53.941L87.5239 53.941L78.6362 53.941L78.5777 53.941L78.5491 53.992L74.1052 61.8955L74.0777 61.9445L74.1052 61.9935L78.5491 69.897L78.5777 69.948L78.6362 69.948L87.5239 69.948L87.5824 69.948L87.6111 69.897L92.0549 61.9935Z" stroke="#00FDFF" stroke-opacity="0.95" stroke-width="0.2"/>
</g>
<g filter="url(#filter3_f_129_2050)">
<path d="M78.4114 70.1546L78.4389 70.1056L78.4114 70.0566L73.9675 62.1532L73.9389 62.1022L73.8804 62.1022L64.9927 62.1022L64.9342 62.1022L64.9055 62.1532L60.4617 70.0566L60.4341 70.1056L60.4617 70.1546L64.9055 78.0581L64.9342 78.1091L64.9927 78.1091L73.8804 78.1091L73.9389 78.1091L73.9675 78.0581L78.4114 70.1546Z" stroke="#00FDFF" stroke-opacity="0.95" stroke-width="0.2"/>
</g>
<g filter="url(#filter4_f_129_2050)">
<path d="M105.697 70.1546L105.724 70.1056L105.697 70.0566L101.253 62.1532L101.224 62.1022L101.166 62.1022L92.2778 62.1022L92.2193 62.1022L92.1907 62.1532L87.7468 70.0566L87.7193 70.1056L87.7468 70.1546L92.1907 78.0581L92.2193 78.1091L92.2778 78.1091L101.166 78.1091L101.224 78.1091L101.253 78.0581L105.697 70.1546Z" stroke="#00FDFF" stroke-opacity="0.95" stroke-width="0.2"/>
</g>
<g filter="url(#filter5_f_129_2050)">
<path d="M92.0549 78.3138L92.0825 78.2648L92.0549 78.2158L87.6111 70.3123L87.5824 70.2613L87.5239 70.2613L78.6362 70.2613L78.5777 70.2613L78.5491 70.3123L74.1052 78.2158L74.0777 78.2648L74.1052 78.3138L78.5491 86.2173L78.5777 86.2683L78.6362 86.2683L87.5239 86.2683L87.5824 86.2683L87.6111 86.2173L92.0549 78.3138Z" stroke="#00FDFF" stroke-opacity="0.95" stroke-width="0.2"/>
</g>
<g filter="url(#filter6_f_129_2050)">
<path d="M105.697 86.473L105.724 86.424L105.697 86.375L101.253 78.4715L101.224 78.4205L101.166 78.4205L92.2778 78.4205L92.2193 78.4205L92.1907 78.4715L87.7468 86.375L87.7193 86.424L87.7468 86.473L92.1907 94.3765L92.2193 94.4275L92.2778 94.4275L101.166 94.4275L101.224 94.4275L101.253 94.3765L105.697 86.473Z" stroke="#00FDFF" stroke-opacity="0.95" stroke-width="0.2"/>
</g>
<g filter="url(#filter7_f_129_2050)">
<path d="M92.0549 94.6332L92.0825 94.5841L92.0549 94.5351L87.6111 86.6317L87.5824 86.5807L87.5239 86.5807L78.6362 86.5807L78.5777 86.5807L78.5491 86.6317L74.1052 94.5351L74.0777 94.5841L74.1052 94.6332L78.5491 102.537L78.5777 102.588L78.6362 102.588L87.5239 102.588L87.5824 102.588L87.6111 102.537L92.0549 94.6332Z" stroke="#00FDFF" stroke-opacity="0.95" stroke-width="0.2"/>
</g>
<g filter="url(#filter8_f_129_2050)">
<path d="M78.4114 102.793L78.4389 102.744L78.4114 102.695L73.9675 94.7918L73.9389 94.7408L73.8804 94.7408L64.9927 94.7408L64.9342 94.7408L64.9055 94.7918L60.4617 102.695L60.4341 102.744L60.4617 102.793L64.9055 110.697L64.9342 110.748L64.9927 110.748L73.8804 110.748L73.9389 110.748L73.9675 110.697L78.4114 102.793Z" stroke="#00FDFF" stroke-opacity="0.95" stroke-width="0.2"/>
</g>
<g filter="url(#filter9_f_129_2050)">
<path d="M105.697 102.793L105.724 102.744L105.697 102.695L101.253 94.7918L101.224 94.7408L101.166 94.7408L92.2778 94.7408L92.2193 94.7408L92.1907 94.7918L87.7468 102.695L87.7193 102.744L87.7468 102.793L92.1907 110.697L92.2193 110.748L92.2778 110.748L101.166 110.748L101.224 110.748L101.253 110.697L105.697 102.793Z" stroke="#00FDFF" stroke-opacity="0.95" stroke-width="0.2"/>
</g>
<g filter="url(#filter10_f_129_2050)">
<path d="M92.0549 110.953L92.0825 110.904L92.0549 110.855L87.6111 102.952L87.5824 102.901L87.5239 102.901L78.6362 102.901L78.5777 102.901L78.5491 102.952L74.1052 110.855L74.0777 110.904L74.1052 110.953L78.5491 118.857L78.5777 118.908L78.6362 118.908L87.5239 118.908L87.5824 118.908L87.6111 118.857L92.0549 110.953Z" stroke="#00FDFF" stroke-opacity="0.95" stroke-width="0.2"/>
</g>
<g filter="url(#filter11_f_129_2050)">
<path d="M105.697 119.113L105.724 119.064L105.697 119.015L101.253 111.111L101.224 111.06L101.166 111.06L92.2778 111.06L92.2193 111.06L92.1907 111.111L87.7468 119.015L87.7193 119.064L87.7468 119.113L92.1907 127.016L92.2193 127.067L92.2778 127.067L101.166 127.067L101.224 127.067L101.253 127.016L105.697 119.113Z" stroke="#00FDFF" stroke-opacity="0.95" stroke-width="0.2"/>
</g>
<g filter="url(#filter12_f_129_2050)">
<path d="M105.697 135.433L105.724 135.384L105.697 135.335L101.253 127.431L101.224 127.38L101.166 127.38L92.2778 127.38L92.2193 127.38L92.1907 127.431L87.7468 135.335L87.7193 135.384L87.7468 135.433L92.1907 143.336L92.2193 143.387L92.2778 143.387L101.166 143.387L101.224 143.387L101.253 143.336L105.697 135.433Z" stroke="#00FDFF" stroke-opacity="0.95" stroke-width="0.2"/>
</g>
<g filter="url(#filter13_f_129_2050)">
<path d="M92.0549 143.593L92.0825 143.544L92.0549 143.495L87.6111 135.592L87.5824 135.541L87.5239 135.541L78.6362 135.541L78.5777 135.541L78.5491 135.592L74.1052 143.495L74.0777 143.544L74.1052 143.593L78.5491 151.497L78.5777 151.548L78.6362 151.548L87.5239 151.548L87.5824 151.548L87.6111 151.497L92.0549 143.593Z" stroke="#00FDFF" stroke-opacity="0.95" stroke-width="0.2"/>
</g>
<g filter="url(#filter14_f_129_2050)">
<path d="M105.697 151.752L105.724 151.703L105.697 151.654L101.253 143.751L101.224 143.7L101.166 143.7L92.2778 143.7L92.2193 143.7L92.1907 143.751L87.7468 151.654L87.7193 151.703L87.7468 151.752L92.1907 159.656L92.2193 159.707L92.2778 159.707L101.166 159.707L101.224 159.707L101.253 159.656L105.697 151.752Z" stroke="#00FDFF" stroke-opacity="0.95" stroke-width="0.2"/>
</g>
<g filter="url(#filter15_f_129_2050)">
<path d="M92.0549 61.9935L92.0825 61.9445L92.0549 61.8955L87.6111 53.992L87.5824 53.941L87.5239 53.941L78.6362 53.941L78.5777 53.941L78.5491 53.992L74.1052 61.8955L74.0777 61.9445L74.1052 61.9935L78.5491 69.897L78.5777 69.948L78.6362 69.948L87.5239 69.948L87.5824 69.948L87.6111 69.897L92.0549 61.9935Z" stroke="#00FDFF" stroke-opacity="0.95" stroke-width="0.2"/>
</g>
<g filter="url(#filter16_f_129_2050)">
<path d="M78.4114 70.1546L78.4389 70.1056L78.4114 70.0566L73.9675 62.1532L73.9389 62.1022L73.8804 62.1022L64.9927 62.1022L64.9342 62.1022L64.9055 62.1532L60.4617 70.0566L60.4341 70.1056L60.4617 70.1546L64.9055 78.0581L64.9342 78.1091L64.9927 78.1091L73.8804 78.1091L73.9389 78.1091L73.9675 78.0581L78.4114 70.1546Z" stroke="#00FDFF" stroke-opacity="0.95" stroke-width="0.2"/>
</g>
<g filter="url(#filter17_f_129_2050)">
<path d="M105.697 70.1546L105.724 70.1056L105.697 70.0566L101.253 62.1532L101.224 62.1022L101.166 62.1022L92.2778 62.1022L92.2193 62.1022L92.1907 62.1532L87.7468 70.0566L87.7193 70.1056L87.7468 70.1546L92.1907 78.0581L92.2193 78.1091L92.2778 78.1091L101.166 78.1091L101.224 78.1091L101.253 78.0581L105.697 70.1546Z" stroke="#00FDFF" stroke-opacity="0.95" stroke-width="0.2"/>
</g>
<g filter="url(#filter18_f_129_2050)">
<path d="M92.0549 78.3138L92.0825 78.2648L92.0549 78.2158L87.6111 70.3123L87.5824 70.2613L87.5239 70.2613L78.6362 70.2613L78.5777 70.2613L78.5491 70.3123L74.1052 78.2158L74.0777 78.2648L74.1052 78.3138L78.5491 86.2173L78.5777 86.2683L78.6362 86.2683L87.5239 86.2683L87.5824 86.2683L87.6111 86.2173L92.0549 78.3138Z" stroke="#00FDFF" stroke-opacity="0.95" stroke-width="0.2"/>
</g>
<g filter="url(#filter19_f_129_2050)">
<path d="M105.697 86.473L105.724 86.424L105.697 86.375L101.253 78.4715L101.224 78.4205L101.166 78.4205L92.2778 78.4205L92.2193 78.4205L92.1907 78.4715L87.7468 86.375L87.7193 86.424L87.7468 86.473L92.1907 94.3765L92.2193 94.4275L92.2778 94.4275L101.166 94.4275L101.224 94.4275L101.253 94.3765L105.697 86.473Z" stroke="#00FDFF" stroke-opacity="0.95" stroke-width="0.2"/>
</g>
<g filter="url(#filter20_f_129_2050)">
<path d="M92.0549 94.6332L92.0825 94.5841L92.0549 94.5351L87.6111 86.6317L87.5824 86.5807L87.5239 86.5807L78.6362 86.5807L78.5777 86.5807L78.5491 86.6317L74.1052 94.5351L74.0777 94.5841L74.1052 94.6332L78.5491 102.537L78.5777 102.588L78.6362 102.588L87.5239 102.588L87.5824 102.588L87.6111 102.537L92.0549 94.6332Z" stroke="#00FDFF" stroke-opacity="0.95" stroke-width="0.2"/>
</g>
<g filter="url(#filter21_f_129_2050)">
<path d="M78.4114 102.793L78.4389 102.744L78.4114 102.695L73.9675 94.7918L73.9389 94.7408L73.8804 94.7408L64.9927 94.7408L64.9342 94.7408L64.9055 94.7918L60.4617 102.695L60.4341 102.744L60.4617 102.793L64.9055 110.697L64.9342 110.748L64.9927 110.748L73.8804 110.748L73.9389 110.748L73.9675 110.697L78.4114 102.793Z" stroke="#00FDFF" stroke-opacity="0.95" stroke-width="0.2"/>
</g>
<g filter="url(#filter22_f_129_2050)">
<path d="M105.697 102.793L105.724 102.744L105.697 102.695L101.253 94.7918L101.224 94.7408L101.166 94.7408L92.2778 94.7408L92.2193 94.7408L92.1907 94.7918L87.7468 102.695L87.7193 102.744L87.7468 102.793L92.1907 110.697L92.2193 110.748L92.2778 110.748L101.166 110.748L101.224 110.748L101.253 110.697L105.697 102.793Z" stroke="#00FDFF" stroke-opacity="0.95" stroke-width="0.2"/>
</g>
<g filter="url(#filter23_f_129_2050)">
<path d="M92.0549 110.953L92.0825 110.904L92.0549 110.855L87.6111 102.952L87.5824 102.901L87.5239 102.901L78.6362 102.901L78.5777 102.901L78.5491 102.952L74.1052 110.855L74.0777 110.904L74.1052 110.953L78.5491 118.857L78.5777 118.908L78.6362 118.908L87.5239 118.908L87.5824 118.908L87.6111 118.857L92.0549 110.953Z" stroke="#00FDFF" stroke-opacity="0.95" stroke-width="0.2"/>
</g>
<g filter="url(#filter24_f_129_2050)">
<path d="M105.697 119.113L105.724 119.064L105.697 119.015L101.253 111.111L101.224 111.06L101.166 111.06L92.2778 111.06L92.2193 111.06L92.1907 111.111L87.7468 119.015L87.7193 119.064L87.7468 119.113L92.1907 127.016L92.2193 127.067L92.2778 127.067L101.166 127.067L101.224 127.067L101.253 127.016L105.697 119.113Z" stroke="#00FDFF" stroke-opacity="0.95" stroke-width="0.2"/>
</g>
<g filter="url(#filter25_f_129_2050)">
<path d="M105.697 135.433L105.724 135.384L105.697 135.335L101.253 127.431L101.224 127.38L101.166 127.38L92.2778 127.38L92.2193 127.38L92.1907 127.431L87.7468 135.335L87.7193 135.384L87.7468 135.433L92.1907 143.336L92.2193 143.387L92.2778 143.387L101.166 143.387L101.224 143.387L101.253 143.336L105.697 135.433Z" stroke="#00FDFF" stroke-opacity="0.95" stroke-width="0.2"/>
</g>
<g filter="url(#filter26_f_129_2050)">
<path d="M92.0549 143.593L92.0825 143.544L92.0549 143.495L87.6111 135.592L87.5824 135.541L87.5239 135.541L78.6362 135.541L78.5777 135.541L78.5491 135.592L74.1052 143.495L74.0777 143.544L74.1052 143.593L78.5491 151.497L78.5777 151.548L78.6362 151.548L87.5239 151.548L87.5824 151.548L87.6111 151.497L92.0549 143.593Z" stroke="#00FDFF" stroke-opacity="0.95" stroke-width="0.2"/>
</g>
<g filter="url(#filter27_f_129_2050)">
<path d="M105.697 151.752L105.724 151.703L105.697 151.654L101.253 143.751L101.224 143.7L101.166 143.7L92.2778 143.7L92.2193 143.7L92.1907 143.751L87.7468 151.654L87.7193 151.703L87.7468 151.752L92.1907 159.656L92.2193 159.707L92.2778 159.707L101.166 159.707L101.224 159.707L101.253 159.656L105.697 151.752Z" stroke="#00FDFF" stroke-opacity="0.95" stroke-width="0.2"/>
</g>
</g>
<path d="M90.3815 49.4478L90.4707 49.282L90.3815 49.1162L85.7467 40.4993L85.6476 40.3151L85.4384 40.3151L76.1688 40.3151L75.9596 40.3151L75.8605 40.4993L71.2257 49.1162L71.1365 49.282L71.2257 49.4478L75.8605 58.0647L75.9596 58.2489L76.1688 58.2489L85.4384 58.2489L85.6476 58.2489L85.7467 58.0647L90.3815 49.4478Z" stroke="#FF5500" stroke-width="0.7"/>
<path d="M76.153 58.3443L76.2421 58.1785L76.153 58.0127L71.5181 49.3958L71.4191 49.2116L71.2099 49.2116L61.9403 49.2116L61.7311 49.2116L61.632 49.3958L56.9972 58.0127L56.908 58.1785L56.9972 58.3443L61.632 66.9612L61.7311 67.1454L61.9403 67.1454L71.2099 67.1454L71.4191 67.1454L71.5181 66.9612L76.153 58.3443Z" stroke="#FF5500" stroke-width="0.7"/>
<path d="M104.609 58.3443L104.698 58.1785L104.609 58.0127L99.9742 49.3958L99.8751 49.2116L99.666 49.2116L90.3963 49.2116L90.1872 49.2116L90.0881 49.3958L85.4533 58.0127L85.3641 58.1785L85.4533 58.3443L90.0881 66.9612L90.1872 67.1454L90.3963 67.1454L99.666 67.1454L99.8751 67.1454L99.9742 66.9612L104.609 58.3443Z" stroke="#FF5500" stroke-width="0.7"/>
<path d="M90.3815 67.2408L90.4707 67.075L90.3815 66.9092L85.7467 58.2922L85.6476 58.108L85.4384 58.108L76.1688 58.108L75.9596 58.108L75.8605 58.2922L71.2257 66.9092L71.1365 67.075L71.2257 67.2408L75.8605 75.8577L75.9596 76.0419L76.1688 76.0419L85.4384 76.0419L85.6476 76.0419L85.7467 75.8577L90.3815 67.2408Z" stroke="#FF5500" stroke-width="0.7"/>
<path d="M104.609 76.1373L104.698 75.9715L104.609 75.8057L99.9742 67.1887L99.8751 67.0045L99.666 67.0045L90.3963 67.0045L90.1872 67.0045L90.0881 67.1887L85.4533 75.8057L85.3641 75.9715L85.4533 76.1373L90.0881 84.7542L90.1872 84.9384L90.3963 84.9384L99.666 84.9384L99.8751 84.9384L99.9742 84.7542L104.609 76.1373Z" stroke="#FF5500" stroke-width="0.7"/>
<path d="M76.153 76.1373L76.2421 75.9715L76.153 75.8057L71.5181 67.1887L71.4191 67.0045L71.2099 67.0045L61.9403 67.0045L61.7311 67.0045L61.632 67.1887L56.9972 75.8057L56.908 75.9715L56.9972 76.1373L61.632 84.7542L61.7311 84.9384L61.9403 84.9384L71.2099 84.9384L71.4191 84.9384L71.5181 84.7542L76.153 76.1373Z" stroke="#FF5500" stroke-width="0.7"/>
<path d="M61.9245 85.0337L62.0136 84.8679L61.9245 84.7021L57.2896 76.0852L57.1906 75.901L56.9814 75.901L47.7117 75.901L47.5026 75.901L47.4035 76.0852L42.7687 84.7021L42.6795 84.8679L42.7687 85.0337L47.4035 93.6507L47.5026 93.8349L47.7117 93.8349L56.9814 93.8349L57.1906 93.8349L57.2896 93.6507L61.9245 85.0337Z" stroke="#FF5500" stroke-width="0.7"/>
<path d="M90.3815 85.0337L90.4707 84.8679L90.3815 84.7021L85.7467 76.0852L85.6476 75.901L85.4384 75.901L76.1688 75.901L75.9596 75.901L75.8605 76.0852L71.2257 84.7021L71.1365 84.8679L71.2257 85.0337L75.8605 93.6507L75.9596 93.8349L76.1688 93.8349L85.4384 93.8349L85.6476 93.8349L85.7467 93.6507L90.3815 85.0337Z" stroke="#FF5500" stroke-width="0.7"/>
<path d="M76.153 93.9302L76.2421 93.7644L76.153 93.5986L71.5181 84.9817L71.4191 84.7975L71.2099 84.7975L61.9403 84.7975L61.7311 84.7975L61.632 84.9817L56.9972 93.5986L56.908 93.7644L56.9972 93.9302L61.632 102.547L61.7311 102.731L61.9403 102.731L71.2099 102.731L71.4191 102.731L71.5181 102.547L76.153 93.9302Z" stroke="#FF5500" stroke-width="0.7"/>
<path d="M104.609 93.9302L104.698 93.7644L104.609 93.5986L99.9742 84.9817L99.8751 84.7975L99.666 84.7975L90.3963 84.7975L90.1872 84.7975L90.0881 84.9817L85.4533 93.5986L85.3641 93.7644L85.4533 93.9302L90.0881 102.547L90.1872 102.731L90.3963 102.731L99.666 102.731L99.8751 102.731L99.9742 102.547L104.609 93.9302Z" stroke="#FF5500" stroke-width="0.7"/>
<path d="M90.3815 102.827L90.4707 102.661L90.3815 102.495L85.7467 93.8782L85.6476 93.694L85.4384 93.694L76.1688 93.694L75.9596 93.694L75.8605 93.8782L71.2257 102.495L71.1365 102.661L71.2257 102.827L75.8605 111.444L75.9596 111.628L76.1688 111.628L85.4384 111.628L85.6476 111.628L85.7467 111.444L90.3815 102.827Z" stroke="#FF5500" stroke-width="0.7"/>
<path d="M104.609 111.723L104.698 111.557L104.609 111.392L99.9742 102.775L99.8751 102.59L99.666 102.59L90.3963 102.59L90.1872 102.59L90.0881 102.775L85.4533 111.392L85.3641 111.557L85.4533 111.723L90.0881 120.34L90.1872 120.524L90.3963 120.524L99.666 120.524L99.8751 120.524L99.9742 120.34L104.609 111.723Z" stroke="#FF5500" stroke-width="0.7"/>
<path d="M90.3815 120.62L90.4707 120.454L90.3815 120.288L85.7467 111.671L85.6476 111.487L85.4384 111.487L76.1688 111.487L75.9596 111.487L75.8605 111.671L71.2257 120.288L71.1365 120.454L71.2257 120.62L75.8605 129.237L75.9596 129.421L76.1688 129.421L85.4384 129.421L85.6476 129.421L85.7467 129.237L90.3815 120.62Z" stroke="#FF5500" stroke-width="0.7"/>
<path d="M76.153 129.515L76.2421 129.349L76.153 129.184L71.5181 120.567L71.4191 120.382L71.2099 120.382L61.9403 120.382L61.7311 120.382L61.632 120.567L56.9972 129.184L56.908 129.349L56.9972 129.515L61.632 138.132L61.7311 138.316L61.9403 138.316L71.2099 138.316L71.4191 138.316L71.5181 138.132L76.153 129.515Z" stroke="#FF5500" stroke-width="0.7"/>
<path d="M104.609 129.515L104.698 129.349L104.609 129.184L99.9742 120.567L99.8751 120.382L99.666 120.382L90.3963 120.382L90.1872 120.382L90.0881 120.567L85.4533 129.184L85.3641 129.349L85.4533 129.515L90.0881 138.132L90.1872 138.316L90.3963 138.316L99.666 138.316L99.8751 138.316L99.9742 138.132L104.609 129.515Z" stroke="#FF5500" stroke-width="0.7"/>
<path d="M90.3815 138.412L90.4707 138.246L90.3815 138.08L85.7467 129.463L85.6476 129.279L85.4384 129.279L76.1688 129.279L75.9596 129.279L75.8605 129.463L71.2257 138.08L71.1365 138.246L71.2257 138.412L75.8605 147.029L75.9596 147.213L76.1688 147.213L85.4384 147.213L85.6476 147.213L85.7467 147.029L90.3815 138.412Z" stroke="#FF5500" stroke-width="0.7"/>
<path d="M104.609 147.308L104.698 147.142L104.609 146.977L99.9742 138.36L99.8751 138.175L99.666 138.175L90.3963 138.175L90.1872 138.175L90.0881 138.36L85.4533 146.977L85.3641 147.142L85.4533 147.308L90.0881 155.925L90.1872 156.109L90.3963 156.109L99.666 156.109L99.8751 156.109L99.9742 155.925L104.609 147.308Z" stroke="#FF5500" stroke-width="0.7"/>
<path d="M90.3815 49.4478L90.4707 49.282L90.3815 49.1162L85.7467 40.4993L85.6476 40.3151L85.4384 40.3151L76.1688 40.3151L75.9596 40.3151L75.8605 40.4993L71.2257 49.1162L71.1365 49.282L71.2257 49.4478L75.8605 58.0647L75.9596 58.2489L76.1688 58.2489L85.4384 58.2489L85.6476 58.2489L85.7467 58.0647L90.3815 49.4478Z" stroke="#FF5500" stroke-width="0.7"/>
<path d="M76.153 58.3443L76.2421 58.1785L76.153 58.0127L71.5181 49.3958L71.4191 49.2116L71.2099 49.2116L61.9403 49.2116L61.7311 49.2116L61.632 49.3958L56.9972 58.0127L56.908 58.1785L56.9972 58.3443L61.632 66.9612L61.7311 67.1454L61.9403 67.1454L71.2099 67.1454L71.4191 67.1454L71.5181 66.9612L76.153 58.3443Z" stroke="#FF5500" stroke-width="0.7"/>
<path d="M104.609 58.3443L104.698 58.1785L104.609 58.0127L99.9742 49.3958L99.8751 49.2116L99.666 49.2116L90.3963 49.2116L90.1872 49.2116L90.0881 49.3958L85.4533 58.0127L85.3641 58.1785L85.4533 58.3443L90.0881 66.9612L90.1872 67.1454L90.3963 67.1454L99.666 67.1454L99.8751 67.1454L99.9742 66.9612L104.609 58.3443Z" stroke="#FF5500" stroke-width="0.7"/>
<path d="M90.3815 67.2408L90.4707 67.075L90.3815 66.9092L85.7467 58.2922L85.6476 58.108L85.4384 58.108L76.1688 58.108L75.9596 58.108L75.8605 58.2922L71.2257 66.9092L71.1365 67.075L71.2257 67.2408L75.8605 75.8577L75.9596 76.0419L76.1688 76.0419L85.4384 76.0419L85.6476 76.0419L85.7467 75.8577L90.3815 67.2408Z" stroke="#FF5500" stroke-width="0.7"/>
<path d="M104.609 76.1373L104.698 75.9715L104.609 75.8057L99.9742 67.1887L99.8751 67.0045L99.666 67.0045L90.3963 67.0045L90.1872 67.0045L90.0881 67.1887L85.4533 75.8057L85.3641 75.9715L85.4533 76.1373L90.0881 84.7542L90.1872 84.9384L90.3963 84.9384L99.666 84.9384L99.8751 84.9384L99.9742 84.7542L104.609 76.1373Z" stroke="#FF5500" stroke-width="0.7"/>
<path d="M76.153 76.1373L76.2421 75.9715L76.153 75.8057L71.5181 67.1887L71.4191 67.0045L71.2099 67.0045L61.9403 67.0045L61.7311 67.0045L61.632 67.1887L56.9972 75.8057L56.908 75.9715L56.9972 76.1373L61.632 84.7542L61.7311 84.9384L61.9403 84.9384L71.2099 84.9384L71.4191 84.9384L71.5181 84.7542L76.153 76.1373Z" stroke="#FF5500" stroke-width="0.7"/>
<path d="M61.9245 85.0337L62.0136 84.8679L61.9245 84.7021L57.2896 76.0852L57.1906 75.901L56.9814 75.901L47.7117 75.901L47.5026 75.901L47.4035 76.0852L42.7687 84.7021L42.6795 84.8679L42.7687 85.0337L47.4035 93.6507L47.5026 93.8349L47.7117 93.8349L56.9814 93.8349L57.1906 93.8349L57.2896 93.6507L61.9245 85.0337Z" stroke="#FF5500" stroke-width="0.7"/>
<path d="M90.3815 85.0337L90.4707 84.8679L90.3815 84.7021L85.7467 76.0852L85.6476 75.901L85.4384 75.901L76.1688 75.901L75.9596 75.901L75.8605 76.0852L71.2257 84.7021L71.1365 84.8679L71.2257 85.0337L75.8605 93.6507L75.9596 93.8349L76.1688 93.8349L85.4384 93.8349L85.6476 93.8349L85.7467 93.6507L90.3815 85.0337Z" stroke="#FF5500" stroke-width="0.7"/>
<path d="M76.153 93.9302L76.2421 93.7644L76.153 93.5986L71.5181 84.9817L71.4191 84.7975L71.2099 84.7975L61.9403 84.7975L61.7311 84.7975L61.632 84.9817L56.9972 93.5986L56.908 93.7644L56.9972 93.9302L61.632 102.547L61.7311 102.731L61.9403 102.731L71.2099 102.731L71.4191 102.731L71.5181 102.547L76.153 93.9302Z" stroke="#FF5500" stroke-width="0.7"/>
<path d="M104.609 93.9302L104.698 93.7644L104.609 93.5986L99.9742 84.9817L99.8751 84.7975L99.666 84.7975L90.3963 84.7975L90.1872 84.7975L90.0881 84.9817L85.4533 93.5986L85.3641 93.7644L85.4533 93.9302L90.0881 102.547L90.1872 102.731L90.3963 102.731L99.666 102.731L99.8751 102.731L99.9742 102.547L104.609 93.9302Z" stroke="#FF5500" stroke-width="0.7"/>
<path d="M90.3815 102.827L90.4707 102.661L90.3815 102.495L85.7467 93.8782L85.6476 93.694L85.4384 93.694L76.1688 93.694L75.9596 93.694L75.8605 93.8782L71.2257 102.495L71.1365 102.661L71.2257 102.827L75.8605 111.444L75.9596 111.628L76.1688 111.628L85.4384 111.628L85.6476 111.628L85.7467 111.444L90.3815 102.827Z" stroke="#FF5500" stroke-width="0.7"/>
<path d="M104.609 111.723L104.698 111.557L104.609 111.392L99.9742 102.775L99.8751 102.59L99.666 102.59L90.3963 102.59L90.1872 102.59L90.0881 102.775L85.4533 111.392L85.3641 111.557L85.4533 111.723L90.0881 120.34L90.1872 120.524L90.3963 120.524L99.666 120.524L99.8751 120.524L99.9742 120.34L104.609 111.723Z" stroke="#FF5500" stroke-width="0.7"/>
<path d="M90.3815 120.62L90.4707 120.454L90.3815 120.288L85.7467 111.671L85.6476 111.487L85.4384 111.487L76.1688 111.487L75.9596 111.487L75.8605 111.671L71.2257 120.288L71.1365 120.454L71.2257 120.62L75.8605 129.237L75.9596 129.421L76.1688 129.421L85.4384 129.421L85.6476 129.421L85.7467 129.237L90.3815 120.62Z" stroke="#FF5500" stroke-width="0.7"/>
<path d="M76.153 129.515L76.2421 129.349L76.153 129.184L71.5181 120.567L71.4191 120.382L71.2099 120.382L61.9403 120.382L61.7311 120.382L61.632 120.567L56.9972 129.184L56.908 129.349L56.9972 129.515L61.632 138.132L61.7311 138.316L61.9403 138.316L71.2099 138.316L71.4191 138.316L71.5181 138.132L76.153 129.515Z" stroke="#FF5500" stroke-width="0.7"/>
<path d="M104.609 129.515L104.698 129.349L104.609 129.184L99.9742 120.567L99.8751 120.382L99.666 120.382L90.3963 120.382L90.1872 120.382L90.0881 120.567L85.4533 129.184L85.3641 129.349L85.4533 129.515L90.0881 138.132L90.1872 138.316L90.3963 138.316L99.666 138.316L99.8751 138.316L99.9742 138.132L104.609 129.515Z" stroke="#FF5500" stroke-width="0.7"/>
<path d="M90.3815 138.412L90.4707 138.246L90.3815 138.08L85.7467 129.463L85.6476 129.279L85.4384 129.279L76.1688 129.279L75.9596 129.279L75.8605 129.463L71.2257 138.08L71.1365 138.246L71.2257 138.412L75.8605 147.029L75.9596 147.213L76.1688 147.213L85.4384 147.213L85.6476 147.213L85.7467 147.029L90.3815 138.412Z" stroke="#FF5500" stroke-width="0.7"/>
<path d="M104.609 147.308L104.698 147.142L104.609 146.977L99.9742 138.36L99.8751 138.175L99.666 138.175L90.3963 138.175L90.1872 138.175L90.0881 138.36L85.4533 146.977L85.3641 147.142L85.4533 147.308L90.0881 155.925L90.1872 156.109L90.3963 156.109L99.666 156.109L99.8751 156.109L99.9742 155.925L104.609 147.308Z" stroke="#FF5500" stroke-width="0.7"/>
<g filter="url(#filter28_f_129_2050)">
<path d="M88.7036 50.6233L88.7999 50.4519L88.7036 50.2805L83.8645 41.6636L83.7641 41.485L83.5593 41.485L73.881 41.485L73.6761 41.485L73.5758 41.6636L68.7367 50.2805L68.6404 50.4519L68.7367 50.6233L73.5758 59.2402L73.6761 59.4189L73.881 59.4189L83.5593 59.4189L83.7641 59.4189L83.8645 59.2402L88.7036 50.6233Z" stroke="#FF9900" stroke-width="0.7"/>
<path d="M73.8481 59.5198L73.9444 59.3484L73.8481 59.177L69.009 50.5601L68.9087 50.3815L68.7038 50.3815L59.0255 50.3815L58.8207 50.3815L58.7203 50.5601L53.8812 59.177L53.7849 59.3484L53.8812 59.5198L58.7203 68.1367L58.8207 68.3153L59.0255 68.3153L68.7038 68.3153L68.9087 68.3153L69.009 68.1367L73.8481 59.5198Z" stroke="#FF9900" stroke-width="0.7"/>
<path d="M103.557 59.5198L103.653 59.3484L103.557 59.177L98.718 50.5601L98.6177 50.3815L98.4128 50.3815L88.7345 50.3815L88.5296 50.3815L88.4293 50.5601L83.5902 59.177L83.4939 59.3484L83.5902 59.5198L88.4293 68.1367L88.5296 68.3153L88.7345 68.3153L98.4128 68.3153L98.6177 68.3153L98.718 68.1367L103.557 59.5198Z" stroke="#FF9900" stroke-width="0.7"/>
<path d="M88.7036 68.4163L88.7999 68.2449L88.7036 68.0735L83.8645 59.4566L83.7641 59.278L83.5593 59.278L73.881 59.278L73.6761 59.278L73.5758 59.4566L68.7367 68.0735L68.6404 68.2449L68.7367 68.4163L73.5758 77.0332L73.6761 77.2118L73.881 77.2118L83.5593 77.2118L83.7641 77.2118L83.8645 77.0332L88.7036 68.4163Z" stroke="#FF9900" stroke-width="0.7"/>
<path d="M103.557 77.3128L103.653 77.1414L103.557 76.97L98.718 68.3531L98.6177 68.1745L98.4128 68.1745L88.7345 68.1744L88.5296 68.1744L88.4293 68.3531L83.5902 76.97L83.4939 77.1414L83.5902 77.3128L88.4293 85.9297L88.5296 86.1083L88.7345 86.1083L98.4128 86.1083L98.6177 86.1083L98.718 85.9297L103.557 77.3128Z" stroke="#FF9900" stroke-width="0.7"/>
<path d="M73.8481 77.3128L73.9444 77.1414L73.8481 76.97L69.009 68.3531L68.9087 68.1745L68.7038 68.1745L59.0255 68.1744L58.8207 68.1744L58.7203 68.3531L53.8812 76.97L53.7849 77.1414L53.8812 77.3128L58.7203 85.9297L58.8207 86.1083L59.0255 86.1083L68.7038 86.1083L68.9087 86.1083L69.009 85.9297L73.8481 77.3128Z" stroke="#FF9900" stroke-width="0.7"/>
<path d="M58.9927 86.2092L59.0889 86.0379L58.9927 85.8665L54.1535 77.2496L54.0532 77.0709L53.8483 77.0709L44.17 77.0709L43.9652 77.0709L43.8649 77.2496L39.0257 85.8665L38.9295 86.0379L39.0257 86.2092L43.8649 94.8262L43.9652 95.0048L44.17 95.0048L53.8483 95.0048L54.0532 95.0048L54.1535 94.8262L58.9927 86.2092Z" stroke="#FF9900" stroke-width="0.7"/>
<path d="M88.7036 86.2092L88.7999 86.0379L88.7036 85.8665L83.8645 77.2496L83.7641 77.0709L83.5593 77.0709L73.881 77.0709L73.6761 77.0709L73.5758 77.2496L68.7367 85.8665L68.6404 86.0379L68.7367 86.2092L73.5758 94.8262L73.6761 95.0048L73.881 95.0048L83.5593 95.0048L83.7641 95.0048L83.8645 94.8262L88.7036 86.2092Z" stroke="#FF9900" stroke-width="0.7"/>
<path d="M73.8481 95.1057L73.9444 94.9343L73.8481 94.763L69.009 86.146L68.9087 85.9674L68.7038 85.9674L59.0255 85.9674L58.8207 85.9674L58.7203 86.146L53.8812 94.763L53.7849 94.9343L53.8812 95.1057L58.7203 103.723L58.8207 103.901L59.0255 103.901L68.7038 103.901L68.9087 103.901L69.009 103.723L73.8481 95.1057Z" stroke="#FF9900" stroke-width="0.7"/>
<path d="M103.557 95.1057L103.653 94.9343L103.557 94.763L98.718 86.146L98.6177 85.9674L98.4128 85.9674L88.7345 85.9674L88.5296 85.9674L88.4293 86.146L83.5902 94.763L83.4939 94.9343L83.5902 95.1057L88.4293 103.723L88.5296 103.901L88.7345 103.901L98.4128 103.901L98.6177 103.901L98.718 103.723L103.557 95.1057Z" stroke="#FF9900" stroke-width="0.7"/>
<path d="M88.7036 104.002L88.7999 103.831L88.7036 103.659L83.8645 95.0425L83.7641 94.8639L83.5593 94.8639L73.881 94.8639L73.6761 94.8639L73.5758 95.0425L68.7367 103.659L68.6404 103.831L68.7367 104.002L73.5758 112.619L73.6761 112.798L73.881 112.798L83.5593 112.798L83.7641 112.798L83.8645 112.619L88.7036 104.002Z" stroke="#FF9900" stroke-width="0.7"/>
<path d="M103.557 112.898L103.653 112.726L103.557 112.555L98.718 103.938L98.6177 103.759L98.4128 103.759L88.7345 103.759L88.5296 103.759L88.4293 103.938L83.5902 112.555L83.4939 112.726L83.5902 112.898L88.4293 121.515L88.5296 121.693L88.7345 121.693L98.4128 121.693L98.6177 121.693L98.718 121.515L103.557 112.898Z" stroke="#FF9900" stroke-width="0.7"/>
<path d="M88.7036 121.795L88.7999 121.624L88.7036 121.452L83.8645 112.835L83.7641 112.657L83.5593 112.657L73.881 112.657L73.6761 112.657L73.5758 112.835L68.7367 121.452L68.6404 121.624L68.7367 121.795L73.5758 130.412L73.6761 130.591L73.881 130.591L83.5593 130.591L83.7641 130.591L83.8645 130.412L88.7036 121.795Z" stroke="#FF9900" stroke-width="0.7"/>
<path d="M73.8481 130.692L73.9444 130.52L73.8481 130.349L69.009 121.732L68.9087 121.553L68.7038 121.553L59.0255 121.553L58.8207 121.553L58.7203 121.732L53.8812 130.349L53.7849 130.52L53.8812 130.692L58.7203 139.309L58.8207 139.487L59.0255 139.487L68.7038 139.487L68.9087 139.487L69.009 139.309L73.8481 130.692Z" stroke="#FF9900" stroke-width="0.7"/>
<path d="M103.557 130.692L103.653 130.52L103.557 130.349L98.718 121.732L98.6177 121.553L98.4128 121.553L88.7345 121.553L88.5296 121.553L88.4293 121.732L83.5902 130.349L83.4939 130.52L83.5902 130.692L88.4293 139.309L88.5296 139.487L88.7345 139.487L98.4128 139.487L98.6177 139.487L98.718 139.309L103.557 130.692Z" stroke="#FF9900" stroke-width="0.7"/>
<path d="M88.7036 139.587L88.7999 139.416L88.7036 139.244L83.8645 130.627L83.7641 130.449L83.5593 130.449L73.881 130.449L73.6761 130.449L73.5758 130.627L68.7367 139.244L68.6404 139.416L68.7367 139.587L73.5758 148.204L73.6761 148.383L73.881 148.383L83.5593 148.383L83.7641 148.383L83.8645 148.204L88.7036 139.587Z" stroke="#FF9900" stroke-width="0.7"/>
<path d="M103.557 148.485L103.653 148.313L103.557 148.142L98.718 139.525L98.6177 139.346L98.4128 139.346L88.7345 139.346L88.5296 139.346L88.4293 139.525L83.5902 148.142L83.4939 148.313L83.5902 148.485L88.4293 157.102L88.5296 157.28L88.7345 157.28L98.4128 157.28L98.6177 157.28L98.718 157.102L103.557 148.485Z" stroke="#FF9900" stroke-width="0.7"/>
<path d="M88.7036 50.6233L88.7999 50.4519L88.7036 50.2805L83.8645 41.6636L83.7641 41.485L83.5593 41.485L73.881 41.485L73.6761 41.485L73.5758 41.6636L68.7367 50.2805L68.6404 50.4519L68.7367 50.6233L73.5758 59.2402L73.6761 59.4189L73.881 59.4189L83.5593 59.4189L83.7641 59.4189L83.8645 59.2402L88.7036 50.6233Z" stroke="#FF9900" stroke-width="0.7"/>
<path d="M73.8481 59.5198L73.9444 59.3484L73.8481 59.177L69.009 50.5601L68.9087 50.3815L68.7038 50.3815L59.0255 50.3815L58.8207 50.3815L58.7203 50.5601L53.8812 59.177L53.7849 59.3484L53.8812 59.5198L58.7203 68.1367L58.8207 68.3153L59.0255 68.3153L68.7038 68.3153L68.9087 68.3153L69.009 68.1367L73.8481 59.5198Z" stroke="#FF9900" stroke-width="0.7"/>
<path d="M103.557 59.5198L103.653 59.3484L103.557 59.177L98.718 50.5601L98.6177 50.3815L98.4128 50.3815L88.7345 50.3815L88.5296 50.3815L88.4293 50.5601L83.5902 59.177L83.4939 59.3484L83.5902 59.5198L88.4293 68.1367L88.5296 68.3153L88.7345 68.3153L98.4128 68.3153L98.6177 68.3153L98.718 68.1367L103.557 59.5198Z" stroke="#FF9900" stroke-width="0.7"/>
<path d="M88.7036 68.4163L88.7999 68.2449L88.7036 68.0735L83.8645 59.4566L83.7641 59.278L83.5593 59.278L73.881 59.278L73.6761 59.278L73.5758 59.4566L68.7367 68.0735L68.6404 68.2449L68.7367 68.4163L73.5758 77.0332L73.6761 77.2118L73.881 77.2118L83.5593 77.2118L83.7641 77.2118L83.8645 77.0332L88.7036 68.4163Z" stroke="#FF9900" stroke-width="0.7"/>
<path d="M103.557 77.3128L103.653 77.1414L103.557 76.97L98.718 68.3531L98.6177 68.1745L98.4128 68.1745L88.7345 68.1744L88.5296 68.1744L88.4293 68.3531L83.5902 76.97L83.4939 77.1414L83.5902 77.3128L88.4293 85.9297L88.5296 86.1083L88.7345 86.1083L98.4128 86.1083L98.6177 86.1083L98.718 85.9297L103.557 77.3128Z" stroke="#FF9900" stroke-width="0.7"/>
<path d="M73.8481 77.3128L73.9444 77.1414L73.8481 76.97L69.009 68.3531L68.9087 68.1745L68.7038 68.1745L59.0255 68.1744L58.8207 68.1744L58.7203 68.3531L53.8812 76.97L53.7849 77.1414L53.8812 77.3128L58.7203 85.9297L58.8207 86.1083L59.0255 86.1083L68.7038 86.1083L68.9087 86.1083L69.009 85.9297L73.8481 77.3128Z" stroke="#FF9900" stroke-width="0.7"/>
<path d="M58.9927 86.2092L59.0889 86.0379L58.9927 85.8665L54.1535 77.2496L54.0532 77.0709L53.8483 77.0709L44.17 77.0709L43.9652 77.0709L43.8649 77.2496L39.0257 85.8665L38.9295 86.0379L39.0257 86.2092L43.8649 94.8262L43.9652 95.0048L44.17 95.0048L53.8483 95.0048L54.0532 95.0048L54.1535 94.8262L58.9927 86.2092Z" stroke="#FF9900" stroke-width="0.7"/>
<path d="M88.7036 86.2092L88.7999 86.0379L88.7036 85.8665L83.8645 77.2496L83.7641 77.0709L83.5593 77.0709L73.881 77.0709L73.6761 77.0709L73.5758 77.2496L68.7367 85.8665L68.6404 86.0379L68.7367 86.2092L73.5758 94.8262L73.6761 95.0048L73.881 95.0048L83.5593 95.0048L83.7641 95.0048L83.8645 94.8262L88.7036 86.2092Z" stroke="#FF9900" stroke-width="0.7"/>
<path d="M73.8481 95.1057L73.9444 94.9343L73.8481 94.763L69.009 86.146L68.9087 85.9674L68.7038 85.9674L59.0255 85.9674L58.8207 85.9674L58.7203 86.146L53.8812 94.763L53.7849 94.9343L53.8812 95.1057L58.7203 103.723L58.8207 103.901L59.0255 103.901L68.7038 103.901L68.9087 103.901L69.009 103.723L73.8481 95.1057Z" stroke="#FF9900" stroke-width="0.7"/>
<path d="M103.557 95.1057L103.653 94.9343L103.557 94.763L98.718 86.146L98.6177 85.9674L98.4128 85.9674L88.7345 85.9674L88.5296 85.9674L88.4293 86.146L83.5902 94.763L83.4939 94.9343L83.5902 95.1057L88.4293 103.723L88.5296 103.901L88.7345 103.901L98.4128 103.901L98.6177 103.901L98.718 103.723L103.557 95.1057Z" stroke="#FF9900" stroke-width="0.7"/>
<path d="M88.7036 104.002L88.7999 103.831L88.7036 103.659L83.8645 95.0425L83.7641 94.8639L83.5593 94.8639L73.881 94.8639L73.6761 94.8639L73.5758 95.0425L68.7367 103.659L68.6404 103.831L68.7367 104.002L73.5758 112.619L73.6761 112.798L73.881 112.798L83.5593 112.798L83.7641 112.798L83.8645 112.619L88.7036 104.002Z" stroke="#FF9900" stroke-width="0.7"/>
<path d="M103.557 112.898L103.653 112.726L103.557 112.555L98.718 103.938L98.6177 103.759L98.4128 103.759L88.7345 103.759L88.5296 103.759L88.4293 103.938L83.5902 112.555L83.4939 112.726L83.5902 112.898L88.4293 121.515L88.5296 121.693L88.7345 121.693L98.4128 121.693L98.6177 121.693L98.718 121.515L103.557 112.898Z" stroke="#FF9900" stroke-width="0.7"/>
<path d="M88.7036 121.795L88.7999 121.624L88.7036 121.452L83.8645 112.835L83.7641 112.657L83.5593 112.657L73.881 112.657L73.6761 112.657L73.5758 112.835L68.7367 121.452L68.6404 121.624L68.7367 121.795L73.5758 130.412L73.6761 130.591L73.881 130.591L83.5593 130.591L83.7641 130.591L83.8645 130.412L88.7036 121.795Z" stroke="#FF9900" stroke-width="0.7"/>
<path d="M73.8481 130.692L73.9444 130.52L73.8481 130.349L69.009 121.732L68.9087 121.553L68.7038 121.553L59.0255 121.553L58.8207 121.553L58.7203 121.732L53.8812 130.349L53.7849 130.52L53.8812 130.692L58.7203 139.309L58.8207 139.487L59.0255 139.487L68.7038 139.487L68.9087 139.487L69.009 139.309L73.8481 130.692Z" stroke="#FF9900" stroke-width="0.7"/>
<path d="M103.557 130.692L103.653 130.52L103.557 130.349L98.718 121.732L98.6177 121.553L98.4128 121.553L88.7345 121.553L88.5296 121.553L88.4293 121.732L83.5902 130.349L83.4939 130.52L83.5902 130.692L88.4293 139.309L88.5296 139.487L88.7345 139.487L98.4128 139.487L98.6177 139.487L98.718 139.309L103.557 130.692Z" stroke="#FF9900" stroke-width="0.7"/>
<path d="M88.7036 139.587L88.7999 139.416L88.7036 139.244L83.8645 130.627L83.7641 130.449L83.5593 130.449L73.881 130.449L73.6761 130.449L73.5758 130.627L68.7367 139.244L68.6404 139.416L68.7367 139.587L73.5758 148.204L73.6761 148.383L73.881 148.383L83.5593 148.383L83.7641 148.383L83.8645 148.204L88.7036 139.587Z" stroke="#FF9900" stroke-width="0.7"/>
<path d="M103.557 148.485L103.653 148.313L103.557 148.142L98.718 139.525L98.6177 139.346L98.4128 139.346L88.7345 139.346L88.5296 139.346L88.4293 139.525L83.5902 148.142L83.4939 148.313L83.5902 148.485L88.4293 157.102L88.5296 157.28L88.7345 157.28L98.4128 157.28L98.6177 157.28L98.718 157.102L103.557 148.485Z" stroke="#FF9900" stroke-width="0.7"/>
</g>
</g>
<defs>
<filter id="filter0_f_129_2050" x="-18.917" y="-51.2461" width="312.453" height="312.453" filterUnits="userSpaceOnUse" color-interpolation-filters="sRGB">
<feFlood flood-opacity="0" result="BackgroundImageFix"/>
<feBlend mode="normal" in="SourceGraphic" in2="BackgroundImageFix" result="shape"/>
<feGaussianBlur stdDeviation="63" result="effect1_foregroundBlur_129_2050"/>
</filter>
<filter id="filter1_f_129_2050" x="59.3193" y="36.5215" width="211.218" height="140.604" filterUnits="userSpaceOnUse" color-interpolation-filters="sRGB">
<feFlood flood-opacity="0" result="BackgroundImageFix"/>
<feBlend mode="normal" in="SourceGraphic" in2="BackgroundImageFix" result="shape"/>
<feGaussianBlur stdDeviation="0.5" result="effect1_foregroundBlur_129_2050"/>
</filter>
<filter id="filter2_f_129_2050" x="68.9629" y="48.8408" width="28.2344" height="26.207" filterUnits="userSpaceOnUse" color-interpolation-filters="sRGB">
<feFlood flood-opacity="0" result="BackgroundImageFix"/>
<feBlend mode="normal" in="SourceGraphic" in2="BackgroundImageFix" result="shape"/>
<feGaussianBlur stdDeviation="2.5" result="effect1_foregroundBlur_129_2050"/>
</filter>
<filter id="filter3_f_129_2050" x="55.3193" y="57.002" width="28.2344" height="26.207" filterUnits="userSpaceOnUse" color-interpolation-filters="sRGB">
<feFlood flood-opacity="0" result="BackgroundImageFix"/>
<feBlend mode="normal" in="SourceGraphic" in2="BackgroundImageFix" result="shape"/>
<feGaussianBlur stdDeviation="2.5" result="effect1_foregroundBlur_129_2050"/>
</filter>
<filter id="filter4_f_129_2050" x="82.6045" y="57.002" width="28.2344" height="26.207" filterUnits="userSpaceOnUse" color-interpolation-filters="sRGB">
<feFlood flood-opacity="0" result="BackgroundImageFix"/>
<feBlend mode="normal" in="SourceGraphic" in2="BackgroundImageFix" result="shape"/>
<feGaussianBlur stdDeviation="2.5" result="effect1_foregroundBlur_129_2050"/>
</filter>
<filter id="filter5_f_129_2050" x="68.9629" y="65.1611" width="28.2344" height="26.207" filterUnits="userSpaceOnUse" color-interpolation-filters="sRGB">
<feFlood flood-opacity="0" result="BackgroundImageFix"/>
<feBlend mode="normal" in="SourceGraphic" in2="BackgroundImageFix" result="shape"/>
<feGaussianBlur stdDeviation="2.5" result="effect1_foregroundBlur_129_2050"/>
</filter>
<filter id="filter6_f_129_2050" x="82.6045" y="73.3203" width="28.2344" height="26.207" filterUnits="userSpaceOnUse" color-interpolation-filters="sRGB">
<feFlood flood-opacity="0" result="BackgroundImageFix"/>
<feBlend mode="normal" in="SourceGraphic" in2="BackgroundImageFix" result="shape"/>
<feGaussianBlur stdDeviation="2.5" result="effect1_foregroundBlur_129_2050"/>
</filter>
<filter id="filter7_f_129_2050" x="68.9629" y="81.4805" width="28.2344" height="26.207" filterUnits="userSpaceOnUse" color-interpolation-filters="sRGB">
<feFlood flood-opacity="0" result="BackgroundImageFix"/>
<feBlend mode="normal" in="SourceGraphic" in2="BackgroundImageFix" result="shape"/>
<feGaussianBlur stdDeviation="2.5" result="effect1_foregroundBlur_129_2050"/>
</filter>
<filter id="filter8_f_129_2050" x="55.3193" y="89.6406" width="28.2344" height="26.207" filterUnits="userSpaceOnUse" color-interpolation-filters="sRGB">
<feFlood flood-opacity="0" result="BackgroundImageFix"/>
<feBlend mode="normal" in="SourceGraphic" in2="BackgroundImageFix" result="shape"/>
<feGaussianBlur stdDeviation="2.5" result="effect1_foregroundBlur_129_2050"/>
</filter>
<filter id="filter9_f_129_2050" x="82.6045" y="89.6406" width="28.2344" height="26.207" filterUnits="userSpaceOnUse" color-interpolation-filters="sRGB">
<feFlood flood-opacity="0" result="BackgroundImageFix"/>
<feBlend mode="normal" in="SourceGraphic" in2="BackgroundImageFix" result="shape"/>
<feGaussianBlur stdDeviation="2.5" result="effect1_foregroundBlur_129_2050"/>
</filter>
<filter id="filter10_f_129_2050" x="68.9629" y="97.8008" width="28.2344" height="26.207" filterUnits="userSpaceOnUse" color-interpolation-filters="sRGB">
<feFlood flood-opacity="0" result="BackgroundImageFix"/>
<feBlend mode="normal" in="SourceGraphic" in2="BackgroundImageFix" result="shape"/>
<feGaussianBlur stdDeviation="2.5" result="effect1_foregroundBlur_129_2050"/>
</filter>
<filter id="filter11_f_129_2050" x="82.6045" y="105.96" width="28.2344" height="26.207" filterUnits="userSpaceOnUse" color-interpolation-filters="sRGB">
<feFlood flood-opacity="0" result="BackgroundImageFix"/>
<feBlend mode="normal" in="SourceGraphic" in2="BackgroundImageFix" result="shape"/>
<feGaussianBlur stdDeviation="2.5" result="effect1_foregroundBlur_129_2050"/>
</filter>
<filter id="filter12_f_129_2050" x="82.6045" y="122.28" width="28.2344" height="26.207" filterUnits="userSpaceOnUse" color-interpolation-filters="sRGB">
<feFlood flood-opacity="0" result="BackgroundImageFix"/>
<feBlend mode="normal" in="SourceGraphic" in2="BackgroundImageFix" result="shape"/>
<feGaussianBlur stdDeviation="2.5" result="effect1_foregroundBlur_129_2050"/>
</filter>
<filter id="filter13_f_129_2050" x="68.9629" y="130.44" width="28.2344" height="26.207" filterUnits="userSpaceOnUse" color-interpolation-filters="sRGB">
<feFlood flood-opacity="0" result="BackgroundImageFix"/>
<feBlend mode="normal" in="SourceGraphic" in2="BackgroundImageFix" result="shape"/>
<feGaussianBlur stdDeviation="2.5" result="effect1_foregroundBlur_129_2050"/>
</filter>
<filter id="filter14_f_129_2050" x="82.6045" y="138.6" width="28.2344" height="26.207" filterUnits="userSpaceOnUse" color-interpolation-filters="sRGB">
<feFlood flood-opacity="0" result="BackgroundImageFix"/>
<feBlend mode="normal" in="SourceGraphic" in2="BackgroundImageFix" result="shape"/>
<feGaussianBlur stdDeviation="2.5" result="effect1_foregroundBlur_129_2050"/>
</filter>
<filter id="filter15_f_129_2050" x="68.9629" y="48.8408" width="28.2344" height="26.207" filterUnits="userSpaceOnUse" color-interpolation-filters="sRGB">
<feFlood flood-opacity="0" result="BackgroundImageFix"/>
<feBlend mode="normal" in="SourceGraphic" in2="BackgroundImageFix" result="shape"/>
<feGaussianBlur stdDeviation="2.5" result="effect1_foregroundBlur_129_2050"/>
</filter>
<filter id="filter16_f_129_2050" x="55.3193" y="57.002" width="28.2344" height="26.207" filterUnits="userSpaceOnUse" color-interpolation-filters="sRGB">
<feFlood flood-opacity="0" result="BackgroundImageFix"/>
<feBlend mode="normal" in="SourceGraphic" in2="BackgroundImageFix" result="shape"/>
<feGaussianBlur stdDeviation="2.5" result="effect1_foregroundBlur_129_2050"/>
</filter>
<filter id="filter17_f_129_2050" x="82.6045" y="57.002" width="28.2344" height="26.207" filterUnits="userSpaceOnUse" color-interpolation-filters="sRGB">
<feFlood flood-opacity="0" result="BackgroundImageFix"/>
<feBlend mode="normal" in="SourceGraphic" in2="BackgroundImageFix" result="shape"/>
<feGaussianBlur stdDeviation="2.5" result="effect1_foregroundBlur_129_2050"/>
</filter>
<filter id="filter18_f_129_2050" x="68.9629" y="65.1611" width="28.2344" height="26.207" filterUnits="userSpaceOnUse" color-interpolation-filters="sRGB">
<feFlood flood-opacity="0" result="BackgroundImageFix"/>
<feBlend mode="normal" in="SourceGraphic" in2="BackgroundImageFix" result="shape"/>
<feGaussianBlur stdDeviation="2.5" result="effect1_foregroundBlur_129_2050"/>
</filter>
<filter id="filter19_f_129_2050" x="82.6045" y="73.3203" width="28.2344" height="26.207" filterUnits="userSpaceOnUse" color-interpolation-filters="sRGB">
<feFlood flood-opacity="0" result="BackgroundImageFix"/>
<feBlend mode="normal" in="SourceGraphic" in2="BackgroundImageFix" result="shape"/>
<feGaussianBlur stdDeviation="2.5" result="effect1_foregroundBlur_129_2050"/>
</filter>
<filter id="filter20_f_129_2050" x="68.9629" y="81.4805" width="28.2344" height="26.207" filterUnits="userSpaceOnUse" color-interpolation-filters="sRGB">
<feFlood flood-opacity="0" result="BackgroundImageFix"/>
<feBlend mode="normal" in="SourceGraphic" in2="BackgroundImageFix" result="shape"/>
<feGaussianBlur stdDeviation="2.5" result="effect1_foregroundBlur_129_2050"/>
</filter>
<filter id="filter21_f_129_2050" x="55.3193" y="89.6406" width="28.2344" height="26.207" filterUnits="userSpaceOnUse" color-interpolation-filters="sRGB">
<feFlood flood-opacity="0" result="BackgroundImageFix"/>
<feBlend mode="normal" in="SourceGraphic" in2="BackgroundImageFix" result="shape"/>
<feGaussianBlur stdDeviation="2.5" result="effect1_foregroundBlur_129_2050"/>
</filter>
<filter id="filter22_f_129_2050" x="82.6045" y="89.6406" width="28.2344" height="26.207" filterUnits="userSpaceOnUse" color-interpolation-filters="sRGB">
<feFlood flood-opacity="0" result="BackgroundImageFix"/>
<feBlend mode="normal" in="SourceGraphic" in2="BackgroundImageFix" result="shape"/>
<feGaussianBlur stdDeviation="2.5" result="effect1_foregroundBlur_129_2050"/>
</filter>
<filter id="filter23_f_129_2050" x="68.9629" y="97.8008" width="28.2344" height="26.207" filterUnits="userSpaceOnUse" color-interpolation-filters="sRGB">
<feFlood flood-opacity="0" result="BackgroundImageFix"/>
<feBlend mode="normal" in="SourceGraphic" in2="BackgroundImageFix" result="shape"/>
<feGaussianBlur stdDeviation="2.5" result="effect1_foregroundBlur_129_2050"/>
</filter>
<filter id="filter24_f_129_2050" x="82.6045" y="105.96" width="28.2344" height="26.207" filterUnits="userSpaceOnUse" color-interpolation-filters="sRGB">
<feFlood flood-opacity="0" result="BackgroundImageFix"/>
<feBlend mode="normal" in="SourceGraphic" in2="BackgroundImageFix" result="shape"/>
<feGaussianBlur stdDeviation="2.5" result="effect1_foregroundBlur_129_2050"/>
</filter>
<filter id="filter25_f_129_2050" x="82.6045" y="122.28" width="28.2344" height="26.207" filterUnits="userSpaceOnUse" color-interpolation-filters="sRGB">
<feFlood flood-opacity="0" result="BackgroundImageFix"/>
<feBlend mode="normal" in="SourceGraphic" in2="BackgroundImageFix" result="shape"/>
<feGaussianBlur stdDeviation="2.5" result="effect1_foregroundBlur_129_2050"/>
</filter>
<filter id="filter26_f_129_2050" x="68.9629" y="130.44" width="28.2344" height="26.207" filterUnits="userSpaceOnUse" color-interpolation-filters="sRGB">
<feFlood flood-opacity="0" result="BackgroundImageFix"/>
<feBlend mode="normal" in="SourceGraphic" in2="BackgroundImageFix" result="shape"/>
<feGaussianBlur stdDeviation="2.5" result="effect1_foregroundBlur_129_2050"/>
</filter>
<filter id="filter27_f_129_2050" x="82.6045" y="138.6" width="28.2344" height="26.207" filterUnits="userSpaceOnUse" color-interpolation-filters="sRGB">
<feFlood flood-opacity="0" result="BackgroundImageFix"/>
<feBlend mode="normal" in="SourceGraphic" in2="BackgroundImageFix" result="shape"/>
<feGaussianBlur stdDeviation="2.5" result="effect1_foregroundBlur_129_2050"/>
</filter>
<filter id="filter28_f_129_2050" x="36.5283" y="12.4453" width="232.934" height="156.08" filterUnits="userSpaceOnUse" color-interpolation-filters="sRGB">
<feFlood flood-opacity="0" result="BackgroundImageFix"/>
<feBlend mode="normal" in="SourceGraphic" in2="BackgroundImageFix" result="shape"/>
<feGaussianBlur stdDeviation="1" result="effect1_foregroundBlur_129_2050"/>
</filter>
</defs>
</svg>
