<svg width="401" height="1255" viewBox="0 0 401 1255" fill="none" xmlns="http://www.w3.org/2000/svg">
<g filter="url(#filter0_f_25_3169)">
<path d="M-231.643 819.349C-258.385 799.353 -279.064 772.296 -291.372 741.197C-303.68 710.099 -307.132 676.181 -301.344 643.228C-295.556 610.276 -280.756 579.585 -258.594 554.579C-236.432 529.573 -207.78 511.237 -175.835 501.615C-143.89 491.993 -109.909 491.465 -77.6823 500.089C-45.4556 508.713 -16.2512 526.15 6.6726 550.455C29.5964 574.759 45.3379 604.976 52.1409 637.732C58.9439 670.489 56.5408 704.498 45.1996 735.964L-124.075 674.564L-231.643 819.349Z" fill="#FB5C02"/>
</g>
<g filter="url(#filter1_f_25_3169)">
<path d="M-55.5301 867.385L-56.1187 867.989L-55.9101 868.808L-48.8172 896.627L-48.6002 897.478L-47.754 897.706L-20.6535 904.99L-19.8073 905.218L-19.195 904.589L0.812664 884.055L1.40126 883.451L1.1926 882.633L-5.90022 854.814L-6.11731 853.963L-6.96351 853.735L-34.0639 846.45L-34.9101 846.223L-35.5225 846.851L-55.5301 867.385Z" stroke="#00FDFF" stroke-opacity="0.41" stroke-width="3"/>
<path d="M-7.26694 853.608L-7.85554 854.212L-7.64688 855.031L-0.554056 882.849L-0.336969 883.701L0.50923 883.928L27.6097 891.213L28.4559 891.44L29.0682 890.812L49.0758 870.278L49.6644 869.674L49.4558 868.855L42.363 841.037L42.1459 840.185L41.2997 839.958L14.1992 832.673L13.353 832.446L12.7407 833.074L-7.26694 853.608Z" stroke="#00FDFF" stroke-opacity="0.41" stroke-width="3"/>
<path d="M40.9948 839.827L40.4062 840.431L40.6148 841.25L47.7077 869.069L47.9248 869.92L48.7709 870.147L75.8714 877.432L76.7176 877.66L77.33 877.031L97.3376 856.497L97.9262 855.893L97.7175 855.075L90.6247 827.256L90.4076 826.404L89.5614 826.177L62.461 818.892L61.6148 818.665L61.0024 819.293L40.9948 839.827Z" stroke="#00FDFF" stroke-opacity="0.41" stroke-width="3"/>
<path d="M-42.1961 817.462L-42.7847 818.066L-42.5761 818.885L-35.4833 846.703L-35.2662 847.555L-34.42 847.782L-7.31953 855.067L-6.47334 855.294L-5.86097 854.666L14.1466 834.132L14.7352 833.528L14.5266 832.709L7.43376 804.891L7.21667 804.039L6.37048 803.812L-20.73 796.527L-21.5762 796.3L-22.1885 796.928L-42.1961 817.462Z" stroke="#00FDFF" stroke-opacity="0.41" stroke-width="3"/>
<path d="M6.06753 803.685L5.47893 804.289L5.6876 805.107L12.7804 832.926L12.9975 833.777L13.8437 834.005L40.9441 841.29L41.7903 841.517L42.4027 840.889L62.4103 820.355L62.9989 819.75L62.7903 818.932L55.6974 791.113L55.4803 790.262L54.6342 790.034L27.5337 782.75L26.6875 782.522L26.0752 783.151L6.06753 803.685Z" stroke="#00FDFF" stroke-opacity="0.41" stroke-width="3"/>
<path d="M-28.8602 767.543L-29.4488 768.147L-29.2401 768.966L-22.1473 796.784L-21.9302 797.636L-21.084 797.863L6.01641 805.148L6.8626 805.375L7.47497 804.747L27.4826 784.213L28.0712 783.609L27.8625 782.79L20.7697 754.972L20.5526 754.12L19.7064 753.893L-7.39402 746.608L-8.24022 746.381L-8.85258 747.009L-28.8602 767.543Z" stroke="#00FDFF" stroke-opacity="0.41" stroke-width="3"/>
<path d="M-63.7874 731.401L-64.376 732.005L-64.1674 732.823L-57.0746 760.642L-56.8575 761.493L-56.0113 761.721L-28.9108 769.005L-28.0646 769.233L-27.4523 768.604L-7.44467 748.07L-6.85607 747.466L-7.06473 746.648L-14.1575 718.829L-14.3746 717.978L-15.2208 717.75L-42.3213 710.465L-43.1675 710.238L-43.7798 710.866L-63.7874 731.401Z" stroke="#00FDFF" stroke-opacity="0.41" stroke-width="3"/>
<path d="M19.4015 753.762L18.8129 754.366L19.0216 755.185L26.1144 783.004L26.3315 783.855L27.1777 784.082L54.2781 791.367L55.1243 791.595L55.7367 790.966L75.7443 770.432L76.3329 769.828L76.1242 769.01L69.0314 741.191L68.8143 740.34L67.9681 740.112L40.8677 732.827L40.0215 732.6L39.4091 733.228L19.4015 753.762Z" stroke="#00FDFF" stroke-opacity="0.41" stroke-width="3"/>
<path d="M67.6652 739.985L67.0766 740.589L67.2852 741.407L74.3781 769.226L74.5952 770.078L75.4414 770.305L102.542 777.59L103.388 777.817L104 777.189L124.008 756.655L124.597 756.051L124.388 755.232L117.295 727.414L117.078 726.562L116.232 726.335L89.1314 719.05L88.2852 718.822L87.6728 719.451L67.6652 739.985Z" stroke="#00FDFF" stroke-opacity="0.41" stroke-width="3"/>
<path d="M-15.5257 717.62L-16.1143 718.224L-15.9057 719.042L-8.81284 746.861L-8.59576 747.712L-7.74956 747.94L19.3509 755.225L20.1971 755.452L20.8094 754.824L40.8171 734.29L41.4057 733.686L41.197 732.867L34.1042 705.048L33.8871 704.197L33.0409 703.969L5.94045 696.685L5.09425 696.457L4.48188 697.086L-15.5257 717.62Z" stroke="#00FDFF" stroke-opacity="0.41" stroke-width="3"/>
<path d="M32.7355 703.839L32.1469 704.443L32.3556 705.261L39.4484 733.08L39.6655 733.932L40.5117 734.159L67.6121 741.444L68.4583 741.671L69.0707 741.043L89.0783 720.509L89.6669 719.905L89.4582 719.086L82.3654 691.268L82.1483 690.416L81.3021 690.189L54.2017 682.904L53.3555 682.676L52.7431 683.305L32.7355 703.839Z" stroke="#00FDFF" stroke-opacity="0.41" stroke-width="3"/>
<path d="M-50.453 681.478L-51.0416 682.082L-50.8329 682.9L-43.7401 710.719L-43.523 711.57L-42.6768 711.798L-15.5764 719.083L-14.7302 719.31L-14.1178 718.682L5.88981 698.148L6.47841 697.543L6.26974 696.725L-0.823077 668.906L-1.04017 668.055L-1.88636 667.827L-28.9868 660.543L-29.833 660.315L-30.4454 660.944L-50.453 681.478Z" stroke="#00FDFF" stroke-opacity="0.41" stroke-width="3"/>
<path d="M-2.19175 667.697L-2.78035 668.301L-2.57168 669.119L4.52114 696.938L4.73823 697.79L5.58443 698.017L32.6849 705.302L33.5311 705.529L34.1434 704.901L54.151 684.367L54.7396 683.763L54.531 682.944L47.4382 655.126L47.2211 654.274L46.3749 654.047L19.2744 646.762L18.4282 646.534L17.8159 647.163L-2.19175 667.697Z" stroke="#00FDFF" stroke-opacity="0.41" stroke-width="3"/>
<path d="M-37.1258 631.558L-37.7144 632.162L-37.5058 632.981L-30.4129 660.799L-30.1959 661.651L-29.3497 661.878L-2.24922 669.163L-1.40302 669.391L-0.790658 668.762L19.217 648.228L19.8056 647.624L19.5969 646.806L12.5041 618.987L12.287 618.135L11.4408 617.908L-15.6596 610.623L-16.5058 610.396L-17.1182 611.024L-37.1258 631.558Z" stroke="#00FDFF" stroke-opacity="0.41" stroke-width="3"/>
<path d="M11.1447 617.777L10.5561 618.381L10.7647 619.199L17.8576 647.018L18.0747 647.87L18.9209 648.097L46.0213 655.382L46.8675 655.609L47.4799 654.981L67.4875 634.447L68.0761 633.843L67.8674 633.024L60.7746 605.206L60.5575 604.354L59.7113 604.127L32.6109 596.842L31.7647 596.614L31.1523 597.243L11.1447 617.777Z" stroke="#00FDFF" stroke-opacity="0.41" stroke-width="3"/>
<path d="M59.4059 603.997L58.8173 604.601L59.026 605.419L66.1188 633.238L66.3359 634.089L67.1821 634.317L94.2825 641.602L95.1287 641.829L95.7411 641.201L115.749 620.667L116.337 620.063L116.129 619.244L109.036 591.425L108.819 590.574L107.973 590.346L80.8721 583.062L80.0259 582.834L79.4135 583.463L59.4059 603.997Z" stroke="#00FDFF" stroke-opacity="0.41" stroke-width="3"/>
<path d="M-23.7894 581.639L-24.378 582.243L-24.1693 583.061L-17.0765 610.88L-16.8594 611.731L-16.0132 611.959L11.0872 619.244L11.9334 619.471L12.5458 618.843L32.5534 598.309L33.142 597.705L32.9333 596.886L25.8405 569.067L25.6234 568.216L24.7772 567.989L-2.32322 560.704L-3.16942 560.476L-3.78179 561.105L-23.7894 581.639Z" stroke="#00FDFF" stroke-opacity="0.41" stroke-width="3"/>
<path d="M24.4718 567.858L23.8832 568.462L24.0919 569.28L31.1847 597.099L31.4018 597.951L32.248 598.178L59.3484 605.463L60.1946 605.69L60.807 605.062L80.8146 584.528L81.4032 583.924L81.1946 583.105L74.1017 555.287L73.8846 554.435L73.0385 554.208L45.938 546.923L45.0918 546.696L44.4795 547.324L24.4718 567.858Z" stroke="#00FDFF" stroke-opacity="0.41" stroke-width="3"/>
<path d="M-58.7186 545.493L-59.3072 546.097L-59.0985 546.915L-52.0057 574.734L-51.7886 575.585L-50.9424 575.813L-23.842 583.098L-22.9958 583.325L-22.3834 582.697L-2.37582 562.163L-1.78722 561.559L-1.99588 560.74L-9.0887 532.921L-9.30578 532.07L-10.152 531.843L-37.2524 524.558L-38.0986 524.33L-38.711 524.959L-58.7186 545.493Z" stroke="#00FDFF" stroke-opacity="0.41" stroke-width="3"/>
<path d="M-10.4554 531.715L-11.044 532.32L-10.8354 533.138L-3.74253 560.957L-3.52545 561.808L-2.67925 562.036L24.4212 569.32L25.2674 569.548L25.8798 568.919L45.8874 548.385L46.476 547.781L46.2673 546.963L39.1745 519.144L38.9574 518.293L38.1112 518.065L11.0108 510.78L10.1646 510.553L9.5522 511.181L-10.4554 531.715Z" stroke="#00FDFF" stroke-opacity="0.41" stroke-width="3"/>
<path d="M-45.3827 495.573L-45.9713 496.177L-45.7626 496.996L-38.6698 524.815L-38.4527 525.666L-37.6065 525.894L-10.5061 533.178L-9.65986 533.406L-9.04749 532.777L10.9601 512.243L11.5487 511.639L11.3401 510.821L4.24724 483.002L4.03015 482.151L3.18395 481.923L-23.9165 474.638L-24.7627 474.411L-25.3751 475.039L-45.3827 495.573Z" stroke="#00FDFF" stroke-opacity="0.41" stroke-width="3"/>
<path d="M-55.5301 867.385L-56.1187 867.989L-55.9101 868.808L-48.8172 896.627L-48.6002 897.478L-47.754 897.706L-20.6535 904.99L-19.8073 905.218L-19.195 904.589L0.812665 884.055L1.40127 883.451L1.1926 882.633L-5.90022 854.814L-6.11731 853.963L-6.96351 853.735L-34.0639 846.45L-34.9101 846.223L-35.5225 846.851L-55.5301 867.385Z" stroke="#00FDFF" stroke-opacity="0.41" stroke-width="3"/>
<path d="M-7.26694 853.608L-7.85554 854.212L-7.64688 855.031L-0.554056 882.849L-0.336969 883.701L0.50923 883.928L27.6097 891.213L28.4559 891.44L29.0682 890.812L49.0758 870.278L49.6644 869.674L49.4558 868.855L42.363 841.037L42.1459 840.185L41.2997 839.958L14.1992 832.673L13.353 832.446L12.7407 833.074L-7.26694 853.608Z" stroke="#00FDFF" stroke-opacity="0.41" stroke-width="3"/>
<path d="M40.9948 839.827L40.4062 840.431L40.6148 841.25L47.7077 869.069L47.9248 869.92L48.7709 870.147L75.8714 877.432L76.7176 877.66L77.33 877.031L97.3376 856.497L97.9262 855.893L97.7175 855.075L90.6247 827.256L90.4076 826.404L89.5614 826.177L62.461 818.892L61.6148 818.665L61.0024 819.293L40.9948 839.827Z" stroke="#00FDFF" stroke-opacity="0.41" stroke-width="3"/>
<path d="M-42.1961 817.462L-42.7847 818.066L-42.5761 818.885L-35.4833 846.703L-35.2662 847.555L-34.42 847.782L-7.31953 855.067L-6.47334 855.294L-5.86097 854.666L14.1466 834.132L14.7352 833.528L14.5266 832.709L7.43376 804.891L7.21667 804.039L6.37048 803.812L-20.73 796.527L-21.5762 796.3L-22.1885 796.928L-42.1961 817.462Z" stroke="#00FDFF" stroke-opacity="0.41" stroke-width="3"/>
<path d="M6.06753 803.685L5.47893 804.289L5.6876 805.107L12.7804 832.926L12.9975 833.777L13.8437 834.005L40.9441 841.29L41.7903 841.517L42.4027 840.889L62.4103 820.355L62.9989 819.75L62.7903 818.932L55.6974 791.113L55.4803 790.262L54.6342 790.034L27.5337 782.75L26.6875 782.522L26.0752 783.151L6.06753 803.685Z" stroke="#00FDFF" stroke-opacity="0.41" stroke-width="3"/>
<path d="M-28.8602 767.543L-29.4488 768.147L-29.2401 768.966L-22.1473 796.784L-21.9302 797.636L-21.084 797.863L6.01641 805.148L6.8626 805.375L7.47497 804.747L27.4826 784.213L28.0712 783.609L27.8625 782.79L20.7697 754.972L20.5526 754.12L19.7064 753.893L-7.39402 746.608L-8.24022 746.381L-8.85258 747.009L-28.8602 767.543Z" stroke="#00FDFF" stroke-opacity="0.41" stroke-width="3"/>
<path d="M-63.7874 731.401L-64.376 732.005L-64.1674 732.823L-57.0746 760.642L-56.8575 761.493L-56.0113 761.721L-28.9108 769.005L-28.0646 769.233L-27.4523 768.604L-7.44467 748.07L-6.85607 747.466L-7.06473 746.648L-14.1575 718.829L-14.3746 717.978L-15.2208 717.75L-42.3213 710.465L-43.1675 710.238L-43.7798 710.866L-63.7874 731.401Z" stroke="#00FDFF" stroke-opacity="0.41" stroke-width="3"/>
<path d="M19.4015 753.762L18.8129 754.366L19.0216 755.185L26.1144 783.004L26.3315 783.855L27.1777 784.082L54.2781 791.367L55.1243 791.595L55.7367 790.966L75.7443 770.432L76.3329 769.828L76.1242 769.01L69.0314 741.191L68.8143 740.34L67.9681 740.112L40.8677 732.827L40.0215 732.6L39.4091 733.228L19.4015 753.762Z" stroke="#00FDFF" stroke-opacity="0.41" stroke-width="3"/>
<path d="M67.6652 739.985L67.0766 740.589L67.2852 741.407L74.3781 769.226L74.5952 770.078L75.4414 770.305L102.542 777.59L103.388 777.817L104 777.189L124.008 756.655L124.597 756.051L124.388 755.232L117.295 727.414L117.078 726.562L116.232 726.335L89.1314 719.05L88.2852 718.822L87.6728 719.451L67.6652 739.985Z" stroke="#00FDFF" stroke-opacity="0.41" stroke-width="3"/>
<path d="M-15.5257 717.62L-16.1143 718.224L-15.9057 719.042L-8.81284 746.861L-8.59576 747.712L-7.74956 747.94L19.3509 755.225L20.1971 755.452L20.8094 754.824L40.8171 734.29L41.4057 733.686L41.197 732.867L34.1042 705.048L33.8871 704.197L33.0409 703.969L5.94045 696.685L5.09425 696.457L4.48188 697.086L-15.5257 717.62Z" stroke="#00FDFF" stroke-opacity="0.41" stroke-width="3"/>
<path d="M32.7355 703.839L32.1469 704.443L32.3556 705.261L39.4484 733.08L39.6655 733.932L40.5117 734.159L67.6121 741.444L68.4583 741.671L69.0707 741.043L89.0783 720.509L89.6669 719.905L89.4582 719.086L82.3654 691.268L82.1483 690.416L81.3021 690.189L54.2017 682.904L53.3555 682.676L52.7431 683.305L32.7355 703.839Z" stroke="#00FDFF" stroke-opacity="0.41" stroke-width="3"/>
<path d="M-50.453 681.478L-51.0416 682.082L-50.8329 682.9L-43.7401 710.719L-43.523 711.57L-42.6768 711.798L-15.5764 719.083L-14.7302 719.31L-14.1178 718.682L5.88981 698.148L6.47841 697.543L6.26974 696.725L-0.823077 668.906L-1.04017 668.055L-1.88636 667.827L-28.9868 660.543L-29.833 660.315L-30.4454 660.944L-50.453 681.478Z" stroke="#00FDFF" stroke-opacity="0.41" stroke-width="3"/>
<path d="M-2.19175 667.697L-2.78035 668.301L-2.57168 669.119L4.52114 696.938L4.73823 697.79L5.58443 698.017L32.6849 705.302L33.5311 705.529L34.1434 704.901L54.151 684.367L54.7396 683.763L54.531 682.944L47.4382 655.126L47.2211 654.274L46.3749 654.047L19.2744 646.762L18.4282 646.534L17.8159 647.163L-2.19175 667.697Z" stroke="#00FDFF" stroke-opacity="0.41" stroke-width="3"/>
<path d="M-37.1258 631.558L-37.7144 632.162L-37.5058 632.981L-30.4129 660.799L-30.1959 661.651L-29.3497 661.878L-2.24922 669.163L-1.40302 669.391L-0.790658 668.762L19.217 648.228L19.8056 647.624L19.5969 646.806L12.5041 618.987L12.287 618.135L11.4408 617.908L-15.6596 610.623L-16.5058 610.396L-17.1182 611.024L-37.1258 631.558Z" stroke="#00FDFF" stroke-opacity="0.41" stroke-width="3"/>
<path d="M11.1447 617.777L10.5561 618.381L10.7647 619.199L17.8576 647.018L18.0747 647.87L18.9209 648.097L46.0213 655.382L46.8675 655.609L47.4799 654.981L67.4875 634.447L68.0761 633.843L67.8674 633.024L60.7746 605.206L60.5575 604.354L59.7113 604.127L32.6109 596.842L31.7647 596.614L31.1523 597.243L11.1447 617.777Z" stroke="#00FDFF" stroke-opacity="0.41" stroke-width="3"/>
<path d="M59.4059 603.997L58.8173 604.601L59.026 605.419L66.1188 633.238L66.3359 634.089L67.1821 634.317L94.2825 641.602L95.1287 641.829L95.7411 641.201L115.749 620.667L116.337 620.063L116.129 619.244L109.036 591.425L108.819 590.574L107.973 590.346L80.8721 583.062L80.0259 582.834L79.4135 583.463L59.4059 603.997Z" stroke="#00FDFF" stroke-opacity="0.41" stroke-width="3"/>
<path d="M-23.7894 581.639L-24.378 582.243L-24.1693 583.061L-17.0765 610.88L-16.8594 611.731L-16.0132 611.959L11.0872 619.244L11.9334 619.471L12.5458 618.843L32.5534 598.309L33.142 597.705L32.9333 596.886L25.8405 569.067L25.6234 568.216L24.7772 567.989L-2.32322 560.704L-3.16942 560.476L-3.78179 561.105L-23.7894 581.639Z" stroke="#00FDFF" stroke-opacity="0.41" stroke-width="3"/>
<path d="M24.4718 567.858L23.8832 568.462L24.0919 569.28L31.1847 597.099L31.4018 597.951L32.248 598.178L59.3484 605.463L60.1946 605.69L60.807 605.062L80.8146 584.528L81.4032 583.924L81.1946 583.105L74.1017 555.287L73.8846 554.435L73.0385 554.208L45.938 546.923L45.0918 546.696L44.4795 547.324L24.4718 567.858Z" stroke="#00FDFF" stroke-opacity="0.41" stroke-width="3"/>
<path d="M-58.7186 545.493L-59.3072 546.097L-59.0985 546.915L-52.0057 574.734L-51.7886 575.585L-50.9424 575.813L-23.842 583.098L-22.9958 583.325L-22.3834 582.697L-2.37582 562.163L-1.78722 561.559L-1.99588 560.74L-9.0887 532.921L-9.30578 532.07L-10.152 531.843L-37.2524 524.558L-38.0986 524.33L-38.711 524.959L-58.7186 545.493Z" stroke="#00FDFF" stroke-opacity="0.41" stroke-width="3"/>
<path d="M-10.4554 531.715L-11.044 532.32L-10.8354 533.138L-3.74253 560.957L-3.52545 561.808L-2.67925 562.036L24.4212 569.32L25.2674 569.548L25.8798 568.919L45.8874 548.385L46.476 547.781L46.2673 546.963L39.1745 519.144L38.9574 518.293L38.1112 518.065L11.0108 510.78L10.1646 510.553L9.5522 511.181L-10.4554 531.715Z" stroke="#00FDFF" stroke-opacity="0.41" stroke-width="3"/>
<path d="M-45.3827 495.573L-45.9713 496.177L-45.7626 496.996L-38.6698 524.815L-38.4527 525.666L-37.6065 525.894L-10.5061 533.178L-9.65986 533.406L-9.04749 532.777L10.9601 512.243L11.5487 511.639L11.3401 510.821L4.24724 483.002L4.03015 482.151L3.18395 481.923L-23.9165 474.638L-24.7627 474.411L-25.3751 475.039L-45.3827 495.573Z" stroke="#00FDFF" stroke-opacity="0.41" stroke-width="3"/>
</g>
<g filter="url(#filter2_f_25_3169)">
<path d="M-85.2704 888.13L-85.858 888.733L-85.65 889.551L-75.2106 930.583L-74.9938 931.435L-74.1471 931.663L-34.2162 942.397L-33.3694 942.624L-32.757 941.995L-3.26543 911.696L-2.67785 911.093L-2.88584 910.275L-13.3252 869.243L-13.542 868.39L-14.3887 868.163L-54.3197 857.429L-55.1664 857.202L-55.7788 857.831L-85.2704 888.13Z" stroke="#FF9900" stroke-width="3"/>
<path d="M37.3023 921.083L36.7148 921.687L36.9227 922.504L47.3621 963.537L47.5789 964.389L48.4256 964.616L88.3566 975.35L89.2033 975.578L89.8157 974.949L119.307 944.65L119.895 944.046L119.687 943.229L109.248 902.196L109.031 901.344L108.184 901.117L68.2531 890.383L67.4064 890.155L66.794 890.784L37.3023 921.083Z" stroke="#FF9900" stroke-width="3"/>
<path d="M108.431 900.733L107.843 901.337L108.051 902.154L118.491 943.187L118.707 944.039L119.554 944.266L159.485 955L160.332 955.228L160.944 954.599L190.436 924.3L191.023 923.696L190.815 922.879L180.376 881.846L180.159 880.994L179.312 880.766L139.381 870.033L138.535 869.805L137.922 870.434L108.431 900.733Z" stroke="#FF9900" stroke-width="3"/>
<path d="M-14.1488 867.783L-14.7364 868.387L-14.5284 869.204L-4.08904 910.237L-3.87226 911.089L-3.02556 911.316L36.9054 922.05L37.7521 922.277L38.3645 921.648L67.8562 891.35L68.4437 890.746L68.2357 889.928L57.7964 848.896L57.5796 848.044L56.7329 847.816L16.8019 837.083L15.9552 836.855L15.3428 837.484L-14.1488 867.783Z" stroke="#FF9900" stroke-width="3"/>
<path d="M56.9752 847.439L56.3876 848.043L56.5956 848.86L67.035 889.893L67.2518 890.745L68.0985 890.972L108.029 901.706L108.876 901.934L109.489 901.305L138.98 871.006L139.568 870.402L139.36 869.585L128.92 828.552L128.704 827.7L127.857 827.472L87.9259 816.739L87.0792 816.511L86.4668 817.14L56.9752 847.439Z" stroke="#FF9900" stroke-width="3"/>
<path d="M-65.6044 814.489L-66.192 815.093L-65.984 815.91L-55.5446 856.943L-55.3278 857.795L-54.4811 858.022L-14.5501 868.756L-13.7034 868.984L-13.091 868.354L16.4006 838.056L16.9882 837.452L16.7802 836.634L6.34079 795.602L6.12401 794.75L5.27731 794.522L-34.6537 783.789L-35.5004 783.561L-36.1128 784.19L-65.6044 814.489Z" stroke="#FF9900" stroke-width="3"/>
<path d="M5.52451 794.138L4.93692 794.742L5.14492 795.56L15.5843 836.592L15.8011 837.444L16.6478 837.672L56.5788 848.405L57.4255 848.633L58.0379 848.004L87.5295 817.705L88.1171 817.101L87.9091 816.284L77.4697 775.251L77.2529 774.399L76.4062 774.172L36.4752 763.438L35.6285 763.21L35.0161 763.84L5.52451 794.138Z" stroke="#FF9900" stroke-width="3"/>
<path d="M-45.9335 740.841L-46.5211 741.445L-46.3131 742.262L-35.8737 783.295L-35.6569 784.147L-34.8102 784.374L5.12076 795.108L5.96746 795.336L6.57987 794.706L36.0715 764.408L36.6591 763.804L36.4511 762.986L26.0117 721.954L25.7949 721.102L24.9482 720.874L-14.9828 710.141L-15.8295 709.913L-16.4419 710.542L-45.9335 740.841Z" stroke="#FF9900" stroke-width="3"/>
<path d="M76.6461 773.791L76.0585 774.395L76.2665 775.212L86.7059 816.245L86.9227 817.097L87.7694 817.324L127.7 828.058L128.547 828.286L129.159 827.657L158.651 797.358L159.239 796.754L159.031 795.937L148.591 754.904L148.375 754.052L147.528 753.825L107.597 743.091L106.75 742.863L106.138 743.492L76.6461 773.791Z" stroke="#FF9900" stroke-width="3"/>
<path d="M147.768 753.444L147.181 754.048L147.389 754.865L157.828 795.898L158.045 796.75L158.891 796.977L198.822 807.711L199.669 807.939L200.282 807.309L229.773 777.011L230.361 776.407L230.153 775.589L219.713 734.557L219.497 733.705L218.65 733.477L178.719 722.744L177.872 722.516L177.26 723.145L147.768 753.444Z" stroke="#FF9900" stroke-width="3"/>
<path d="M25.1886 720.494L24.601 721.097L24.809 721.915L35.2484 762.947L35.4651 763.8L36.3118 764.027L76.2428 774.761L77.0895 774.988L77.7019 774.359L107.194 744.06L107.781 743.457L107.573 742.639L97.1338 701.607L96.917 700.755L96.0703 700.527L56.1393 689.793L55.2926 689.566L54.6802 690.195L25.1886 720.494Z" stroke="#FF9900" stroke-width="3"/>
<path d="M96.3189 700.146L95.7314 700.75L95.9393 701.567L106.379 742.6L106.596 743.452L107.442 743.679L147.373 754.413L148.22 754.641L148.832 754.012L178.324 723.713L178.912 723.109L178.704 722.292L168.264 681.259L168.047 680.407L167.201 680.18L127.27 669.446L126.423 669.218L125.811 669.847L96.3189 700.146Z" stroke="#FF9900" stroke-width="3"/>
<path d="M-26.2602 667.196L-26.8477 667.8L-26.6398 668.618L-16.2004 709.65L-15.9836 710.502L-15.1369 710.73L24.7941 721.463L25.6408 721.691L26.2532 721.062L55.7448 690.763L56.3324 690.159L56.1244 689.342L45.685 648.309L45.4683 647.457L44.6216 647.23L4.69056 636.496L3.84386 636.269L3.23145 636.898L-26.2602 667.196Z" stroke="#FF9900" stroke-width="3"/>
<path d="M44.8614 646.849L44.2738 647.453L44.4818 648.27L54.9212 689.303L55.138 690.155L55.9847 690.383L95.9157 701.116L96.7624 701.344L97.3748 700.715L126.866 670.416L127.454 669.812L127.246 668.995L116.807 627.962L116.59 627.11L115.743 626.883L75.8121 616.149L74.9654 615.921L74.353 616.551L44.8614 646.849Z" stroke="#FF9900" stroke-width="3"/>
<path d="M-77.7182 613.899L-78.3058 614.503L-78.0978 615.32L-67.6584 656.353L-67.4416 657.205L-66.5949 657.432L-26.6639 668.166L-25.8172 668.394L-25.2048 667.765L4.2868 637.466L4.87438 636.862L4.66639 636.045L-5.77299 595.012L-5.98976 594.16L-6.83646 593.932L-46.7675 583.199L-47.6142 582.971L-48.2266 583.6L-77.7182 613.899Z" stroke="#FF9900" stroke-width="3"/>
<path d="M-6.5961 593.552L-7.18368 594.156L-6.97569 594.974L3.46369 636.006L3.68047 636.858L4.52717 637.086L44.4582 647.819L45.3049 648.047L45.9173 647.418L75.4089 617.119L75.9965 616.515L75.7885 615.698L65.3491 574.665L65.1323 573.813L64.2856 573.586L24.3546 562.852L23.5079 562.624L22.8955 563.254L-6.5961 593.552Z" stroke="#FF9900" stroke-width="3"/>
<path d="M-58.0448 540.255L-58.6324 540.858L-58.4244 541.676L-47.985 582.708L-47.7683 583.56L-46.9216 583.788L-6.99057 594.522L-6.14387 594.749L-5.53147 594.12L23.9601 563.821L24.5477 563.218L24.3397 562.4L13.9004 521.368L13.6836 520.515L12.8369 520.288L-27.0941 509.554L-27.9408 509.327L-28.5532 509.956L-58.0448 540.255Z" stroke="#FF9900" stroke-width="3"/>
<path d="M64.5323 573.202L63.9447 573.805L64.1527 574.623L74.5921 615.655L74.8089 616.508L75.6556 616.735L115.587 627.469L116.433 627.696L117.046 627.067L146.537 596.768L147.125 596.165L146.917 595.347L136.478 554.315L136.261 553.463L135.414 553.235L95.483 542.501L94.6363 542.274L94.0239 542.903L64.5323 573.202Z" stroke="#FF9900" stroke-width="3"/>
<path d="M135.656 552.858L135.069 553.462L135.277 554.279L145.716 595.312L145.933 596.164L146.78 596.391L186.711 607.125L187.557 607.353L188.17 606.724L217.661 576.425L218.249 575.821L218.041 575.004L207.602 533.971L207.385 533.119L206.538 532.891L166.607 522.158L165.76 521.93L165.148 522.559L135.656 552.858Z" stroke="#FF9900" stroke-width="3"/>
<path d="M13.0768 519.908L12.4892 520.512L12.6972 521.329L23.1365 562.362L23.3533 563.214L24.2 563.441L64.131 574.175L64.9777 574.402L65.5901 573.773L95.0817 543.475L95.6693 542.871L95.4613 542.053L85.0219 501.021L84.8052 500.169L83.9585 499.941L44.0275 489.208L43.1808 488.98L42.5684 489.609L13.0768 519.908Z" stroke="#FF9900" stroke-width="3"/>
<path d="M84.2052 499.557L83.6176 500.161L83.8256 500.978L94.265 542.011L94.4817 542.863L95.3284 543.091L135.259 553.824L136.106 554.052L136.719 553.423L166.21 523.124L166.798 522.52L166.59 521.703L156.15 480.67L155.934 479.818L155.087 479.591L115.156 468.857L114.309 468.629L113.697 469.259L84.2052 499.557Z" stroke="#FF9900" stroke-width="3"/>
<path d="M-38.3739 466.607L-38.9615 467.211L-38.7535 468.028L-28.3141 509.061L-28.0974 509.913L-27.2507 510.14L12.6803 520.874L13.527 521.102L14.1394 520.473L43.631 490.174L44.2186 489.57L44.0106 488.753L33.5712 447.72L33.3545 446.868L32.5078 446.64L-7.42322 435.907L-8.26992 435.679L-8.88232 436.308L-38.3739 466.607Z" stroke="#FF9900" stroke-width="3"/>
<path d="M32.7476 446.26L32.1601 446.864L32.3681 447.681L42.8074 488.714L43.0242 489.566L43.8709 489.793L83.8019 500.527L84.6486 500.755L85.261 500.125L114.753 469.827L115.34 469.223L115.132 468.405L104.693 427.373L104.476 426.521L103.629 426.293L63.6984 415.56L62.8517 415.332L62.2393 415.961L32.7476 446.26Z" stroke="#FF9900" stroke-width="3"/>
<path d="M-89.8315 413.31L-90.419 413.913L-90.211 414.731L-79.7717 455.763L-79.5549 456.615L-78.7082 456.843L-38.7772 467.577L-37.9305 467.804L-37.3181 467.175L-7.82645 436.876L-7.23887 436.273L-7.44686 435.455L-17.8862 394.423L-18.103 393.571L-18.9497 393.343L-58.8807 382.609L-59.7274 382.382L-60.3398 383.011L-89.8315 413.31Z" stroke="#FF9900" stroke-width="3"/>
<path d="M-18.7079 392.966L-19.2955 393.57L-19.0875 394.388L-8.64813 435.42L-8.43135 436.272L-7.58465 436.5L32.3463 447.233L33.193 447.461L33.8054 446.832L63.2971 416.533L63.8846 415.929L63.6766 415.112L53.2373 374.079L53.0205 373.227L52.1738 373L12.2428 362.266L11.3961 362.039L10.7837 362.668L-18.7079 392.966Z" stroke="#FF9900" stroke-width="3"/>
<path d="M-85.2704 888.13L-85.858 888.733L-85.65 889.551L-75.2106 930.583L-74.9938 931.435L-74.1471 931.663L-34.2162 942.397L-33.3694 942.624L-32.757 941.995L-3.26543 911.696L-2.67785 911.093L-2.88584 910.275L-13.3252 869.243L-13.542 868.39L-14.3887 868.163L-54.3197 857.429L-55.1664 857.202L-55.7788 857.831L-85.2704 888.13Z" stroke="#FF9900" stroke-width="3"/>
<path d="M37.3023 921.083L36.7148 921.687L36.9227 922.504L47.3621 963.537L47.5789 964.389L48.4256 964.616L88.3566 975.35L89.2033 975.578L89.8157 974.949L119.307 944.65L119.895 944.046L119.687 943.229L109.248 902.196L109.031 901.344L108.184 901.117L68.2531 890.383L67.4064 890.155L66.794 890.784L37.3023 921.083Z" stroke="#FF9900" stroke-width="3"/>
<path d="M-14.1488 867.783L-14.7364 868.387L-14.5284 869.204L-4.08904 910.237L-3.87226 911.089L-3.02556 911.316L36.9054 922.05L37.7521 922.277L38.3645 921.648L67.8562 891.35L68.4437 890.746L68.2357 889.928L57.7964 848.896L57.5796 848.044L56.7329 847.816L16.8019 837.083L15.9552 836.855L15.3428 837.484L-14.1488 867.783Z" stroke="#FF9900" stroke-width="3"/>
<path d="M56.9752 847.439L56.3876 848.043L56.5956 848.86L67.035 889.893L67.2518 890.745L68.0985 890.972L108.029 901.706L108.876 901.934L109.489 901.305L138.98 871.006L139.568 870.402L139.36 869.585L128.92 828.552L128.704 827.7L127.857 827.472L87.9259 816.739L87.0792 816.511L86.4668 817.14L56.9752 847.439Z" stroke="#FF9900" stroke-width="3"/>
<path d="M-65.6044 814.489L-66.192 815.093L-65.984 815.91L-55.5446 856.943L-55.3278 857.795L-54.4811 858.022L-14.5501 868.756L-13.7034 868.984L-13.091 868.354L16.4006 838.056L16.9882 837.452L16.7802 836.634L6.34079 795.602L6.12401 794.75L5.27731 794.522L-34.6537 783.789L-35.5004 783.561L-36.1128 784.19L-65.6044 814.489Z" stroke="#FF9900" stroke-width="3"/>
<path d="M5.52451 794.138L4.93692 794.742L5.14492 795.56L15.5843 836.592L15.8011 837.444L16.6478 837.672L56.5788 848.405L57.4255 848.633L58.0379 848.004L87.5295 817.705L88.1171 817.101L87.9091 816.284L77.4697 775.251L77.2529 774.399L76.4062 774.172L36.4752 763.438L35.6285 763.21L35.0161 763.84L5.52451 794.138Z" stroke="#FF9900" stroke-width="3"/>
<path d="M-45.9335 740.841L-46.5211 741.445L-46.3131 742.262L-35.8737 783.295L-35.6569 784.147L-34.8102 784.374L5.12076 795.108L5.96746 795.336L6.57987 794.706L36.0715 764.408L36.6591 763.804L36.4511 762.986L26.0117 721.954L25.7949 721.102L24.9482 720.874L-14.9828 710.141L-15.8295 709.913L-16.4419 710.542L-45.9335 740.841Z" stroke="#FF9900" stroke-width="3"/>
<path d="M76.6461 773.791L76.0585 774.395L76.2665 775.212L86.7059 816.245L86.9227 817.097L87.7694 817.324L127.7 828.058L128.547 828.286L129.159 827.657L158.651 797.358L159.239 796.754L159.031 795.937L148.591 754.904L148.375 754.052L147.528 753.825L107.597 743.091L106.75 742.863L106.138 743.492L76.6461 773.791Z" stroke="#FF9900" stroke-width="3"/>
<path d="M147.768 753.444L147.181 754.048L147.389 754.865L157.828 795.898L158.045 796.75L158.891 796.977L198.822 807.711L199.669 807.939L200.282 807.309L229.773 777.011L230.361 776.407L230.153 775.589L219.713 734.557L219.497 733.705L218.65 733.477L178.719 722.744L177.872 722.516L177.26 723.145L147.768 753.444Z" stroke="#FF9900" stroke-width="3"/>
<path d="M25.1886 720.494L24.601 721.097L24.809 721.915L35.2484 762.947L35.4651 763.8L36.3118 764.027L76.2428 774.761L77.0895 774.988L77.7019 774.359L107.194 744.06L107.781 743.457L107.573 742.639L97.1338 701.607L96.917 700.755L96.0703 700.527L56.1393 689.793L55.2926 689.566L54.6802 690.195L25.1886 720.494Z" stroke="#FF9900" stroke-width="3"/>
<path d="M96.3189 700.146L95.7314 700.75L95.9393 701.567L106.379 742.6L106.596 743.452L107.442 743.679L147.373 754.413L148.22 754.641L148.832 754.012L178.324 723.713L178.912 723.109L178.704 722.292L168.264 681.259L168.047 680.407L167.201 680.18L127.27 669.446L126.423 669.218L125.811 669.847L96.3189 700.146Z" stroke="#FF9900" stroke-width="3"/>
<path d="M-26.2602 667.196L-26.8477 667.8L-26.6398 668.618L-16.2004 709.65L-15.9836 710.502L-15.1369 710.73L24.7941 721.463L25.6408 721.691L26.2532 721.062L55.7448 690.763L56.3324 690.159L56.1244 689.342L45.685 648.309L45.4683 647.457L44.6216 647.23L4.69056 636.496L3.84386 636.269L3.23145 636.898L-26.2602 667.196Z" stroke="#FF9900" stroke-width="3"/>
<path d="M44.8614 646.849L44.2738 647.453L44.4818 648.27L54.9212 689.303L55.138 690.155L55.9847 690.383L95.9157 701.116L96.7624 701.344L97.3748 700.715L126.866 670.416L127.454 669.812L127.246 668.995L116.807 627.962L116.59 627.11L115.743 626.883L75.8121 616.149L74.9654 615.921L74.353 616.551L44.8614 646.849Z" stroke="#FF9900" stroke-width="3"/>
<path d="M-77.7182 613.899L-78.3058 614.503L-78.0978 615.32L-67.6584 656.353L-67.4416 657.205L-66.5949 657.432L-26.6639 668.166L-25.8172 668.394L-25.2048 667.765L4.2868 637.466L4.87438 636.862L4.66639 636.045L-5.77299 595.012L-5.98976 594.16L-6.83646 593.932L-46.7675 583.199L-47.6142 582.971L-48.2266 583.6L-77.7182 613.899Z" stroke="#FF9900" stroke-width="3"/>
<path d="M-6.5961 593.552L-7.18368 594.156L-6.97569 594.974L3.46369 636.006L3.68047 636.858L4.52717 637.086L44.4582 647.819L45.3049 648.047L45.9173 647.418L75.4089 617.119L75.9965 616.515L75.7885 615.698L65.3491 574.665L65.1323 573.813L64.2856 573.586L24.3546 562.852L23.5079 562.624L22.8955 563.254L-6.5961 593.552Z" stroke="#FF9900" stroke-width="3"/>
<path d="M-58.0448 540.255L-58.6324 540.858L-58.4244 541.676L-47.985 582.708L-47.7683 583.56L-46.9216 583.788L-6.99057 594.522L-6.14387 594.749L-5.53147 594.12L23.9601 563.821L24.5477 563.218L24.3397 562.4L13.9004 521.368L13.6836 520.515L12.8369 520.288L-27.0941 509.554L-27.9408 509.327L-28.5532 509.956L-58.0448 540.255Z" stroke="#FF9900" stroke-width="3"/>
<path d="M64.5323 573.202L63.9447 573.805L64.1527 574.623L74.5921 615.655L74.8089 616.508L75.6556 616.735L115.587 627.469L116.433 627.696L117.046 627.067L146.537 596.768L147.125 596.165L146.917 595.347L136.478 554.315L136.261 553.463L135.414 553.235L95.483 542.501L94.6363 542.274L94.0239 542.903L64.5323 573.202Z" stroke="#FF9900" stroke-width="3"/>
<path d="M135.656 552.858L135.069 553.462L135.277 554.279L145.716 595.312L145.933 596.164L146.78 596.391L186.711 607.125L187.557 607.353L188.17 606.724L217.661 576.425L218.249 575.821L218.041 575.004L207.602 533.971L207.385 533.119L206.538 532.891L166.607 522.158L165.76 521.93L165.148 522.559L135.656 552.858Z" stroke="#FF9900" stroke-width="3"/>
<path d="M13.0768 519.908L12.4892 520.512L12.6972 521.329L23.1365 562.362L23.3533 563.214L24.2 563.441L64.131 574.175L64.9777 574.402L65.5901 573.773L95.0817 543.475L95.6693 542.871L95.4613 542.053L85.0219 501.021L84.8052 500.169L83.9585 499.941L44.0275 489.208L43.1808 488.98L42.5684 489.609L13.0768 519.908Z" stroke="#FF9900" stroke-width="3"/>
<path d="M84.2052 499.557L83.6176 500.161L83.8256 500.978L94.265 542.011L94.4817 542.863L95.3284 543.091L135.259 553.824L136.106 554.052L136.719 553.423L166.21 523.124L166.798 522.52L166.59 521.703L156.15 480.67L155.934 479.818L155.087 479.591L115.156 468.857L114.309 468.629L113.697 469.259L84.2052 499.557Z" stroke="#FF9900" stroke-width="3"/>
<path d="M-38.3739 466.607L-38.9615 467.211L-38.7535 468.028L-28.3141 509.061L-28.0974 509.913L-27.2507 510.14L12.6803 520.874L13.527 521.102L14.1394 520.473L43.631 490.174L44.2186 489.57L44.0106 488.753L33.5712 447.72L33.3545 446.868L32.5078 446.64L-7.42322 435.907L-8.26992 435.679L-8.88232 436.308L-38.3739 466.607Z" stroke="#FF9900" stroke-width="3"/>
<path d="M32.7476 446.26L32.1601 446.864L32.3681 447.681L42.8074 488.714L43.0242 489.566L43.8709 489.793L83.8019 500.527L84.6486 500.755L85.261 500.125L114.753 469.827L115.34 469.223L115.132 468.405L104.693 427.373L104.476 426.521L103.629 426.293L63.6984 415.56L62.8517 415.332L62.2393 415.961L32.7476 446.26Z" stroke="#FF9900" stroke-width="3"/>
<path d="M-89.8315 413.31L-90.419 413.913L-90.211 414.731L-79.7717 455.763L-79.5549 456.615L-78.7082 456.843L-38.7772 467.577L-37.9305 467.804L-37.3181 467.175L-7.82645 436.876L-7.23887 436.273L-7.44686 435.455L-17.8862 394.423L-18.103 393.571L-18.9497 393.343L-58.8807 382.609L-59.7274 382.382L-60.3398 383.011L-89.8315 413.31Z" stroke="#FF9900" stroke-width="3"/>
<path d="M-18.7079 392.966L-19.2955 393.57L-19.0875 394.388L-8.64813 435.42L-8.43135 436.272L-7.58465 436.5L32.3463 447.233L33.193 447.461L33.8054 446.832L63.2971 416.533L63.8846 415.929L63.6766 415.112L53.2373 374.079L53.0205 373.227L52.1738 373L12.2428 362.266L11.3961 362.039L10.7837 362.668L-18.7079 392.966Z" stroke="#FF9900" stroke-width="3"/>
</g>
<path d="M-87.553 895.672L-88.1051 896.26L-87.9202 897.047L-78.3238 937.852L-78.1183 938.726L-77.2539 938.959L-39.0089 949.239L-38.1445 949.472L-37.531 948.818L-8.88238 918.292L-8.33019 917.704L-8.51516 916.918L-18.1115 876.112L-18.317 875.238L-19.1815 875.006L-57.4264 864.725L-58.2909 864.493L-58.9044 865.146L-87.553 895.672Z" stroke="#FF5500" stroke-width="3"/>
<path d="M29.8508 927.23L29.2987 927.819L29.4836 928.605L39.08 969.411L39.2855 970.285L40.15 970.517L78.3949 980.798L79.2594 981.03L79.8729 980.376L108.521 949.851L109.074 949.263L108.889 948.476L99.2923 907.67L99.0868 906.796L98.2223 906.564L59.9774 896.284L59.1129 896.051L58.4994 896.705L29.8508 927.23Z" stroke="#FF5500" stroke-width="3"/>
<path d="M98.388 906.186L97.8358 906.774L98.0207 907.561L107.617 948.367L107.823 949.24L108.687 949.473L146.932 959.753L147.796 959.986L148.41 959.332L177.059 928.807L177.611 928.218L177.426 927.432L167.829 886.626L167.624 885.752L166.759 885.52L128.515 875.239L127.65 875.007L127.037 875.661L98.388 906.186Z" stroke="#FF5500" stroke-width="3"/>
<path d="M-19.0154 874.627L-19.5675 875.216L-19.3826 876.002L-9.78623 916.808L-9.58073 917.682L-8.71625 917.914L29.5287 928.195L30.3931 928.427L31.0066 927.773L59.6552 897.248L60.2074 896.66L60.0224 895.873L50.4261 855.067L50.2206 854.193L49.3561 853.961L11.1112 843.681L10.2467 843.448L9.63322 844.102L-19.0154 874.627Z" stroke="#FF5500" stroke-width="3"/>
<path d="M49.5237 853.586L48.9715 854.175L49.1565 854.961L58.7528 895.767L58.9583 896.641L59.8228 896.873L98.0677 907.154L98.9322 907.386L99.5457 906.732L128.194 876.207L128.746 875.619L128.562 874.832L118.965 834.026L118.76 833.152L117.895 832.92L79.6503 822.64L78.7858 822.407L78.1723 823.061L49.5237 853.586Z" stroke="#FF5500" stroke-width="3"/>
<path d="M-67.8796 822.027L-68.4318 822.616L-68.2468 823.402L-58.6505 864.208L-58.445 865.082L-57.5805 865.314L-19.3356 875.595L-18.4711 875.827L-17.8576 875.173L10.791 844.648L11.3431 844.06L11.1582 843.273L1.56184 802.467L1.35634 801.593L0.491858 801.361L-37.7531 791.081L-38.6175 790.848L-39.231 791.502L-67.8796 822.027Z" stroke="#FF5500" stroke-width="3"/>
<path d="M0.657487 800.982L0.105304 801.571L0.290268 802.357L9.88662 843.163L10.0921 844.037L10.9566 844.269L49.2015 854.55L50.066 854.782L50.6795 854.128L79.3281 823.603L79.8803 823.015L79.6953 822.228L70.099 781.422L69.8934 780.548L69.029 780.316L30.784 770.036L29.9196 769.803L29.3061 770.457L0.657487 800.982Z" stroke="#FF5500" stroke-width="3"/>
<path d="M-48.2156 748.383L-48.7677 748.972L-48.5828 749.758L-38.9864 790.564L-38.7809 791.438L-37.9165 791.67L0.328474 801.951L1.19295 802.183L1.80645 801.529L30.455 771.004L31.0072 770.416L30.8222 769.629L21.2259 728.823L21.0204 727.949L20.1559 727.717L-18.089 717.436L-18.9535 717.204L-19.567 717.858L-48.2156 748.383Z" stroke="#FF5500" stroke-width="3"/>
<path d="M69.1878 779.942L68.6356 780.53L68.8205 781.317L78.4169 822.123L78.6224 822.996L79.4869 823.229L117.732 833.509L118.596 833.742L119.21 833.088L147.858 802.562L148.411 801.974L148.226 801.188L138.629 760.382L138.424 759.508L137.559 759.276L99.3143 748.995L98.4498 748.763L97.8363 749.416L69.1878 779.942Z" stroke="#FF5500" stroke-width="3"/>
<path d="M137.725 758.898L137.173 759.486L137.358 760.273L146.954 801.079L147.16 801.952L148.024 802.185L186.269 812.465L187.134 812.698L187.747 812.044L216.396 781.519L216.948 780.93L216.763 780.144L207.167 739.338L206.961 738.464L206.097 738.232L167.852 727.951L166.987 727.719L166.374 728.372L137.725 758.898Z" stroke="#FF5500" stroke-width="3"/>
<path d="M20.3215 727.339L19.7694 727.927L19.9543 728.714L29.5507 769.519L29.7562 770.393L30.6207 770.626L68.8656 780.906L69.7301 781.139L70.3436 780.485L98.9921 749.959L99.5443 749.371L99.3594 748.585L89.763 707.779L89.5575 706.905L88.693 706.673L50.4481 696.392L49.5836 696.16L48.9701 696.813L20.3215 727.339Z" stroke="#FF5500" stroke-width="3"/>
<path d="M88.8611 706.297L88.3089 706.886L88.4939 707.672L98.0902 748.478L98.2957 749.352L99.1602 749.584L137.405 759.865L138.27 760.097L138.883 759.443L167.532 728.918L168.084 728.33L167.899 727.543L158.303 686.737L158.097 685.863L157.233 685.631L118.988 675.351L118.123 675.118L117.51 675.772L88.8611 706.297Z" stroke="#FF5500" stroke-width="3"/>
<path d="M-28.5427 674.739L-29.0949 675.327L-28.9099 676.114L-19.3136 716.919L-19.1081 717.793L-18.2436 718.026L20.0013 728.306L20.8658 728.538L21.4793 727.885L50.1279 697.359L50.6801 696.771L50.4951 695.984L40.8988 655.179L40.6932 654.305L39.8288 654.072L1.58385 643.792L0.71937 643.56L0.10587 644.213L-28.5427 674.739Z" stroke="#FF5500" stroke-width="3"/>
<path d="M39.9944 653.694L39.4422 654.283L39.6272 655.069L49.2235 695.875L49.429 696.749L50.2935 696.981L88.5384 707.262L89.4029 707.494L90.0164 706.84L118.665 676.315L119.217 675.727L119.032 674.94L109.436 634.134L109.23 633.26L108.366 633.028L70.121 622.748L69.2565 622.515L68.643 623.169L39.9944 653.694Z" stroke="#FF5500" stroke-width="3"/>
<path d="M-77.4089 622.136L-77.9611 622.724L-77.7761 623.51L-68.1798 664.316L-67.9743 665.19L-67.1098 665.423L-28.8649 675.703L-28.0004 675.935L-27.3869 675.282L1.26167 644.756L1.81385 644.168L1.62889 643.381L-7.96746 602.576L-8.17296 601.702L-9.03744 601.469L-47.2824 591.189L-48.1468 590.957L-48.7603 591.61L-77.4089 622.136Z" stroke="#FF5500" stroke-width="3"/>
<path d="M-8.87181 601.091L-9.42399 601.679L-9.23903 602.466L0.357319 643.271L0.562821 644.145L1.4273 644.378L39.6722 654.658L40.5367 654.891L41.1502 654.237L69.7988 623.711L70.351 623.123L70.166 622.337L60.5697 581.531L60.3641 580.657L59.4997 580.424L21.2547 570.144L20.3903 569.912L19.7768 570.565L-8.87181 601.091Z" stroke="#FF5500" stroke-width="3"/>
<path d="M-57.7361 548.491L-58.2883 549.079L-58.1033 549.865L-48.5069 590.671L-48.3014 591.545L-47.437 591.778L-9.19203 602.058L-8.32756 602.29L-7.71406 601.637L20.9345 571.111L21.4867 570.523L21.3017 569.736L11.7054 528.931L11.4999 528.057L10.6354 527.824L-27.6095 517.544L-28.474 517.312L-29.0875 517.965L-57.7361 548.491Z" stroke="#FF5500" stroke-width="3"/>
<path d="M59.6658 580.046L59.1136 580.635L59.2986 581.421L68.8949 622.227L69.1004 623.101L69.9649 623.333L108.21 633.614L109.074 633.846L109.688 633.192L138.336 602.667L138.889 602.079L138.704 601.292L129.107 560.486L128.902 559.612L128.037 559.38L89.7923 549.1L88.9279 548.867L88.3144 549.521L59.6658 580.046Z" stroke="#FF5500" stroke-width="3"/>
<path d="M128.205 559.005L127.653 559.594L127.838 560.38L137.434 601.186L137.639 602.06L138.504 602.292L176.749 612.573L177.613 612.805L178.227 612.151L206.875 581.626L207.428 581.038L207.243 580.251L197.646 539.445L197.441 538.571L196.576 538.339L158.331 528.059L157.467 527.826L156.853 528.48L128.205 559.005Z" stroke="#FF5500" stroke-width="3"/>
<path d="M10.8015 527.446L10.2493 528.035L10.4343 528.821L20.0307 569.627L20.2362 570.501L21.1006 570.733L59.3456 581.014L60.21 581.246L60.8235 580.592L89.4721 550.067L90.0243 549.479L89.8393 548.692L80.243 507.886L80.0375 507.012L79.173 506.78L40.9281 496.499L40.0636 496.267L39.4501 496.921L10.8015 527.446Z" stroke="#FF5500" stroke-width="3"/>
<path d="M79.3386 506.401L78.7865 506.99L78.9714 507.776L88.5678 548.582L88.7733 549.456L89.6377 549.688L127.883 559.969L128.747 560.201L129.361 559.547L158.009 529.022L158.561 528.434L158.376 527.647L148.78 486.841L148.575 485.967L147.71 485.735L109.465 475.455L108.601 475.222L107.987 475.876L79.3386 506.401Z" stroke="#FF5500" stroke-width="3"/>
<path d="M-38.0647 474.843L-38.6169 475.431L-38.4319 476.218L-28.8356 517.023L-28.63 517.897L-27.7656 518.13L10.4794 528.41L11.3438 528.642L11.9573 527.989L40.6059 497.463L41.1581 496.875L40.9731 496.089L31.3768 455.283L31.1713 454.409L30.3068 454.176L-7.93813 443.896L-8.8026 443.664L-9.4161 444.317L-38.0647 474.843Z" stroke="#FF5500" stroke-width="3"/>
<path d="M30.4656 453.802L29.9134 454.39L30.0984 455.177L39.6947 495.983L39.9002 496.857L40.7647 497.089L79.0096 507.37L79.8741 507.602L80.4876 506.948L109.136 476.423L109.688 475.834L109.503 475.048L99.9071 434.242L99.7016 433.368L98.8371 433.136L60.5921 422.855L59.7277 422.623L59.1142 423.277L30.4656 453.802Z" stroke="#FF5500" stroke-width="3"/>
<path d="M-86.9377 422.244L-87.4899 422.832L-87.3049 423.618L-77.7086 464.424L-77.5031 465.298L-76.6386 465.53L-38.3937 475.811L-37.5292 476.043L-36.9157 475.39L-8.26714 444.864L-7.71496 444.276L-7.89992 443.489L-17.4963 402.684L-17.7018 401.81L-18.5662 401.577L-56.8112 391.297L-57.6756 391.064L-58.2891 391.718L-86.9377 422.244Z" stroke="#FF5500" stroke-width="3"/>
<path d="M-18.3987 401.203L-18.9508 401.791L-18.7659 402.577L-9.16954 443.383L-8.96403 444.257L-8.09956 444.489L30.1454 454.77L31.0098 455.002L31.6233 454.349L60.2719 423.823L60.8241 423.235L60.6391 422.448L51.0428 381.642L50.8373 380.769L49.9728 380.536L11.7279 370.256L10.8634 370.023L10.2499 370.677L-18.3987 401.203Z" stroke="#FF5500" stroke-width="3"/>
<path d="M-87.553 895.672L-88.1051 896.26L-87.9202 897.047L-78.3238 937.852L-78.1183 938.726L-77.2539 938.959L-39.0089 949.239L-38.1445 949.472L-37.531 948.818L-8.88238 918.292L-8.33019 917.704L-8.51516 916.918L-18.1115 876.112L-18.317 875.238L-19.1815 875.006L-57.4264 864.725L-58.2909 864.493L-58.9044 865.146L-87.553 895.672Z" stroke="#FF5500" stroke-width="3"/>
<path d="M-19.0154 874.627L-19.5675 875.216L-19.3826 876.002L-9.78623 916.808L-9.58073 917.682L-8.71625 917.914L29.5287 928.195L30.3931 928.427L31.0066 927.773L59.6552 897.248L60.2074 896.66L60.0224 895.873L50.4261 855.067L50.2206 854.193L49.3561 853.961L11.1112 843.681L10.2467 843.448L9.63322 844.102L-19.0154 874.627Z" stroke="#FF5500" stroke-width="3"/>
<path d="M49.5237 853.586L48.9715 854.175L49.1565 854.961L58.7528 895.767L58.9583 896.641L59.8228 896.873L98.0677 907.154L98.9322 907.386L99.5457 906.732L128.194 876.207L128.746 875.619L128.562 874.832L118.965 834.026L118.76 833.152L117.895 832.92L79.6503 822.64L78.7858 822.407L78.1723 823.061L49.5237 853.586Z" stroke="#FF5500" stroke-width="3"/>
<path d="M-67.8796 822.027L-68.4318 822.616L-68.2468 823.402L-58.6505 864.208L-58.445 865.082L-57.5805 865.314L-19.3356 875.595L-18.4711 875.827L-17.8576 875.173L10.791 844.648L11.3431 844.06L11.1582 843.273L1.56184 802.467L1.35634 801.593L0.491858 801.361L-37.7531 791.081L-38.6175 790.848L-39.231 791.502L-67.8796 822.027Z" stroke="#FF5500" stroke-width="3"/>
<path d="M0.657487 800.982L0.105304 801.571L0.290268 802.357L9.88662 843.163L10.0921 844.037L10.9566 844.269L49.2015 854.55L50.066 854.782L50.6795 854.128L79.3281 823.603L79.8803 823.015L79.6953 822.228L70.099 781.422L69.8934 780.548L69.029 780.316L30.784 770.036L29.9196 769.803L29.3061 770.457L0.657487 800.982Z" stroke="#FF5500" stroke-width="3"/>
<path d="M-48.2156 748.383L-48.7677 748.972L-48.5828 749.758L-38.9864 790.564L-38.7809 791.438L-37.9165 791.67L0.328474 801.951L1.19295 802.183L1.80645 801.529L30.455 771.004L31.0072 770.416L30.8222 769.629L21.2259 728.823L21.0204 727.949L20.1559 727.717L-18.089 717.436L-18.9535 717.204L-19.567 717.858L-48.2156 748.383Z" stroke="#FF5500" stroke-width="3"/>
<path d="M69.1878 779.942L68.6356 780.53L68.8205 781.317L78.4169 822.123L78.6224 822.996L79.4869 823.229L117.732 833.509L118.596 833.742L119.21 833.088L147.858 802.562L148.411 801.974L148.226 801.188L138.629 760.382L138.424 759.508L137.559 759.276L99.3143 748.995L98.4498 748.763L97.8363 749.416L69.1878 779.942Z" stroke="#FF5500" stroke-width="3"/>
<path d="M137.725 758.898L137.173 759.486L137.358 760.273L146.954 801.079L147.16 801.952L148.024 802.185L186.269 812.465L187.134 812.698L187.747 812.044L216.396 781.519L216.948 780.93L216.763 780.144L207.167 739.338L206.961 738.464L206.097 738.232L167.852 727.951L166.987 727.719L166.374 728.372L137.725 758.898Z" stroke="#FF5500" stroke-width="3"/>
<path d="M20.3215 727.339L19.7694 727.927L19.9543 728.714L29.5507 769.519L29.7562 770.393L30.6207 770.626L68.8656 780.906L69.7301 781.139L70.3436 780.485L98.9921 749.959L99.5443 749.371L99.3594 748.585L89.763 707.779L89.5575 706.905L88.693 706.673L50.4481 696.392L49.5836 696.16L48.9701 696.813L20.3215 727.339Z" stroke="#FF5500" stroke-width="3"/>
<path d="M88.8611 706.297L88.3089 706.886L88.4939 707.672L98.0902 748.478L98.2957 749.352L99.1602 749.584L137.405 759.865L138.27 760.097L138.883 759.443L167.532 728.918L168.084 728.33L167.899 727.543L158.303 686.737L158.097 685.863L157.233 685.631L118.988 675.351L118.123 675.118L117.51 675.772L88.8611 706.297Z" stroke="#FF5500" stroke-width="3"/>
<path d="M-28.5427 674.739L-29.0949 675.327L-28.9099 676.114L-19.3136 716.919L-19.1081 717.793L-18.2436 718.026L20.0013 728.306L20.8658 728.538L21.4793 727.885L50.1279 697.359L50.6801 696.771L50.4951 695.984L40.8988 655.179L40.6932 654.305L39.8288 654.072L1.58385 643.792L0.71937 643.56L0.10587 644.213L-28.5427 674.739Z" stroke="#FF5500" stroke-width="3"/>
<path d="M39.9944 653.694L39.4422 654.283L39.6272 655.069L49.2235 695.875L49.429 696.749L50.2935 696.981L88.5384 707.262L89.4029 707.494L90.0164 706.84L118.665 676.315L119.217 675.727L119.032 674.94L109.436 634.134L109.23 633.26L108.366 633.028L70.121 622.748L69.2565 622.515L68.643 623.169L39.9944 653.694Z" stroke="#FF5500" stroke-width="3"/>
<path d="M-77.4089 622.136L-77.9611 622.724L-77.7761 623.51L-68.1798 664.316L-67.9743 665.19L-67.1098 665.423L-28.8649 675.703L-28.0004 675.935L-27.3869 675.282L1.26167 644.756L1.81385 644.168L1.62889 643.381L-7.96746 602.576L-8.17296 601.702L-9.03744 601.469L-47.2824 591.189L-48.1468 590.957L-48.7603 591.61L-77.4089 622.136Z" stroke="#FF5500" stroke-width="3"/>
<path d="M-8.87181 601.091L-9.42399 601.679L-9.23903 602.466L0.357319 643.271L0.562821 644.145L1.4273 644.378L39.6722 654.658L40.5367 654.891L41.1502 654.237L69.7988 623.711L70.351 623.123L70.166 622.337L60.5697 581.531L60.3641 580.657L59.4997 580.424L21.2547 570.144L20.3903 569.912L19.7768 570.565L-8.87181 601.091Z" stroke="#FF5500" stroke-width="3"/>
<path d="M-57.7361 548.491L-58.2883 549.079L-58.1033 549.865L-48.5069 590.671L-48.3014 591.545L-47.437 591.778L-9.19203 602.058L-8.32756 602.29L-7.71406 601.637L20.9345 571.111L21.4867 570.523L21.3017 569.736L11.7054 528.931L11.4999 528.057L10.6354 527.824L-27.6095 517.544L-28.474 517.312L-29.0875 517.965L-57.7361 548.491Z" stroke="#FF5500" stroke-width="3"/>
<path d="M59.6658 580.046L59.1136 580.635L59.2986 581.421L68.8949 622.227L69.1004 623.101L69.9649 623.333L108.21 633.614L109.074 633.846L109.688 633.192L138.336 602.667L138.889 602.079L138.704 601.292L129.107 560.486L128.902 559.612L128.037 559.38L89.7923 549.1L88.9279 548.867L88.3144 549.521L59.6658 580.046Z" stroke="#FF5500" stroke-width="3"/>
<path d="M128.205 559.005L127.653 559.594L127.838 560.38L137.434 601.186L137.639 602.06L138.504 602.292L176.749 612.573L177.613 612.805L178.227 612.151L206.875 581.626L207.428 581.038L207.243 580.251L197.646 539.445L197.441 538.571L196.576 538.339L158.331 528.059L157.467 527.826L156.853 528.48L128.205 559.005Z" stroke="#FF5500" stroke-width="3"/>
<path d="M10.8015 527.446L10.2493 528.035L10.4343 528.821L20.0307 569.627L20.2362 570.501L21.1006 570.733L59.3456 581.014L60.21 581.246L60.8235 580.592L89.4721 550.067L90.0243 549.479L89.8393 548.692L80.243 507.886L80.0375 507.012L79.173 506.78L40.9281 496.499L40.0636 496.267L39.4501 496.921L10.8015 527.446Z" stroke="#FF5500" stroke-width="3"/>
<path d="M79.3386 506.401L78.7865 506.99L78.9714 507.776L88.5678 548.582L88.7733 549.456L89.6377 549.688L127.883 559.969L128.747 560.201L129.361 559.547L158.009 529.022L158.561 528.434L158.376 527.647L148.78 486.841L148.575 485.967L147.71 485.735L109.465 475.455L108.601 475.222L107.987 475.876L79.3386 506.401Z" stroke="#FF5500" stroke-width="3"/>
<path d="M-38.0647 474.843L-38.6169 475.431L-38.4319 476.218L-28.8356 517.023L-28.63 517.897L-27.7656 518.13L10.4794 528.41L11.3438 528.642L11.9573 527.989L40.6059 497.463L41.1581 496.875L40.9731 496.089L31.3768 455.283L31.1713 454.409L30.3068 454.176L-7.93813 443.896L-8.8026 443.664L-9.4161 444.317L-38.0647 474.843Z" stroke="#FF5500" stroke-width="3"/>
<path d="M30.4656 453.802L29.9134 454.39L30.0984 455.177L39.6947 495.983L39.9002 496.857L40.7647 497.089L79.0096 507.37L79.8741 507.602L80.4876 506.948L109.136 476.423L109.688 475.834L109.503 475.048L99.9071 434.242L99.7016 433.368L98.8371 433.136L60.5921 422.855L59.7277 422.623L59.1142 423.277L30.4656 453.802Z" stroke="#FF5500" stroke-width="3"/>
<path d="M-86.9377 422.244L-87.4899 422.832L-87.3049 423.618L-77.7086 464.424L-77.5031 465.298L-76.6386 465.53L-38.3937 475.811L-37.5292 476.043L-36.9157 475.39L-8.26714 444.864L-7.71496 444.276L-7.89992 443.489L-17.4963 402.684L-17.7018 401.81L-18.5662 401.577L-56.8112 391.297L-57.6756 391.064L-58.2891 391.718L-86.9377 422.244Z" stroke="#FF5500" stroke-width="3"/>
<path d="M-18.3987 401.203L-18.9508 401.791L-18.7659 402.577L-9.16954 443.383L-8.96403 444.257L-8.09956 444.489L30.1454 454.77L31.0098 455.002L31.6233 454.349L60.2719 423.823L60.8241 423.235L60.6391 422.448L51.0428 381.642L50.8373 380.769L49.9728 380.536L11.7279 370.256L10.8634 370.023L10.2499 370.677L-18.3987 401.203Z" stroke="#FF5500" stroke-width="3"/>
<defs>
<filter id="filter0_f_25_3169" x="-430.075" y="367.988" width="612" height="577.36" filterUnits="userSpaceOnUse" color-interpolation-filters="sRGB">
<feFlood flood-opacity="0" result="BackgroundImageFix"/>
<feBlend mode="normal" in="SourceGraphic" in2="BackgroundImageFix" result="shape"/>
<feGaussianBlur stdDeviation="63" result="effect1_foregroundBlur_25_3169"/>
</filter>
<filter id="filter1_f_25_3169" x="-521.928" y="414.422" width="653.185" height="511.255" filterUnits="userSpaceOnUse" color-interpolation-filters="sRGB">
<feFlood flood-opacity="0" result="BackgroundImageFix"/>
<feBlend mode="normal" in="SourceGraphic" in2="BackgroundImageFix" result="shape"/>
<feGaussianBlur stdDeviation="2.5" result="effect1_foregroundBlur_25_3169"/>
</filter>
<filter id="filter2_f_25_3169" x="-718.526" y="275.856" width="956.546" height="707.4" filterUnits="userSpaceOnUse" color-interpolation-filters="sRGB">
<feFlood flood-opacity="0" result="BackgroundImageFix"/>
<feBlend mode="normal" in="SourceGraphic" in2="BackgroundImageFix" result="shape"/>
<feGaussianBlur stdDeviation="3" result="effect1_foregroundBlur_25_3169"/>
</filter>
</defs>
</svg>
