<svg width="27" height="21" viewBox="0 0 27 21" fill="none" xmlns="http://www.w3.org/2000/svg">
<path d="M2.60586 21C1.89086 21 1.27856 20.7427 0.768961 20.2282C0.259361 19.7137 0.00499492 19.096 0.00586158 18.375V2.625C0.00586158 1.90313 0.260662 1.28494 0.770261 0.770439C1.27986 0.255939 1.89173 -0.000872771 2.60586 2.22835e-06H23.4059C24.1209 2.22835e-06 24.7332 0.257252 25.2428 0.771752C25.7524 1.28625 26.0067 1.904 26.0059 2.625V18.375C26.0059 19.0969 25.7511 19.7151 25.2415 20.2296C24.7319 20.7441 24.12 21.0009 23.4059 21H2.60586ZM13.0059 11.5828C13.1142 11.5828 13.2282 11.5662 13.3478 11.5329C13.4674 11.4997 13.5809 11.4507 13.6884 11.3859L22.8859 5.57813C23.0592 5.46875 23.1892 5.33181 23.2759 5.16731C23.3625 5.00281 23.4059 4.82256 23.4059 4.62656C23.4059 4.18906 23.2217 3.86094 22.8534 3.64219C22.485 3.42344 22.1059 3.43438 21.7159 3.675L13.0059 9.1875L4.29586 3.675C3.90586 3.43438 3.52669 3.42913 3.15836 3.65925C2.79003 3.88938 2.60586 4.21181 2.60586 4.62656C2.60586 4.84531 2.64919 5.03694 2.73586 5.20144C2.82253 5.36594 2.95253 5.4915 3.12586 5.57813L12.3234 11.3859C12.4317 11.4516 12.5457 11.501 12.6653 11.5342C12.7849 11.5675 12.8984 11.5837 13.0059 11.5828Z" fill="#B4B8B8"/>
</svg>
