<svg width="15" height="13" viewBox="0 0 15 13" fill="none" xmlns="http://www.w3.org/2000/svg">
<path d="M1.61094 12.7171C1.22298 12.7171 0.890754 12.573 0.614249 12.2848C0.337744 11.9967 0.199726 11.6507 0.200197 11.2468L0.200197 2.42533C0.200197 2.02101 0.338449 1.67477 0.614954 1.3866C0.891459 1.09843 1.22345 0.954589 1.61094 0.955079L12.8969 0.955079C13.2848 0.955079 13.617 1.09916 13.8935 1.38733C14.17 1.6755 14.3081 2.0215 14.3076 2.42533V11.2468C14.3076 11.6512 14.1693 11.9974 13.8928 12.2856C13.6163 12.5737 13.2843 12.7176 12.8969 12.7171H1.61094ZM7.2539 7.44257C7.31268 7.44257 7.37451 7.43325 7.43941 7.41463C7.5043 7.39601 7.5659 7.36856 7.62421 7.3323L12.6147 4.07936C12.7088 4.0181 12.7793 3.94141 12.8263 3.84927C12.8733 3.75713 12.8969 3.65618 12.8969 3.5464C12.8969 3.30136 12.7969 3.11757 12.5971 2.99505C12.3972 2.87253 12.1915 2.87866 11.9799 3.01343L7.2539 6.10096L2.52792 3.01343C2.31631 2.87866 2.11057 2.87572 1.91072 3.00461C1.71086 3.1335 1.61094 3.3141 1.61094 3.5464C1.61094 3.66892 1.63445 3.77625 1.68147 3.86838C1.7285 3.96052 1.79903 4.03085 1.89308 4.07936L6.88358 7.3323C6.94236 7.36905 7.00419 7.39674 7.06909 7.41537C7.13398 7.43399 7.19558 7.44306 7.2539 7.44257Z" fill="#F5F5F5"/>
</svg>
