<svg width="9" height="8" viewBox="0 0 9 8" fill="none" xmlns="http://www.w3.org/2000/svg">
<path d="M1.4686 3.43168C1.43999 3.4576 1.40586 3.47819 1.36819 3.49224C1.33052 3.5063 1.29008 3.51354 1.24923 3.51354C1.20838 3.51354 1.16794 3.5063 1.13027 3.49224C1.0926 3.47819 1.05847 3.4576 1.02985 3.43168C0.971619 3.37902 0.938986 3.30813 0.938986 3.23428C0.938986 3.16044 0.971619 3.08955 1.02985 3.03688L3.7438 0.600082C4.3558 0.177682 4.97141 -0.025118 5.5843 0.00248201C6.3565 0.037682 6.95771 0.299282 7.46801 0.728482C7.98821 1.16608 8.3248 1.79048 8.3248 2.54728C8.3248 3.12808 8.1349 3.63928 7.73395 4.09288L3.9076 7.59688C3.5206 7.87888 3.0904 8.01528 2.6296 7.99888C2.0446 7.97728 1.60945 7.80928 1.2859 7.52488C0.907005 7.19248 0.674805 6.78408 0.674805 6.23488C0.674805 5.79808 0.844455 5.39488 1.19455 5.01648L4.56235 1.96008C4.83236 1.70408 5.0965 1.55208 5.3665 1.51528C5.54672 1.49005 5.73114 1.50438 5.90369 1.55702C6.07624 1.60966 6.2317 1.69901 6.3565 1.81728C6.59591 2.04248 6.6985 2.32328 6.6625 2.64288C6.63775 2.86088 6.53741 3.06168 6.3529 3.25408L3.2569 6.07328C3.22848 6.0993 3.19451 6.12002 3.15699 6.13425C3.11946 6.14847 3.07912 6.15591 3.03832 6.15614C2.99752 6.15636 2.95708 6.14936 2.91936 6.13555C2.88164 6.12173 2.84739 6.10138 2.8186 6.07568C2.76001 6.02333 2.72689 5.95262 2.72638 5.87877C2.72588 5.80493 2.75803 5.73386 2.8159 5.68088L5.89705 2.87608C5.98705 2.78208 6.03431 2.68728 6.04556 2.58648C6.06356 2.42648 6.02035 2.30848 5.90831 2.20328C5.85172 2.1494 5.78102 2.10879 5.70251 2.08507C5.624 2.06134 5.54011 2.05523 5.4583 2.06728C5.34896 2.08208 5.19595 2.17048 5.0074 2.34888L1.65355 5.39168C1.4119 5.65368 1.2949 5.93168 1.2949 6.23528C1.2949 6.61688 1.45015 6.89008 1.7188 7.12568C1.93255 7.31368 2.2228 7.42568 2.6548 7.44168C2.9608 7.45248 3.2443 7.36248 3.4909 7.18488L7.26956 3.72488C7.55981 3.39408 7.7047 3.00488 7.7047 2.54768C7.7047 1.95488 7.44506 1.47408 7.04411 1.13648C6.6346 0.791682 6.1666 0.588482 5.55325 0.560482C5.09965 0.539682 4.624 0.696482 4.1506 1.01888L1.4686 3.43168Z" fill="#797979"/>
</svg>
