<svg width="27" height="15" viewBox="0 0 27 15" fill="none" xmlns="http://www.w3.org/2000/svg">
<path d="M25.868 12.7007C25.8365 12.6364 25.8071 12.5831 25.7799 12.5403C25.3288 11.7701 24.4667 10.8247 23.1943 9.70385L23.1674 9.67819L23.1539 9.6656L23.1403 9.6527H23.1267C22.5492 9.13078 22.1835 8.77985 22.0303 8.60018C21.7501 8.25793 21.6873 7.9115 21.8405 7.56048C21.9487 7.29527 22.3551 6.73519 23.0588 5.87946C23.429 5.42596 23.7221 5.06249 23.9386 4.78865C25.5 2.82072 26.177 1.56318 25.9693 1.01555L25.8886 0.887576C25.8344 0.810531 25.6946 0.740048 25.4692 0.675769C25.2433 0.611624 24.9546 0.601017 24.6026 0.643764L20.704 0.669296C20.6408 0.648079 20.5507 0.650057 20.4332 0.675769C20.3158 0.70148 20.2571 0.714382 20.2571 0.714382L20.1893 0.746521L20.1354 0.785133C20.0903 0.810665 20.0406 0.855571 19.9864 0.919761C19.9325 0.983725 19.8874 1.05879 19.8514 1.14433C19.4269 2.17959 18.9444 3.14211 18.4028 4.03186C18.0688 4.56241 17.7621 5.02221 17.4821 5.41153C17.2024 5.80071 16.9677 6.08745 16.7783 6.27125C16.5887 6.45523 16.4175 6.60263 16.2638 6.71397C16.1103 6.82536 15.9932 6.87242 15.912 6.8552C15.8307 6.83799 15.7541 6.82091 15.6817 6.80382C15.5554 6.72678 15.4538 6.622 15.3773 6.4894C15.3003 6.35679 15.2486 6.18989 15.2215 5.98883C15.1946 5.78763 15.1786 5.61457 15.1741 5.46907C15.1699 5.32374 15.1718 5.11818 15.181 4.85297C15.1903 4.58763 15.1946 4.4081 15.1946 4.31397C15.1946 3.9888 15.2013 3.63589 15.2147 3.25516C15.2283 2.87443 15.2394 2.57277 15.2486 2.35053C15.2578 2.12807 15.2621 1.89271 15.2621 1.64459C15.2621 1.39646 15.2462 1.20187 15.2147 1.06063C15.1836 0.91958 15.1358 0.782661 15.0729 0.649922C15.0096 0.517318 14.917 0.414741 14.7954 0.341922C14.6736 0.269192 14.5221 0.211475 14.3419 0.168592C13.8636 0.0659704 13.2544 0.0104566 12.5142 0.00182606C10.8357 -0.0152551 9.7572 0.0875015 9.27889 0.309962C9.08937 0.403953 8.91788 0.532376 8.76454 0.694828C8.60205 0.883125 8.57939 0.985883 8.69669 1.00278C9.23825 1.07969 9.62164 1.26368 9.84729 1.55455L9.9286 1.70869C9.99185 1.81989 10.055 2.01678 10.1182 2.29907C10.1813 2.58136 10.222 2.89363 10.24 3.2357C10.285 3.86038 10.285 4.39511 10.24 4.83994C10.1948 5.28495 10.1521 5.63138 10.1114 5.87951C10.0707 6.12764 10.0098 6.3287 9.9286 6.48265C9.84729 6.63665 9.79319 6.73078 9.76607 6.76494C9.73899 6.79911 9.71642 6.82064 9.6985 6.82909C9.5812 6.8717 9.4592 6.89341 9.33294 6.89341C9.20649 6.89341 9.05315 6.83345 8.87269 6.71361C8.69228 6.59377 8.50504 6.42916 8.31097 6.21951C8.11691 6.00982 7.89804 5.71679 7.65429 5.34037C7.41072 4.96396 7.158 4.51908 6.89628 4.00575L6.67974 3.63347C6.54437 3.39397 6.35945 3.04524 6.1248 2.5876C5.89001 2.12978 5.68247 1.68693 5.50206 1.25914C5.42995 1.07947 5.32161 0.942685 5.17723 0.848559L5.10947 0.809946C5.06443 0.775784 4.99212 0.739508 4.89293 0.700851C4.7936 0.662239 4.68995 0.634549 4.58156 0.617513L0.872401 0.643045C0.493372 0.643045 0.236197 0.72445 0.100783 0.887036L0.0465882 0.963946C0.0195147 1.00678 0.00585938 1.0752 0.00585938 1.16937C0.00585938 1.2635 0.0329329 1.37902 0.0871273 1.5158C0.628597 2.72228 1.21743 3.88582 1.85364 5.00661C2.48984 6.12741 3.04269 7.03024 3.51185 7.7143C3.98111 8.39885 4.45943 9.04492 4.9468 9.6522C5.43417 10.2597 5.75677 10.649 5.91461 10.8201C6.07265 10.9914 6.19678 11.1195 6.287 11.2051L6.62549 11.513C6.84208 11.7184 7.16014 11.9644 7.5798 12.2509C7.99956 12.5377 8.46426 12.82 8.97416 13.0982C9.48414 13.3761 10.0774 13.6028 10.7544 13.7782C11.4312 13.9537 12.09 14.0241 12.7308 13.9902H14.2876C14.6033 13.9643 14.8425 13.8702 15.0051 13.7077L15.059 13.6434C15.0952 13.5923 15.1291 13.513 15.1604 13.4062C15.1921 13.2993 15.2078 13.1815 15.2078 13.0533C15.1985 12.6855 15.2281 12.354 15.2956 12.0589C15.3631 11.7638 15.44 11.5413 15.526 11.3915C15.612 11.2418 15.709 11.1155 15.8169 11.0131C15.9251 10.9105 16.0022 10.8483 16.0475 10.8269C16.0924 10.8054 16.1283 10.7908 16.1554 10.782C16.372 10.7136 16.6269 10.7799 16.9204 10.9811C17.2138 11.1822 17.4889 11.4304 17.7463 11.7255C18.0035 12.0208 18.3126 12.3522 18.6735 12.72C19.0346 13.088 19.3504 13.3615 19.6211 13.5414L19.8917 13.6954C20.0724 13.7982 20.3071 13.8923 20.5959 13.9778C20.8843 14.0633 21.1369 14.0847 21.3538 14.042L24.8192 13.9907C25.1619 13.9907 25.4286 13.9369 25.6178 13.8302C25.8074 13.7232 25.92 13.6054 25.9563 13.4773C25.9925 13.349 25.9945 13.2034 25.9632 13.0407C25.9311 12.8784 25.8995 12.7649 25.868 12.7007Z" fill="#B4B8B8"/>
</svg>
