<svg width="16" height="9" viewBox="0 0 16 9" fill="none" xmlns="http://www.w3.org/2000/svg">
<path d="M14.9847 7.87858C14.9676 7.84245 14.9517 7.81248 14.9369 7.78847C14.6922 7.3558 14.2244 6.82474 13.534 6.19513L13.5194 6.18071L13.5121 6.17364L13.5047 6.16639H13.4973C13.184 5.87321 12.9855 5.67608 12.9024 5.57516C12.7504 5.3829 12.7163 5.1883 12.7994 4.99112C12.8581 4.84214 13.0787 4.52752 13.4605 4.04684C13.6614 3.79209 13.8204 3.58791 13.9379 3.43409C14.7851 2.32863 15.1524 1.62223 15.0397 1.31461L14.9959 1.24272C14.9665 1.19944 14.8906 1.15985 14.7684 1.12374C14.6458 1.08771 14.4892 1.08175 14.2981 1.10577L12.1828 1.12011C12.1485 1.10819 12.0996 1.1093 12.0358 1.12374C11.9722 1.13819 11.9403 1.14543 11.9403 1.14543L11.9035 1.16349L11.8743 1.18518C11.8498 1.19952 11.8229 1.22474 11.7935 1.2608C11.7642 1.29673 11.7397 1.3389 11.7202 1.38695C11.4899 1.96849 11.228 2.50917 10.9342 3.00898C10.753 3.307 10.5866 3.56529 10.4346 3.78398C10.2828 4.0026 10.1555 4.16367 10.0528 4.26692C9.94986 4.37027 9.85699 4.45306 9.77358 4.51561C9.69031 4.57818 9.62674 4.60461 9.58272 4.59494C9.5386 4.58527 9.49705 4.57568 9.45771 4.56608C9.3892 4.5228 9.3341 4.46394 9.29255 4.38946C9.25082 4.31497 9.22273 4.22121 9.20804 4.10827C9.19342 3.99525 9.18478 3.89804 9.18231 3.8163C9.18002 3.73467 9.18107 3.6192 9.18604 3.47022C9.19113 3.32117 9.19342 3.22032 9.19342 3.16745C9.19342 2.98479 9.19705 2.78655 9.20433 2.57268C9.21174 2.35881 9.21773 2.18935 9.22275 2.06452C9.22774 1.93955 9.23006 1.80734 9.23006 1.66796C9.23006 1.52858 9.22141 1.41927 9.20433 1.33994C9.18746 1.2607 9.16155 1.18379 9.12741 1.10922C9.09306 1.03474 9.04279 0.977115 8.97683 0.93621C8.91074 0.895355 8.82857 0.862933 8.73078 0.838845C8.47123 0.781198 8.14072 0.750014 7.7391 0.745166C6.82835 0.735571 6.24315 0.793293 5.98362 0.918257C5.88079 0.971055 5.78774 1.04319 5.70454 1.13445C5.61638 1.24022 5.60408 1.29794 5.66773 1.30744C5.96157 1.35064 6.1696 1.45399 6.29203 1.61739L6.33615 1.70397C6.37047 1.76644 6.40474 1.87703 6.43903 2.0356C6.47328 2.19418 6.49538 2.36959 6.5051 2.56174C6.52954 2.91265 6.52954 3.21302 6.5051 3.4629C6.48058 3.71288 6.45743 3.90748 6.43533 4.04686C6.41323 4.18624 6.3802 4.29919 6.33615 4.38567C6.29203 4.47218 6.26268 4.52505 6.24796 4.54424C6.23327 4.56343 6.22103 4.57553 6.2113 4.58027C6.14766 4.60421 6.08146 4.61641 6.01295 4.61641C5.94434 4.61641 5.86114 4.58272 5.76322 4.5154C5.66533 4.44809 5.56374 4.35562 5.45844 4.23785C5.35314 4.12006 5.23439 3.95546 5.10213 3.74401C4.96997 3.53256 4.83285 3.28266 4.69084 2.99431L4.57334 2.78518C4.49989 2.65065 4.39956 2.45476 4.27224 2.19769C4.14484 1.94051 4.03224 1.69175 3.93435 1.45144C3.89522 1.35052 3.83643 1.27368 3.75809 1.22081L3.72133 1.19911C3.69689 1.17992 3.65766 1.15955 3.60384 1.13783C3.54994 1.11614 3.4937 1.10059 3.43489 1.09102L1.42233 1.10536C1.21667 1.10536 1.07713 1.15109 1.00365 1.24242L0.974248 1.28562C0.959558 1.30969 0.952148 1.34812 0.952148 1.40102C0.952148 1.45389 0.966838 1.51878 0.996244 1.59562C1.29004 2.27334 1.60954 2.92694 1.95474 3.55653C2.29994 4.18612 2.59991 4.69327 2.85447 5.07753C3.10909 5.46206 3.36862 5.82498 3.63306 6.16611C3.89751 6.50737 4.07255 6.72606 4.15819 6.82214C4.24394 6.91839 4.31129 6.99036 4.36025 7.03841L4.54391 7.2114C4.66143 7.32677 4.834 7.46493 5.06171 7.6259C5.28947 7.78698 5.54161 7.94555 5.81828 8.10187C6.09499 8.25794 6.41691 8.3853 6.78421 8.48381C7.15145 8.58241 7.5089 8.62198 7.85659 8.60289H8.7013C8.87261 8.58837 9.0024 8.53549 9.09062 8.44424L9.11985 8.40811C9.1395 8.37942 9.1579 8.33486 9.17487 8.27489C9.19206 8.21482 9.2006 8.14863 9.2006 8.07665C9.19558 7.87002 9.21161 7.6838 9.24825 7.51801C9.28485 7.35227 9.32658 7.2273 9.37325 7.14315C9.41989 7.05906 9.47253 6.98811 9.53111 6.93059C9.58982 6.87294 9.63165 6.83802 9.65619 6.826C9.68058 6.81391 9.70006 6.8057 9.71475 6.80078C9.83227 6.76235 9.97057 6.79957 10.1299 6.91261C10.289 7.02556 10.4383 7.16501 10.578 7.33075C10.7175 7.49665 10.8852 7.68277 11.0811 7.88939C11.277 8.09609 11.4484 8.24974 11.5952 8.35081L11.7421 8.43732C11.8401 8.49504 11.9674 8.54792 12.1242 8.59597C12.2806 8.64399 12.4177 8.65601 12.5354 8.632L14.4157 8.60321C14.6016 8.60321 14.7463 8.57299 14.849 8.51302C14.9519 8.45295 15.013 8.38677 15.0327 8.31478C15.0523 8.24272 15.0534 8.16096 15.0364 8.06955C15.019 7.97837 15.0018 7.91462 14.9847 7.87858Z" fill="#F5F5F5"/>
</svg>
