<svg width="340" height="340" viewBox="0 0 340 340" fill="none" xmlns="http://www.w3.org/2000/svg">
<path fill-rule="evenodd" clip-rule="evenodd" d="M207.309 335.893C209.879 335.318 212.427 334.684 214.951 333.994C241.528 307.494 257.974 270.839 257.974 230.343C257.974 149.507 192.443 83.9754 111.606 83.9754C69.3849 83.9754 31.3389 101.852 4.62473 130.45C4.13382 132.51 3.68041 134.585 3.26527 136.674C27.3385 118.686 57.2133 108.036 89.5758 108.036C169.291 108.036 233.913 172.658 233.913 252.373C233.913 283.496 224.062 312.319 207.309 335.893ZM277.974 230.343C277.974 262.755 268.706 293.002 252.675 318.578C258.486 315.337 264.088 311.765 269.454 307.888C289.937 279.998 302.035 245.568 302.035 208.312C302.035 115.308 226.641 39.9133 133.637 39.9133C93.2092 39.9133 56.109 54.1593 27.0823 77.905C24.0889 82.5408 21.3149 87.3315 18.7749 92.2626C45.2907 74.4009 77.231 63.9754 111.606 63.9754C203.489 63.9754 277.974 138.461 277.974 230.343ZM74.3798 29.4212C93.0127 23.2523 112.935 19.9133 133.637 19.9133C237.686 19.9133 322.035 104.262 322.035 208.312C322.035 225.582 319.711 242.31 315.359 258.2C330.995 232.486 340 202.294 340 170C340 76.1116 263.888 0 170 0C134.544 0 101.624 10.8543 74.3798 29.4212ZM177.97 339.816C200.192 317.354 213.913 286.466 213.913 252.373C213.913 183.703 158.245 128.036 89.5758 128.036C54.4134 128.036 22.66 142.631 0.0439662 166.095C0.0147076 167.393 0 168.695 0 170C0 171.192 0.0122752 172.382 0.0367061 173.568C19.195 160.956 42.1333 153.616 66.7856 153.616C133.914 153.616 188.333 208.035 188.333 275.164C188.333 299.001 181.471 321.235 169.615 340L169.814 340L170 340C172.671 340 175.328 339.938 177.97 339.816ZM137.309 336.86C140.272 337.437 143.263 337.937 146.279 338.358C160.084 321.016 168.333 299.053 168.333 275.164C168.333 219.081 122.869 173.616 66.7856 173.616C42.2119 173.616 19.6768 182.345 2.11177 196.871C2.56071 199.698 3.07934 202.502 3.66584 205.281C16.4025 199.424 30.5773 196.158 45.5149 196.158C100.896 196.158 145.791 241.053 145.791 296.434C145.791 310.818 142.763 324.494 137.309 336.86ZM117.614 331.775C122.851 321.112 125.791 309.117 125.791 296.434C125.791 252.099 89.8504 216.158 45.5149 216.158C32.3884 216.158 19.9978 219.308 9.058 224.894C10.4096 228.858 11.9036 232.756 13.5338 236.582C17.5217 235.975 21.6058 235.66 25.7634 235.66C70.2362 235.66 106.289 271.712 106.289 316.185C106.289 319.972 106.027 323.698 105.521 327.346C109.479 328.97 113.512 330.448 117.614 331.775ZM23.1588 255.715C38.3154 281.624 60.1331 303.162 86.2624 317.98C86.2798 317.384 86.2885 316.785 86.2885 316.185C86.2885 282.758 59.1905 255.66 25.7634 255.66C24.8908 255.66 24.0224 255.678 23.1588 255.715Z" fill="url(#paint0_linear_1137_2712)"/>
<g filter="url(#filter0_d_1137_2712)">
<path d="M178.779 81.7873V215.605H151.336L98.0827 138.373H97.2333V215.605H64.8896V81.7873H92.7248L145.39 158.89H146.5V81.7873H178.779Z" fill="white"/>
</g>
<g filter="url(#filter1_d_1137_2712)">
<path fill-rule="evenodd" clip-rule="evenodd" d="M214.346 155.322C179.483 155.707 151.34 184.088 151.34 219.043C151.34 254.237 179.87 282.768 215.063 282.768C250.256 282.768 278.785 254.237 278.785 219.043C278.785 208.624 276.285 198.79 271.852 190.106H214.352V214.624H253.396C253.515 215.848 253.576 217.088 253.576 218.343C253.576 239.228 236.647 256.158 215.763 256.158C194.879 256.158 177.949 239.228 177.949 218.343C177.949 197.934 194.118 181.3 214.346 180.555V155.322Z" fill="white"/>
</g>
<defs>
<filter id="filter0_d_1137_2712" x="44.8887" y="73.7871" width="139.891" height="159.818" filterUnits="userSpaceOnUse" color-interpolation-filters="sRGB">
<feFlood flood-opacity="0" result="BackgroundImageFix"/>
<feColorMatrix in="SourceAlpha" type="matrix" values="0 0 0 0 0 0 0 0 0 0 0 0 0 0 0 0 0 0 127 0" result="hardAlpha"/>
<feOffset dx="-7" dy="5"/>
<feGaussianBlur stdDeviation="6.5"/>
<feComposite in2="hardAlpha" operator="out"/>
<feColorMatrix type="matrix" values="0 0 0 0 0 0 0 0 0 0 0 0 0 0 0 0 0 0 0.25 0"/>
<feBlend mode="normal" in2="BackgroundImageFix" result="effect1_dropShadow_1137_2712"/>
<feBlend mode="normal" in="SourceGraphic" in2="effect1_dropShadow_1137_2712" result="shape"/>
</filter>
<filter id="filter1_d_1137_2712" x="131.34" y="147.322" width="153.445" height="153.445" filterUnits="userSpaceOnUse" color-interpolation-filters="sRGB">
<feFlood flood-opacity="0" result="BackgroundImageFix"/>
<feColorMatrix in="SourceAlpha" type="matrix" values="0 0 0 0 0 0 0 0 0 0 0 0 0 0 0 0 0 0 127 0" result="hardAlpha"/>
<feOffset dx="-7" dy="5"/>
<feGaussianBlur stdDeviation="6.5"/>
<feComposite in2="hardAlpha" operator="out"/>
<feColorMatrix type="matrix" values="0 0 0 0 0 0 0 0 0 0 0 0 0 0 0 0 0 0 0.25 0"/>
<feBlend mode="normal" in2="BackgroundImageFix" result="effect1_dropShadow_1137_2712"/>
<feBlend mode="normal" in="SourceGraphic" in2="effect1_dropShadow_1137_2712" result="shape"/>
</filter>
<linearGradient id="paint0_linear_1137_2712" x1="170.259" y1="154.826" x2="328.569" y2="664.606" gradientUnits="userSpaceOnUse">
<stop stop-color="#FE6F27"/>
<stop offset="0.306772" stop-color="#00FDFF"/>
<stop offset="1" stop-color="#0F5D8A"/>
</linearGradient>
</defs>
</svg>
